{
    "asset" : {
        "generator" : "Khronos glTF Blender I/O v1.6.16",
        "version" : "2.0"
    },
    "scene" : 0,
    "scenes" : [
        {
            "name" : "Scene",
            "nodes" : [
                0
            ]
        }
    ],
    "nodes" : [
        {
            "mesh" : 0,
            "name" : "Cylinder.014",
            "rotation" : [
                -0.39320772886276245,
                -0.40905430912971497,
                0.7479850649833679,
                0.3443553149700165
            ],
            "scale" : [
                0.030785907059907913,
                0.027674617245793343,
                0.03615844249725342
            ],
            "translation" : [
                0.012799110263586044,
                0.5396237373352051,
                0.1277526319026947
            ]
        }
    ],
    "materials" : [
        {
            "doubleSided" : true,
            "name" : "Material",
            "pbrMetallicRoughness" : {
                "baseColorFactor" : [
                    0.5,
                    0.5,
                    0.5,
                    1
                ],
                "metallicFactor" : 0,
                "roughnessFactor" : 0.20000000298023224
            }
        }
    ],
    "meshes" : [
        {
            "name" : "Cylinder.011",
            "primitives" : [
                {
                    "attributes" : {
                        "POSITION" : 0,
                        "NORMAL" : 1,
                        "COLOR_0" : 2
                    },
                    "indices" : 3
                },
                {
                    "attributes" : {
                        "POSITION" : 4,
                        "NORMAL" : 5,
                        "COLOR_0" : 6
                    },
                    "indices" : 7,
                    "material" : 0
                }
            ]
        }
    ],
    "accessors" : [
        {
            "bufferView" : 0,
            "componentType" : 5126,
            "count" : 1024,
            "max" : [
                2.6420278549194336,
                1.8013527393341064,
                5.956469535827637
            ],
            "min" : [
                -6.535244941711426,
                -1.7585670948028564,
                -1
            ],
            "type" : "VEC3"
        },
        {
            "bufferView" : 1,
            "componentType" : 5126,
            "count" : 1024,
            "type" : "VEC3"
        },
        {
            "bufferView" : 2,
            "componentType" : 5123,
            "count" : 1024,
            "normalized" : true,
            "type" : "VEC4"
        },
        {
            "bufferView" : 3,
            "componentType" : 5123,
            "count" : 2256,
            "type" : "SCALAR"
        },
        {
            "bufferView" : 4,
            "componentType" : 5126,
            "count" : 6348,
            "max" : [
                12.937227249145508,
                34.84566879272461,
                11.560734748840332
            ],
            "min" : [
                -16.81433868408203,
                -3.5297393798828125,
                -11.263238906860352
            ],
            "type" : "VEC3"
        },
        {
            "bufferView" : 5,
            "componentType" : 5126,
            "count" : 6348,
            "type" : "VEC3"
        },
        {
            "bufferView" : 6,
            "componentType" : 5123,
            "count" : 6348,
            "normalized" : true,
            "type" : "VEC4"
        },
        {
            "bufferView" : 7,
            "componentType" : 5123,
            "count" : 36036,
            "type" : "SCALAR"
        }
    ],
    "bufferViews" : [
        {
            "buffer" : 0,
            "byteLength" : 12288,
            "byteOffset" : 0
        },
        {
            "buffer" : 0,
            "byteLength" : 12288,
            "byteOffset" : 12288
        },
        {
            "buffer" : 0,
            "byteLength" : 8192,
            "byteOffset" : 24576
        },
        {
            "buffer" : 0,
            "byteLength" : 4512,
            "byteOffset" : 32768
        },
        {
            "buffer" : 0,
            "byteLength" : 76176,
            "byteOffset" : 37280
        },
        {
            "buffer" : 0,
            "byteLength" : 76176,
            "byteOffset" : 113456
        },
        {
            "buffer" : 0,
            "byteLength" : 50784,
            "byteOffset" : 189632
        },
        {
            "buffer" : 0,
            "byteLength" : 72072,
            "byteOffset" : 240416
        }
    ],
    "buffers" : [
        {
            "byteLength" : 312488,
            "uri" : "data:application/octet-stream;base64,"
        }
    ]
}
