{
    "asset" : {
        "generator" : "Khronos glTF Blender I/O v1.6.16",
        "version" : "2.0"
    },
    "scene" : 0,
    "scenes" : [
        {
            "name" : "Scene",
            "nodes" : [
                0,
                1,
                2,
                3,
                4,
                5
            ]
        }
    ],
    "nodes" : [
        {
            "mesh" : 0,
            "name" : "Layer_1.001",
            "rotation" : [
                0.30382251739501953,
                -0.8566518425941467,
                -0.032875996083021164,
                -0.41564249992370605
            ],
            "scale" : [
                388.7989807128906,
                388.7989807128906,
                388.7989196777344
            ],
            "translation" : [
                10.020962715148926,
                -19.947751998901367,
                -5.66341495513916
            ]
        },
        {
            "mesh" : 1,
            "name" : "Cube.003",
            "rotation" : [
                0,
                -0.9439623951911926,
                0,
                -0.33005306124687195
            ],
            "scale" : [
                0.22352302074432373,
                0.22352300584316254,
                0.006175198592245579
            ],
            "translation" : [
                17.724769592285156,
                -10.306902885437012,
                -5.537674427032471
            ]
        },
        {
            "mesh" : 2,
            "name" : "Cylinder.003",
            "rotation" : [
                -0.028199609369039536,
                -0.011940965428948402,
                0.06217355653643608,
                0.9975954294204712
            ],
            "scale" : [
                0.06239530071616173,
                0.41596853733062744,
                0.06239530071616173
            ],
            "translation" : [
                10.38293170928955,
                -13.73097038269043,
                -45.5038948059082
            ]
        },
        {
            "mesh" : 3,
            "name" : "Cylinder",
            "rotation" : [
                -0.02672407776117325,
                -0.03548981249332428,
                0.06282202154397964,
                0.997035562992096
            ],
            "scale" : [
                0.37017154693603516,
                0.37017160654067993,
                0.37017154693603516
            ],
            "translation" : [
                9.499064445495605,
                -14.099187850952148,
                -46.091835021972656
            ]
        },
        {
            "mesh" : 4,
            "name" : "Cube.001",
            "rotation" : [
                0,
                -0.3310288190841675,
                0,
                0.9436206221580505
            ],
            "scale" : [
                0.22352302074432373,
                0.22352300584316254,
                0.006175198592245579
            ],
            "translation" : [
                18.17693328857422,
                -10.122325897216797,
                -23.379730224609375
            ]
        },
        {
            "mesh" : 5,
            "name" : "Cube.002",
            "rotation" : [
                0.053011760115623474,
                -0.9038501381874084,
                0.11641620844602585,
                0.40827926993370056
            ],
            "scale" : [
                0.22352302074432373,
                0.22352300584316254,
                0.006175198592245579
            ],
            "translation" : [
                -1.3457164764404297,
                -10.791523933410645,
                -15.887648582458496
            ]
        }
    ],
    "materials" : [
        {
            "doubleSided" : true,
            "name" : "Material.001",
            "pbrMetallicRoughness" : {
                "baseColorFactor" : [
                    0.5,
                    0.5,
                    0.5,
                    1
                ],
                "metallicFactor" : 0.20000000298023224,
                "roughnessFactor" : 0.30000001192092896
            }
        },
        {
            "doubleSided" : true,
            "name" : "Material.002",
            "pbrMetallicRoughness" : {
                "baseColorFactor" : [
                    0.5,
                    0.5,
                    0.5,
                    1
                ],
                "metallicFactor" : 0,
                "roughnessFactor" : 0.699999988079071
            }
        },
        {
            "doubleSided" : true,
            "name" : "Material.009",
            "pbrMetallicRoughness" : {
                "baseColorFactor" : [
                    0.5,
                    0.5,
                    0.5,
                    1
                ],
                "metallicFactor" : 0,
                "roughnessFactor" : 0.4000000059604645
            }
        }
    ],
    "meshes" : [
        {
            "name" : "Layer_1_mesh.001",
            "primitives" : [
                {
                    "attributes" : {
                        "POSITION" : 0,
                        "NORMAL" : 1,
                        "COLOR_0" : 2
                    },
                    "indices" : 3,
                    "material" : 0
                }
            ]
        },
        {
            "name" : "Cube.003",
            "primitives" : [
                {
                    "attributes" : {
                        "POSITION" : 4,
                        "NORMAL" : 5,
                        "TEXCOORD_0" : 6,
                        "COLOR_0" : 7
                    },
                    "indices" : 8
                }
            ]
        },
        {
            "name" : "Cylinder.003",
            "primitives" : [
                {
                    "attributes" : {
                        "POSITION" : 9,
                        "NORMAL" : 10,
                        "TEXCOORD_0" : 11,
                        "COLOR_0" : 12
                    },
                    "indices" : 13,
                    "material" : 1
                }
            ]
        },
        {
            "name" : "Cylinder.004",
            "primitives" : [
                {
                    "attributes" : {
                        "POSITION" : 14,
                        "NORMAL" : 15,
                        "TEXCOORD_0" : 16,
                        "COLOR_0" : 17
                    },
                    "indices" : 18,
                    "material" : 2
                }
            ]
        },
        {
            "name" : "Cube.001",
            "primitives" : [
                {
                    "attributes" : {
                        "POSITION" : 19,
                        "NORMAL" : 20,
                        "TEXCOORD_0" : 21,
                        "COLOR_0" : 22
                    },
                    "indices" : 8
                }
            ]
        },
        {
            "name" : "Cube.002",
            "primitives" : [
                {
                    "attributes" : {
                        "POSITION" : 23,
                        "NORMAL" : 24,
                        "TEXCOORD_0" : 25,
                        "COLOR_0" : 26
                    },
                    "indices" : 8
                }
            ]
        }
    ],
    "accessors" : [
        {
            "bufferView" : 0,
            "componentType" : 5126,
            "count" : 9682,
            "max" : [
                0.12403294444084167,
                0.08254508674144745,
                0.11955994367599487
            ],
            "min" : [
                -0.1109117940068245,
                -0.06000812351703644,
                -0.09779295325279236
            ],
            "type" : "VEC3"
        },
        {
            "bufferView" : 1,
            "componentType" : 5126,
            "count" : 9682,
            "type" : "VEC3"
        },
        {
            "bufferView" : 2,
            "componentType" : 5123,
            "count" : 9682,
            "normalized" : true,
            "type" : "VEC4"
        },
        {
            "bufferView" : 3,
            "componentType" : 5123,
            "count" : 58062,
            "type" : "SCALAR"
        },
        {
            "bufferView" : 4,
            "componentType" : 5126,
            "count" : 2572,
            "max" : [
                1,
                1.507179617881775,
                5.008609771728516
            ],
            "min" : [
                -1.167417287826538,
                -6.819056510925293,
                -5.008606433868408
            ],
            "type" : "VEC3"
        },
        {
            "bufferView" : 5,
            "componentType" : 5126,
            "count" : 2572,
            "type" : "VEC3"
        },
        {
            "bufferView" : 6,
            "componentType" : 5126,
            "count" : 2572,
            "type" : "VEC2"
        },
        {
            "bufferView" : 7,
            "componentType" : 5123,
            "count" : 2572,
            "normalized" : true,
            "type" : "VEC4"
        },
        {
            "bufferView" : 8,
            "componentType" : 5123,
            "count" : 5268,
            "type" : "SCALAR"
        },
        {
            "bufferView" : 9,
            "componentType" : 5126,
            "count" : 7569,
            "max" : [
                2.0833349227905273,
                1.1147228479385376,
                14.583333969116211
            ],
            "min" : [
                -31.25,
                -0.9999997615814209,
                -2.0833334922790527
            ],
            "type" : "VEC3"
        },
        {
            "bufferView" : 10,
            "componentType" : 5126,
            "count" : 7569,
            "type" : "VEC3"
        },
        {
            "bufferView" : 11,
            "componentType" : 5126,
            "count" : 7569,
            "type" : "VEC2"
        },
        {
            "bufferView" : 12,
            "componentType" : 5123,
            "count" : 7569,
            "normalized" : true,
            "type" : "VEC4"
        },
        {
            "bufferView" : 13,
            "componentType" : 5123,
            "count" : 17076,
            "type" : "SCALAR"
        },
        {
            "bufferView" : 14,
            "componentType" : 5126,
            "count" : 1422,
            "max" : [
                1,
                3.31542706489563,
                1
            ],
            "min" : [
                -1,
                -1.354407548904419,
                -1
            ],
            "type" : "VEC3"
        },
        {
            "bufferView" : 15,
            "componentType" : 5126,
            "count" : 1422,
            "type" : "VEC3"
        },
        {
            "bufferView" : 16,
            "componentType" : 5126,
            "count" : 1422,
            "type" : "VEC2"
        },
        {
            "bufferView" : 17,
            "componentType" : 5123,
            "count" : 1422,
            "normalized" : true,
            "type" : "VEC4"
        },
        {
            "bufferView" : 18,
            "componentType" : 5123,
            "count" : 2688,
            "type" : "SCALAR"
        },
        {
            "bufferView" : 19,
            "componentType" : 5126,
            "count" : 2572,
            "max" : [
                1,
                1.507179617881775,
                5.008609771728516
            ],
            "min" : [
                -1.167417287826538,
                -6.819056510925293,
                -5.008606433868408
            ],
            "type" : "VEC3"
        },
        {
            "bufferView" : 20,
            "componentType" : 5126,
            "count" : 2572,
            "type" : "VEC3"
        },
        {
            "bufferView" : 21,
            "componentType" : 5126,
            "count" : 2572,
            "type" : "VEC2"
        },
        {
            "bufferView" : 22,
            "componentType" : 5123,
            "count" : 2572,
            "normalized" : true,
            "type" : "VEC4"
        },
        {
            "bufferView" : 23,
            "componentType" : 5126,
            "count" : 2572,
            "max" : [
                1,
                1.507179617881775,
                5.008609771728516
            ],
            "min" : [
                -1.167417287826538,
                -6.819056510925293,
                -5.008606433868408
            ],
            "type" : "VEC3"
        },
        {
            "bufferView" : 24,
            "componentType" : 5126,
            "count" : 2572,
            "type" : "VEC3"
        },
        {
            "bufferView" : 25,
            "componentType" : 5126,
            "count" : 2572,
            "type" : "VEC2"
        },
        {
            "bufferView" : 26,
            "componentType" : 5123,
            "count" : 2572,
            "normalized" : true,
            "type" : "VEC4"
        }
    ],
    "bufferViews" : [
        {
            "buffer" : 0,
            "byteLength" : 116184,
            "byteOffset" : 0
        },
        {
            "buffer" : 0,
            "byteLength" : 116184,
            "byteOffset" : 116184
        },
        {
            "buffer" : 0,
            "byteLength" : 77456,
            "byteOffset" : 232368
        },
        {
            "buffer" : 0,
            "byteLength" : 116124,
            "byteOffset" : 309824
        },
        {
            "buffer" : 0,
            "byteLength" : 30864,
            "byteOffset" : 425948
        },
        {
            "buffer" : 0,
            "byteLength" : 30864,
            "byteOffset" : 456812
        },
        {
            "buffer" : 0,
            "byteLength" : 20576,
            "byteOffset" : 487676
        },
        {
            "buffer" : 0,
            "byteLength" : 20576,
            "byteOffset" : 508252
        },
        {
            "buffer" : 0,
            "byteLength" : 10536,
            "byteOffset" : 528828
        },
        {
            "buffer" : 0,
            "byteLength" : 90828,
            "byteOffset" : 539364
        },
        {
            "buffer" : 0,
            "byteLength" : 90828,
            "byteOffset" : 630192
        },
        {
            "buffer" : 0,
            "byteLength" : 60552,
            "byteOffset" : 721020
        },
        {
            "buffer" : 0,
            "byteLength" : 60552,
            "byteOffset" : 781572
        },
        {
            "buffer" : 0,
            "byteLength" : 34152,
            "byteOffset" : 842124
        },
        {
            "buffer" : 0,
            "byteLength" : 17064,
            "byteOffset" : 876276
        },
        {
            "buffer" : 0,
            "byteLength" : 17064,
            "byteOffset" : 893340
        },
        {
            "buffer" : 0,
            "byteLength" : 11376,
            "byteOffset" : 910404
        },
        {
            "buffer" : 0,
            "byteLength" : 11376,
            "byteOffset" : 921780
        },
        {
            "buffer" : 0,
            "byteLength" : 5376,
            "byteOffset" : 933156
        },
        {
            "buffer" : 0,
            "byteLength" : 30864,
            "byteOffset" : 938532
        },
        {
            "buffer" : 0,
            "byteLength" : 30864,
            "byteOffset" : 969396
        },
        {
            "buffer" : 0,
            "byteLength" : 20576,
            "byteOffset" : 1000260
        },
        {
            "buffer" : 0,
            "byteLength" : 20576,
            "byteOffset" : 1020836
        },
        {
            "buffer" : 0,
            "byteLength" : 30864,
            "byteOffset" : 1041412
        },
        {
            "buffer" : 0,
            "byteLength" : 30864,
            "byteOffset" : 1072276
        },
        {
            "buffer" : 0,
            "byteLength" : 20576,
            "byteOffset" : 1103140
        },
        {
            "buffer" : 0,
            "byteLength" : 20576,
            "byteOffset" : 1123716
        }
    ],
    "buffers" : [
        {
            "byteLength" : 1144292,
            "uri" : "data:application/octet-stream;base64,"
        }
    ]
}
