{
    "asset" : {
        "generator" : "Khronos glTF Blender I/O v1.6.16",
        "version" : "2.0"
    },
    "scene" : 0,
    "scenes" : [
        {
            "name" : "Scene",
            "nodes" : [
                0,
                1,
                2,
                3,
                4,
                5,
                6,
                7
            ]
        }
    ],
    "nodes" : [
        {
            "mesh" : 0,
            "name" : "Cylinder.001",
            "scale" : [
                0.34830474853515625,
                0.6894028186798096,
                0.34830474853515625
            ],
            "translation" : [
                1.4949102401733398,
                2.840846061706543,
                -0.0029193833470344543
            ]
        },
        {
            "mesh" : 1,
            "name" : "Cylinder.002",
            "rotation" : [
                0,
                0,
                -0.7071067690849304,
                0.7071068286895752
            ],
            "scale" : [
                0.8176931142807007,
                1.817407250404358,
                0.8176931142807007
            ],
            "translation" : [
                2.0496015548706055,
                1.7937003374099731,
                -0.0029193833470344543
            ]
        },
        {
            "mesh" : 2,
            "name" : "Cube",
            "scale" : [
                1.2113356590270996,
                0.6419162154197693,
                0.8231723308563232
            ],
            "translation" : [
                -0.6964473724365234,
                1.6290398836135864,
                -0.0029193833470344543
            ]
        },
        {
            "mesh" : 3,
            "name" : "Cylinder.004",
            "rotation" : [
                -0.5,
                0.5,
                -0.4999999701976776,
                0.5
            ],
            "scale" : [
                0.4194774329662323,
                0.06791118532419205,
                0.4194774329662323
            ],
            "translation" : [
                -0.7005186080932617,
                2.2720460891723633,
                0.7405334711074829
            ]
        },
        {
            "mesh" : 4,
            "name" : "Cube.001",
            "scale" : [
                1.3061339855194092,
                0.1579527109861374,
                1.301806092262268
            ],
            "translation" : [
                -3.2389464378356934,
                1.1518217325210571,
                -0.0029193833470344543
            ]
        },
        {
            "mesh" : 5,
            "name" : "Cube.002",
            "scale" : [
                3.9432296752929688,
                0.17541064321994781,
                0.8270584940910339
            ],
            "translation" : [
                -0.020836830139160156,
                0.7753579616546631,
                -0.0029193833470344543
            ]
        },
        {
            "mesh" : 6,
            "name" : "Sphere.001",
            "scale" : [
                0.1147320419549942,
                0.1147320419549942,
                0.1147320419549942
            ],
            "translation" : [
                -6.2281060218811035,
                0.7823584079742432,
                -0.41766905784606934
            ]
        },
        {
            "mesh" : 7,
            "name" : "Cylinder.012",
            "rotation" : [
                0.5,
                0.4999999701976776,
                -0.4999999701976776,
                -0.5
            ],
            "scale" : [
                0.7364473342895508,
                0.13476334512233734,
                0.7364473342895508
            ],
            "translation" : [
                -5.362039089202881,
                0.7403544187545776,
                -0.981398344039917
            ]
        }
    ],
    "materials" : [
        {
            "doubleSided" : true,
            "name" : "Material.001",
            "pbrMetallicRoughness" : {
                "baseColorFactor" : [
                    0.5,
                    0.5,
                    0.5,
                    1
                ],
                "metallicFactor" : 0.6000000238418579,
                "roughnessFactor" : 0.20000000298023224
            }
        }
    ],
    "meshes" : [
        {
            "name" : "Cylinder.001",
            "primitives" : [
                {
                    "attributes" : {
                        "POSITION" : 0,
                        "NORMAL" : 1,
                        "TEXCOORD_0" : 2,
                        "COLOR_0" : 3
                    },
                    "indices" : 4,
                    "material" : 0
                }
            ]
        },
        {
            "name" : "Cylinder.002",
            "primitives" : [
                {
                    "attributes" : {
                        "POSITION" : 5,
                        "NORMAL" : 6,
                        "TEXCOORD_0" : 7,
                        "COLOR_0" : 8
                    },
                    "indices" : 9,
                    "material" : 0
                }
            ]
        },
        {
            "name" : "Cube.001",
            "primitives" : [
                {
                    "attributes" : {
                        "POSITION" : 10,
                        "NORMAL" : 11,
                        "TEXCOORD_0" : 12,
                        "COLOR_0" : 13
                    },
                    "indices" : 14,
                    "material" : 0
                }
            ]
        },
        {
            "name" : "Cylinder.004",
            "primitives" : [
                {
                    "attributes" : {
                        "POSITION" : 15,
                        "NORMAL" : 16,
                        "TEXCOORD_0" : 17,
                        "COLOR_0" : 18
                    },
                    "indices" : 19
                }
            ]
        },
        {
            "name" : "Cube.002",
            "primitives" : [
                {
                    "attributes" : {
                        "POSITION" : 20,
                        "NORMAL" : 21,
                        "TEXCOORD_0" : 22,
                        "COLOR_0" : 23
                    },
                    "indices" : 24,
                    "material" : 0
                }
            ]
        },
        {
            "name" : "Cube.003",
            "primitives" : [
                {
                    "attributes" : {
                        "POSITION" : 25,
                        "NORMAL" : 26,
                        "TEXCOORD_0" : 27,
                        "COLOR_0" : 28
                    },
                    "indices" : 29,
                    "material" : 0
                }
            ]
        },
        {
            "name" : "Sphere.001",
            "primitives" : [
                {
                    "attributes" : {
                        "POSITION" : 30,
                        "NORMAL" : 31,
                        "TEXCOORD_0" : 32,
                        "COLOR_0" : 33
                    },
                    "indices" : 34,
                    "material" : 0
                }
            ]
        },
        {
            "name" : "Cylinder.019",
            "primitives" : [
                {
                    "attributes" : {
                        "POSITION" : 35,
                        "NORMAL" : 36,
                        "TEXCOORD_0" : 37,
                        "COLOR_0" : 38
                    },
                    "indices" : 39,
                    "material" : 0
                }
            ]
        }
    ],
    "accessors" : [
        {
            "bufferView" : 0,
            "componentType" : 5126,
            "count" : 1590,
            "max" : [
                5.465628147125244,
                2.019098997116089,
                1.631613850593567
            ],
            "min" : [
                -1.0955561399459839,
                -1,
                -1.631613850593567
            ],
            "type" : "VEC3"
        },
        {
            "bufferView" : 1,
            "componentType" : 5126,
            "count" : 1590,
            "type" : "VEC3"
        },
        {
            "bufferView" : 2,
            "componentType" : 5126,
            "count" : 1590,
            "type" : "VEC2"
        },
        {
            "bufferView" : 3,
            "componentType" : 5123,
            "count" : 1590,
            "normalized" : true,
            "type" : "VEC4"
        },
        {
            "bufferView" : 4,
            "componentType" : 5123,
            "count" : 2664,
            "type" : "SCALAR"
        },
        {
            "bufferView" : 5,
            "componentType" : 5126,
            "count" : 418,
            "max" : [
                1,
                1,
                1
            ],
            "min" : [
                -1,
                -1,
                -1
            ],
            "type" : "VEC3"
        },
        {
            "bufferView" : 6,
            "componentType" : 5126,
            "count" : 418,
            "type" : "VEC3"
        },
        {
            "bufferView" : 7,
            "componentType" : 5126,
            "count" : 418,
            "type" : "VEC2"
        },
        {
            "bufferView" : 8,
            "componentType" : 5123,
            "count" : 418,
            "normalized" : true,
            "type" : "VEC4"
        },
        {
            "bufferView" : 9,
            "componentType" : 5123,
            "count" : 756,
            "type" : "SCALAR"
        },
        {
            "bufferView" : 10,
            "componentType" : 5126,
            "count" : 252,
            "max" : [
                1.0520793199539185,
                3.5667622089385986,
                1.1041587591171265
            ],
            "min" : [
                -1.0000003576278687,
                -1,
                -1.1041587591171265
            ],
            "type" : "VEC3"
        },
        {
            "bufferView" : 11,
            "componentType" : 5126,
            "count" : 252,
            "type" : "VEC3"
        },
        {
            "bufferView" : 12,
            "componentType" : 5126,
            "count" : 252,
            "type" : "VEC2"
        },
        {
            "bufferView" : 13,
            "componentType" : 5123,
            "count" : 252,
            "normalized" : true,
            "type" : "VEC4"
        },
        {
            "bufferView" : 14,
            "componentType" : 5123,
            "count" : 456,
            "type" : "SCALAR"
        },
        {
            "bufferView" : 15,
            "componentType" : 5126,
            "count" : 384,
            "max" : [
                1,
                22.887630462646484,
                1.0000001192092896
            ],
            "min" : [
                -1.0000001192092896,
                -1,
                -1
            ],
            "type" : "VEC3"
        },
        {
            "bufferView" : 16,
            "componentType" : 5126,
            "count" : 384,
            "type" : "VEC3"
        },
        {
            "bufferView" : 17,
            "componentType" : 5126,
            "count" : 384,
            "type" : "VEC2"
        },
        {
            "bufferView" : 18,
            "componentType" : 5123,
            "count" : 384,
            "normalized" : true,
            "type" : "VEC4"
        },
        {
            "bufferView" : 19,
            "componentType" : 5123,
            "count" : 744,
            "type" : "SCALAR"
        },
        {
            "bufferView" : 20,
            "componentType" : 5126,
            "count" : 24,
            "max" : [
                1,
                1,
                1
            ],
            "min" : [
                -1,
                -1,
                -1
            ],
            "type" : "VEC3"
        },
        {
            "bufferView" : 21,
            "componentType" : 5126,
            "count" : 24,
            "type" : "VEC3"
        },
        {
            "bufferView" : 22,
            "componentType" : 5126,
            "count" : 24,
            "type" : "VEC2"
        },
        {
            "bufferView" : 23,
            "componentType" : 5123,
            "count" : 24,
            "normalized" : true,
            "type" : "VEC4"
        },
        {
            "bufferView" : 24,
            "componentType" : 5123,
            "count" : 36,
            "type" : "SCALAR"
        },
        {
            "bufferView" : 25,
            "componentType" : 5126,
            "count" : 1761,
            "max" : [
                1.0650959014892578,
                1.1539615392684937,
                1.1539615392684937
            ],
            "min" : [
                -1.565414547920227,
                -1.1539615392684937,
                -1.1539615392684937
            ],
            "type" : "VEC3"
        },
        {
            "bufferView" : 26,
            "componentType" : 5126,
            "count" : 1761,
            "type" : "VEC3"
        },
        {
            "bufferView" : 27,
            "componentType" : 5126,
            "count" : 1761,
            "type" : "VEC2"
        },
        {
            "bufferView" : 28,
            "componentType" : 5123,
            "count" : 1761,
            "normalized" : true,
            "type" : "VEC4"
        },
        {
            "bufferView" : 29,
            "componentType" : 5123,
            "count" : 4728,
            "type" : "SCALAR"
        },
        {
            "bufferView" : 30,
            "componentType" : 5126,
            "count" : 1984,
            "max" : [
                0.9999997019767761,
                1,
                0.9999994039535522
            ],
            "min" : [
                -0.9999990463256836,
                -1,
                -0.9999987483024597
            ],
            "type" : "VEC3"
        },
        {
            "bufferView" : 31,
            "componentType" : 5126,
            "count" : 1984,
            "type" : "VEC3"
        },
        {
            "bufferView" : 32,
            "componentType" : 5126,
            "count" : 1984,
            "type" : "VEC2"
        },
        {
            "bufferView" : 33,
            "componentType" : 5123,
            "count" : 1984,
            "normalized" : true,
            "type" : "VEC4"
        },
        {
            "bufferView" : 34,
            "componentType" : 5123,
            "count" : 2880,
            "type" : "SCALAR"
        },
        {
            "bufferView" : 35,
            "componentType" : 5126,
            "count" : 5384,
            "max" : [
                1.0000008344650269,
                1,
                1
            ],
            "min" : [
                -1.0000001192092896,
                -15.505125045776367,
                -12.445907592773438
            ],
            "type" : "VEC3"
        },
        {
            "bufferView" : 36,
            "componentType" : 5126,
            "count" : 5384,
            "type" : "VEC3"
        },
        {
            "bufferView" : 37,
            "componentType" : 5126,
            "count" : 5384,
            "type" : "VEC2"
        },
        {
            "bufferView" : 38,
            "componentType" : 5123,
            "count" : 5384,
            "normalized" : true,
            "type" : "VEC4"
        },
        {
            "bufferView" : 39,
            "componentType" : 5123,
            "count" : 9120,
            "type" : "SCALAR"
        }
    ],
    "bufferViews" : [
        {
            "buffer" : 0,
            "byteLength" : 19080,
            "byteOffset" : 0
        },
        {
            "buffer" : 0,
            "byteLength" : 19080,
            "byteOffset" : 19080
        },
        {
            "buffer" : 0,
            "byteLength" : 12720,
            "byteOffset" : 38160
        },
        {
            "buffer" : 0,
            "byteLength" : 12720,
            "byteOffset" : 50880
        },
        {
            "buffer" : 0,
            "byteLength" : 5328,
            "byteOffset" : 63600
        },
        {
            "buffer" : 0,
            "byteLength" : 5016,
            "byteOffset" : 68928
        },
        {
            "buffer" : 0,
            "byteLength" : 5016,
            "byteOffset" : 73944
        },
        {
            "buffer" : 0,
            "byteLength" : 3344,
            "byteOffset" : 78960
        },
        {
            "buffer" : 0,
            "byteLength" : 3344,
            "byteOffset" : 82304
        },
        {
            "buffer" : 0,
            "byteLength" : 1512,
            "byteOffset" : 85648
        },
        {
            "buffer" : 0,
            "byteLength" : 3024,
            "byteOffset" : 87160
        },
        {
            "buffer" : 0,
            "byteLength" : 3024,
            "byteOffset" : 90184
        },
        {
            "buffer" : 0,
            "byteLength" : 2016,
            "byteOffset" : 93208
        },
        {
            "buffer" : 0,
            "byteLength" : 2016,
            "byteOffset" : 95224
        },
        {
            "buffer" : 0,
            "byteLength" : 912,
            "byteOffset" : 97240
        },
        {
            "buffer" : 0,
            "byteLength" : 4608,
            "byteOffset" : 98152
        },
        {
            "buffer" : 0,
            "byteLength" : 4608,
            "byteOffset" : 102760
        },
        {
            "buffer" : 0,
            "byteLength" : 3072,
            "byteOffset" : 107368
        },
        {
            "buffer" : 0,
            "byteLength" : 3072,
            "byteOffset" : 110440
        },
        {
            "buffer" : 0,
            "byteLength" : 1488,
            "byteOffset" : 113512
        },
        {
            "buffer" : 0,
            "byteLength" : 288,
            "byteOffset" : 115000
        },
        {
            "buffer" : 0,
            "byteLength" : 288,
            "byteOffset" : 115288
        },
        {
            "buffer" : 0,
            "byteLength" : 192,
            "byteOffset" : 115576
        },
        {
            "buffer" : 0,
            "byteLength" : 192,
            "byteOffset" : 115768
        },
        {
            "buffer" : 0,
            "byteLength" : 72,
            "byteOffset" : 115960
        },
        {
            "buffer" : 0,
            "byteLength" : 21132,
            "byteOffset" : 116032
        },
        {
            "buffer" : 0,
            "byteLength" : 21132,
            "byteOffset" : 137164
        },
        {
            "buffer" : 0,
            "byteLength" : 14088,
            "byteOffset" : 158296
        },
        {
            "buffer" : 0,
            "byteLength" : 14088,
            "byteOffset" : 172384
        },
        {
            "buffer" : 0,
            "byteLength" : 9456,
            "byteOffset" : 186472
        },
        {
            "buffer" : 0,
            "byteLength" : 23808,
            "byteOffset" : 195928
        },
        {
            "buffer" : 0,
            "byteLength" : 23808,
            "byteOffset" : 219736
        },
        {
            "buffer" : 0,
            "byteLength" : 15872,
            "byteOffset" : 243544
        },
        {
            "buffer" : 0,
            "byteLength" : 15872,
            "byteOffset" : 259416
        },
        {
            "buffer" : 0,
            "byteLength" : 5760,
            "byteOffset" : 275288
        },
        {
            "buffer" : 0,
            "byteLength" : 64608,
            "byteOffset" : 281048
        },
        {
            "buffer" : 0,
            "byteLength" : 64608,
            "byteOffset" : 345656
        },
        {
            "buffer" : 0,
            "byteLength" : 43072,
            "byteOffset" : 410264
        },
        {
            "buffer" : 0,
            "byteLength" : 43072,
            "byteOffset" : 453336
        },
        {
            "buffer" : 0,
            "byteLength" : 18240,
            "byteOffset" : 496408
        }
    ],
    "buffers" : [
        {
            "byteLength" : 514648,
            "uri" : "data:application/octet-stream;base64,"
        }
    ]
}
