{
    "asset" : {
        "generator" : "Khronos glTF Blender I/O v1.6.16",
        "version" : "2.0"
    },
    "scene" : 0,
    "scenes" : [
        {
            "name" : "Scene",
            "nodes" : [
                0
            ]
        }
    ],
    "nodes" : [
        {
            "mesh" : 0,
            "name" : "Tree",
            "rotation" : [
                -0.005791112780570984,
                -0.9872134327888489,
                -0.03689176216721535,
                0.15496814250946045
            ],
            "scale" : [
                15.16008186340332,
                15.160080909729004,
                15.160082817077637
            ],
            "translation" : [
                0.9705947637557983,
                1.8216898441314697,
                -0.25970232486724854
            ]
        }
    ],
    "materials" : [
        {
            "doubleSided" : true,
            "name" : "Material.002",
            "pbrMetallicRoughness" : {
                "baseColorFactor" : [
                    0.5,
                    0.5,
                    0.5,
                    1
                ],
                "metallicFactor" : 0,
                "roughnessFactor" : 0.30000001192092896
            }
        }
    ],
    "meshes" : [
        {
            "name" : "Tree",
            "primitives" : [
                {
                    "attributes" : {
                        "POSITION" : 0,
                        "NORMAL" : 1,
                        "COLOR_0" : 2
                    },
                    "indices" : 3,
                    "material" : 0
                }
            ]
        }
    ],
    "accessors" : [
        {
            "bufferView" : 0,
            "componentType" : 5126,
            "count" : 2314,
            "max" : [
                0.08052957057952881,
                0.10099469870328903,
                0.1323123276233673
            ],
            "min" : [
                -0.08517090976238251,
                -0.15677015483379364,
                -0.10134685784578323
            ],
            "type" : "VEC3"
        },
        {
            "bufferView" : 1,
            "componentType" : 5126,
            "count" : 2314,
            "type" : "VEC3"
        },
        {
            "bufferView" : 2,
            "componentType" : 5123,
            "count" : 2314,
            "normalized" : true,
            "type" : "VEC4"
        },
        {
            "bufferView" : 3,
            "componentType" : 5123,
            "count" : 13866,
            "type" : "SCALAR"
        }
    ],
    "bufferViews" : [
        {
            "buffer" : 0,
            "byteLength" : 27768,
            "byteOffset" : 0
        },
        {
            "buffer" : 0,
            "byteLength" : 27768,
            "byteOffset" : 27768
        },
        {
            "buffer" : 0,
            "byteLength" : 18512,
            "byteOffset" : 55536
        },
        {
            "buffer" : 0,
            "byteLength" : 27732,
            "byteOffset" : 74048
        }
    ],
    "buffers" : [
        {
            "byteLength" : 101780,
            "uri" : "data:application/octet-stream;base64,"
        }
    ]
}
