{
    "asset" : {
        "generator" : "Khronos glTF Blender I/O v1.6.16",
        "version" : "2.0"
    },
    "scene" : 0,
    "scenes" : [
        {
            "name" : "Scene",
            "nodes" : [
                0
            ]
        }
    ],
    "nodes" : [
        {
            "mesh" : 0,
            "name" : "Layer_1"
        }
    ],
    "materials" : [
        {
            "doubleSided" : true,
            "name" : "Material.001",
            "pbrMetallicRoughness" : {
                "baseColorFactor" : [
                    0.5,
                    0.5,
                    0.5,
                    1
                ],
                "metallicFactor" : 0,
                "roughnessFactor" : 0.6000000238418579
            }
        }
    ],
    "meshes" : [
        {
            "name" : "Layer_1_mesh",
            "primitives" : [
                {
                    "attributes" : {
                        "POSITION" : 0,
                        "NORMAL" : 1,
                        "COLOR_0" : 2
                    },
                    "indices" : 3,
                    "material" : 0
                }
            ]
        }
    ],
    "accessors" : [
        {
            "bufferView" : 0,
            "componentType" : 5126,
            "count" : 4729,
            "max" : [
                0.2674304246902466,
                0.25139403343200684,
                0.27631762623786926
            ],
            "min" : [
                -0.2762254476547241,
                -0.03942209482192993,
                -0.2990395724773407
            ],
            "type" : "VEC3"
        },
        {
            "bufferView" : 1,
            "componentType" : 5126,
            "count" : 4729,
            "type" : "VEC3"
        },
        {
            "bufferView" : 2,
            "componentType" : 5123,
            "count" : 4729,
            "normalized" : true,
            "type" : "VEC4"
        },
        {
            "bufferView" : 3,
            "componentType" : 5123,
            "count" : 28362,
            "type" : "SCALAR"
        }
    ],
    "bufferViews" : [
        {
            "buffer" : 0,
            "byteLength" : 56748,
            "byteOffset" : 0
        },
        {
            "buffer" : 0,
            "byteLength" : 56748,
            "byteOffset" : 56748
        },
        {
            "buffer" : 0,
            "byteLength" : 37832,
            "byteOffset" : 113496
        },
        {
            "buffer" : 0,
            "byteLength" : 56724,
            "byteOffset" : 151328
        }
    ],
    "buffers" : [
        {
            "byteLength" : 208052,
            "uri" : "data:application/octet-stream;base64,"
        }
    ]
}
