{
    "asset" : {
        "generator" : "Khronos glTF Blender I/O v1.6.16",
        "version" : "2.0"
    },
    "scene" : 0,
    "scenes" : [
        {
            "name" : "Scene",
            "nodes" : [
                0,
                1,
                2
            ]
        }
    ],
    "nodes" : [
        {
            "mesh" : 0,
            "name" : "Plain_Bottles",
            "rotation" : [
                0,
                0.7697086930274963,
                0,
                0.6383953094482422
            ],
            "translation" : [
                -0.48546114563941956,
                0.03047674149274826,
                -0.6951522827148438
            ]
        },
        {
            "mesh" : 1,
            "name" : "Plain_Cans",
            "rotation" : [
                0,
                0.7697086930274963,
                0,
                0.6383953094482422
            ],
            "translation" : [
                -0.47990909218788147,
                -0.01686365157365799,
                -0.49086639285087585
            ]
        },
        {
            "mesh" : 2,
            "name" : "Plain_Cartons",
            "rotation" : [
                0,
                0.7697086930274963,
                0,
                0.6383953094482422
            ],
            "translation" : [
                -0.0382058322429657,
                -0.00405008252710104,
                -1.0561320781707764
            ]
        }
    ],
    "materials" : [
        {
            "doubleSided" : true,
            "name" : "Material",
            "pbrMetallicRoughness" : {
                "baseColorFactor" : [
                    0.5,
                    0.5,
                    0.5,
                    1
                ],
                "metallicFactor" : 0.20000000298023224,
                "roughnessFactor" : 0.10000000149011612
            }
        },
        {
            "doubleSided" : true,
            "name" : "Material.003",
            "pbrMetallicRoughness" : {
                "baseColorFactor" : [
                    0.5,
                    0.5,
                    0.5,
                    1
                ],
                "metallicFactor" : 0.699999988079071,
                "roughnessFactor" : 0.10000000149011612
            }
        },
        {
            "doubleSided" : true,
            "name" : "Material.002",
            "pbrMetallicRoughness" : {
                "baseColorFactor" : [
                    0.5,
                    0.5,
                    0.5,
                    1
                ],
                "metallicFactor" : 0,
                "roughnessFactor" : 0.4000000059604645
            }
        }
    ],
    "meshes" : [
        {
            "name" : "Plain_Bottles.001",
            "primitives" : [
                {
                    "attributes" : {
                        "POSITION" : 0,
                        "NORMAL" : 1,
                        "TEXCOORD_0" : 2,
                        "COLOR_0" : 3
                    },
                    "indices" : 4,
                    "material" : 0
                }
            ]
        },
        {
            "name" : "Plain_Cans",
            "primitives" : [
                {
                    "attributes" : {
                        "POSITION" : 5,
                        "NORMAL" : 6,
                        "TEXCOORD_0" : 7,
                        "COLOR_0" : 8
                    },
                    "indices" : 9,
                    "material" : 1
                }
            ]
        },
        {
            "name" : "Plain_Cartons",
            "primitives" : [
                {
                    "attributes" : {
                        "POSITION" : 10,
                        "NORMAL" : 11,
                        "TEXCOORD_0" : 12,
                        "COLOR_0" : 13
                    },
                    "indices" : 14,
                    "material" : 2
                }
            ]
        }
    ],
    "accessors" : [
        {
            "bufferView" : 0,
            "componentType" : 5126,
            "count" : 3472,
            "max" : [
                0.1544351577758789,
                0.3084678649902344,
                5.561554908752441
            ],
            "min" : [
                -0.19134950637817383,
                -0.11802291870117188,
                -3.088998794555664
            ],
            "type" : "VEC3"
        },
        {
            "bufferView" : 1,
            "componentType" : 5126,
            "count" : 3472,
            "type" : "VEC3"
        },
        {
            "bufferView" : 2,
            "componentType" : 5126,
            "count" : 3472,
            "type" : "VEC2"
        },
        {
            "bufferView" : 3,
            "componentType" : 5123,
            "count" : 3472,
            "normalized" : true,
            "type" : "VEC4"
        },
        {
            "bufferView" : 4,
            "componentType" : 5123,
            "count" : 18384,
            "type" : "SCALAR"
        },
        {
            "bufferView" : 5,
            "componentType" : 5126,
            "count" : 783,
            "max" : [
                0.32034778594970703,
                0.12494277954101562,
                2.8277077674865723
            ],
            "min" : [
                -0.46068429946899414,
                -0.06964111328125,
                -1.6456518173217773
            ],
            "type" : "VEC3"
        },
        {
            "bufferView" : 6,
            "componentType" : 5126,
            "count" : 783,
            "type" : "VEC3"
        },
        {
            "bufferView" : 7,
            "componentType" : 5126,
            "count" : 783,
            "type" : "VEC2"
        },
        {
            "bufferView" : 8,
            "componentType" : 5123,
            "count" : 783,
            "normalized" : true,
            "type" : "VEC4"
        },
        {
            "bufferView" : 9,
            "componentType" : 5123,
            "count" : 3456,
            "type" : "SCALAR"
        },
        {
            "bufferView" : 10,
            "componentType" : 5126,
            "count" : 288,
            "max" : [
                0.48777103424072266,
                0.241655632853508,
                3.8908612728118896
            ],
            "min" : [
                -0.7982959747314453,
                -0.08462142944335938,
                -2.6395468711853027
            ],
            "type" : "VEC3"
        },
        {
            "bufferView" : 11,
            "componentType" : 5126,
            "count" : 288,
            "type" : "VEC3"
        },
        {
            "bufferView" : 12,
            "componentType" : 5126,
            "count" : 288,
            "type" : "VEC2"
        },
        {
            "bufferView" : 13,
            "componentType" : 5123,
            "count" : 288,
            "normalized" : true,
            "type" : "VEC4"
        },
        {
            "bufferView" : 14,
            "componentType" : 5123,
            "count" : 504,
            "type" : "SCALAR"
        }
    ],
    "bufferViews" : [
        {
            "buffer" : 0,
            "byteLength" : 41664,
            "byteOffset" : 0
        },
        {
            "buffer" : 0,
            "byteLength" : 41664,
            "byteOffset" : 41664
        },
        {
            "buffer" : 0,
            "byteLength" : 27776,
            "byteOffset" : 83328
        },
        {
            "buffer" : 0,
            "byteLength" : 27776,
            "byteOffset" : 111104
        },
        {
            "buffer" : 0,
            "byteLength" : 36768,
            "byteOffset" : 138880
        },
        {
            "buffer" : 0,
            "byteLength" : 9396,
            "byteOffset" : 175648
        },
        {
            "buffer" : 0,
            "byteLength" : 9396,
            "byteOffset" : 185044
        },
        {
            "buffer" : 0,
            "byteLength" : 6264,
            "byteOffset" : 194440
        },
        {
            "buffer" : 0,
            "byteLength" : 6264,
            "byteOffset" : 200704
        },
        {
            "buffer" : 0,
            "byteLength" : 6912,
            "byteOffset" : 206968
        },
        {
            "buffer" : 0,
            "byteLength" : 3456,
            "byteOffset" : 213880
        },
        {
            "buffer" : 0,
            "byteLength" : 3456,
            "byteOffset" : 217336
        },
        {
            "buffer" : 0,
            "byteLength" : 2304,
            "byteOffset" : 220792
        },
        {
            "buffer" : 0,
            "byteLength" : 2304,
            "byteOffset" : 223096
        },
        {
            "buffer" : 0,
            "byteLength" : 1008,
            "byteOffset" : 225400
        }
    ],
    "buffers" : [
        {
            "byteLength" : 226408,
            "uri" : "data:application/octet-stream;base64,"
        }
    ]
}
