{
    "asset" : {
        "generator" : "Khronos glTF Blender I/O v1.6.16",
        "version" : "2.0"
    },
    "scene" : 0,
    "scenes" : [
        {
            "name" : "Scene",
            "nodes" : [
                0
            ]
        }
    ],
    "nodes" : [
        {
            "mesh" : 0,
            "name" : "Layer_1",
            "rotation" : [
                -0.02520124614238739,
                0.01372227631509304,
                0.04699119180440903,
                0.9984830617904663
            ],
            "scale" : [
                721.1876220703125,
                721.1874389648438,
                721.1874389648438
            ],
            "translation" : [
                -0.893956184387207,
                -20.638442993164062,
                -6.514647483825684
            ]
        }
    ],
    "materials" : [
        {
            "doubleSided" : true,
            "name" : "Material.001",
            "pbrMetallicRoughness" : {
                "baseColorFactor" : [
                    0.5,
                    0.5,
                    0.5,
                    1
                ],
                "metallicFactor" : 0,
                "roughnessFactor" : 0.30000001192092896
            }
        }
    ],
    "meshes" : [
        {
            "name" : "Layer_1_mesh",
            "primitives" : [
                {
                    "attributes" : {
                        "POSITION" : 0,
                        "NORMAL" : 1,
                        "COLOR_0" : 2
                    },
                    "indices" : 3,
                    "material" : 0
                }
            ]
        }
    ],
    "accessors" : [
        {
            "bufferView" : 0,
            "componentType" : 5126,
            "count" : 10807,
            "max" : [
                0.03570004552602768,
                0.04098502919077873,
                0.033992379903793335
            ],
            "min" : [
                -0.035329513251781464,
                -0.03772975131869316,
                -0.033448539674282074
            ],
            "type" : "VEC3"
        },
        {
            "bufferView" : 1,
            "componentType" : 5126,
            "count" : 10807,
            "type" : "VEC3"
        },
        {
            "bufferView" : 2,
            "componentType" : 5123,
            "count" : 10807,
            "normalized" : true,
            "type" : "VEC4"
        },
        {
            "bufferView" : 3,
            "componentType" : 5123,
            "count" : 64830,
            "type" : "SCALAR"
        }
    ],
    "bufferViews" : [
        {
            "buffer" : 0,
            "byteLength" : 129684,
            "byteOffset" : 0
        },
        {
            "buffer" : 0,
            "byteLength" : 129684,
            "byteOffset" : 129684
        },
        {
            "buffer" : 0,
            "byteLength" : 86456,
            "byteOffset" : 259368
        },
        {
            "buffer" : 0,
            "byteLength" : 129660,
            "byteOffset" : 345824
        }
    ],
    "buffers" : [
        {
            "byteLength" : 475484,
            "uri" : "data:application/octet-stream;base64,"
        }
    ]
}
