{
    "asset" : {
        "generator" : "Khronos glTF Blender I/O v1.6.16",
        "version" : "2.0"
    },
    "scene" : 0,
    "scenes" : [
        {
            "name" : "Scene",
            "nodes" : [
                0
            ]
        }
    ],
    "nodes" : [
        {
            "mesh" : 0,
            "name" : "Ticket",
            "scale" : [
                0.15480339527130127,
                0.15480339527130127,
                0.15480339527130127
            ],
            "translation" : [
                -0.16511735320091248,
                0.1560967117547989,
                0
            ]
        }
    ],
    "materials" : [
        {
            "doubleSided" : true,
            "name" : "Ticket",
            "pbrMetallicRoughness" : {
                "baseColorFactor" : [
                    0.5,
                    0.5,
                    0.5,
                    1
                ],
                "metallicFactor" : 0,
                "roughnessFactor" : 0.20000000298023224
            }
        }
    ],
    "meshes" : [
        {
            "name" : "Ticket",
            "primitives" : [
                {
                    "attributes" : {
                        "POSITION" : 0,
                        "NORMAL" : 1,
                        "TEXCOORD_0" : 2,
                        "COLOR_0" : 3
                    },
                    "indices" : 4,
                    "material" : 0
                }
            ]
        }
    ],
    "accessors" : [
        {
            "bufferView" : 0,
            "componentType" : 5126,
            "count" : 57373,
            "max" : [
                3.0161495208740234,
                1,
                0.051230959594249725
            ],
            "min" : [
                -1,
                -1,
                -0.03451508283615112
            ],
            "type" : "VEC3"
        },
        {
            "bufferView" : 1,
            "componentType" : 5126,
            "count" : 57373,
            "type" : "VEC3"
        },
        {
            "bufferView" : 2,
            "componentType" : 5126,
            "count" : 57373,
            "type" : "VEC2"
        },
        {
            "bufferView" : 3,
            "componentType" : 5123,
            "count" : 57373,
            "normalized" : true,
            "type" : "VEC4"
        },
        {
            "bufferView" : 4,
            "componentType" : 5123,
            "count" : 98412,
            "type" : "SCALAR"
        }
    ],
    "bufferViews" : [
        {
            "buffer" : 0,
            "byteLength" : 688476,
            "byteOffset" : 0
        },
        {
            "buffer" : 0,
            "byteLength" : 688476,
            "byteOffset" : 688476
        },
        {
            "buffer" : 0,
            "byteLength" : 458984,
            "byteOffset" : 1376952
        },
        {
            "buffer" : 0,
            "byteLength" : 458984,
            "byteOffset" : 1835936
        },
        {
            "buffer" : 0,
            "byteLength" : 196824,
            "byteOffset" : 2294920
        }
    ],
    "buffers" : [
        {
            "byteLength" : 2491744,
            "uri" : "data:application/octet-stream;base64,"
        }
    ]
}
