{
    "asset" : {
        "generator" : "Khronos glTF Blender I/O v1.6.16",
        "version" : "2.0"
    },
    "scene" : 0,
    "scenes" : [
        {
            "name" : "Scene",
            "nodes" : [
                0
            ]
        }
    ],
    "nodes" : [
        {
            "mesh" : 0,
            "name" : "Layer_1.001",
            "rotation" : [
                0.039134640246629715,
                -0.5101548433303833,
                0.012870440259575844,
                0.8590953946113586
            ],
            "scale" : [
                366.6731262207031,
                366.6731262207031,
                366.67315673828125
            ],
            "translation" : [
                -1.1566534042358398,
                2.0307199954986572,
                8.337854385375977
            ]
        }
    ],
    "materials" : [
        {
            "doubleSided" : true,
            "name" : "Material.001",
            "pbrMetallicRoughness" : {
                "baseColorFactor" : [
                    0.5,
                    0.5,
                    0.5,
                    1
                ],
                "metallicFactor" : 0,
                "roughnessFactor" : 0.6000000238418579
            }
        }
    ],
    "meshes" : [
        {
            "name" : "Layer_1_mesh.001",
            "primitives" : [
                {
                    "attributes" : {
                        "POSITION" : 0,
                        "NORMAL" : 1,
                        "COLOR_0" : 2
                    },
                    "indices" : 3,
                    "material" : 0
                }
            ]
        }
    ],
    "accessors" : [
        {
            "bufferView" : 0,
            "componentType" : 5126,
            "count" : 24672,
            "max" : [
                0.0660790205001831,
                0.10584089159965515,
                0.06437844783067703
            ],
            "min" : [
                -0.05633227527141571,
                -0.07856329530477524,
                -0.07598097622394562
            ],
            "type" : "VEC3"
        },
        {
            "bufferView" : 1,
            "componentType" : 5126,
            "count" : 24672,
            "type" : "VEC3"
        },
        {
            "bufferView" : 2,
            "componentType" : 5123,
            "count" : 24672,
            "normalized" : true,
            "type" : "VEC4"
        },
        {
            "bufferView" : 3,
            "componentType" : 5123,
            "count" : 148032,
            "type" : "SCALAR"
        }
    ],
    "bufferViews" : [
        {
            "buffer" : 0,
            "byteLength" : 296064,
            "byteOffset" : 0
        },
        {
            "buffer" : 0,
            "byteLength" : 296064,
            "byteOffset" : 296064
        },
        {
            "buffer" : 0,
            "byteLength" : 197376,
            "byteOffset" : 592128
        },
        {
            "buffer" : 0,
            "byteLength" : 296064,
            "byteOffset" : 789504
        }
    ],
    "buffers" : [
        {
            "byteLength" : 1085568,
            "uri" : "data:application/octet-stream;base64,"
        }
    ]
}
