{
    "asset" : {
        "generator" : "Khronos glTF Blender I/O v1.6.16",
        "version" : "2.0"
    },
    "scene" : 0,
    "scenes" : [
        {
            "name" : "Scene",
            "nodes" : [
                0,
                1,
                2
            ]
        }
    ],
    "nodes" : [
        {
            "mesh" : 0,
            "name" : "Apple",
            "rotation" : [
                0,
                0,
                0.11482047289609909,
                0.9933862686157227
            ],
            "scale" : [
                0.021281983703374863,
                0.16973833739757538,
                0.021281983703374863
            ],
            "translation" : [
                0,
                0.9563884735107422,
                0
            ]
        },
        {
            "mesh" : 1,
            "name" : "Layer_1",
            "rotation" : [
                0.013301086612045765,
                -0.5502070188522339,
                -0.08384781330823898,
                0.8307015895843506
            ],
            "translation" : [
                0.2104361355304718,
                0.547802209854126,
                0.24084895849227905
            ]
        },
        {
            "mesh" : 2,
            "name" : "Layer_1.001",
            "rotation" : [
                0.04232200235128403,
                -0.9830558896064758,
                0.011227286420762539,
                -0.17799963057041168
            ],
            "translation" : [
                -0.21758095920085907,
                0.2155020833015442,
                -0.12976586818695068
            ]
        }
    ],
    "materials" : [
        {
            "doubleSided" : true,
            "name" : "Material.001",
            "pbrMetallicRoughness" : {
                "baseColorFactor" : [
                    0.5,
                    0.5,
                    0.5,
                    1
                ],
                "metallicFactor" : 0,
                "roughnessFactor" : 0.30000001192092896
            }
        }
    ],
    "meshes" : [
        {
            "extras" : {
                "targetNames" : [
                    "Squash"
                ]
            },
            "name" : "Cylinder",
            "primitives" : [
                {
                    "attributes" : {
                        "POSITION" : 0,
                        "NORMAL" : 1,
                        "TEXCOORD_0" : 2,
                        "COLOR_0" : 3
                    },
                    "indices" : 4,
                    "material" : 0,
                    "targets" : [
                        {
                            "POSITION" : 5,
                            "NORMAL" : 6
                        }
                    ]
                }
            ],
            "weights" : [
                0
            ]
        },
        {
            "extras" : {
                "targetNames" : [
                    "Squash"
                ]
            },
            "name" : "Layer_1_mesh.002",
            "primitives" : [
                {
                    "attributes" : {
                        "POSITION" : 7,
                        "NORMAL" : 8,
                        "COLOR_0" : 9
                    },
                    "indices" : 10,
                    "material" : 0,
                    "targets" : [
                        {
                            "POSITION" : 11,
                            "NORMAL" : 12
                        }
                    ]
                }
            ],
            "weights" : [
                0
            ]
        },
        {
            "extras" : {
                "targetNames" : [
                    "Squash"
                ]
            },
            "name" : "Layer_1_mesh.003",
            "primitives" : [
                {
                    "attributes" : {
                        "POSITION" : 13,
                        "NORMAL" : 14,
                        "COLOR_0" : 15
                    },
                    "indices" : 10,
                    "material" : 0,
                    "targets" : [
                        {
                            "POSITION" : 16,
                            "NORMAL" : 17
                        }
                    ]
                }
            ],
            "weights" : [
                0
            ]
        }
    ],
    "accessors" : [
        {
            "bufferView" : 0,
            "componentType" : 5126,
            "count" : 4230,
            "max" : [
                17.99835205078125,
                1.1423894166946411,
                20.660240173339844
            ],
            "min" : [
                -24.269947052001953,
                -5.63850212097168,
                -20.26325225830078
            ],
            "type" : "VEC3"
        },
        {
            "bufferView" : 1,
            "componentType" : 5126,
            "count" : 4230,
            "type" : "VEC3"
        },
        {
            "bufferView" : 2,
            "componentType" : 5126,
            "count" : 4230,
            "type" : "VEC2"
        },
        {
            "bufferView" : 3,
            "componentType" : 5123,
            "count" : 4230,
            "normalized" : true,
            "type" : "VEC4"
        },
        {
            "bufferView" : 4,
            "componentType" : 5123,
            "count" : 6588,
            "type" : "SCALAR"
        },
        {
            "bufferView" : 5,
            "componentType" : 5126,
            "count" : 4230,
            "max" : [
                2.201751708984375,
                0.4102816581726074,
                1.1514396667480469
            ],
            "min" : [
                -1.1970491409301758,
                -0.08874446153640747,
                -2.4049439430236816
            ],
            "type" : "VEC3"
        },
        {
            "bufferView" : 6,
            "componentType" : 5126,
            "count" : 4230,
            "type" : "VEC3"
        },
        {
            "bufferView" : 7,
            "componentType" : 5126,
            "count" : 6573,
            "max" : [
                0.4256715774536133,
                0.4351358413696289,
                0.0992518737912178
            ],
            "min" : [
                -0.4855848550796509,
                0.0012814991641789675,
                -0.17993851006031036
            ],
            "type" : "VEC3"
        },
        {
            "bufferView" : 8,
            "componentType" : 5126,
            "count" : 6573,
            "type" : "VEC3"
        },
        {
            "bufferView" : 9,
            "componentType" : 5123,
            "count" : 6573,
            "normalized" : true,
            "type" : "VEC4"
        },
        {
            "bufferView" : 10,
            "componentType" : 5123,
            "count" : 39468,
            "type" : "SCALAR"
        },
        {
            "bufferView" : 11,
            "componentType" : 5126,
            "count" : 6573,
            "max" : [
                0.4575120806694031,
                0.03435753285884857,
                0.028699245303869247
            ],
            "min" : [
                -0.02769884467124939,
                -0.028112828731536865,
                -0.027549587190151215
            ],
            "type" : "VEC3"
        },
        {
            "bufferView" : 12,
            "componentType" : 5126,
            "count" : 6573,
            "type" : "VEC3"
        },
        {
            "bufferView" : 13,
            "componentType" : 5126,
            "count" : 6573,
            "max" : [
                0.4256715774536133,
                0.4351358413696289,
                0.0992518737912178
            ],
            "min" : [
                -0.4855848550796509,
                0.0012814991641789675,
                -0.17993851006031036
            ],
            "type" : "VEC3"
        },
        {
            "bufferView" : 14,
            "componentType" : 5126,
            "count" : 6573,
            "type" : "VEC3"
        },
        {
            "bufferView" : 15,
            "componentType" : 5123,
            "count" : 6573,
            "normalized" : true,
            "type" : "VEC4"
        },
        {
            "bufferView" : 16,
            "componentType" : 5126,
            "count" : 6573,
            "max" : [
                0.4575120806694031,
                0.03435753285884857,
                0.06650544703006744
            ],
            "min" : [
                -0.06465837359428406,
                -0.028112828731536865,
                -0.07440318167209625
            ],
            "type" : "VEC3"
        },
        {
            "bufferView" : 17,
            "componentType" : 5126,
            "count" : 6573,
            "type" : "VEC3"
        }
    ],
    "bufferViews" : [
        {
            "buffer" : 0,
            "byteLength" : 50760,
            "byteOffset" : 0
        },
        {
            "buffer" : 0,
            "byteLength" : 50760,
            "byteOffset" : 50760
        },
        {
            "buffer" : 0,
            "byteLength" : 33840,
            "byteOffset" : 101520
        },
        {
            "buffer" : 0,
            "byteLength" : 33840,
            "byteOffset" : 135360
        },
        {
            "buffer" : 0,
            "byteLength" : 13176,
            "byteOffset" : 169200
        },
        {
            "buffer" : 0,
            "byteLength" : 50760,
            "byteOffset" : 182376
        },
        {
            "buffer" : 0,
            "byteLength" : 50760,
            "byteOffset" : 233136
        },
        {
            "buffer" : 0,
            "byteLength" : 78876,
            "byteOffset" : 283896
        },
        {
            "buffer" : 0,
            "byteLength" : 78876,
            "byteOffset" : 362772
        },
        {
            "buffer" : 0,
            "byteLength" : 52584,
            "byteOffset" : 441648
        },
        {
            "buffer" : 0,
            "byteLength" : 78936,
            "byteOffset" : 494232
        },
        {
            "buffer" : 0,
            "byteLength" : 78876,
            "byteOffset" : 573168
        },
        {
            "buffer" : 0,
            "byteLength" : 78876,
            "byteOffset" : 652044
        },
        {
            "buffer" : 0,
            "byteLength" : 78876,
            "byteOffset" : 730920
        },
        {
            "buffer" : 0,
            "byteLength" : 78876,
            "byteOffset" : 809796
        },
        {
            "buffer" : 0,
            "byteLength" : 52584,
            "byteOffset" : 888672
        },
        {
            "buffer" : 0,
            "byteLength" : 78876,
            "byteOffset" : 941256
        },
        {
            "buffer" : 0,
            "byteLength" : 78876,
            "byteOffset" : 1020132
        }
    ],
    "buffers" : [
        {
            "byteLength" : 1099008,
            "uri" : "data:application/octet-stream;base64,"
        }
    ]
}
