{
    "asset" : {
        "generator" : "Khronos glTF Blender I/O v1.6.16",
        "version" : "2.0"
    },
    "scene" : 0,
    "scenes" : [
        {
            "name" : "Scene",
            "nodes" : [
                0,
                1,
                2
            ]
        }
    ],
    "nodes" : [
        {
            "mesh" : 0,
            "name" : "Apple",
            "rotation" : [
                0,
                0,
                0.11482047289609909,
                0.9933862686157227
            ],
            "scale" : [
                0.020922116935253143,
                0.1668681502342224,
                0.020922116935253143
            ],
            "translation" : [
                0,
                0.9371732473373413,
                0
            ]
        },
        {
            "mesh" : 1,
            "name" : "Layer_1",
            "translation" : [
                0.3039708137512207,
                0.5177463889122009,
                0.09861795604228973
            ]
        },
        {
            "mesh" : 2,
            "name" : "Layer_1.001",
            "rotation" : [
                -0.011234926991164684,
                -0.9390899538993835,
                0.31986281275749207,
                -0.1251872032880783
            ],
            "translation" : [
                -0.2810538411140442,
                0.2776431143283844,
                -0.07050256431102753
            ]
        }
    ],
    "materials" : [
        {
            "doubleSided" : true,
            "name" : "Material.001",
            "pbrMetallicRoughness" : {
                "baseColorFactor" : [
                    0.5,
                    0.5,
                    0.5,
                    1
                ],
                "metallicFactor" : 0,
                "roughnessFactor" : 0.30000001192092896
            }
        }
    ],
    "meshes" : [
        {
            "extras" : {
                "targetNames" : [
                    "Squash"
                ]
            },
            "name" : "Cylinder",
            "primitives" : [
                {
                    "attributes" : {
                        "POSITION" : 0,
                        "NORMAL" : 1,
                        "TEXCOORD_0" : 2,
                        "COLOR_0" : 3
                    },
                    "indices" : 4,
                    "material" : 0,
                    "targets" : [
                        {
                            "POSITION" : 5,
                            "NORMAL" : 6
                        }
                    ]
                }
            ],
            "weights" : [
                0
            ]
        },
        {
            "extras" : {
                "targetNames" : [
                    "Squash"
                ]
            },
            "name" : "Layer_1_mesh.002",
            "primitives" : [
                {
                    "attributes" : {
                        "POSITION" : 7,
                        "NORMAL" : 8,
                        "COLOR_0" : 9
                    },
                    "indices" : 10,
                    "material" : 0,
                    "targets" : [
                        {
                            "POSITION" : 11,
                            "NORMAL" : 12
                        }
                    ]
                }
            ],
            "weights" : [
                0
            ]
        },
        {
            "extras" : {
                "targetNames" : [
                    "Squash"
                ]
            },
            "name" : "Layer_1_mesh.003",
            "primitives" : [
                {
                    "attributes" : {
                        "POSITION" : 13,
                        "NORMAL" : 14,
                        "COLOR_0" : 15
                    },
                    "indices" : 16,
                    "material" : 0,
                    "targets" : [
                        {
                            "POSITION" : 17,
                            "NORMAL" : 18
                        }
                    ]
                }
            ],
            "weights" : [
                0
            ]
        }
    ],
    "accessors" : [
        {
            "bufferView" : 0,
            "componentType" : 5126,
            "count" : 4230,
            "max" : [
                17.99835205078125,
                1.1423894166946411,
                20.660240173339844
            ],
            "min" : [
                -24.269947052001953,
                -5.63850212097168,
                -20.26325225830078
            ],
            "type" : "VEC3"
        },
        {
            "bufferView" : 1,
            "componentType" : 5126,
            "count" : 4230,
            "type" : "VEC3"
        },
        {
            "bufferView" : 2,
            "componentType" : 5126,
            "count" : 4230,
            "type" : "VEC2"
        },
        {
            "bufferView" : 3,
            "componentType" : 5123,
            "count" : 4230,
            "normalized" : true,
            "type" : "VEC4"
        },
        {
            "bufferView" : 4,
            "componentType" : 5123,
            "count" : 6588,
            "type" : "SCALAR"
        },
        {
            "bufferView" : 5,
            "componentType" : 5126,
            "count" : 4230,
            "max" : [
                0.9301872253417969,
                0.056026458740234375,
                0.6668205261230469
            ],
            "min" : [
                -1.275625228881836,
                -0.038855552673339844,
                -1.160928726196289
            ],
            "type" : "VEC3"
        },
        {
            "bufferView" : 6,
            "componentType" : 5126,
            "count" : 4230,
            "type" : "VEC3"
        },
        {
            "bufferView" : 7,
            "componentType" : 5126,
            "count" : 6572,
            "max" : [
                0.4256715774536133,
                0.4351358413696289,
                0.0992518737912178
            ],
            "min" : [
                -0.4855848550796509,
                0.0012814991641789675,
                -0.17993851006031036
            ],
            "type" : "VEC3"
        },
        {
            "bufferView" : 8,
            "componentType" : 5126,
            "count" : 6572,
            "type" : "VEC3"
        },
        {
            "bufferView" : 9,
            "componentType" : 5123,
            "count" : 6572,
            "normalized" : true,
            "type" : "VEC4"
        },
        {
            "bufferView" : 10,
            "componentType" : 5123,
            "count" : 39468,
            "type" : "SCALAR"
        },
        {
            "bufferView" : 11,
            "componentType" : 5126,
            "count" : 6572,
            "max" : [
                0.4575120806694031,
                0.03435753285884857,
                0.028699245303869247
            ],
            "min" : [
                -0.02769884467124939,
                -0.028112828731536865,
                -0.027549587190151215
            ],
            "type" : "VEC3"
        },
        {
            "bufferView" : 12,
            "componentType" : 5126,
            "count" : 6572,
            "type" : "VEC3"
        },
        {
            "bufferView" : 13,
            "componentType" : 5126,
            "count" : 6573,
            "max" : [
                0.4256715774536133,
                0.4351358413696289,
                0.0992518737912178
            ],
            "min" : [
                -0.4855848550796509,
                0.0012814991641789675,
                -0.17993851006031036
            ],
            "type" : "VEC3"
        },
        {
            "bufferView" : 14,
            "componentType" : 5126,
            "count" : 6573,
            "type" : "VEC3"
        },
        {
            "bufferView" : 15,
            "componentType" : 5123,
            "count" : 6573,
            "normalized" : true,
            "type" : "VEC4"
        },
        {
            "bufferView" : 16,
            "componentType" : 5123,
            "count" : 39468,
            "type" : "SCALAR"
        },
        {
            "bufferView" : 17,
            "componentType" : 5126,
            "count" : 6573,
            "max" : [
                0.4575120806694031,
                0.03435753285884857,
                0.06650544703006744
            ],
            "min" : [
                -0.06465837359428406,
                -0.028112828731536865,
                -0.07440318167209625
            ],
            "type" : "VEC3"
        },
        {
            "bufferView" : 18,
            "componentType" : 5126,
            "count" : 6573,
            "type" : "VEC3"
        }
    ],
    "bufferViews" : [
        {
            "buffer" : 0,
            "byteLength" : 50760,
            "byteOffset" : 0
        },
        {
            "buffer" : 0,
            "byteLength" : 50760,
            "byteOffset" : 50760
        },
        {
            "buffer" : 0,
            "byteLength" : 33840,
            "byteOffset" : 101520
        },
        {
            "buffer" : 0,
            "byteLength" : 33840,
            "byteOffset" : 135360
        },
        {
            "buffer" : 0,
            "byteLength" : 13176,
            "byteOffset" : 169200
        },
        {
            "buffer" : 0,
            "byteLength" : 50760,
            "byteOffset" : 182376
        },
        {
            "buffer" : 0,
            "byteLength" : 50760,
            "byteOffset" : 233136
        },
        {
            "buffer" : 0,
            "byteLength" : 78864,
            "byteOffset" : 283896
        },
        {
            "buffer" : 0,
            "byteLength" : 78864,
            "byteOffset" : 362760
        },
        {
            "buffer" : 0,
            "byteLength" : 52576,
            "byteOffset" : 441624
        },
        {
            "buffer" : 0,
            "byteLength" : 78936,
            "byteOffset" : 494200
        },
        {
            "buffer" : 0,
            "byteLength" : 78864,
            "byteOffset" : 573136
        },
        {
            "buffer" : 0,
            "byteLength" : 78864,
            "byteOffset" : 652000
        },
        {
            "buffer" : 0,
            "byteLength" : 78876,
            "byteOffset" : 730864
        },
        {
            "buffer" : 0,
            "byteLength" : 78876,
            "byteOffset" : 809740
        },
        {
            "buffer" : 0,
            "byteLength" : 52584,
            "byteOffset" : 888616
        },
        {
            "buffer" : 0,
            "byteLength" : 78936,
            "byteOffset" : 941200
        },
        {
            "buffer" : 0,
            "byteLength" : 78876,
            "byteOffset" : 1020136
        },
        {
            "buffer" : 0,
            "byteLength" : 78876,
            "byteOffset" : 1099012
        }
    ],
    "buffers" : [
        {
            "byteLength" : 1177888,
            "uri" : "data:application/octet-stream;base64,"
        }
    ]
}
