{
    "asset" : {
        "generator" : "Khronos glTF Blender I/O v1.6.16",
        "version" : "2.0"
    },
    "scene" : 0,
    "scenes" : [
        {
            "name" : "Scene",
            "nodes" : [
                0,
                1,
                2,
                3
            ]
        }
    ],
    "nodes" : [
        {
            "mesh" : 0,
            "name" : "Cube",
            "scale" : [
                2,
                0.10000000149011612,
                1
            ],
            "translation" : [
                0,
                -0.10000000149011612,
                0.6694263815879822
            ]
        },
        {
            "mesh" : 1,
            "name" : "BezierCurve",
            "rotation" : [
                0.19853489100933075,
                -0.02861691080033779,
                -0.9796587824821472,
                0.005799408070743084
            ],
            "scale" : [
                0.42228424549102783,
                0.42228424549102783,
                0.42228424549102783
            ],
            "translation" : [
                -1.5364214181900024,
                0.5844736099243164,
                -0.111369788646698
            ]
        },
        {
            "mesh" : 2,
            "name" : "BezierCurve.001",
            "rotation" : [
                0,
                -0.15636011958122253,
                0,
                0.9877002239227295
            ],
            "scale" : [
                0.42228424549102783,
                0.42228424549102783,
                0.42228424549102783
            ],
            "translation" : [
                1.542771577835083,
                1.4232481718063354,
                -0.3587331175804138
            ]
        },
        {
            "mesh" : 3,
            "name" : "BezierCurve.002",
            "rotation" : [
                0.04947134479880333,
                -0.0370401069521904,
                -0.5645775198936462,
                0.82306307554245
            ],
            "scale" : [
                0.42228424549102783,
                0.42228424549102783,
                0.42228424549102783
            ],
            "translation" : [
                1.180093765258789,
                0.5161738395690918,
                -0.22401726245880127
            ]
        }
    ],
    "materials" : [
        {
            "doubleSided" : true,
            "name" : "Material",
            "pbrMetallicRoughness" : {
                "baseColorFactor" : [
                    0.5,
                    0.5,
                    0.5,
                    1
                ],
                "metallicFactor" : 0.5,
                "roughnessFactor" : 0.30000001192092896
            }
        },
        {
            "doubleSided" : true,
            "name" : "Material.001",
            "pbrMetallicRoughness" : {
                "baseColorFactor" : [
                    0.5,
                    0.5,
                    0.5,
                    1
                ],
                "metallicFactor" : 0.8999999761581421,
                "roughnessFactor" : 0.20000000298023224
            }
        }
    ],
    "meshes" : [
        {
            "name" : "Cube",
            "primitives" : [
                {
                    "attributes" : {
                        "POSITION" : 0,
                        "NORMAL" : 1,
                        "TEXCOORD_0" : 2,
                        "COLOR_0" : 3
                    },
                    "indices" : 4,
                    "material" : 0
                }
            ]
        },
        {
            "name" : "BezierCurve",
            "primitives" : [
                {
                    "attributes" : {
                        "POSITION" : 5,
                        "NORMAL" : 6,
                        "TEXCOORD_0" : 7,
                        "COLOR_0" : 8
                    },
                    "indices" : 9,
                    "material" : 1
                }
            ]
        },
        {
            "name" : "BezierCurve.001",
            "primitives" : [
                {
                    "attributes" : {
                        "POSITION" : 10,
                        "NORMAL" : 11,
                        "TEXCOORD_0" : 12,
                        "COLOR_0" : 13
                    },
                    "indices" : 9,
                    "material" : 1
                }
            ]
        },
        {
            "name" : "BezierCurve.002",
            "primitives" : [
                {
                    "attributes" : {
                        "POSITION" : 14,
                        "NORMAL" : 15,
                        "TEXCOORD_0" : 16,
                        "COLOR_0" : 17
                    },
                    "indices" : 9,
                    "material" : 1
                }
            ]
        }
    ],
    "accessors" : [
        {
            "bufferView" : 0,
            "componentType" : 5126,
            "count" : 3592,
            "max" : [
                1,
                22.972858428955078,
                1
            ],
            "min" : [
                -1,
                -1,
                -1.3144763708114624
            ],
            "type" : "VEC3"
        },
        {
            "bufferView" : 1,
            "componentType" : 5126,
            "count" : 3592,
            "type" : "VEC3"
        },
        {
            "bufferView" : 2,
            "componentType" : 5126,
            "count" : 3592,
            "type" : "VEC2"
        },
        {
            "bufferView" : 3,
            "componentType" : 5123,
            "count" : 3592,
            "normalized" : true,
            "type" : "VEC4"
        },
        {
            "bufferView" : 4,
            "componentType" : 5123,
            "count" : 11304,
            "type" : "SCALAR"
        },
        {
            "bufferView" : 5,
            "componentType" : 5126,
            "count" : 169,
            "max" : [
                1,
                0.030000004917383194,
                0.030000004917383194
            ],
            "min" : [
                -1.021213173866272,
                -0.030000004917383194,
                -0.2522212266921997
            ],
            "type" : "VEC3"
        },
        {
            "bufferView" : 6,
            "componentType" : 5126,
            "count" : 169,
            "type" : "VEC3"
        },
        {
            "bufferView" : 7,
            "componentType" : 5126,
            "count" : 169,
            "type" : "VEC2"
        },
        {
            "bufferView" : 8,
            "componentType" : 5123,
            "count" : 169,
            "normalized" : true,
            "type" : "VEC4"
        },
        {
            "bufferView" : 9,
            "componentType" : 5123,
            "count" : 894,
            "type" : "SCALAR"
        },
        {
            "bufferView" : 10,
            "componentType" : 5126,
            "count" : 169,
            "max" : [
                1,
                0.030000004917383194,
                0.030000004917383194
            ],
            "min" : [
                -1.021213173866272,
                -0.030000004917383194,
                -0.2522212266921997
            ],
            "type" : "VEC3"
        },
        {
            "bufferView" : 11,
            "componentType" : 5126,
            "count" : 169,
            "type" : "VEC3"
        },
        {
            "bufferView" : 12,
            "componentType" : 5126,
            "count" : 169,
            "type" : "VEC2"
        },
        {
            "bufferView" : 13,
            "componentType" : 5123,
            "count" : 169,
            "normalized" : true,
            "type" : "VEC4"
        },
        {
            "bufferView" : 14,
            "componentType" : 5126,
            "count" : 169,
            "max" : [
                1,
                0.030000004917383194,
                0.030000004917383194
            ],
            "min" : [
                -1.021213173866272,
                -0.030000004917383194,
                -0.2522212266921997
            ],
            "type" : "VEC3"
        },
        {
            "bufferView" : 15,
            "componentType" : 5126,
            "count" : 169,
            "type" : "VEC3"
        },
        {
            "bufferView" : 16,
            "componentType" : 5126,
            "count" : 169,
            "type" : "VEC2"
        },
        {
            "bufferView" : 17,
            "componentType" : 5123,
            "count" : 169,
            "normalized" : true,
            "type" : "VEC4"
        }
    ],
    "bufferViews" : [
        {
            "buffer" : 0,
            "byteLength" : 43104,
            "byteOffset" : 0
        },
        {
            "buffer" : 0,
            "byteLength" : 43104,
            "byteOffset" : 43104
        },
        {
            "buffer" : 0,
            "byteLength" : 28736,
            "byteOffset" : 86208
        },
        {
            "buffer" : 0,
            "byteLength" : 28736,
            "byteOffset" : 114944
        },
        {
            "buffer" : 0,
            "byteLength" : 22608,
            "byteOffset" : 143680
        },
        {
            "buffer" : 0,
            "byteLength" : 2028,
            "byteOffset" : 166288
        },
        {
            "buffer" : 0,
            "byteLength" : 2028,
            "byteOffset" : 168316
        },
        {
            "buffer" : 0,
            "byteLength" : 1352,
            "byteOffset" : 170344
        },
        {
            "buffer" : 0,
            "byteLength" : 1352,
            "byteOffset" : 171696
        },
        {
            "buffer" : 0,
            "byteLength" : 1788,
            "byteOffset" : 173048
        },
        {
            "buffer" : 0,
            "byteLength" : 2028,
            "byteOffset" : 174836
        },
        {
            "buffer" : 0,
            "byteLength" : 2028,
            "byteOffset" : 176864
        },
        {
            "buffer" : 0,
            "byteLength" : 1352,
            "byteOffset" : 178892
        },
        {
            "buffer" : 0,
            "byteLength" : 1352,
            "byteOffset" : 180244
        },
        {
            "buffer" : 0,
            "byteLength" : 2028,
            "byteOffset" : 181596
        },
        {
            "buffer" : 0,
            "byteLength" : 2028,
            "byteOffset" : 183624
        },
        {
            "buffer" : 0,
            "byteLength" : 1352,
            "byteOffset" : 185652
        },
        {
            "buffer" : 0,
            "byteLength" : 1352,
            "byteOffset" : 187004
        }
    ],
    "buffers" : [
        {
            "byteLength" : 188356,
            "uri" : "data:application/octet-stream;base64,"
        }
    ]
}
