{
    "asset" : {
        "generator" : "Khronos glTF Blender I/O v1.6.16",
        "version" : "2.0"
    },
    "scene" : 0,
    "scenes" : [
        {
            "name" : "Scene",
            "nodes" : [
                0,
                1,
                2
            ]
        }
    ],
    "nodes" : [
        {
            "mesh" : 0,
            "name" : "Cylinder",
            "rotation" : [
                0,
                0,
                -0.5886615514755249,
                0.808379590511322
            ],
            "scale" : [
                0.24300384521484375,
                0.24300384521484375,
                0.24300384521484375
            ],
            "translation" : [
                0.08424654603004456,
                0.26261085271835327,
                0
            ]
        },
        {
            "mesh" : 1,
            "name" : "Layer_1",
            "rotation" : [
                0.0289278756827116,
                0.22915244102478027,
                0.46674278378486633,
                0.8536999225616455
            ],
            "translation" : [
                0.23832467198371887,
                0.3792749047279358,
                0.026191236451268196
            ]
        },
        {
            "mesh" : 2,
            "name" : "Layer_1.001",
            "rotation" : [
                0.01716935820877552,
                -0.937259316444397,
                -0.08449807018041611,
                0.3378021717071533
            ],
            "translation" : [
                -0.20458734035491943,
                0.20573654770851135,
                0.022977765649557114
            ]
        }
    ],
    "materials" : [
        {
            "doubleSided" : true,
            "name" : "Material.001",
            "pbrMetallicRoughness" : {
                "baseColorFactor" : [
                    0.5,
                    0.5,
                    0.5,
                    1
                ],
                "metallicFactor" : 0,
                "roughnessFactor" : 0.4000000059604645
            }
        }
    ],
    "meshes" : [
        {
            "extras" : {
                "targetNames" : [
                    "Squash"
                ]
            },
            "name" : "Cylinder",
            "primitives" : [
                {
                    "attributes" : {
                        "POSITION" : 0,
                        "NORMAL" : 1,
                        "TEXCOORD_0" : 2,
                        "COLOR_0" : 3
                    },
                    "indices" : 4,
                    "material" : 0,
                    "targets" : [
                        {
                            "POSITION" : 5,
                            "NORMAL" : 6
                        }
                    ]
                }
            ],
            "weights" : [
                0
            ]
        },
        {
            "extras" : {
                "targetNames" : [
                    "Squash"
                ]
            },
            "name" : "Layer_1_mesh.001",
            "primitives" : [
                {
                    "attributes" : {
                        "POSITION" : 7,
                        "NORMAL" : 8,
                        "COLOR_0" : 9
                    },
                    "indices" : 10,
                    "material" : 0,
                    "targets" : [
                        {
                            "POSITION" : 11,
                            "NORMAL" : 12
                        }
                    ]
                }
            ],
            "weights" : [
                0
            ]
        },
        {
            "extras" : {
                "targetNames" : [
                    "Squash"
                ]
            },
            "name" : "Layer_1_mesh.003",
            "primitives" : [
                {
                    "attributes" : {
                        "POSITION" : 13,
                        "NORMAL" : 14,
                        "COLOR_0" : 15
                    },
                    "indices" : 16,
                    "material" : 0,
                    "targets" : [
                        {
                            "POSITION" : 17,
                            "NORMAL" : 18
                        }
                    ]
                }
            ],
            "weights" : [
                1
            ]
        }
    ],
    "accessors" : [
        {
            "bufferView" : 0,
            "componentType" : 5126,
            "count" : 3248,
            "max" : [
                1,
                3.9612247943878174,
                1
            ],
            "min" : [
                -3.716975688934326,
                -4.491117477416992,
                -1
            ],
            "type" : "VEC3"
        },
        {
            "bufferView" : 1,
            "componentType" : 5126,
            "count" : 3248,
            "type" : "VEC3"
        },
        {
            "bufferView" : 2,
            "componentType" : 5126,
            "count" : 3248,
            "type" : "VEC2"
        },
        {
            "bufferView" : 3,
            "componentType" : 5123,
            "count" : 3248,
            "normalized" : true,
            "type" : "VEC4"
        },
        {
            "bufferView" : 4,
            "componentType" : 5123,
            "count" : 4980,
            "type" : "SCALAR"
        },
        {
            "bufferView" : 5,
            "componentType" : 5126,
            "count" : 3248,
            "max" : [
                0.06749045848846436,
                0.05963003635406494,
                0.14489628374576569
            ],
            "min" : [
                -0.03999018669128418,
                0,
                -0.08521783351898193
            ],
            "type" : "VEC3"
        },
        {
            "bufferView" : 6,
            "componentType" : 5126,
            "count" : 3248,
            "type" : "VEC3"
        },
        {
            "bufferView" : 7,
            "componentType" : 5126,
            "count" : 6572,
            "max" : [
                0.4256715774536133,
                0.4351358413696289,
                0.0992518737912178
            ],
            "min" : [
                -0.4855848550796509,
                0.0012814991641789675,
                -0.17993851006031036
            ],
            "type" : "VEC3"
        },
        {
            "bufferView" : 8,
            "componentType" : 5126,
            "count" : 6572,
            "type" : "VEC3"
        },
        {
            "bufferView" : 9,
            "componentType" : 5123,
            "count" : 6572,
            "normalized" : true,
            "type" : "VEC4"
        },
        {
            "bufferView" : 10,
            "componentType" : 5123,
            "count" : 39468,
            "type" : "SCALAR"
        },
        {
            "bufferView" : 11,
            "componentType" : 5126,
            "count" : 6572,
            "max" : [
                0.4575120806694031,
                0.03435753285884857,
                0.028699245303869247
            ],
            "min" : [
                -0.02769884467124939,
                -0.028112828731536865,
                -0.027549587190151215
            ],
            "type" : "VEC3"
        },
        {
            "bufferView" : 12,
            "componentType" : 5126,
            "count" : 6572,
            "type" : "VEC3"
        },
        {
            "bufferView" : 13,
            "componentType" : 5126,
            "count" : 6573,
            "max" : [
                0.4256715774536133,
                0.4351358413696289,
                0.0992518737912178
            ],
            "min" : [
                -0.4855848550796509,
                0.0012814991641789675,
                -0.17993851006031036
            ],
            "type" : "VEC3"
        },
        {
            "bufferView" : 14,
            "componentType" : 5126,
            "count" : 6573,
            "type" : "VEC3"
        },
        {
            "bufferView" : 15,
            "componentType" : 5123,
            "count" : 6573,
            "normalized" : true,
            "type" : "VEC4"
        },
        {
            "bufferView" : 16,
            "componentType" : 5123,
            "count" : 39468,
            "type" : "SCALAR"
        },
        {
            "bufferView" : 17,
            "componentType" : 5126,
            "count" : 6573,
            "max" : [
                0.4575120806694031,
                0.03435753285884857,
                0.028699245303869247
            ],
            "min" : [
                -0.02769884467124939,
                -0.028112828731536865,
                -0.027549587190151215
            ],
            "type" : "VEC3"
        },
        {
            "bufferView" : 18,
            "componentType" : 5126,
            "count" : 6573,
            "type" : "VEC3"
        }
    ],
    "bufferViews" : [
        {
            "buffer" : 0,
            "byteLength" : 38976,
            "byteOffset" : 0
        },
        {
            "buffer" : 0,
            "byteLength" : 38976,
            "byteOffset" : 38976
        },
        {
            "buffer" : 0,
            "byteLength" : 25984,
            "byteOffset" : 77952
        },
        {
            "buffer" : 0,
            "byteLength" : 25984,
            "byteOffset" : 103936
        },
        {
            "buffer" : 0,
            "byteLength" : 9960,
            "byteOffset" : 129920
        },
        {
            "buffer" : 0,
            "byteLength" : 38976,
            "byteOffset" : 139880
        },
        {
            "buffer" : 0,
            "byteLength" : 38976,
            "byteOffset" : 178856
        },
        {
            "buffer" : 0,
            "byteLength" : 78864,
            "byteOffset" : 217832
        },
        {
            "buffer" : 0,
            "byteLength" : 78864,
            "byteOffset" : 296696
        },
        {
            "buffer" : 0,
            "byteLength" : 52576,
            "byteOffset" : 375560
        },
        {
            "buffer" : 0,
            "byteLength" : 78936,
            "byteOffset" : 428136
        },
        {
            "buffer" : 0,
            "byteLength" : 78864,
            "byteOffset" : 507072
        },
        {
            "buffer" : 0,
            "byteLength" : 78864,
            "byteOffset" : 585936
        },
        {
            "buffer" : 0,
            "byteLength" : 78876,
            "byteOffset" : 664800
        },
        {
            "buffer" : 0,
            "byteLength" : 78876,
            "byteOffset" : 743676
        },
        {
            "buffer" : 0,
            "byteLength" : 52584,
            "byteOffset" : 822552
        },
        {
            "buffer" : 0,
            "byteLength" : 78936,
            "byteOffset" : 875136
        },
        {
            "buffer" : 0,
            "byteLength" : 78876,
            "byteOffset" : 954072
        },
        {
            "buffer" : 0,
            "byteLength" : 78876,
            "byteOffset" : 1032948
        }
    ],
    "buffers" : [
        {
            "byteLength" : 1111824,
            "uri" : "data:application/octet-stream;base64,"
        }
    ]
}
