{
    "asset" : {
        "generator" : "Khronos glTF Blender I/O v1.6.16",
        "version" : "2.0"
    },
    "scene" : 0,
    "scenes" : [
        {
            "name" : "Scene",
            "nodes" : [
                0,
                1
            ]
        }
    ],
    "nodes" : [
        {
            "mesh" : 0,
            "name" : "Cylinder",
            "scale" : [
                0.05283268913626671,
                0.01350194402039051,
                0.05283268913626671
            ],
            "translation" : [
                -0.00711154006421566,
                -0.36851996183395386,
                0
            ]
        },
        {
            "mesh" : 1,
            "name" : "NurbsPath",
            "rotation" : [
                -0.7071068286895752,
                0.7071067690849304,
                0,
                -1.1520231879558196e-07
            ],
            "scale" : [
                0.4062732756137848,
                0.4062732756137848,
                0.4062732756137848
            ],
            "translation" : [
                0.03763645142316818,
                -0.2972084581851959,
                0
            ]
        }
    ],
    "materials" : [
        {
            "doubleSided" : true,
            "name" : "Material.001",
            "pbrMetallicRoughness" : {
                "baseColorFactor" : [
                    0.800000011920929,
                    0.800000011920929,
                    0.800000011920929,
                    1
                ],
                "metallicFactor" : 0.20000000298023224,
                "roughnessFactor" : 0.20000000298023224
            }
        },
        {
            "doubleSided" : true,
            "name" : "Material.002",
            "pbrMetallicRoughness" : {
                "baseColorFactor" : [
                    0.800000011920929,
                    0.800000011920929,
                    0.800000011920929,
                    1
                ],
                "metallicFactor" : 0,
                "roughnessFactor" : 0.5
            }
        }
    ],
    "meshes" : [
        {
            "name" : "Cylinder",
            "primitives" : [
                {
                    "attributes" : {
                        "POSITION" : 0,
                        "NORMAL" : 1,
                        "TEXCOORD_0" : 2,
                        "COLOR_0" : 3
                    },
                    "indices" : 4,
                    "material" : 0
                }
            ]
        },
        {
            "name" : "NurbsPath",
            "primitives" : [
                {
                    "attributes" : {
                        "POSITION" : 5,
                        "NORMAL" : 6,
                        "TEXCOORD_0" : 7,
                        "COLOR_0" : 8
                    },
                    "indices" : 9,
                    "material" : 1
                }
            ]
        }
    ],
    "accessors" : [
        {
            "bufferView" : 0,
            "componentType" : 5126,
            "count" : 3018,
            "max" : [
                5.569161891937256,
                55.251441955566406,
                5.6278076171875
            ],
            "min" : [
                -5.6864519119262695,
                -1,
                -5.627808094024658
            ],
            "type" : "VEC3"
        },
        {
            "bufferView" : 1,
            "componentType" : 5126,
            "count" : 3018,
            "type" : "VEC3"
        },
        {
            "bufferView" : 2,
            "componentType" : 5126,
            "count" : 3018,
            "type" : "VEC2"
        },
        {
            "bufferView" : 3,
            "componentType" : 5123,
            "count" : 3018,
            "normalized" : true,
            "type" : "VEC4"
        },
        {
            "bufferView" : 4,
            "componentType" : 5123,
            "count" : 4596,
            "type" : "SCALAR"
        },
        {
            "bufferView" : 5,
            "componentType" : 5126,
            "count" : 2028,
            "max" : [
                1.869823694229126,
                0.16334161162376404,
                0.02000020444393158
            ],
            "min" : [
                -0.2425224632024765,
                -0.220622718334198,
                -0.020000046119093895
            ],
            "type" : "VEC3"
        },
        {
            "bufferView" : 6,
            "componentType" : 5126,
            "count" : 2028,
            "type" : "VEC3"
        },
        {
            "bufferView" : 7,
            "componentType" : 5126,
            "count" : 2028,
            "type" : "VEC2"
        },
        {
            "bufferView" : 8,
            "componentType" : 5123,
            "count" : 2028,
            "normalized" : true,
            "type" : "VEC4"
        },
        {
            "bufferView" : 9,
            "componentType" : 5123,
            "count" : 11160,
            "type" : "SCALAR"
        }
    ],
    "bufferViews" : [
        {
            "buffer" : 0,
            "byteLength" : 36216,
            "byteOffset" : 0
        },
        {
            "buffer" : 0,
            "byteLength" : 36216,
            "byteOffset" : 36216
        },
        {
            "buffer" : 0,
            "byteLength" : 24144,
            "byteOffset" : 72432
        },
        {
            "buffer" : 0,
            "byteLength" : 24144,
            "byteOffset" : 96576
        },
        {
            "buffer" : 0,
            "byteLength" : 9192,
            "byteOffset" : 120720
        },
        {
            "buffer" : 0,
            "byteLength" : 24336,
            "byteOffset" : 129912
        },
        {
            "buffer" : 0,
            "byteLength" : 24336,
            "byteOffset" : 154248
        },
        {
            "buffer" : 0,
            "byteLength" : 16224,
            "byteOffset" : 178584
        },
        {
            "buffer" : 0,
            "byteLength" : 16224,
            "byteOffset" : 194808
        },
        {
            "buffer" : 0,
            "byteLength" : 22320,
            "byteOffset" : 211032
        }
    ],
    "buffers" : [
        {
            "byteLength" : 233352,
            "uri" : "data:application/octet-stream;base64,"
        }
    ]
}
