{
    "asset" : {
        "generator" : "Khronos glTF Blender I/O v1.6.16",
        "version" : "2.0"
    },
    "scene" : 0,
    "scenes" : [
        {
            "name" : "Scene",
            "nodes" : [
                0
            ]
        }
    ],
    "nodes" : [
        {
            "mesh" : 0,
            "name" : "Text",
            "rotation" : [
                0.7071068286895752,
                0,
                0,
                0.7071068286895752
            ],
            "scale" : [
                0.5,
                0.5,
                0.5
            ],
            "translation" : [
                -0.3298370838165283,
                0.015114218927919865,
                0
            ]
        }
    ],
    "materials" : [
        {
            "doubleSided" : true,
            "name" : "Material",
            "pbrMetallicRoughness" : {
                "baseColorFactor" : [
                    0.800000011920929,
                    0.800000011920929,
                    0.800000011920929,
                    1
                ],
                "metallicFactor" : 0.6000000238418579,
                "roughnessFactor" : 0.10000000149011612
            }
        }
    ],
    "meshes" : [
        {
            "name" : "Text",
            "primitives" : [
                {
                    "attributes" : {
                        "POSITION" : 0,
                        "NORMAL" : 1,
                        "TEXCOORD_0" : 2,
                        "COLOR_0" : 3
                    },
                    "indices" : 4,
                    "material" : 0
                }
            ]
        }
    ],
    "accessors" : [
        {
            "bufferView" : 0,
            "componentType" : 5126,
            "count" : 3830,
            "max" : [
                1.2610344886779785,
                0.019999999552965164,
                0.02902906760573387
            ],
            "min" : [
                0.03999999910593033,
                -0.019999999552965164,
                -0.4780261516571045
            ],
            "type" : "VEC3"
        },
        {
            "bufferView" : 1,
            "componentType" : 5126,
            "count" : 3830,
            "type" : "VEC3"
        },
        {
            "bufferView" : 2,
            "componentType" : 5126,
            "count" : 3830,
            "type" : "VEC2"
        },
        {
            "bufferView" : 3,
            "componentType" : 5123,
            "count" : 3830,
            "normalized" : true,
            "type" : "VEC4"
        },
        {
            "bufferView" : 4,
            "componentType" : 5123,
            "count" : 16134,
            "type" : "SCALAR"
        }
    ],
    "bufferViews" : [
        {
            "buffer" : 0,
            "byteLength" : 45960,
            "byteOffset" : 0
        },
        {
            "buffer" : 0,
            "byteLength" : 45960,
            "byteOffset" : 45960
        },
        {
            "buffer" : 0,
            "byteLength" : 30640,
            "byteOffset" : 91920
        },
        {
            "buffer" : 0,
            "byteLength" : 30640,
            "byteOffset" : 122560
        },
        {
            "buffer" : 0,
            "byteLength" : 32268,
            "byteOffset" : 153200
        }
    ],
    "buffers" : [
        {
            "byteLength" : 185468,
            "uri" : "data:application/octet-stream;base64,"
        }
    ]
}
