{
    "asset" : {
        "generator" : "Khronos glTF Blender I/O v1.6.16",
        "version" : "2.0"
    },
    "scene" : 0,
    "scenes" : [
        {
            "name" : "Scene",
            "nodes" : [
                0
            ]
        }
    ],
    "nodes" : [
        {
            "mesh" : 0,
            "name" : "Layer_1.002",
            "scale" : [
                3.6905999183654785,
                3.690599203109741,
                3.690599203109741
            ],
            "translation" : [
                0.43290311098098755,
                0.8514556884765625,
                -0.07796941697597504
            ]
        }
    ],
    "materials" : [
        {
            "doubleSided" : true,
            "name" : "Material.001",
            "pbrMetallicRoughness" : {
                "baseColorFactor" : [
                    0.800000011920929,
                    0.800000011920929,
                    0.800000011920929,
                    1
                ],
                "metallicFactor" : 0.20000000298023224,
                "roughnessFactor" : 0.20000000298023224
            }
        }
    ],
    "meshes" : [
        {
            "name" : "Layer_1_mesh.002",
            "primitives" : [
                {
                    "attributes" : {
                        "POSITION" : 0,
                        "NORMAL" : 1,
                        "COLOR_0" : 2
                    },
                    "indices" : 3,
                    "material" : 0
                }
            ]
        }
    ],
    "accessors" : [
        {
            "bufferView" : 0,
            "componentType" : 5126,
            "count" : 717,
            "max" : [
                0.2942068874835968,
                0.21367673575878143,
                0.025458676740527153
            ],
            "min" : [
                0.08066266775131226,
                -0.01822175458073616,
                -0.09699267894029617
            ],
            "type" : "VEC3"
        },
        {
            "bufferView" : 1,
            "componentType" : 5126,
            "count" : 717,
            "type" : "VEC3"
        },
        {
            "bufferView" : 2,
            "componentType" : 5123,
            "count" : 717,
            "normalized" : true,
            "type" : "VEC4"
        },
        {
            "bufferView" : 3,
            "componentType" : 5123,
            "count" : 4266,
            "type" : "SCALAR"
        }
    ],
    "bufferViews" : [
        {
            "buffer" : 0,
            "byteLength" : 8604,
            "byteOffset" : 0
        },
        {
            "buffer" : 0,
            "byteLength" : 8604,
            "byteOffset" : 8604
        },
        {
            "buffer" : 0,
            "byteLength" : 5736,
            "byteOffset" : 17208
        },
        {
            "buffer" : 0,
            "byteLength" : 8532,
            "byteOffset" : 22944
        }
    ],
    "buffers" : [
        {
            "byteLength" : 31476,
            "uri" : "data:application/octet-stream;base64,"
        }
    ]
}
