{
    "asset" : {
        "generator" : "Khronos glTF Blender I/O v1.6.16",
        "version" : "2.0"
    },
    "scene" : 0,
    "scenes" : [
        {
            "name" : "Scene",
            "nodes" : [
                0
            ]
        }
    ],
    "nodes" : [
        {
            "mesh" : 0,
            "name" : "Layer_1.005",
            "rotation" : [
                0,
                0.8867201209068298,
                0,
                -0.4623066782951355
            ],
            "scale" : [
                3.6905996799468994,
                3.690599203109741,
                3.6905996799468994
            ],
            "translation" : [
                0.24706658720970154,
                0.9669588208198547,
                1.2275652885437012
            ]
        }
    ],
    "materials" : [
        {
            "doubleSided" : true,
            "name" : "Material.001",
            "pbrMetallicRoughness" : {
                "baseColorFactor" : [
                    0.800000011920929,
                    0.800000011920929,
                    0.800000011920929,
                    1
                ],
                "metallicFactor" : 0.20000000298023224,
                "roughnessFactor" : 0.20000000298023224
            }
        }
    ],
    "meshes" : [
        {
            "name" : "Layer_1_mesh.005",
            "primitives" : [
                {
                    "attributes" : {
                        "POSITION" : 0,
                        "NORMAL" : 1,
                        "COLOR_0" : 2
                    },
                    "indices" : 3,
                    "material" : 0
                }
            ]
        }
    ],
    "accessors" : [
        {
            "bufferView" : 0,
            "componentType" : 5126,
            "count" : 936,
            "max" : [
                0.14986295998096466,
                0.21882282197475433,
                0.13726024329662323
            ],
            "min" : [
                -0.09142035245895386,
                -0.1288476437330246,
                -0.09717392176389694
            ],
            "type" : "VEC3"
        },
        {
            "bufferView" : 1,
            "componentType" : 5126,
            "count" : 936,
            "type" : "VEC3"
        },
        {
            "bufferView" : 2,
            "componentType" : 5123,
            "count" : 936,
            "normalized" : true,
            "type" : "VEC4"
        },
        {
            "bufferView" : 3,
            "componentType" : 5123,
            "count" : 5568,
            "type" : "SCALAR"
        }
    ],
    "bufferViews" : [
        {
            "buffer" : 0,
            "byteLength" : 11232,
            "byteOffset" : 0
        },
        {
            "buffer" : 0,
            "byteLength" : 11232,
            "byteOffset" : 11232
        },
        {
            "buffer" : 0,
            "byteLength" : 7488,
            "byteOffset" : 22464
        },
        {
            "buffer" : 0,
            "byteLength" : 11136,
            "byteOffset" : 29952
        }
    ],
    "buffers" : [
        {
            "byteLength" : 41088,
            "uri" : "data:application/octet-stream;base64,"
        }
    ]
}
