{
    "asset" : {
        "generator" : "Khronos glTF Blender I/O v1.6.16",
        "version" : "2.0"
    },
    "scene" : 0,
    "scenes" : [
        {
            "name" : "Scene",
            "nodes" : [
                0
            ]
        }
    ],
    "nodes" : [
        {
            "mesh" : 0,
            "name" : "Layer_1.004",
            "rotation" : [
                0,
                0.28685814142227173,
                0,
                0.957973062992096
            ],
            "scale" : [
                3.6905999183654785,
                3.690599203109741,
                3.690599203109741
            ],
            "translation" : [
                -1.3162972927093506,
                1.081568956375122,
                0.04066520929336548
            ]
        }
    ],
    "materials" : [
        {
            "doubleSided" : true,
            "name" : "Material.001",
            "pbrMetallicRoughness" : {
                "baseColorFactor" : [
                    0.800000011920929,
                    0.800000011920929,
                    0.800000011920929,
                    1
                ],
                "metallicFactor" : 0.20000000298023224,
                "roughnessFactor" : 0.20000000298023224
            }
        }
    ],
    "meshes" : [
        {
            "name" : "Layer_1_mesh.004",
            "primitives" : [
                {
                    "attributes" : {
                        "POSITION" : 0,
                        "NORMAL" : 1,
                        "COLOR_0" : 2
                    },
                    "indices" : 3,
                    "material" : 0
                }
            ]
        }
    ],
    "accessors" : [
        {
            "bufferView" : 0,
            "componentType" : 5126,
            "count" : 721,
            "max" : [
                0.2005402147769928,
                0.20749779045581818,
                0.08938382565975189
            ],
            "min" : [
                -0.16452327370643616,
                -0.06895823776721954,
                -0.04628681391477585
            ],
            "type" : "VEC3"
        },
        {
            "bufferView" : 1,
            "componentType" : 5126,
            "count" : 721,
            "type" : "VEC3"
        },
        {
            "bufferView" : 2,
            "componentType" : 5123,
            "count" : 721,
            "normalized" : true,
            "type" : "VEC4"
        },
        {
            "bufferView" : 3,
            "componentType" : 5123,
            "count" : 4290,
            "type" : "SCALAR"
        }
    ],
    "bufferViews" : [
        {
            "buffer" : 0,
            "byteLength" : 8652,
            "byteOffset" : 0
        },
        {
            "buffer" : 0,
            "byteLength" : 8652,
            "byteOffset" : 8652
        },
        {
            "buffer" : 0,
            "byteLength" : 5768,
            "byteOffset" : 17304
        },
        {
            "buffer" : 0,
            "byteLength" : 8580,
            "byteOffset" : 23072
        }
    ],
    "buffers" : [
        {
            "byteLength" : 31652,
            "uri" : "data:application/octet-stream;base64,"
        }
    ]
}
