{
    "asset" : {
        "generator" : "Khronos glTF Blender I/O v1.6.16",
        "version" : "2.0"
    },
    "scene" : 0,
    "scenes" : [
        {
            "name" : "Scene",
            "nodes" : [
                0
            ]
        }
    ],
    "nodes" : [
        {
            "mesh" : 0,
            "name" : "Layer_1.001",
            "rotation" : [
                0,
                0.09433989971876144,
                0,
                0.9955401420593262
            ],
            "scale" : [
                3.6905994415283203,
                3.690599203109741,
                3.6905972957611084
            ],
            "translation" : [
                -0.909900963306427,
                0.9086411595344543,
                -2.12615704536438
            ]
        }
    ],
    "materials" : [
        {
            "doubleSided" : true,
            "name" : "Material.002",
            "pbrMetallicRoughness" : {
                "baseColorFactor" : [
                    0.800000011920929,
                    0.800000011920929,
                    0.800000011920929,
                    1
                ],
                "metallicFactor" : 0.20000000298023224,
                "roughnessFactor" : 0.20000000298023224
            }
        }
    ],
    "meshes" : [
        {
            "name" : "Layer_1_mesh.001",
            "primitives" : [
                {
                    "attributes" : {
                        "POSITION" : 0,
                        "NORMAL" : 1,
                        "COLOR_0" : 2
                    },
                    "indices" : 3,
                    "material" : 0
                }
            ]
        }
    ],
    "accessors" : [
        {
            "bufferView" : 0,
            "componentType" : 5126,
            "count" : 728,
            "max" : [
                0.08187037706375122,
                0.10609841346740723,
                -0.05410143733024597
            ],
            "min" : [
                -0.1031041219830513,
                -0.28086650371551514,
                -0.1369737982749939
            ],
            "type" : "VEC3"
        },
        {
            "bufferView" : 1,
            "componentType" : 5126,
            "count" : 728,
            "type" : "VEC3"
        },
        {
            "bufferView" : 2,
            "componentType" : 5123,
            "count" : 728,
            "normalized" : true,
            "type" : "VEC4"
        },
        {
            "bufferView" : 3,
            "componentType" : 5123,
            "count" : 4356,
            "type" : "SCALAR"
        }
    ],
    "bufferViews" : [
        {
            "buffer" : 0,
            "byteLength" : 8736,
            "byteOffset" : 0
        },
        {
            "buffer" : 0,
            "byteLength" : 8736,
            "byteOffset" : 8736
        },
        {
            "buffer" : 0,
            "byteLength" : 5824,
            "byteOffset" : 17472
        },
        {
            "buffer" : 0,
            "byteLength" : 8712,
            "byteOffset" : 23296
        }
    ],
    "buffers" : [
        {
            "byteLength" : 32008,
            "uri" : "data:application/octet-stream;base64,"
        }
    ]
}
