{
    "asset" : {
        "generator" : "Khronos glTF Blender I/O v1.6.16",
        "version" : "2.0"
    },
    "scene" : 0,
    "scenes" : [
        {
            "name" : "Scene",
            "nodes" : [
                0
            ]
        }
    ],
    "nodes" : [
        {
            "mesh" : 0,
            "name" : "Layer_1.001",
            "scale" : [
                3.6905999183654785,
                3.690599203109741,
                3.690599203109741
            ],
            "translation" : [
                0.43290311098098755,
                0.8514556884765625,
                -0.07796941697597504
            ]
        }
    ],
    "materials" : [
        {
            "doubleSided" : true,
            "name" : "Material.001",
            "pbrMetallicRoughness" : {
                "baseColorFactor" : [
                    0.800000011920929,
                    0.800000011920929,
                    0.800000011920929,
                    1
                ],
                "metallicFactor" : 0.20000000298023224,
                "roughnessFactor" : 0.20000000298023224
            }
        }
    ],
    "meshes" : [
        {
            "name" : "Layer_1_mesh.001",
            "primitives" : [
                {
                    "attributes" : {
                        "POSITION" : 0,
                        "NORMAL" : 1,
                        "COLOR_0" : 2
                    },
                    "indices" : 3,
                    "material" : 0
                }
            ]
        }
    ],
    "accessors" : [
        {
            "bufferView" : 0,
            "componentType" : 5126,
            "count" : 741,
            "max" : [
                0.270740807056427,
                0.11513777822256088,
                -0.03364017605781555
            ],
            "min" : [
                0.09571395069360733,
                -0.26132428646087646,
                -0.1611575186252594
            ],
            "type" : "VEC3"
        },
        {
            "bufferView" : 1,
            "componentType" : 5126,
            "count" : 741,
            "type" : "VEC3"
        },
        {
            "bufferView" : 2,
            "componentType" : 5123,
            "count" : 741,
            "normalized" : true,
            "type" : "VEC4"
        },
        {
            "bufferView" : 3,
            "componentType" : 5123,
            "count" : 4434,
            "type" : "SCALAR"
        }
    ],
    "bufferViews" : [
        {
            "buffer" : 0,
            "byteLength" : 8892,
            "byteOffset" : 0
        },
        {
            "buffer" : 0,
            "byteLength" : 8892,
            "byteOffset" : 8892
        },
        {
            "buffer" : 0,
            "byteLength" : 5928,
            "byteOffset" : 17784
        },
        {
            "buffer" : 0,
            "byteLength" : 8868,
            "byteOffset" : 23712
        }
    ],
    "buffers" : [
        {
            "byteLength" : 32580,
            "uri" : "data:application/octet-stream;base64,"
        }
    ]
}
