{
    "asset" : {
        "generator" : "Khronos glTF Blender I/O v1.6.16",
        "version" : "2.0"
    },
    "scene" : 0,
    "scenes" : [
        {
            "name" : "Scene",
            "nodes" : [
                0
            ]
        }
    ],
    "nodes" : [
        {
            "mesh" : 0,
            "name" : "Layer_1.002",
            "rotation" : [
                0,
                0.07973016053438187,
                0,
                0.9968165755271912
            ],
            "scale" : [
                3.6905999183654785,
                3.690599203109741,
                3.6905999183654785
            ],
            "translation" : [
                0.5274231433868408,
                0.8194877505302429,
                -8.99055004119873
            ]
        }
    ],
    "materials" : [
        {
            "doubleSided" : true,
            "name" : "Material.002",
            "pbrMetallicRoughness" : {
                "baseColorFactor" : [
                    0.800000011920929,
                    0.800000011920929,
                    0.800000011920929,
                    1
                ],
                "metallicFactor" : 0.20000000298023224,
                "roughnessFactor" : 0.20000000298023224
            }
        }
    ],
    "meshes" : [
        {
            "name" : "Layer_1_mesh.005",
            "primitives" : [
                {
                    "attributes" : {
                        "POSITION" : 0,
                        "NORMAL" : 1,
                        "COLOR_0" : 2
                    },
                    "indices" : 3,
                    "material" : 0
                }
            ]
        }
    ],
    "accessors" : [
        {
            "bufferView" : 0,
            "componentType" : 5126,
            "count" : 562,
            "max" : [
                -0.19276852905750275,
                0.12989716231822968,
                -0.11088459938764572
            ],
            "min" : [
                -0.3551711440086365,
                -0.2516884505748749,
                -0.1793481856584549
            ],
            "type" : "VEC3"
        },
        {
            "bufferView" : 1,
            "componentType" : 5126,
            "count" : 562,
            "type" : "VEC3"
        },
        {
            "bufferView" : 2,
            "componentType" : 5123,
            "count" : 562,
            "normalized" : true,
            "type" : "VEC4"
        },
        {
            "bufferView" : 3,
            "componentType" : 5123,
            "count" : 3360,
            "type" : "SCALAR"
        }
    ],
    "bufferViews" : [
        {
            "buffer" : 0,
            "byteLength" : 6744,
            "byteOffset" : 0
        },
        {
            "buffer" : 0,
            "byteLength" : 6744,
            "byteOffset" : 6744
        },
        {
            "buffer" : 0,
            "byteLength" : 4496,
            "byteOffset" : 13488
        },
        {
            "buffer" : 0,
            "byteLength" : 6720,
            "byteOffset" : 17984
        }
    ],
    "buffers" : [
        {
            "byteLength" : 24704,
            "uri" : "data:application/octet-stream;base64,"
        }
    ]
}
