{
    "asset" : {
        "generator" : "Khronos glTF Blender I/O v1.6.16",
        "version" : "2.0"
    },
    "scene" : 0,
    "scenes" : [
        {
            "name" : "Scene",
            "nodes" : [
                0
            ]
        }
    ],
    "nodes" : [
        {
            "mesh" : 0,
            "name" : "Layer_1.001",
            "rotation" : [
                0,
                0.8867201209068298,
                0,
                -0.4623066782951355
            ],
            "scale" : [
                3.6905996799468994,
                3.690599203109741,
                3.6905996799468994
            ],
            "translation" : [
                0.24706658720970154,
                0.9669588208198547,
                1.2275652885437012
            ]
        }
    ],
    "materials" : [
        {
            "doubleSided" : true,
            "name" : "Material.001",
            "pbrMetallicRoughness" : {
                "baseColorFactor" : [
                    0.800000011920929,
                    0.800000011920929,
                    0.800000011920929,
                    1
                ],
                "metallicFactor" : 0.20000000298023224,
                "roughnessFactor" : 0.20000000298023224
            }
        }
    ],
    "meshes" : [
        {
            "name" : "Layer_1_mesh.001",
            "primitives" : [
                {
                    "attributes" : {
                        "POSITION" : 0,
                        "NORMAL" : 1,
                        "COLOR_0" : 2
                    },
                    "indices" : 3,
                    "material" : 0
                }
            ]
        }
    ],
    "accessors" : [
        {
            "bufferView" : 0,
            "componentType" : 5126,
            "count" : 921,
            "max" : [
                0.10498945415019989,
                0.11613786965608597,
                0.07961902022361755
            ],
            "min" : [
                -0.07994189858436584,
                -0.29033926129341125,
                -0.09515675157308578
            ],
            "type" : "VEC3"
        },
        {
            "bufferView" : 1,
            "componentType" : 5126,
            "count" : 921,
            "type" : "VEC3"
        },
        {
            "bufferView" : 2,
            "componentType" : 5123,
            "count" : 921,
            "normalized" : true,
            "type" : "VEC4"
        },
        {
            "bufferView" : 3,
            "componentType" : 5123,
            "count" : 5514,
            "type" : "SCALAR"
        }
    ],
    "bufferViews" : [
        {
            "buffer" : 0,
            "byteLength" : 11052,
            "byteOffset" : 0
        },
        {
            "buffer" : 0,
            "byteLength" : 11052,
            "byteOffset" : 11052
        },
        {
            "buffer" : 0,
            "byteLength" : 7368,
            "byteOffset" : 22104
        },
        {
            "buffer" : 0,
            "byteLength" : 11028,
            "byteOffset" : 29472
        }
    ],
    "buffers" : [
        {
            "byteLength" : 40500,
            "uri" : "data:application/octet-stream;base64,"
        }
    ]
}
