{
    "asset" : {
        "generator" : "Khronos glTF Blender I/O v1.6.16",
        "version" : "2.0"
    },
    "scene" : 0,
    "scenes" : [
        {
            "name" : "Scene",
            "nodes" : [
                0
            ]
        }
    ],
    "nodes" : [
        {
            "mesh" : 0,
            "name" : "Layer_1",
            "rotation" : [
                0,
                -0.6043437123298645,
                0,
                0.7967238426208496
            ],
            "scale" : [
                2239.539794921875,
                2239.540283203125,
                2239.539794921875
            ]
        }
    ],
    "materials" : [
        {
            "doubleSided" : true,
            "name" : "Material.001",
            "pbrMetallicRoughness" : {
                "baseColorFactor" : [
                    0.5,
                    0.5,
                    0.5,
                    1
                ],
                "metallicFactor" : 0,
                "roughnessFactor" : 0.20000000298023224
            }
        }
    ],
    "meshes" : [
        {
            "name" : "Layer_1_mesh",
            "primitives" : [
                {
                    "attributes" : {
                        "POSITION" : 0,
                        "NORMAL" : 1,
                        "COLOR_0" : 2
                    },
                    "indices" : 3,
                    "material" : 0
                }
            ]
        }
    ],
    "accessors" : [
        {
            "bufferView" : 0,
            "componentType" : 5126,
            "count" : 9098,
            "max" : [
                0.04595290496945381,
                0.04529227688908577,
                0.04388568177819252
            ],
            "min" : [
                -0.05055742710828781,
                -0.04803142324090004,
                -0.04081984609365463
            ],
            "type" : "VEC3"
        },
        {
            "bufferView" : 1,
            "componentType" : 5126,
            "count" : 9098,
            "type" : "VEC3"
        },
        {
            "bufferView" : 2,
            "componentType" : 5123,
            "count" : 9098,
            "normalized" : true,
            "type" : "VEC4"
        },
        {
            "bufferView" : 3,
            "componentType" : 5123,
            "count" : 54588,
            "type" : "SCALAR"
        }
    ],
    "bufferViews" : [
        {
            "buffer" : 0,
            "byteLength" : 109176,
            "byteOffset" : 0
        },
        {
            "buffer" : 0,
            "byteLength" : 109176,
            "byteOffset" : 109176
        },
        {
            "buffer" : 0,
            "byteLength" : 72784,
            "byteOffset" : 218352
        },
        {
            "buffer" : 0,
            "byteLength" : 109176,
            "byteOffset" : 291136
        }
    ],
    "buffers" : [
        {
            "byteLength" : 400312,
            "uri" : "data:application/octet-stream;base64,"
        }
    ]
}
