{
    "asset" : {
        "generator" : "Khronos glTF Blender I/O v1.6.16",
        "version" : "2.0"
    },
    "scene" : 0,
    "scenes" : [
        {
            "name" : "Scene",
            "nodes" : [
                0
            ]
        }
    ],
    "nodes" : [
        {
            "mesh" : 0,
            "name" : "Rope",
            "rotation" : [
                -0.5000001192092896,
                0.49999988079071045,
                -0.49999988079071045,
                -0.5000001192092896
            ],
            "scale" : [
                0.012858414091169834,
                0.012858414091169834,
                0.012858414091169834
            ],
            "translation" : [
                0,
                0.025048717856407166,
                0
            ]
        }
    ],
    "materials" : [
        {
            "doubleSided" : true,
            "name" : "Material.001",
            "pbrMetallicRoughness" : {
                "baseColorFactor" : [
                    0.5,
                    0.5,
                    0.5,
                    1
                ],
                "metallicFactor" : 0,
                "roughnessFactor" : 0.6000000238418579
            }
        }
    ],
    "meshes" : [
        {
            "name" : "Rope",
            "primitives" : [
                {
                    "attributes" : {
                        "POSITION" : 0,
                        "NORMAL" : 1,
                        "COLOR_0" : 2
                    },
                    "indices" : 3,
                    "material" : 0
                }
            ]
        }
    ],
    "accessors" : [
        {
            "bufferView" : 0,
            "componentType" : 5126,
            "count" : 41088,
            "max" : [
                14.146984100341797,
                22.91303825378418,
                1.9999659061431885
            ],
            "min" : [
                -23.898988723754883,
                -33.49335479736328,
                -1.9999656677246094
            ],
            "type" : "VEC3"
        },
        {
            "bufferView" : 1,
            "componentType" : 5126,
            "count" : 41088,
            "type" : "VEC3"
        },
        {
            "bufferView" : 2,
            "componentType" : 5123,
            "count" : 41088,
            "normalized" : true,
            "type" : "VEC4"
        },
        {
            "bufferView" : 3,
            "componentType" : 5123,
            "count" : 245760,
            "type" : "SCALAR"
        }
    ],
    "bufferViews" : [
        {
            "buffer" : 0,
            "byteLength" : 493056,
            "byteOffset" : 0
        },
        {
            "buffer" : 0,
            "byteLength" : 493056,
            "byteOffset" : 493056
        },
        {
            "buffer" : 0,
            "byteLength" : 328704,
            "byteOffset" : 986112
        },
        {
            "buffer" : 0,
            "byteLength" : 491520,
            "byteOffset" : 1314816
        }
    ],
    "buffers" : [
        {
            "byteLength" : 1806336,
            "uri" : "data:application/octet-stream;base64,"
        }
    ]
}
