{
    "asset" : {
        "generator" : "Khronos glTF Blender I/O v1.6.16",
        "version" : "2.0"
    },
    "scene" : 0,
    "scenes" : [
        {
            "name" : "Scene",
            "nodes" : [
                0
            ]
        }
    ],
    "nodes" : [
        {
            "mesh" : 0,
            "name" : "Layer_1",
            "translation" : [
                0,
                1.1349999904632568,
                0
            ]
        }
    ],
    "materials" : [
        {
            "doubleSided" : true,
            "name" : "Material.001",
            "pbrMetallicRoughness" : {
                "baseColorFactor" : [
                    0.5,
                    0.5,
                    0.5,
                    1
                ],
                "metallicFactor" : 0,
                "roughnessFactor" : 0.4000000059604645
            }
        }
    ],
    "meshes" : [
        {
            "name" : "Layer_1_mesh",
            "primitives" : [
                {
                    "attributes" : {
                        "POSITION" : 0,
                        "NORMAL" : 1,
                        "COLOR_0" : 2
                    },
                    "indices" : 3,
                    "material" : 0
                }
            ]
        }
    ],
    "accessors" : [
        {
            "bufferView" : 0,
            "componentType" : 5126,
            "count" : 11705,
            "max" : [
                19.129680633544922,
                4.396709442138672,
                19.523191452026367
            ],
            "min" : [
                -19.581369400024414,
                -39.06129455566406,
                -19.268186569213867
            ],
            "type" : "VEC3"
        },
        {
            "bufferView" : 1,
            "componentType" : 5126,
            "count" : 11705,
            "type" : "VEC3"
        },
        {
            "bufferView" : 2,
            "componentType" : 5123,
            "count" : 11705,
            "normalized" : true,
            "type" : "VEC4"
        },
        {
            "bufferView" : 3,
            "componentType" : 5123,
            "count" : 70218,
            "type" : "SCALAR"
        }
    ],
    "bufferViews" : [
        {
            "buffer" : 0,
            "byteLength" : 140460,
            "byteOffset" : 0
        },
        {
            "buffer" : 0,
            "byteLength" : 140460,
            "byteOffset" : 140460
        },
        {
            "buffer" : 0,
            "byteLength" : 93640,
            "byteOffset" : 280920
        },
        {
            "buffer" : 0,
            "byteLength" : 140436,
            "byteOffset" : 374560
        }
    ],
    "buffers" : [
        {
            "byteLength" : 514996,
            "uri" : "data:application/octet-stream;base64,"
        }
    ]
}
