{
    "asset" : {
        "generator" : "Khronos glTF Blender I/O v1.6.16",
        "version" : "2.0"
    },
    "scene" : 0,
    "scenes" : [
        {
            "name" : "Scene",
            "nodes" : [
                0
            ]
        }
    ],
    "nodes" : [
        {
            "mesh" : 0,
            "name" : "Sink",
            "scale" : [
                3.645876884460449,
                0.18877187371253967,
                1.5980501174926758
            ],
            "translation" : [
                0.0008115768432617188,
                0.3430129289627075,
                -0.0002663731575012207
            ]
        }
    ],
    "materials" : [
        {
            "doubleSided" : true,
            "name" : "Material.003",
            "pbrMetallicRoughness" : {
                "baseColorFactor" : [
                    0.800000011920929,
                    0.800000011920929,
                    0.800000011920929,
                    1
                ],
                "metallicFactor" : 0.6000000238418579,
                "roughnessFactor" : 0.20000000298023224
            }
        }
    ],
    "meshes" : [
        {
            "name" : "Sink.001",
            "primitives" : [
                {
                    "attributes" : {
                        "POSITION" : 0,
                        "NORMAL" : 1,
                        "TEXCOORD_0" : 2,
                        "COLOR_0" : 3
                    },
                    "indices" : 4,
                    "material" : 0
                }
            ]
        }
    ],
    "accessors" : [
        {
            "bufferView" : 0,
            "componentType" : 5126,
            "count" : 8078,
            "max" : [
                0.07761956751346588,
                0.8717873096466064,
                0.17683029174804688
            ],
            "min" : [
                -0.07728967070579529,
                -1.8956315517425537,
                -0.1765880584716797
            ],
            "type" : "VEC3"
        },
        {
            "bufferView" : 1,
            "componentType" : 5126,
            "count" : 8078,
            "type" : "VEC3"
        },
        {
            "bufferView" : 2,
            "componentType" : 5126,
            "count" : 8078,
            "type" : "VEC2"
        },
        {
            "bufferView" : 3,
            "componentType" : 5123,
            "count" : 8078,
            "normalized" : true,
            "type" : "VEC4"
        },
        {
            "bufferView" : 4,
            "componentType" : 5123,
            "count" : 13020,
            "type" : "SCALAR"
        }
    ],
    "bufferViews" : [
        {
            "buffer" : 0,
            "byteLength" : 96936,
            "byteOffset" : 0
        },
        {
            "buffer" : 0,
            "byteLength" : 96936,
            "byteOffset" : 96936
        },
        {
            "buffer" : 0,
            "byteLength" : 64624,
            "byteOffset" : 193872
        },
        {
            "buffer" : 0,
            "byteLength" : 64624,
            "byteOffset" : 258496
        },
        {
            "buffer" : 0,
            "byteLength" : 26040,
            "byteOffset" : 323120
        }
    ],
    "buffers" : [
        {
            "byteLength" : 349160,
            "uri" : "data:application/octet-stream;base64,"
        }
    ]
}
