{
    "asset" : {
        "generator" : "Khronos glTF Blender I/O v1.6.16",
        "version" : "2.0"
    },
    "scene" : 0,
    "scenes" : [
        {
            "name" : "Scene",
            "nodes" : [
                0,
                1,
                2,
                3,
                4,
                5,
                6,
                7
            ]
        }
    ],
    "nodes" : [
        {
            "mesh" : 0,
            "name" : "Cube",
            "scale" : [
                2.6304166316986084,
                0.02630416862666607,
                2.6304166316986084
            ],
            "translation" : [
                0.011448442935943604,
                -0.02261817455291748,
                -1.072521448135376
            ]
        },
        {
            "mesh" : 1,
            "name" : "Cube.001",
            "rotation" : [
                0,
                -0.7071068286895752,
                0,
                -0.7071068286895752
            ],
            "scale" : [
                0.6200143694877625,
                0.48609739542007446,
                0.3454476594924927
            ],
            "translation" : [
                -2.264756441116333,
                0.4948522448539734,
                -2.274230480194092
            ]
        },
        {
            "mesh" : 2,
            "name" : "Cube.002",
            "rotation" : [
                0,
                0.9999999403953552,
                0,
                0.00033588806400075555
            ],
            "scale" : [
                0.9878851771354675,
                0.4235047399997711,
                0.5109197497367859
            ],
            "translation" : [
                -1.7808246612548828,
                0.3616023063659668,
                -0.8000429272651672
            ]
        },
        {
            "mesh" : 3,
            "name" : "Layer_1",
            "rotation" : [
                -0.03321521356701851,
                0.9662938714027405,
                0.024904554709792137,
                -0.2540721893310547
            ],
            "scale" : [
                -40.077571868896484,
                -23.044973373413086,
                -37.21075439453125
            ],
            "translation" : [
                -1.4187241792678833,
                0.48790091276168823,
                -0.791820228099823
            ]
        },
        {
            "mesh" : 4,
            "name" : "Layer_1.001",
            "rotation" : [
                0.04601450264453888,
                0.5385377407073975,
                0.15659727156162262,
                -0.8266420364379883
            ],
            "scale" : [
                -15.847550392150879,
                -22.09189224243164,
                -15.589385986328125
            ],
            "translation" : [
                -2.2400336265563965,
                0.5703507661819458,
                -0.7731620073318481
            ]
        },
        {
            "name" : "Light",
            "rotation" : [
                0.16907575726509094,
                0.7558804154396057,
                -0.27217137813568115,
                0.5709474086761475
            ],
            "translation" : [
                4.076245307922363,
                5.903861999511719,
                -1.0054539442062378
            ]
        },
        {
            "name" : "Camera",
            "rotation" : [
                0.4835360646247864,
                0.33687159419059753,
                -0.20870354771614075,
                0.7804827094078064
            ],
            "translation" : [
                7.358891487121582,
                4.958309173583984,
                6.925790786743164
            ]
        },
        {
            "mesh" : 5,
            "name" : "Sphere",
            "rotation" : [
                0,
                -0.7071331143379211,
                0,
                0.7070804238319397
            ],
            "scale" : [
                0.03214077278971672,
                0.03214077278971672,
                0.03214077278971672
            ],
            "translation" : [
                1.3007423877716064,
                1.0082370042800903,
                -1.7409104108810425
            ]
        }
    ],
    "materials" : [
        {
            "doubleSided" : true,
            "name" : "Material",
            "pbrMetallicRoughness" : {
                "baseColorFactor" : [
                    0.800000011920929,
                    0.800000011920929,
                    0.800000011920929,
                    1
                ],
                "metallicFactor" : 0,
                "roughnessFactor" : 0.4000000059604645
            }
        },
        {
            "doubleSided" : true,
            "name" : "Material.001",
            "pbrMetallicRoughness" : {
                "baseColorFactor" : [
                    0.800000011920929,
                    0.800000011920929,
                    0.800000011920929,
                    1
                ],
                "metallicFactor" : 0,
                "roughnessFactor" : 0.4000000059604645
            }
        },
        {
            "doubleSided" : true,
            "name" : "Material.002",
            "pbrMetallicRoughness" : {
                "baseColorFactor" : [
                    0.800000011920929,
                    0.800000011920929,
                    0.800000011920929,
                    1
                ],
                "metallicFactor" : 0,
                "roughnessFactor" : 0.4000000059604645
            }
        },
        {
            "doubleSided" : true,
            "name" : "Material.003",
            "pbrMetallicRoughness" : {
                "baseColorFactor" : [
                    0.800000011920929,
                    0.800000011920929,
                    0.800000011920929,
                    1
                ],
                "metallicFactor" : 0,
                "roughnessFactor" : 0.4000000059604645
            }
        }
    ],
    "meshes" : [
        {
            "name" : "Cube",
            "primitives" : [
                {
                    "attributes" : {
                        "POSITION" : 0,
                        "NORMAL" : 1,
                        "TEXCOORD_0" : 2,
                        "COLOR_0" : 3
                    },
                    "indices" : 4,
                    "material" : 0
                }
            ]
        },
        {
            "name" : "Cube.001",
            "primitives" : [
                {
                    "attributes" : {
                        "POSITION" : 5,
                        "NORMAL" : 6,
                        "TEXCOORD_0" : 7,
                        "COLOR_0" : 8
                    },
                    "indices" : 9,
                    "material" : 1
                }
            ]
        },
        {
            "name" : "Cube.002",
            "primitives" : [
                {
                    "attributes" : {
                        "POSITION" : 10,
                        "NORMAL" : 11,
                        "TEXCOORD_0" : 12,
                        "COLOR_0" : 13
                    },
                    "indices" : 14,
                    "material" : 2
                }
            ]
        },
        {
            "name" : "Layer_1_mesh",
            "primitives" : [
                {
                    "attributes" : {
                        "POSITION" : 15,
                        "NORMAL" : 16,
                        "COLOR_0" : 17
                    },
                    "indices" : 18
                }
            ]
        },
        {
            "name" : "Layer_1_mesh.001",
            "primitives" : [
                {
                    "attributes" : {
                        "POSITION" : 19,
                        "NORMAL" : 20,
                        "COLOR_0" : 21
                    },
                    "indices" : 18
                }
            ]
        },
        {
            "name" : "Sphere",
            "primitives" : [
                {
                    "attributes" : {
                        "POSITION" : 22,
                        "NORMAL" : 23,
                        "TEXCOORD_0" : 24,
                        "COLOR_0" : 25
                    },
                    "indices" : 26,
                    "material" : 3
                }
            ]
        }
    ],
    "accessors" : [
        {
            "bufferView" : 0,
            "componentType" : 5126,
            "count" : 2753,
            "max" : [
                1,
                199.55331420898438,
                1
            ],
            "min" : [
                -1,
                -1,
                -1
            ],
            "type" : "VEC3"
        },
        {
            "bufferView" : 1,
            "componentType" : 5126,
            "count" : 2753,
            "type" : "VEC3"
        },
        {
            "bufferView" : 2,
            "componentType" : 5126,
            "count" : 2753,
            "type" : "VEC2"
        },
        {
            "bufferView" : 3,
            "componentType" : 5123,
            "count" : 2753,
            "normalized" : true,
            "type" : "VEC4"
        },
        {
            "bufferView" : 4,
            "componentType" : 5123,
            "count" : 9564,
            "type" : "SCALAR"
        },
        {
            "bufferView" : 5,
            "componentType" : 5126,
            "count" : 7844,
            "max" : [
                0.9999920725822449,
                1.0043843984603882,
                1.102352499961853
            ],
            "min" : [
                -1.0000078678131104,
                -1.0108076333999634,
                -1.0271941423416138
            ],
            "type" : "VEC3"
        },
        {
            "bufferView" : 6,
            "componentType" : 5126,
            "count" : 7844,
            "type" : "VEC3"
        },
        {
            "bufferView" : 7,
            "componentType" : 5126,
            "count" : 7844,
            "type" : "VEC2"
        },
        {
            "bufferView" : 8,
            "componentType" : 5123,
            "count" : 7844,
            "normalized" : true,
            "type" : "VEC4"
        },
        {
            "bufferView" : 9,
            "componentType" : 5123,
            "count" : 17388,
            "type" : "SCALAR"
        },
        {
            "bufferView" : 10,
            "componentType" : 5126,
            "count" : 778,
            "max" : [
                0.7911516427993774,
                1.259426474571228,
                1
            ],
            "min" : [
                -1.2088483572006226,
                -0.8355242013931274,
                -1
            ],
            "type" : "VEC3"
        },
        {
            "bufferView" : 11,
            "componentType" : 5126,
            "count" : 778,
            "type" : "VEC3"
        },
        {
            "bufferView" : 12,
            "componentType" : 5126,
            "count" : 778,
            "type" : "VEC2"
        },
        {
            "bufferView" : 13,
            "componentType" : 5123,
            "count" : 778,
            "normalized" : true,
            "type" : "VEC4"
        },
        {
            "bufferView" : 14,
            "componentType" : 5123,
            "count" : 2280,
            "type" : "SCALAR"
        },
        {
            "bufferView" : 15,
            "componentType" : 5126,
            "count" : 8049,
            "max" : [
                0.02215154841542244,
                0.009434581734240055,
                0.020556939765810966
            ],
            "min" : [
                -0.022861402481794357,
                -0.009087207727134228,
                -0.019798271358013153
            ],
            "type" : "VEC3"
        },
        {
            "bufferView" : 16,
            "componentType" : 5126,
            "count" : 8049,
            "type" : "VEC3"
        },
        {
            "bufferView" : 17,
            "componentType" : 5123,
            "count" : 8049,
            "normalized" : true,
            "type" : "VEC4"
        },
        {
            "bufferView" : 18,
            "componentType" : 5123,
            "count" : 48282,
            "type" : "SCALAR"
        },
        {
            "bufferView" : 19,
            "componentType" : 5126,
            "count" : 8049,
            "max" : [
                0.02215154841542244,
                0.009434581734240055,
                0.020556939765810966
            ],
            "min" : [
                -0.022861402481794357,
                -0.009087207727134228,
                -0.019798271358013153
            ],
            "type" : "VEC3"
        },
        {
            "bufferView" : 20,
            "componentType" : 5126,
            "count" : 8049,
            "type" : "VEC3"
        },
        {
            "bufferView" : 21,
            "componentType" : 5123,
            "count" : 8049,
            "normalized" : true,
            "type" : "VEC4"
        },
        {
            "bufferView" : 22,
            "componentType" : 5126,
            "count" : 5108,
            "max" : [
                27.21887969970703,
                31.107254028320312,
                15.575197219848633
            ],
            "min" : [
                -27.219146728515625,
                -31.118999481201172,
                -14.392735481262207
            ],
            "type" : "VEC3"
        },
        {
            "bufferView" : 23,
            "componentType" : 5126,
            "count" : 5108,
            "type" : "VEC3"
        },
        {
            "bufferView" : 24,
            "componentType" : 5126,
            "count" : 5108,
            "type" : "VEC2"
        },
        {
            "bufferView" : 25,
            "componentType" : 5123,
            "count" : 5108,
            "normalized" : true,
            "type" : "VEC4"
        },
        {
            "bufferView" : 26,
            "componentType" : 5123,
            "count" : 9876,
            "type" : "SCALAR"
        }
    ],
    "bufferViews" : [
        {
            "buffer" : 0,
            "byteLength" : 33036,
            "byteOffset" : 0
        },
        {
            "buffer" : 0,
            "byteLength" : 33036,
            "byteOffset" : 33036
        },
        {
            "buffer" : 0,
            "byteLength" : 22024,
            "byteOffset" : 66072
        },
        {
            "buffer" : 0,
            "byteLength" : 22024,
            "byteOffset" : 88096
        },
        {
            "buffer" : 0,
            "byteLength" : 19128,
            "byteOffset" : 110120
        },
        {
            "buffer" : 0,
            "byteLength" : 94128,
            "byteOffset" : 129248
        },
        {
            "buffer" : 0,
            "byteLength" : 94128,
            "byteOffset" : 223376
        },
        {
            "buffer" : 0,
            "byteLength" : 62752,
            "byteOffset" : 317504
        },
        {
            "buffer" : 0,
            "byteLength" : 62752,
            "byteOffset" : 380256
        },
        {
            "buffer" : 0,
            "byteLength" : 34776,
            "byteOffset" : 443008
        },
        {
            "buffer" : 0,
            "byteLength" : 9336,
            "byteOffset" : 477784
        },
        {
            "buffer" : 0,
            "byteLength" : 9336,
            "byteOffset" : 487120
        },
        {
            "buffer" : 0,
            "byteLength" : 6224,
            "byteOffset" : 496456
        },
        {
            "buffer" : 0,
            "byteLength" : 6224,
            "byteOffset" : 502680
        },
        {
            "buffer" : 0,
            "byteLength" : 4560,
            "byteOffset" : 508904
        },
        {
            "buffer" : 0,
            "byteLength" : 96588,
            "byteOffset" : 513464
        },
        {
            "buffer" : 0,
            "byteLength" : 96588,
            "byteOffset" : 610052
        },
        {
            "buffer" : 0,
            "byteLength" : 64392,
            "byteOffset" : 706640
        },
        {
            "buffer" : 0,
            "byteLength" : 96564,
            "byteOffset" : 771032
        },
        {
            "buffer" : 0,
            "byteLength" : 96588,
            "byteOffset" : 867596
        },
        {
            "buffer" : 0,
            "byteLength" : 96588,
            "byteOffset" : 964184
        },
        {
            "buffer" : 0,
            "byteLength" : 64392,
            "byteOffset" : 1060772
        },
        {
            "buffer" : 0,
            "byteLength" : 61296,
            "byteOffset" : 1125164
        },
        {
            "buffer" : 0,
            "byteLength" : 61296,
            "byteOffset" : 1186460
        },
        {
            "buffer" : 0,
            "byteLength" : 40864,
            "byteOffset" : 1247756
        },
        {
            "buffer" : 0,
            "byteLength" : 40864,
            "byteOffset" : 1288620
        },
        {
            "buffer" : 0,
            "byteLength" : 19752,
            "byteOffset" : 1329484
        }
    ],
    "buffers" : [
        {
            "byteLength" : 1349236,
            "uri" : "data:application/octet-stream;base64,"
        }
    ]
}
