{
    "asset" : {
        "generator" : "Khronos glTF Blender I/O v1.6.16",
        "version" : "2.0"
    },
    "scene" : 0,
    "scenes" : [
        {
            "name" : "Scene",
            "nodes" : [
                0
            ]
        }
    ],
    "nodes" : [
        {
            "mesh" : 0,
            "name" : "MagnifyingGlass",
            "scale" : [
                0.019264942035079002,
                0.0804104134440422,
                0.019264942035079002
            ],
            "translation" : [
                0,
                0.004493442364037037,
                0
            ]
        }
    ],
    "meshes" : [
        {
            "name" : "Cylinder.003",
            "primitives" : [
                {
                    "attributes" : {
                        "POSITION" : 0,
                        "NORMAL" : 1,
                        "TEXCOORD_0" : 2,
                        "COLOR_0" : 3
                    },
                    "indices" : 4
                }
            ]
        }
    ],
    "accessors" : [
        {
            "bufferView" : 0,
            "componentType" : 5126,
            "count" : 776,
            "max" : [
                5.059526443481445,
                4.363004684448242,
                1
            ],
            "min" : [
                -5.059526443481445,
                -1,
                -1
            ],
            "type" : "VEC3"
        },
        {
            "bufferView" : 1,
            "componentType" : 5126,
            "count" : 776,
            "type" : "VEC3"
        },
        {
            "bufferView" : 2,
            "componentType" : 5126,
            "count" : 776,
            "type" : "VEC2"
        },
        {
            "bufferView" : 3,
            "componentType" : 5123,
            "count" : 776,
            "normalized" : true,
            "type" : "VEC4"
        },
        {
            "bufferView" : 4,
            "componentType" : 5123,
            "count" : 1512,
            "type" : "SCALAR"
        }
    ],
    "bufferViews" : [
        {
            "buffer" : 0,
            "byteLength" : 9312,
            "byteOffset" : 0
        },
        {
            "buffer" : 0,
            "byteLength" : 9312,
            "byteOffset" : 9312
        },
        {
            "buffer" : 0,
            "byteLength" : 6208,
            "byteOffset" : 18624
        },
        {
            "buffer" : 0,
            "byteLength" : 6208,
            "byteOffset" : 24832
        },
        {
            "buffer" : 0,
            "byteLength" : 3024,
            "byteOffset" : 31040
        }
    ],
    "buffers" : [
        {
            "byteLength" : 34064,
            "uri" : "data:application/octet-stream;base64,"
        }
    ]
}
