{
    "asset" : {
        "generator" : "Khronos glTF Blender I/O v1.6.16",
        "version" : "2.0"
    },
    "scene" : 0,
    "scenes" : [
        {
            "name" : "Scene",
            "nodes" : [
                0,
                1,
                2
            ]
        }
    ],
    "nodes" : [
        {
            "mesh" : 0,
            "name" : "Cube",
            "rotation" : [
                0,
                -0.6499990224838257,
                0,
                0.7599350214004517
            ],
            "scale" : [
                0.8274447321891785,
                1.6548891067504883,
                0.8274447321891785
            ],
            "translation" : [
                0,
                1.6550003290176392,
                0.01845186948776245
            ]
        },
        {
            "mesh" : 1,
            "name" : "Cube.002",
            "rotation" : [
                0,
                -0.9999085068702698,
                0,
                -0.013526428490877151
            ],
            "scale" : [
                -0.1514214277267456,
                -0.001626557670533657,
                -0.23150008916854858
            ],
            "translation" : [
                -0.160699263215065,
                0.6026771664619446,
                -0.09854483604431152
            ]
        },
        {
            "mesh" : 2,
            "name" : "Cube.003",
            "rotation" : [
                0,
                0.9704418182373047,
                0,
                -0.24133515357971191
            ],
            "scale" : [
                -0.15142138302326202,
                -0.001626557670533657,
                -0.2315000295639038
            ],
            "translation" : [
                -0.13174600899219513,
                0.5963432192802429,
                -0.13419485092163086
            ]
        }
    ],
    "materials" : [
        {
            "doubleSided" : true,
            "name" : "Material.001",
            "pbrMetallicRoughness" : {
                "baseColorFactor" : [
                    0.5,
                    0.5,
                    0.5,
                    1
                ],
                "metallicFactor" : 0,
                "roughnessFactor" : 0.800000011920929
            }
        },
        {
            "doubleSided" : true,
            "name" : "Material.002",
            "pbrMetallicRoughness" : {
                "baseColorFactor" : [
                    0.5,
                    0.5,
                    0.5,
                    1
                ],
                "metallicFactor" : 0,
                "roughnessFactor" : 0.4000000059604645
            }
        }
    ],
    "meshes" : [
        {
            "name" : "Cube.001",
            "primitives" : [
                {
                    "attributes" : {
                        "POSITION" : 0,
                        "NORMAL" : 1,
                        "COLOR_0" : 2
                    },
                    "indices" : 3,
                    "material" : 0
                }
            ]
        },
        {
            "name" : "Cube.003",
            "primitives" : [
                {
                    "attributes" : {
                        "POSITION" : 4,
                        "NORMAL" : 5,
                        "TEXCOORD_0" : 6,
                        "COLOR_0" : 7
                    },
                    "indices" : 8,
                    "material" : 1
                }
            ]
        },
        {
            "name" : "Cube.004",
            "primitives" : [
                {
                    "attributes" : {
                        "POSITION" : 9,
                        "NORMAL" : 10,
                        "TEXCOORD_0" : 11,
                        "COLOR_0" : 12
                    },
                    "indices" : 8,
                    "material" : 1
                }
            ]
        }
    ],
    "accessors" : [
        {
            "bufferView" : 0,
            "componentType" : 5126,
            "count" : 120,
            "max" : [
                0.6425386667251587,
                0.2858926057815552,
                0.471515953540802
            ],
            "min" : [
                -0.6425387263298035,
                -0.999184250831604,
                -0.3330887258052826
            ],
            "type" : "VEC3"
        },
        {
            "bufferView" : 1,
            "componentType" : 5126,
            "count" : 120,
            "type" : "VEC3"
        },
        {
            "bufferView" : 2,
            "componentType" : 5123,
            "count" : 120,
            "normalized" : true,
            "type" : "VEC4"
        },
        {
            "bufferView" : 3,
            "componentType" : 5123,
            "count" : 192,
            "type" : "SCALAR"
        },
        {
            "bufferView" : 4,
            "componentType" : 5126,
            "count" : 4582,
            "max" : [
                1,
                1,
                1
            ],
            "min" : [
                -1,
                -1,
                -1
            ],
            "type" : "VEC3"
        },
        {
            "bufferView" : 5,
            "componentType" : 5126,
            "count" : 4582,
            "type" : "VEC3"
        },
        {
            "bufferView" : 6,
            "componentType" : 5126,
            "count" : 4582,
            "type" : "VEC2"
        },
        {
            "bufferView" : 7,
            "componentType" : 5123,
            "count" : 4582,
            "normalized" : true,
            "type" : "VEC4"
        },
        {
            "bufferView" : 8,
            "componentType" : 5123,
            "count" : 20112,
            "type" : "SCALAR"
        },
        {
            "bufferView" : 9,
            "componentType" : 5126,
            "count" : 4582,
            "max" : [
                1,
                1,
                1
            ],
            "min" : [
                -1,
                -1,
                -1
            ],
            "type" : "VEC3"
        },
        {
            "bufferView" : 10,
            "componentType" : 5126,
            "count" : 4582,
            "type" : "VEC3"
        },
        {
            "bufferView" : 11,
            "componentType" : 5126,
            "count" : 4582,
            "type" : "VEC2"
        },
        {
            "bufferView" : 12,
            "componentType" : 5123,
            "count" : 4582,
            "normalized" : true,
            "type" : "VEC4"
        }
    ],
    "bufferViews" : [
        {
            "buffer" : 0,
            "byteLength" : 1440,
            "byteOffset" : 0
        },
        {
            "buffer" : 0,
            "byteLength" : 1440,
            "byteOffset" : 1440
        },
        {
            "buffer" : 0,
            "byteLength" : 960,
            "byteOffset" : 2880
        },
        {
            "buffer" : 0,
            "byteLength" : 384,
            "byteOffset" : 3840
        },
        {
            "buffer" : 0,
            "byteLength" : 54984,
            "byteOffset" : 4224
        },
        {
            "buffer" : 0,
            "byteLength" : 54984,
            "byteOffset" : 59208
        },
        {
            "buffer" : 0,
            "byteLength" : 36656,
            "byteOffset" : 114192
        },
        {
            "buffer" : 0,
            "byteLength" : 36656,
            "byteOffset" : 150848
        },
        {
            "buffer" : 0,
            "byteLength" : 40224,
            "byteOffset" : 187504
        },
        {
            "buffer" : 0,
            "byteLength" : 54984,
            "byteOffset" : 227728
        },
        {
            "buffer" : 0,
            "byteLength" : 54984,
            "byteOffset" : 282712
        },
        {
            "buffer" : 0,
            "byteLength" : 36656,
            "byteOffset" : 337696
        },
        {
            "buffer" : 0,
            "byteLength" : 36656,
            "byteOffset" : 374352
        }
    ],
    "buffers" : [
        {
            "byteLength" : 411008,
            "uri" : "data:application/octet-stream;base64,"
        }
    ]
}
