{
    "asset" : {
        "generator" : "Khronos glTF Blender I/O v1.6.16",
        "version" : "2.0"
    },
    "scene" : 0,
    "scenes" : [
        {
            "name" : "Scene",
            "nodes" : [
                0
            ]
        }
    ],
    "nodes" : [
        {
            "mesh" : 0,
            "name" : "Cube.016",
            "rotation" : [
                0,
                -0.46699777245521545,
                0,
                0.884258508682251
            ],
            "scale" : [
                0.29233431816101074,
                0.2516271770000458,
                0.29233431816101074
            ],
            "translation" : [
                0.0055524446070194244,
                0.25194627046585083,
                -0.004472874104976654
            ]
        }
    ],
    "materials" : [
        {
            "doubleSided" : true,
            "name" : "Material.001",
            "pbrMetallicRoughness" : {
                "baseColorFactor" : [
                    0.5,
                    0.5,
                    0.5,
                    1
                ],
                "metallicFactor" : 0,
                "roughnessFactor" : 0.800000011920929
            }
        }
    ],
    "meshes" : [
        {
            "name" : "Cube.015",
            "primitives" : [
                {
                    "attributes" : {
                        "POSITION" : 0,
                        "NORMAL" : 1,
                        "TEXCOORD_0" : 2,
                        "COLOR_0" : 3
                    },
                    "indices" : 4,
                    "material" : 0
                }
            ]
        }
    ],
    "accessors" : [
        {
            "bufferView" : 0,
            "componentType" : 5126,
            "count" : 23126,
            "max" : [
                1.3033053874969482,
                1.006845474243164,
                1.2553883790969849
            ],
            "min" : [
                -1.1409225463867188,
                -1,
                -1.0000003576278687
            ],
            "type" : "VEC3"
        },
        {
            "bufferView" : 1,
            "componentType" : 5126,
            "count" : 23126,
            "type" : "VEC3"
        },
        {
            "bufferView" : 2,
            "componentType" : 5126,
            "count" : 23126,
            "type" : "VEC2"
        },
        {
            "bufferView" : 3,
            "componentType" : 5123,
            "count" : 23126,
            "normalized" : true,
            "type" : "VEC4"
        },
        {
            "bufferView" : 4,
            "componentType" : 5123,
            "count" : 61116,
            "type" : "SCALAR"
        }
    ],
    "bufferViews" : [
        {
            "buffer" : 0,
            "byteLength" : 277512,
            "byteOffset" : 0
        },
        {
            "buffer" : 0,
            "byteLength" : 277512,
            "byteOffset" : 277512
        },
        {
            "buffer" : 0,
            "byteLength" : 185008,
            "byteOffset" : 555024
        },
        {
            "buffer" : 0,
            "byteLength" : 185008,
            "byteOffset" : 740032
        },
        {
            "buffer" : 0,
            "byteLength" : 122232,
            "byteOffset" : 925040
        }
    ],
    "buffers" : [
        {
            "byteLength" : 1047272,
            "uri" : "data:application/octet-stream;base64,"
        }
    ]
}
