{
    "asset" : {
        "generator" : "Khronos glTF Blender I/O v1.6.16",
        "version" : "2.0"
    },
    "scene" : 0,
    "scenes" : [
        {
            "name" : "Scene",
            "nodes" : [
                0,
                1,
                2,
                3
            ]
        }
    ],
    "nodes" : [
        {
            "mesh" : 0,
            "name" : "Sphere",
            "scale" : [
                0.03400825336575508,
                0.03400825336575508,
                0.03400825336575508
            ],
            "translation" : [
                -0.0008583441376686096,
                0.0015065670013427734,
                -0.00044514983892440796
            ]
        },
        {
            "mesh" : 1,
            "name" : "Sphere.001",
            "scale" : [
                0.3400825262069702,
                0.3400825262069702,
                0.3400825262069702
            ],
            "translation" : [
                -0.0008583441376686096,
                -0.1286908984184265,
                -0.00044514983892440796
            ]
        },
        {
            "mesh" : 2,
            "name" : "Sphere.009",
            "rotation" : [
                0,
                -0.19505517184734344,
                0,
                0.9807922840118408
            ],
            "scale" : [
                0.01700412668287754,
                0.01700412668287754,
                0.01700412668287754
            ],
            "translation" : [
                0.31339162588119507,
                -0.12873393297195435,
                0.1297350823879242
            ]
        },
        {
            "mesh" : 3,
            "name" : "Cylinder",
            "scale" : [
                0.2171003818511963,
                0.020455697551369667,
                0.2171003818511963
            ],
            "translation" : [
                -0.0008583441376686096,
                -1.6853406429290771,
                -0.00044514983892440796
            ]
        }
    ],
    "materials" : [
        {
            "doubleSided" : true,
            "name" : "Material",
            "pbrMetallicRoughness" : {
                "baseColorFactor" : [
                    0.5,
                    0.5,
                    0.5,
                    1
                ],
                "metallicFactor" : 0.20000000298023224,
                "roughnessFactor" : 0.5
            }
        }
    ],
    "meshes" : [
        {
            "name" : "Sphere",
            "primitives" : [
                {
                    "attributes" : {
                        "POSITION" : 0,
                        "NORMAL" : 1,
                        "TEXCOORD_0" : 2
                    },
                    "indices" : 3
                }
            ]
        },
        {
            "name" : "Sphere.001",
            "primitives" : [
                {
                    "attributes" : {
                        "POSITION" : 4,
                        "NORMAL" : 5,
                        "TEXCOORD_0" : 6,
                        "COLOR_0" : 7
                    },
                    "indices" : 8,
                    "material" : 0
                }
            ]
        },
        {
            "name" : "Sphere.009",
            "primitives" : [
                {
                    "attributes" : {
                        "POSITION" : 9,
                        "NORMAL" : 10,
                        "TEXCOORD_0" : 11,
                        "COLOR_0" : 12
                    },
                    "indices" : 13
                }
            ]
        },
        {
            "name" : "Cylinder",
            "primitives" : [
                {
                    "attributes" : {
                        "POSITION" : 14,
                        "NORMAL" : 15,
                        "TEXCOORD_0" : 16,
                        "COLOR_0" : 17
                    },
                    "indices" : 18
                }
            ]
        }
    ],
    "accessors" : [
        {
            "bufferView" : 0,
            "componentType" : 5126,
            "count" : 1984,
            "max" : [
                0.9999997019767761,
                1,
                0.9999994039535522
            ],
            "min" : [
                -0.9999990463256836,
                -1,
                -0.9999987483024597
            ],
            "type" : "VEC3"
        },
        {
            "bufferView" : 1,
            "componentType" : 5126,
            "count" : 1984,
            "type" : "VEC3"
        },
        {
            "bufferView" : 2,
            "componentType" : 5126,
            "count" : 1984,
            "type" : "VEC2"
        },
        {
            "bufferView" : 3,
            "componentType" : 5123,
            "count" : 2880,
            "type" : "SCALAR"
        },
        {
            "bufferView" : 4,
            "componentType" : 5126,
            "count" : 2112,
            "max" : [
                0.9999997019767761,
                1.0527503490447998,
                0.9999994039535522
            ],
            "min" : [
                -0.9999990463256836,
                -0.0009799930267035961,
                -0.9999987483024597
            ],
            "type" : "VEC3"
        },
        {
            "bufferView" : 5,
            "componentType" : 5126,
            "count" : 2112,
            "type" : "VEC3"
        },
        {
            "bufferView" : 6,
            "componentType" : 5126,
            "count" : 2112,
            "type" : "VEC2"
        },
        {
            "bufferView" : 7,
            "componentType" : 5123,
            "count" : 2112,
            "normalized" : true,
            "type" : "VEC4"
        },
        {
            "bufferView" : 8,
            "componentType" : 5123,
            "count" : 3072,
            "type" : "SCALAR"
        },
        {
            "bufferView" : 9,
            "componentType" : 5126,
            "count" : 31744,
            "max" : [
                0.4437847137451172,
                0.9735158681869507,
                20.4401912689209
            ],
            "min" : [
                -40.44963455200195,
                -0.9735192060470581,
                -20.44230842590332
            ],
            "type" : "VEC3"
        },
        {
            "bufferView" : 10,
            "componentType" : 5126,
            "count" : 31744,
            "type" : "VEC3"
        },
        {
            "bufferView" : 11,
            "componentType" : 5126,
            "count" : 31744,
            "type" : "VEC2"
        },
        {
            "bufferView" : 12,
            "componentType" : 5123,
            "count" : 31744,
            "normalized" : true,
            "type" : "VEC4"
        },
        {
            "bufferView" : 13,
            "componentType" : 5123,
            "count" : 46080,
            "type" : "SCALAR"
        },
        {
            "bufferView" : 14,
            "componentType" : 5126,
            "count" : 384,
            "max" : [
                1,
                82.46061706542969,
                1
            ],
            "min" : [
                -1,
                -1,
                -1
            ],
            "type" : "VEC3"
        },
        {
            "bufferView" : 15,
            "componentType" : 5126,
            "count" : 384,
            "type" : "VEC3"
        },
        {
            "bufferView" : 16,
            "componentType" : 5126,
            "count" : 384,
            "type" : "VEC2"
        },
        {
            "bufferView" : 17,
            "componentType" : 5123,
            "count" : 384,
            "normalized" : true,
            "type" : "VEC4"
        },
        {
            "bufferView" : 18,
            "componentType" : 5123,
            "count" : 744,
            "type" : "SCALAR"
        }
    ],
    "bufferViews" : [
        {
            "buffer" : 0,
            "byteLength" : 23808,
            "byteOffset" : 0
        },
        {
            "buffer" : 0,
            "byteLength" : 23808,
            "byteOffset" : 23808
        },
        {
            "buffer" : 0,
            "byteLength" : 15872,
            "byteOffset" : 47616
        },
        {
            "buffer" : 0,
            "byteLength" : 5760,
            "byteOffset" : 63488
        },
        {
            "buffer" : 0,
            "byteLength" : 25344,
            "byteOffset" : 69248
        },
        {
            "buffer" : 0,
            "byteLength" : 25344,
            "byteOffset" : 94592
        },
        {
            "buffer" : 0,
            "byteLength" : 16896,
            "byteOffset" : 119936
        },
        {
            "buffer" : 0,
            "byteLength" : 16896,
            "byteOffset" : 136832
        },
        {
            "buffer" : 0,
            "byteLength" : 6144,
            "byteOffset" : 153728
        },
        {
            "buffer" : 0,
            "byteLength" : 380928,
            "byteOffset" : 159872
        },
        {
            "buffer" : 0,
            "byteLength" : 380928,
            "byteOffset" : 540800
        },
        {
            "buffer" : 0,
            "byteLength" : 253952,
            "byteOffset" : 921728
        },
        {
            "buffer" : 0,
            "byteLength" : 253952,
            "byteOffset" : 1175680
        },
        {
            "buffer" : 0,
            "byteLength" : 92160,
            "byteOffset" : 1429632
        },
        {
            "buffer" : 0,
            "byteLength" : 4608,
            "byteOffset" : 1521792
        },
        {
            "buffer" : 0,
            "byteLength" : 4608,
            "byteOffset" : 1526400
        },
        {
            "buffer" : 0,
            "byteLength" : 3072,
            "byteOffset" : 1531008
        },
        {
            "buffer" : 0,
            "byteLength" : 3072,
            "byteOffset" : 1534080
        },
        {
            "buffer" : 0,
            "byteLength" : 1488,
            "byteOffset" : 1537152
        }
    ],
    "buffers" : [
        {
            "byteLength" : 1538640,
            "uri" : "data:application/octet-stream;base64,"
        }
    ]
}
