{
    "asset" : {
        "generator" : "Khronos glTF Blender I/O v1.6.16",
        "version" : "2.0"
    },
    "scene" : 0,
    "scenes" : [
        {
            "name" : "Scene",
            "nodes" : [
                0
            ]
        }
    ],
    "nodes" : [
        {
            "mesh" : 0,
            "name" : "Floor",
            "scale" : [
                6,
                0.10000000149011612,
                5
            ],
            "translation" : [
                2,
                -0.10000000149011612,
                0
            ]
        }
    ],
    "materials" : [
        {
            "doubleSided" : true,
            "name" : "Material",
            "pbrMetallicRoughness" : {
                "baseColorFactor" : [
                    0.5,
                    0.5,
                    0.5,
                    1
                ],
                "metallicFactor" : 0
            }
        }
    ],
    "meshes" : [
        {
            "name" : "Cube",
            "primitives" : [
                {
                    "attributes" : {
                        "POSITION" : 0,
                        "NORMAL" : 1,
                        "TEXCOORD_0" : 2,
                        "COLOR_0" : 3
                    },
                    "indices" : 4,
                    "material" : 0
                }
            ]
        }
    ],
    "accessors" : [
        {
            "bufferView" : 0,
            "componentType" : 5126,
            "count" : 6761,
            "max" : [
                1,
                33.80266189575195,
                1
            ],
            "min" : [
                -1,
                -1,
                -1.0011225938796997
            ],
            "type" : "VEC3"
        },
        {
            "bufferView" : 1,
            "componentType" : 5126,
            "count" : 6761,
            "type" : "VEC3"
        },
        {
            "bufferView" : 2,
            "componentType" : 5126,
            "count" : 6761,
            "type" : "VEC2"
        },
        {
            "bufferView" : 3,
            "componentType" : 5123,
            "count" : 6761,
            "normalized" : true,
            "type" : "VEC4"
        },
        {
            "bufferView" : 4,
            "componentType" : 5123,
            "count" : 27036,
            "type" : "SCALAR"
        }
    ],
    "bufferViews" : [
        {
            "buffer" : 0,
            "byteLength" : 81132,
            "byteOffset" : 0
        },
        {
            "buffer" : 0,
            "byteLength" : 81132,
            "byteOffset" : 81132
        },
        {
            "buffer" : 0,
            "byteLength" : 54088,
            "byteOffset" : 162264
        },
        {
            "buffer" : 0,
            "byteLength" : 54088,
            "byteOffset" : 216352
        },
        {
            "buffer" : 0,
            "byteLength" : 54072,
            "byteOffset" : 270440
        }
    ],
    "buffers" : [
        {
            "byteLength" : 324512,
            "uri" : "data:application/octet-stream;base64,"
        }
    ]
}
