{
    "asset" : {
        "generator" : "Khronos glTF Blender I/O v1.6.16",
        "version" : "2.0"
    },
    "scene" : 0,
    "scenes" : [
        {
            "name" : "Scene",
            "nodes" : [
                0
            ]
        }
    ],
    "nodes" : [
        {
            "mesh" : 0,
            "name" : "Chair"
        }
    ],
    "materials" : [
        {
            "doubleSided" : true,
            "name" : "Cover",
            "pbrMetallicRoughness" : {
                "baseColorFactor" : [
                    0.5,
                    0.5,
                    0.5,
                    1
                ],
                "metallicFactor" : 0,
                "roughnessFactor" : 0.800000011920929
            }
        },
        {
            "doubleSided" : true,
            "name" : "wood",
            "pbrMetallicRoughness" : {
                "baseColorFactor" : [
                    0.800000011920929,
                    0.800000011920929,
                    0.800000011920929,
                    1
                ],
                "metallicFactor" : 0,
                "roughnessFactor" : 0.5
            }
        }
    ],
    "meshes" : [
        {
            "name" : "Cube.024",
            "primitives" : [
                {
                    "attributes" : {
                        "POSITION" : 0,
                        "NORMAL" : 1,
                        "TEXCOORD_0" : 2,
                        "COLOR_0" : 3
                    },
                    "indices" : 4,
                    "material" : 0
                },
                {
                    "attributes" : {
                        "POSITION" : 5,
                        "NORMAL" : 6,
                        "TEXCOORD_0" : 7,
                        "COLOR_0" : 8
                    },
                    "indices" : 9,
                    "material" : 1
                }
            ]
        }
    ],
    "accessors" : [
        {
            "bufferView" : 0,
            "componentType" : 5126,
            "count" : 1080,
            "max" : [
                0.5134316682815552,
                2.0678253173828125,
                0.5132849216461182
            ],
            "min" : [
                -0.3233069181442261,
                0.0004999447846785188,
                -0.33558201789855957
            ],
            "type" : "VEC3"
        },
        {
            "bufferView" : 1,
            "componentType" : 5126,
            "count" : 1080,
            "type" : "VEC3"
        },
        {
            "bufferView" : 2,
            "componentType" : 5126,
            "count" : 1080,
            "type" : "VEC2"
        },
        {
            "bufferView" : 3,
            "componentType" : 5123,
            "count" : 1080,
            "normalized" : true,
            "type" : "VEC4"
        },
        {
            "bufferView" : 4,
            "componentType" : 5123,
            "count" : 1620,
            "type" : "SCALAR"
        },
        {
            "bufferView" : 5,
            "componentType" : 5126,
            "count" : 24,
            "max" : [
                -0.28793585300445557,
                2.0678253173828125,
                -0.006583571434020996
            ],
            "min" : [
                -0.3350856304168701,
                0.000745113065931946,
                -0.05373334884643555
            ],
            "type" : "VEC3"
        },
        {
            "bufferView" : 6,
            "componentType" : 5126,
            "count" : 24,
            "type" : "VEC3"
        },
        {
            "bufferView" : 7,
            "componentType" : 5126,
            "count" : 24,
            "type" : "VEC2"
        },
        {
            "bufferView" : 8,
            "componentType" : 5123,
            "count" : 24,
            "normalized" : true,
            "type" : "VEC4"
        },
        {
            "bufferView" : 9,
            "componentType" : 5123,
            "count" : 36,
            "type" : "SCALAR"
        }
    ],
    "bufferViews" : [
        {
            "buffer" : 0,
            "byteLength" : 12960,
            "byteOffset" : 0
        },
        {
            "buffer" : 0,
            "byteLength" : 12960,
            "byteOffset" : 12960
        },
        {
            "buffer" : 0,
            "byteLength" : 8640,
            "byteOffset" : 25920
        },
        {
            "buffer" : 0,
            "byteLength" : 8640,
            "byteOffset" : 34560
        },
        {
            "buffer" : 0,
            "byteLength" : 3240,
            "byteOffset" : 43200
        },
        {
            "buffer" : 0,
            "byteLength" : 288,
            "byteOffset" : 46440
        },
        {
            "buffer" : 0,
            "byteLength" : 288,
            "byteOffset" : 46728
        },
        {
            "buffer" : 0,
            "byteLength" : 192,
            "byteOffset" : 47016
        },
        {
            "buffer" : 0,
            "byteLength" : 192,
            "byteOffset" : 47208
        },
        {
            "buffer" : 0,
            "byteLength" : 72,
            "byteOffset" : 47400
        }
    ],
    "buffers" : [
        {
            "byteLength" : 47472,
            "uri" : "data:application/octet-stream;base64,"
        }
    ]
}
