{
    "asset" : {
        "generator" : "Khronos glTF Blender I/O v1.6.16",
        "version" : "2.0"
    },
    "scene" : 0,
    "scenes" : [
        {
            "name" : "Scene",
            "nodes" : [
                0,
                1,
                2
            ]
        }
    ],
    "nodes" : [
        {
            "mesh" : 0,
            "name" : "Cube"
        },
        {
            "mesh" : 1,
            "name" : "Cylinder.006",
            "rotation" : [
                0,
                -0.46234726905822754,
                0,
                0.8866989612579346
            ],
            "scale" : [
                0.021334318444132805,
                0.021334314718842506,
                0.021334318444132805
            ],
            "translation" : [
                -0.6197577118873596,
                1.2331914901733398,
                0.1441086083650589
            ]
        },
        {
            "mesh" : 2,
            "name" : "Cylinder.007",
            "rotation" : [
                0.17498694360256195,
                -0.9812639951705933,
                0.012171066366136074,
                0.07970233261585236
            ],
            "scale" : [
                -0.013002424500882626,
                -0.0130024254322052,
                -0.0130024254322052
            ],
            "translation" : [
                -0.7149685025215149,
                1.2377954721450806,
                0.16383250057697296
            ]
        }
    ],
    "materials" : [
        {
            "doubleSided" : true,
            "name" : "Material.001",
            "pbrMetallicRoughness" : {
                "baseColorFactor" : [
                    0.5,
                    0.5,
                    0.5,
                    1
                ],
                "metallicFactor" : 0,
                "roughnessFactor" : 0.800000011920929
            }
        },
        {
            "doubleSided" : true,
            "name" : "Material.002",
            "pbrMetallicRoughness" : {
                "baseColorFactor" : [
                    0.5,
                    0.5,
                    0.5,
                    1
                ],
                "metallicFactor" : 0.4000000059604645,
                "roughnessFactor" : 0.4000000059604645
            }
        },
        {
            "doubleSided" : true,
            "name" : "Material.003",
            "pbrMetallicRoughness" : {
                "baseColorFactor" : [
                    0.5,
                    0.5,
                    0.5,
                    1
                ],
                "metallicFactor" : 0,
                "roughnessFactor" : 0.800000011920929
            }
        }
    ],
    "meshes" : [
        {
            "name" : "Cube.048",
            "primitives" : [
                {
                    "attributes" : {
                        "POSITION" : 0,
                        "NORMAL" : 1,
                        "TEXCOORD_0" : 2,
                        "COLOR_0" : 3
                    },
                    "indices" : 4,
                    "material" : 0
                }
            ]
        },
        {
            "name" : "Cylinder.007",
            "primitives" : [
                {
                    "attributes" : {
                        "POSITION" : 5,
                        "NORMAL" : 6,
                        "COLOR_0" : 7
                    },
                    "indices" : 8,
                    "material" : 1
                }
            ]
        },
        {
            "name" : "Cylinder.008",
            "primitives" : [
                {
                    "attributes" : {
                        "POSITION" : 9,
                        "NORMAL" : 10,
                        "COLOR_0" : 11
                    },
                    "indices" : 12,
                    "material" : 2
                }
            ]
        }
    ],
    "accessors" : [
        {
            "bufferView" : 0,
            "componentType" : 5126,
            "count" : 25228,
            "max" : [
                1.245136022567749,
                1.2058285474777222,
                0.6636490821838379
            ],
            "min" : [
                -1.2492355108261108,
                0.0010550862643867731,
                -0.6688499450683594
            ],
            "type" : "VEC3"
        },
        {
            "bufferView" : 1,
            "componentType" : 5126,
            "count" : 25228,
            "type" : "VEC3"
        },
        {
            "bufferView" : 2,
            "componentType" : 5126,
            "count" : 25228,
            "type" : "VEC2"
        },
        {
            "bufferView" : 3,
            "componentType" : 5123,
            "count" : 25228,
            "normalized" : true,
            "type" : "VEC4"
        },
        {
            "bufferView" : 4,
            "componentType" : 5123,
            "count" : 60636,
            "type" : "SCALAR"
        },
        {
            "bufferView" : 5,
            "componentType" : 5126,
            "count" : 5064,
            "max" : [
                4.472461223602295,
                1,
                4.472460746765137
            ],
            "min" : [
                -4.472460746765137,
                -1.3151189088821411,
                -4.472461223602295
            ],
            "type" : "VEC3"
        },
        {
            "bufferView" : 6,
            "componentType" : 5126,
            "count" : 5064,
            "type" : "VEC3"
        },
        {
            "bufferView" : 7,
            "componentType" : 5123,
            "count" : 5064,
            "normalized" : true,
            "type" : "VEC4"
        },
        {
            "bufferView" : 8,
            "componentType" : 5123,
            "count" : 7860,
            "type" : "SCALAR"
        },
        {
            "bufferView" : 9,
            "componentType" : 5126,
            "count" : 1088,
            "max" : [
                4.023950576782227,
                1.2035293579101562,
                0.668670654296875
            ],
            "min" : [
                -4.023996353149414,
                -1.2035942077636719,
                -0.6683349609375
            ],
            "type" : "VEC3"
        },
        {
            "bufferView" : 10,
            "componentType" : 5126,
            "count" : 1088,
            "type" : "VEC3"
        },
        {
            "bufferView" : 11,
            "componentType" : 5123,
            "count" : 1088,
            "normalized" : true,
            "type" : "VEC4"
        },
        {
            "bufferView" : 12,
            "componentType" : 5123,
            "count" : 2868,
            "type" : "SCALAR"
        }
    ],
    "bufferViews" : [
        {
            "buffer" : 0,
            "byteLength" : 302736,
            "byteOffset" : 0
        },
        {
            "buffer" : 0,
            "byteLength" : 302736,
            "byteOffset" : 302736
        },
        {
            "buffer" : 0,
            "byteLength" : 201824,
            "byteOffset" : 605472
        },
        {
            "buffer" : 0,
            "byteLength" : 201824,
            "byteOffset" : 807296
        },
        {
            "buffer" : 0,
            "byteLength" : 121272,
            "byteOffset" : 1009120
        },
        {
            "buffer" : 0,
            "byteLength" : 60768,
            "byteOffset" : 1130392
        },
        {
            "buffer" : 0,
            "byteLength" : 60768,
            "byteOffset" : 1191160
        },
        {
            "buffer" : 0,
            "byteLength" : 40512,
            "byteOffset" : 1251928
        },
        {
            "buffer" : 0,
            "byteLength" : 15720,
            "byteOffset" : 1292440
        },
        {
            "buffer" : 0,
            "byteLength" : 13056,
            "byteOffset" : 1308160
        },
        {
            "buffer" : 0,
            "byteLength" : 13056,
            "byteOffset" : 1321216
        },
        {
            "buffer" : 0,
            "byteLength" : 8704,
            "byteOffset" : 1334272
        },
        {
            "buffer" : 0,
            "byteLength" : 5736,
            "byteOffset" : 1342976
        }
    ],
    "buffers" : [
        {
            "byteLength" : 1348712,
            "uri" : "data:application/octet-stream;base64,"
        }
    ]
}
