{
    "asset" : {
        "generator" : "Khronos glTF Blender I/O v1.6.16",
        "version" : "2.0"
    },
    "scene" : 0,
    "scenes" : [
        {
            "name" : "Scene",
            "nodes" : [
                0
            ]
        }
    ],
    "nodes" : [
        {
            "mesh" : 0,
            "name" : "Cylinder.001",
            "rotation" : [
                0.7071068286895752,
                0,
                0,
                0.7071067094802856
            ],
            "scale" : [
                0.019007718190550804,
                0.019007718190550804,
                0.019007718190550804
            ]
        }
    ],
    "materials" : [
        {
            "doubleSided" : true,
            "name" : "Material.001",
            "pbrMetallicRoughness" : {
                "baseColorFactor" : [
                    0.5,
                    0.5,
                    0.5,
                    1
                ],
                "metallicFactor" : 0.800000011920929,
                "roughnessFactor" : 0.30000001192092896
            }
        }
    ],
    "meshes" : [
        {
            "name" : "Cylinder.001",
            "primitives" : [
                {
                    "attributes" : {
                        "POSITION" : 0,
                        "NORMAL" : 1,
                        "TEXCOORD_0" : 2,
                        "COLOR_0" : 3
                    },
                    "indices" : 4,
                    "material" : 0
                }
            ]
        }
    ],
    "accessors" : [
        {
            "bufferView" : 0,
            "componentType" : 5126,
            "count" : 28216,
            "max" : [
                27.615739822387695,
                7.837093830108643,
                31.905004501342773
            ],
            "min" : [
                -9.059904098510742,
                -7.837087631225586,
                -4.384899139404297
            ],
            "type" : "VEC3"
        },
        {
            "bufferView" : 1,
            "componentType" : 5126,
            "count" : 28216,
            "type" : "VEC3"
        },
        {
            "bufferView" : 2,
            "componentType" : 5126,
            "count" : 28216,
            "type" : "VEC2"
        },
        {
            "bufferView" : 3,
            "componentType" : 5123,
            "count" : 28216,
            "normalized" : true,
            "type" : "VEC4"
        },
        {
            "bufferView" : 4,
            "componentType" : 5123,
            "count" : 54096,
            "type" : "SCALAR"
        }
    ],
    "bufferViews" : [
        {
            "buffer" : 0,
            "byteLength" : 338592,
            "byteOffset" : 0
        },
        {
            "buffer" : 0,
            "byteLength" : 338592,
            "byteOffset" : 338592
        },
        {
            "buffer" : 0,
            "byteLength" : 225728,
            "byteOffset" : 677184
        },
        {
            "buffer" : 0,
            "byteLength" : 225728,
            "byteOffset" : 902912
        },
        {
            "buffer" : 0,
            "byteLength" : 108192,
            "byteOffset" : 1128640
        }
    ],
    "buffers" : [
        {
            "byteLength" : 1236832,
            "uri" : "data:application/octet-stream;base64,"
        }
    ]
}
