# Blender v2.79 (sub 0) OBJ File: 'SignGivingOrderContraFlowBusLane.blend'
# www.blender.org
mtllib SignGivingOrderContraFlowBusLane.mtl
o Cube
v -1.022260 1.000862 -19.895126
v -1.022095 1.993483 -19.895126
v -1.022260 1.000862 -19.944874
v -1.022095 1.993483 -19.944874
v 1.026517 1.000862 -19.895126
v 1.031077 1.993483 -19.895126
v 1.026517 1.000862 -19.944874
v 1.031077 1.993483 -19.944874
v -1.098115 1.078326 -19.895126
v -1.098115 1.496025 -19.895126
v -1.097807 1.906875 -19.895126
v -1.097807 1.906875 -19.944874
v -1.098115 1.496025 -19.944874
v -1.098115 1.078326 -19.944874
v 1.098265 1.906875 -19.944874
v 1.099177 1.496025 -19.944874
v 1.098546 1.078326 -19.944874
v 1.098265 1.906875 -19.895126
v 1.099177 1.496025 -19.895126
v 1.098546 1.078326 -19.895126
v -1.097647 1.069463 -19.944874
v -1.094731 1.060602 -19.944874
v -1.090996 1.051740 -19.944874
v -1.086727 1.042878 -19.944874
v -1.079792 1.034016 -19.944874
v -1.072144 1.025154 -19.944874
v -1.060229 1.016292 -19.944874
v -1.045823 1.007430 -19.944874
v 1.097634 1.069463 -19.944874
v 1.095072 1.060602 -19.944874
v 1.092032 1.051740 -19.944874
v 1.087016 1.042878 -19.944874
v 1.081088 1.034016 -19.944874
v 1.073639 1.025154 -19.944874
v 1.063303 1.016292 -19.944874
v 1.047798 1.007430 -19.944874
v 1.097634 1.069463 -19.895126
v 1.095072 1.060602 -19.895126
v 1.092032 1.051740 -19.895126
v 1.087016 1.042878 -19.895126
v 1.081088 1.034016 -19.895126
v 1.073639 1.025154 -19.895126
v 1.063303 1.016292 -19.895126
v 1.047798 1.007430 -19.895126
v -1.045823 1.007430 -19.895126
v -1.060229 1.016292 -19.895126
v -1.072144 1.025154 -19.895126
v -1.079792 1.034016 -19.895126
v -1.086727 1.042878 -19.895126
v -1.090996 1.051740 -19.895126
v -1.094731 1.060602 -19.895126
v -1.097647 1.069463 -19.895126
v -1.097849 1.916498 -19.895126
v -1.097407 1.926121 -19.895126
v -1.093424 1.935744 -19.895126
v -1.089441 1.945367 -19.895126
v -1.084131 1.954990 -19.895126
v -1.076607 1.964613 -19.895126
v -1.067977 1.974236 -19.895126
v -1.052377 1.983860 -19.895126
v -1.052377 1.983859 -19.944874
v -1.067977 1.974236 -19.944874
v -1.076607 1.964613 -19.944874
v -1.084131 1.954990 -19.944874
v -1.089441 1.945367 -19.944874
v -1.093424 1.935744 -19.944874
v -1.097407 1.926121 -19.944874
v -1.097849 1.916498 -19.944874
v 1.053118 1.983859 -19.944874
v 1.066799 1.974236 -19.944874
v 1.076983 1.964613 -19.944874
v 1.084280 1.954990 -19.944874
v 1.090208 1.945367 -19.944874
v 1.093856 1.935744 -19.944874
v 1.096289 1.926121 -19.944874
v 1.098113 1.916498 -19.944874
v 1.053118 1.983859 -19.895126
v 1.066799 1.974236 -19.895126
v 1.076983 1.964613 -19.895126
v 1.084280 1.954990 -19.895126
v 1.090208 1.945367 -19.895126
v 1.093856 1.935744 -19.895126
v 1.096289 1.926121 -19.895126
v 1.098113 1.916498 -19.895126
vt 0.999713 0.078803
vt 0.000000 0.503728
vt 0.000000 0.078803
vt 0.999585 0.921684
vt 1.000000 0.503728
vt 0.976617 0.006681
vt 0.034522 0.000000
vt 0.966932 0.000000
vt 0.017242 0.015697
vt 0.023798 0.006681
vt 0.991768 0.033727
vt 0.011819 0.024712
vt 0.988378 0.024712
vt 0.994466 0.042742
vt 0.003240 0.051758
vt 0.005182 0.042742
vt 0.999298 0.069788
vt 0.001540 0.060773
vt 0.998132 0.060773
vt 0.999516 0.931473
vt 0.000140 0.921684
vt 0.998686 0.941263
vt 0.000121 0.931473
vt 0.997579 0.951052
vt 0.003947 0.960842
vt 0.002135 0.951052
vt 0.993221 0.970631
vt 0.995919 0.960842
vt 0.985265 0.990210
vt 0.009788 0.980421
vt 0.989900 0.980421
vt 0.020815 1.000000
vt 0.013716 0.990211
vt 0.983674 0.015697
vt 0.008339 0.033727
vt 0.996749 0.051758
vt 0.000213 0.069788
vt 0.000322 0.941263
vt 0.006364 0.970631
vt 0.979039 1.000000
vt 0.000000 0.000000
vt 0.000000 0.000000
vt 0.000000 0.000000
vt 0.000000 0.000000
vt 0.000000 0.000000
vt 0.000000 0.000000
vt 0.000000 0.000000
vt 0.000000 0.000000
vt 0.000000 0.000000
vt 0.000000 0.000000
vt 0.000000 0.000000
vt 0.000000 0.000000
vt 0.000000 0.000000
vt 0.000000 0.000000
vt 0.000000 0.000000
vt 0.000000 0.000000
vt 0.000000 0.000000
vt 0.000000 0.000000
vt 0.000000 0.000000
vt 0.000000 0.000000
vt 0.000000 0.000000
vt 0.000000 0.000000
vt 0.000000 0.000000
vt 0.000000 0.000000
vt 0.000000 0.000000
vt 0.000000 0.000000
vt 0.000000 0.000000
vt 0.000000 0.000000
vt 0.000000 0.000000
vt 0.000000 0.000000
vt 0.000000 0.000000
vt 0.000000 0.000000
vt 0.000000 0.000000
vt 0.000000 0.000000
vt 0.000000 0.000000
vt 0.000000 0.000000
vt 0.000000 0.000000
vt 0.000000 0.000000
vt 0.000000 0.000000
vt 0.000000 0.000000
vt 0.000000 0.000000
vt 0.000000 0.000000
vt 0.000000 0.000000
vt 0.000000 0.000000
vt 0.000000 0.000000
vt 0.000000 0.000000
vt 0.000000 0.000000
vt 0.000000 0.000000
vt 0.000000 0.000000
vt 0.000000 0.000000
vt 0.000000 0.000000
vt 0.000000 0.000000
vt 0.000000 0.000000
vt 0.000000 0.000000
vt 0.000000 0.000000
vt 0.000000 0.000000
vt 0.000000 0.000000
vt 0.000000 0.000000
vt 0.000000 0.000000
vt 0.000000 0.000000
vt 0.000000 0.000000
vt 0.000000 0.000000
vt 0.000000 0.000000
vt 0.000000 0.000000
vt 0.000000 0.000000
vt 0.000000 0.000000
vt 0.000000 0.000000
vt 0.000000 0.000000
vt 0.000000 0.000000
vt 0.000000 0.000000
vt 0.000000 0.000000
vt 0.000000 0.000000
vt 0.000000 0.000000
vt 0.000000 0.000000
vt 0.000000 0.000000
vt 0.000000 0.000000
vt 0.000000 0.000000
vt 0.000000 0.000000
vt 0.000000 0.000000
vt 0.000000 0.000000
vt 0.000000 0.000000
vt 0.000000 0.000000
vt 0.000000 0.000000
vt 0.000000 0.000000
vn 0.0000 0.0000 1.0000
vn -0.3029 0.9530 0.0000
vn 0.0000 0.0000 -1.0000
vn 0.4001 0.9165 0.0000
vn 0.0000 -1.0000 0.0000
vn 0.0000 1.0000 0.0000
vn 0.9947 -0.1024 0.0000
vn 1.0000 -0.0015 0.0000
vn 1.0000 0.0022 0.0000
vn -0.9986 -0.0527 0.0000
vn -1.0000 0.0000 0.0000
vn -1.0000 0.0007 0.0000
vn -0.2685 -0.9633 0.0000
vn -0.5239 -0.8518 0.0000
vn -0.5968 -0.8024 0.0000
vn -0.7571 -0.6533 0.0000
vn -0.7875 -0.6164 0.0000
vn -0.9009 -0.4340 0.0000
vn -0.9215 -0.3884 0.0000
vn -0.9499 -0.3126 0.0000
vn 0.2949 -0.9555 0.0000
vn 0.4962 -0.8682 0.0000
vn 0.6509 -0.7592 0.0000
vn 0.7655 -0.6434 0.0000
vn 0.8312 -0.5560 0.0000
vn 0.8703 -0.4926 0.0000
vn 0.9459 -0.3245 0.0000
vn 0.9607 -0.2777 0.0000
vn 0.9999 0.0158 0.0000
vn 0.9825 0.1862 0.0000
vn 0.9695 0.2450 0.0000
vn 0.9351 0.3545 0.0000
vn 0.8514 0.5245 0.0000
vn 0.7968 0.6042 0.0000
vn 0.6868 0.7269 0.0000
vn 0.5753 0.8179 0.0000
vn -1.0000 -0.0044 0.0000
vn -0.9989 0.0460 0.0000
vn -0.9240 0.3824 0.0000
vn -0.8755 0.4832 0.0000
vn -0.7878 0.6159 0.0000
vn -0.7444 0.6677 0.0000
vn -0.5250 0.8511 -0.0000
vn -0.5240 -0.8517 0.0000
vn -0.7875 -0.6163 0.0000
vn -0.9010 -0.4339 0.0000
vn 0.8311 -0.5561 0.0000
vn 0.7969 0.6042 0.0000
vn 0.6868 0.7268 0.0000
vn -0.9989 0.0459 0.0000
vn -0.8755 0.4831 0.0000
vn -0.7445 0.6677 0.0000
usemtl Sign
s off
f 20/1/1 10/2/1 9/3/1
f 18/4/1 10/2/1 19/5/1
f 44/6/1 1/7/1 5/8/1
f 44/6/1 46/9/1 45/10/1
f 41/11/1 47/12/1 42/13/1
f 40/14/1 50/15/1 49/16/1
f 37/17/1 51/18/1 38/19/1
f 84/20/1 11/21/1 18/4/1
f 83/22/1 53/23/1 84/20/1
f 82/24/1 56/25/1 55/26/1
f 80/27/1 56/25/1 81/28/1
f 78/29/1 58/30/1 79/31/1
f 78/29/1 60/32/1 59/33/1
f 20/1/1 19/5/1 10/2/1
f 18/4/1 11/21/1 10/2/1
f 44/6/1 45/10/1 1/7/1
f 44/6/1 43/34/1 46/9/1
f 41/11/1 48/35/1 47/12/1
f 40/14/1 39/36/1 50/15/1
f 37/17/1 52/37/1 51/18/1
f 84/20/1 53/23/1 11/21/1
f 83/22/1 54/38/1 53/23/1
f 82/24/1 81/28/1 56/25/1
f 80/27/1 57/39/1 56/25/1
f 78/29/1 59/33/1 58/30/1
f 78/29/1 77/40/1 60/32/1
usemtl Sign_NONE
f 2/41/2 61/42/2 60/43/2
f 4/44/3 69/45/3 61/42/3
f 8/46/4 77/47/4 69/45/4
f 77/47/1 2/41/1 60/43/1
f 7/48/5 1/49/5 3/50/5
f 4/44/6 6/51/6 8/46/6
f 37/52/1 9/53/1 52/54/1
f 17/55/7 37/52/7 29/56/7
f 16/57/8 20/58/8 17/55/8
f 15/59/9 19/60/9 16/57/9
f 14/61/3 29/56/3 21/62/3
f 13/63/3 17/55/3 14/61/3
f 13/63/3 15/59/3 16/57/3
f 9/53/10 21/62/10 52/54/10
f 9/53/11 13/63/11 14/61/11
f 11/64/12 13/63/12 10/65/12
f 45/66/13 3/50/13 1/49/13
f 46/67/14 28/68/14 45/66/14
f 47/69/15 27/70/15 46/67/15
f 48/71/16 26/72/16 47/69/16
f 49/73/17 25/74/17 48/71/17
f 50/75/18 24/76/18 49/73/18
f 50/75/19 22/77/19 23/78/19
f 52/54/20 22/77/20 51/79/20
f 3/50/3 36/80/3 7/48/3
f 27/70/3 36/80/3 28/68/3
f 27/70/3 34/81/3 35/82/3
f 26/72/3 33/83/3 34/81/3
f 25/74/3 32/84/3 33/83/3
f 23/78/3 32/84/3 24/76/3
f 23/78/3 30/85/3 31/86/3
f 22/77/3 29/56/3 30/85/3
f 36/80/21 5/87/21 7/48/21
f 35/82/22 44/88/22 36/80/22
f 34/81/23 43/89/23 35/82/23
f 33/83/24 42/90/24 34/81/24
f 32/84/25 41/91/25 33/83/25
f 31/86/26 40/92/26 32/84/26
f 30/85/27 39/93/27 31/86/27
f 29/56/28 38/94/28 30/85/28
f 42/90/1 46/67/1 43/89/1
f 40/92/1 48/71/1 41/91/1
f 38/94/1 50/75/1 39/93/1
f 83/95/1 55/96/1 54/97/1
f 80/98/1 58/99/1 57/100/1
f 76/101/29 18/102/29 15/59/29
f 75/103/30 84/104/30 76/101/30
f 74/105/31 83/95/31 75/103/31
f 73/106/32 82/107/32 74/105/32
f 72/108/33 81/109/33 73/106/33
f 71/110/34 80/98/34 72/108/34
f 70/111/35 79/112/35 71/110/35
f 69/45/36 78/113/36 70/111/36
f 12/114/3 76/101/3 15/59/3
f 68/115/3 75/103/3 76/101/3
f 66/116/3 75/103/3 67/117/3
f 65/118/3 74/105/3 66/116/3
f 65/118/3 72/108/3 73/106/3
f 63/119/3 72/108/3 64/120/3
f 63/119/3 70/111/3 71/110/3
f 61/42/3 70/111/3 62/121/3
f 53/122/37 12/114/37 11/64/37
f 54/97/38 68/115/38 53/122/38
f 55/96/39 67/117/39 54/97/39
f 56/123/39 66/116/39 55/96/39
f 57/100/40 65/118/40 56/123/40
f 58/99/41 64/120/41 57/100/41
f 59/124/42 63/119/42 58/99/42
f 60/43/43 62/121/43 59/124/43
f 2/41/2 4/44/2 61/42/2
f 4/44/3 8/46/3 69/45/3
f 8/46/4 6/51/4 77/47/4
f 77/47/1 6/51/1 2/41/1
f 7/48/5 5/87/5 1/49/5
f 4/44/6 2/41/6 6/51/6
f 37/52/1 20/58/1 9/53/1
f 17/55/7 20/58/7 37/52/7
f 16/57/8 19/60/8 20/58/8
f 15/59/9 18/102/9 19/60/9
f 14/61/3 17/55/3 29/56/3
f 13/63/3 16/57/3 17/55/3
f 13/63/3 12/114/3 15/59/3
f 9/53/10 14/61/10 21/62/10
f 9/53/11 10/65/11 13/63/11
f 11/64/12 12/114/12 13/63/12
f 45/66/13 28/68/13 3/50/13
f 46/67/44 27/70/44 28/68/44
f 47/69/15 26/72/15 27/70/15
f 48/71/16 25/74/16 26/72/16
f 49/73/45 24/76/45 25/74/45
f 50/75/46 23/78/46 24/76/46
f 50/75/19 51/79/19 22/77/19
f 52/54/20 21/62/20 22/77/20
f 3/50/3 28/68/3 36/80/3
f 27/70/3 35/82/3 36/80/3
f 27/70/3 26/72/3 34/81/3
f 26/72/3 25/74/3 33/83/3
f 25/74/3 24/76/3 32/84/3
f 23/78/3 31/86/3 32/84/3
f 23/78/3 22/77/3 30/85/3
f 22/77/3 21/62/3 29/56/3
f 36/80/21 44/88/21 5/87/21
f 35/82/22 43/89/22 44/88/22
f 34/81/23 42/90/23 43/89/23
f 33/83/24 41/91/24 42/90/24
f 32/84/47 40/92/47 41/91/47
f 31/86/26 39/93/26 40/92/26
f 30/85/27 38/94/27 39/93/27
f 29/56/28 37/52/28 38/94/28
f 42/90/1 47/69/1 46/67/1
f 40/92/1 49/73/1 48/71/1
f 38/94/1 51/79/1 50/75/1
f 83/95/1 82/107/1 55/96/1
f 80/98/1 79/112/1 58/99/1
f 76/101/29 84/104/29 18/102/29
f 75/103/30 83/95/30 84/104/30
f 74/105/31 82/107/31 83/95/31
f 73/106/32 81/109/32 82/107/32
f 72/108/33 80/98/33 81/109/33
f 71/110/48 79/112/48 80/98/48
f 70/111/49 78/113/49 79/112/49
f 69/45/36 77/47/36 78/113/36
f 12/114/3 68/115/3 76/101/3
f 68/115/3 67/117/3 75/103/3
f 66/116/3 74/105/3 75/103/3
f 65/118/3 73/106/3 74/105/3
f 65/118/3 64/120/3 72/108/3
f 63/119/3 71/110/3 72/108/3
f 63/119/3 62/121/3 70/111/3
f 61/42/3 69/45/3 70/111/3
f 53/122/37 68/115/37 12/114/37
f 54/97/50 67/117/50 68/115/50
f 55/96/39 66/116/39 67/117/39
f 56/123/39 65/118/39 66/116/39
f 57/100/51 64/120/51 65/118/51
f 58/99/41 63/119/41 64/120/41
f 59/124/52 62/121/52 63/119/52
f 60/43/43 61/42/43 62/121/43
o Cylinder.001
v 0.000000 0.000000 -20.049999
v 0.000000 1.500000 -20.049999
v 0.009755 0.000000 -20.049040
v 0.009755 1.500000 -20.049040
v 0.019134 0.000000 -20.046194
v 0.019134 1.500000 -20.046194
v 0.027779 0.000000 -20.041573
v 0.027779 1.500000 -20.041573
v 0.035355 0.000000 -20.035355
v 0.035355 1.500000 -20.035355
v 0.041573 0.000000 -20.027779
v 0.041573 1.500000 -20.027779
v 0.046194 0.000000 -20.019135
v 0.046194 1.500000 -20.019135
v 0.049039 0.000000 -20.009754
v 0.049039 1.500000 -20.009754
v 0.050000 0.000000 -20.000000
v 0.050000 1.500000 -20.000000
v 0.049039 0.000000 -19.990246
v 0.049039 1.500000 -19.990246
v 0.046194 0.000000 -19.980865
v 0.046194 1.500000 -19.980865
v 0.041573 0.000000 -19.972221
v 0.041573 1.500000 -19.972221
v 0.035355 0.000000 -19.964645
v 0.035355 1.500000 -19.964645
v 0.027779 0.000000 -19.958427
v 0.027779 1.500000 -19.958427
v 0.019134 0.000000 -19.953806
v 0.019134 1.500000 -19.953806
v 0.009755 0.000000 -19.950960
v 0.009755 1.500000 -19.950960
v -0.000000 0.000000 -19.950001
v -0.000000 1.500000 -19.950001
v -0.009755 0.000000 -19.950960
v -0.009755 1.500000 -19.950960
v -0.019134 0.000000 -19.953806
v -0.019134 1.500000 -19.953806
v -0.027779 0.000000 -19.958427
v -0.027779 1.500000 -19.958427
v -0.035355 0.000000 -19.964645
v -0.035355 1.500000 -19.964645
v -0.041574 0.000000 -19.972221
v -0.041574 1.500000 -19.972221
v -0.046194 0.000000 -19.980865
v -0.046194 1.500000 -19.980865
v -0.049039 0.000000 -19.990246
v -0.049039 1.500000 -19.990246
v -0.050000 0.000000 -20.000000
v -0.050000 1.500000 -20.000000
v -0.049039 0.000000 -20.009754
v -0.049039 1.500000 -20.009754
v -0.046194 0.000000 -20.019135
v -0.046194 1.500000 -20.019135
v -0.041573 0.000000 -20.027779
v -0.041573 1.500000 -20.027779
v -0.035355 0.000000 -20.035355
v -0.035355 1.500000 -20.035355
v -0.027778 0.000000 -20.041573
v -0.027778 1.500000 -20.041573
v -0.019134 0.000000 -20.046194
v -0.019134 1.500000 -20.046194
v -0.009754 0.000000 -20.049040
v -0.009754 1.500000 -20.049040
vn 0.0981 0.0000 -0.9952
vn 0.2901 0.0000 -0.9570
vn 0.4712 0.0000 -0.8820
vn 0.6344 0.0000 -0.7730
vn 0.7730 0.0000 -0.6344
vn 0.8819 0.0000 -0.4714
vn 0.9569 0.0000 -0.2903
vn 0.9952 0.0000 -0.0980
vn 0.9952 0.0000 0.0980
vn 0.9570 0.0000 0.2902
vn 0.8819 0.0000 0.4714
vn 0.7730 0.0000 0.6344
vn 0.6344 0.0000 0.7730
vn 0.4716 0.0000 0.8818
vn 0.2906 0.0000 0.9569
vn 0.0978 0.0000 0.9952
vn -0.0981 0.0000 0.9952
vn -0.2901 0.0000 0.9570
vn -0.4712 0.0000 0.8820
vn -0.6344 0.0000 0.7730
vn -0.7730 0.0000 0.6344
vn -0.8819 0.0000 0.4714
vn -0.9569 0.0000 0.2903
vn -0.9952 0.0000 0.0980
vn -0.9952 0.0000 -0.0980
vn -0.9570 0.0000 -0.2902
vn -0.8819 0.0000 -0.4714
vn -0.7730 0.0000 -0.6344
vn -0.6344 0.0000 -0.7730
vn -0.4716 0.0000 -0.8818
vn 0.0000 1.0000 0.0000
vn -0.2906 0.0000 -0.9569
vn -0.0978 0.0000 -0.9952
vn 0.0000 -1.0000 0.0000
vn 0.0978 0.0000 -0.9952
vn 0.2906 0.0000 -0.9569
vn 0.4716 0.0000 -0.8818
vn 0.9570 0.0000 -0.2902
vn 0.9569 0.0000 0.2903
vn 0.4712 0.0000 0.8820
vn 0.2901 0.0000 0.9570
vn 0.0981 0.0000 0.9952
vn -0.0978 0.0000 0.9952
vn -0.2906 0.0000 0.9569
vn -0.4716 0.0000 0.8818
vn -0.9570 0.0000 0.2902
vn -0.9569 0.0000 -0.2903
vn -0.4712 0.0000 -0.8820
vn 0.0000 1.0000 -0.0001
vn 0.0000 1.0000 0.0001
vn 0.0000 1.0000 -0.0003
vn 0.0000 1.0000 0.0002
vn -0.2901 0.0000 -0.9570
vn -0.0981 0.0000 -0.9952
usemtl Pole
s off
f 86//53 87//53 85//53
f 88//54 89//54 87//54
f 90//55 91//55 89//55
f 92//56 93//56 91//56
f 94//57 95//57 93//57
f 96//58 97//58 95//58
f 98//59 99//59 97//59
f 100//60 101//60 99//60
f 102//61 103//61 101//61
f 104//62 105//62 103//62
f 106//63 107//63 105//63
f 108//64 109//64 107//64
f 110//65 111//65 109//65
f 112//66 113//66 111//66
f 114//67 115//67 113//67
f 116//68 117//68 115//68
f 118//69 119//69 117//69
f 120//70 121//70 119//70
f 122//71 123//71 121//71
f 124//72 125//72 123//72
f 126//73 127//73 125//73
f 128//74 129//74 127//74
f 130//75 131//75 129//75
f 132//76 133//76 131//76
f 134//77 135//77 133//77
f 136//78 137//78 135//78
f 138//79 139//79 137//79
f 140//80 141//80 139//80
f 142//81 143//81 141//81
f 144//82 145//82 143//82
f 138//83 122//83 106//83
f 146//84 147//84 145//84
f 148//85 85//85 147//85
f 99//86 115//86 131//86
f 86//87 88//87 87//87
f 88//88 90//88 89//88
f 90//89 92//89 91//89
f 92//56 94//56 93//56
f 94//57 96//57 95//57
f 96//58 98//58 97//58
f 98//90 100//90 99//90
f 100//60 102//60 101//60
f 102//61 104//61 103//61
f 104//91 106//91 105//91
f 106//63 108//63 107//63
f 108//64 110//64 109//64
f 110//65 112//65 111//65
f 112//92 114//92 113//92
f 114//93 116//93 115//93
f 116//94 118//94 117//94
f 118//95 120//95 119//95
f 120//96 122//96 121//96
f 122//97 124//97 123//97
f 124//72 126//72 125//72
f 126//73 128//73 127//73
f 128//74 130//74 129//74
f 130//98 132//98 131//98
f 132//76 134//76 133//76
f 134//77 136//77 135//77
f 136//99 138//99 137//99
f 138//79 140//79 139//79
f 140//80 142//80 141//80
f 142//81 144//81 143//81
f 144//100 146//100 145//100
f 90//101 88//101 86//101
f 86//83 148//83 90//83
f 148//102 146//102 90//102
f 146//83 144//83 142//83
f 142//83 140//83 138//83
f 138//83 136//83 134//83
f 134//83 132//83 138//83
f 132//83 130//83 138//83
f 130//83 128//83 122//83
f 128//83 126//83 122//83
f 126//83 124//83 122//83
f 122//103 120//103 118//103
f 118//104 116//104 114//104
f 114//83 112//83 110//83
f 110//83 108//83 106//83
f 106//83 104//83 102//83
f 102//83 100//83 106//83
f 100//83 98//83 106//83
f 98//83 96//83 94//83
f 94//101 92//101 90//101
f 146//83 142//83 90//83
f 142//83 138//83 90//83
f 122//83 118//83 106//83
f 118//83 114//83 106//83
f 114//83 110//83 106//83
f 98//83 94//83 106//83
f 94//83 90//83 106//83
f 138//83 130//83 122//83
f 90//83 138//83 106//83
f 146//105 148//105 147//105
f 148//106 86//106 85//106
f 147//86 85//86 87//86
f 87//86 89//86 91//86
f 91//86 93//86 95//86
f 95//86 97//86 91//86
f 97//86 99//86 91//86
f 99//86 101//86 103//86
f 103//86 105//86 99//86
f 105//86 107//86 99//86
f 107//86 109//86 115//86
f 109//86 111//86 115//86
f 111//86 113//86 115//86
f 115//86 117//86 119//86
f 119//86 121//86 123//86
f 123//86 125//86 127//86
f 127//86 129//86 131//86
f 131//86 133//86 135//86
f 135//86 137//86 139//86
f 139//86 141//86 147//86
f 141//86 143//86 147//86
f 143//86 145//86 147//86
f 147//86 87//86 91//86
f 115//86 119//86 131//86
f 119//86 123//86 131//86
f 123//86 127//86 131//86
f 131//86 135//86 147//86
f 135//86 139//86 147//86
f 147//86 91//86 99//86
f 99//86 107//86 115//86
f 147//86 99//86 131//86
