# Blender v2.79 (sub 0) OBJ File: 'SignGivingOrderVehiclePassEitherSide.blend'
# www.blender.org
mtllib SignGivingOrderVehiclePassEitherSide.mtl
o Cylinder.001
v 0.000000 0.000000 -18.049999
v 0.000000 1.500000 -18.049999
v 0.009755 0.000000 -18.049040
v 0.009755 1.500000 -18.049040
v 0.019134 0.000000 -18.046194
v 0.019134 1.500000 -18.046194
v 0.027779 0.000000 -18.041573
v 0.027779 1.500000 -18.041573
v 0.035355 0.000000 -18.035355
v 0.035355 1.500000 -18.035355
v 0.041573 0.000000 -18.027779
v 0.041573 1.500000 -18.027779
v 0.046194 0.000000 -18.019135
v 0.046194 1.500000 -18.019135
v 0.049039 0.000000 -18.009754
v 0.049039 1.500000 -18.009754
v 0.050000 0.000000 -18.000000
v 0.050000 1.500000 -18.000000
v 0.049039 0.000000 -17.990246
v 0.049039 1.500000 -17.990246
v 0.046194 0.000000 -17.980865
v 0.046194 1.500000 -17.980865
v 0.041573 0.000000 -17.972221
v 0.041573 1.500000 -17.972221
v 0.035355 0.000000 -17.964645
v 0.035355 1.500000 -17.964645
v 0.027779 0.000000 -17.958427
v 0.027779 1.500000 -17.958427
v 0.019134 0.000000 -17.953806
v 0.019134 1.500000 -17.953806
v 0.009755 0.000000 -17.950960
v 0.009755 1.500000 -17.950960
v -0.000000 0.000000 -17.950001
v -0.000000 1.500000 -17.950001
v -0.009755 0.000000 -17.950960
v -0.009755 1.500000 -17.950960
v -0.019134 0.000000 -17.953806
v -0.019134 1.500000 -17.953806
v -0.027779 0.000000 -17.958427
v -0.027779 1.500000 -17.958427
v -0.035355 0.000000 -17.964645
v -0.035355 1.500000 -17.964645
v -0.041574 0.000000 -17.972221
v -0.041574 1.500000 -17.972221
v -0.046194 0.000000 -17.980865
v -0.046194 1.500000 -17.980865
v -0.049039 0.000000 -17.990246
v -0.049039 1.500000 -17.990246
v -0.050000 0.000000 -18.000000
v -0.050000 1.500000 -18.000000
v -0.049039 0.000000 -18.009754
v -0.049039 1.500000 -18.009754
v -0.046194 0.000000 -18.019135
v -0.046194 1.500000 -18.019135
v -0.041573 0.000000 -18.027779
v -0.041573 1.500000 -18.027779
v -0.035355 0.000000 -18.035355
v -0.035355 1.500000 -18.035355
v -0.027778 0.000000 -18.041573
v -0.027778 1.500000 -18.041573
v -0.019134 0.000000 -18.046194
v -0.019134 1.500000 -18.046194
v -0.009754 0.000000 -18.049040
v -0.009754 1.500000 -18.049040
vn 0.0981 0.0000 -0.9952
vn 0.2901 0.0000 -0.9570
vn 0.4712 0.0000 -0.8820
vn 0.6344 0.0000 -0.7730
vn 0.7730 0.0000 -0.6344
vn 0.8819 0.0000 -0.4714
vn 0.9569 0.0000 -0.2903
vn 0.9952 0.0000 -0.0980
vn 0.9952 0.0000 0.0980
vn 0.9570 0.0000 0.2902
vn 0.8819 0.0000 0.4714
vn 0.7730 0.0000 0.6344
vn 0.6344 0.0000 0.7730
vn 0.4716 0.0000 0.8818
vn 0.2906 0.0000 0.9569
vn 0.0978 0.0000 0.9952
vn -0.0981 0.0000 0.9952
vn -0.2901 0.0000 0.9570
vn -0.4712 0.0000 0.8820
vn -0.6344 0.0000 0.7730
vn -0.7730 0.0000 0.6344
vn -0.8819 0.0000 0.4714
vn -0.9569 0.0000 0.2903
vn -0.9952 0.0000 0.0980
vn -0.9952 0.0000 -0.0980
vn -0.9570 0.0000 -0.2902
vn -0.8819 0.0000 -0.4714
vn -0.7730 0.0000 -0.6344
vn -0.6344 0.0000 -0.7730
vn -0.4716 0.0000 -0.8818
vn 0.0000 1.0000 0.0000
vn -0.2906 0.0000 -0.9569
vn -0.0978 0.0000 -0.9952
vn 0.0000 -1.0000 0.0000
vn 0.0978 0.0000 -0.9952
vn 0.2906 0.0000 -0.9569
vn 0.4716 0.0000 -0.8818
vn 0.9570 0.0000 -0.2902
vn 0.9569 0.0000 0.2903
vn 0.4712 0.0000 0.8820
vn 0.2901 0.0000 0.9570
vn 0.0981 0.0000 0.9952
vn -0.0978 0.0000 0.9952
vn -0.2906 0.0000 0.9569
vn -0.4716 0.0000 0.8818
vn -0.9570 0.0000 0.2902
vn -0.9569 0.0000 -0.2903
vn -0.4712 0.0000 -0.8820
vn 0.0000 1.0000 -0.0001
vn 0.0000 1.0000 0.0001
vn 0.0000 1.0000 -0.0003
vn 0.0000 1.0000 0.0002
vn -0.2901 0.0000 -0.9570
vn -0.0981 0.0000 -0.9952
usemtl Pole
s off
f 2//1 3//1 1//1
f 4//2 5//2 3//2
f 6//3 7//3 5//3
f 8//4 9//4 7//4
f 10//5 11//5 9//5
f 12//6 13//6 11//6
f 14//7 15//7 13//7
f 16//8 17//8 15//8
f 18//9 19//9 17//9
f 20//10 21//10 19//10
f 22//11 23//11 21//11
f 24//12 25//12 23//12
f 26//13 27//13 25//13
f 28//14 29//14 27//14
f 30//15 31//15 29//15
f 32//16 33//16 31//16
f 34//17 35//17 33//17
f 36//18 37//18 35//18
f 38//19 39//19 37//19
f 40//20 41//20 39//20
f 42//21 43//21 41//21
f 44//22 45//22 43//22
f 46//23 47//23 45//23
f 48//24 49//24 47//24
f 50//25 51//25 49//25
f 52//26 53//26 51//26
f 54//27 55//27 53//27
f 56//28 57//28 55//28
f 58//29 59//29 57//29
f 60//30 61//30 59//30
f 54//31 38//31 22//31
f 62//32 63//32 61//32
f 64//33 1//33 63//33
f 15//34 31//34 47//34
f 2//35 4//35 3//35
f 4//36 6//36 5//36
f 6//37 8//37 7//37
f 8//4 10//4 9//4
f 10//5 12//5 11//5
f 12//6 14//6 13//6
f 14//38 16//38 15//38
f 16//8 18//8 17//8
f 18//9 20//9 19//9
f 20//39 22//39 21//39
f 22//11 24//11 23//11
f 24//12 26//12 25//12
f 26//13 28//13 27//13
f 28//40 30//40 29//40
f 30//41 32//41 31//41
f 32//42 34//42 33//42
f 34//43 36//43 35//43
f 36//44 38//44 37//44
f 38//45 40//45 39//45
f 40//20 42//20 41//20
f 42//21 44//21 43//21
f 44//22 46//22 45//22
f 46//46 48//46 47//46
f 48//24 50//24 49//24
f 50//25 52//25 51//25
f 52//47 54//47 53//47
f 54//27 56//27 55//27
f 56//28 58//28 57//28
f 58//29 60//29 59//29
f 60//48 62//48 61//48
f 6//49 4//49 2//49
f 2//31 64//31 6//31
f 64//50 62//50 6//50
f 62//31 60//31 58//31
f 58//31 56//31 54//31
f 54//31 52//31 50//31
f 50//31 48//31 54//31
f 48//31 46//31 54//31
f 46//31 44//31 38//31
f 44//31 42//31 38//31
f 42//31 40//31 38//31
f 38//51 36//51 34//51
f 34//52 32//52 30//52
f 30//31 28//31 26//31
f 26//31 24//31 22//31
f 22//31 20//31 18//31
f 18//31 16//31 22//31
f 16//31 14//31 22//31
f 14//31 12//31 10//31
f 10//49 8//49 6//49
f 62//31 58//31 6//31
f 58//31 54//31 6//31
f 38//31 34//31 22//31
f 34//31 30//31 22//31
f 30//31 26//31 22//31
f 14//31 10//31 22//31
f 10//31 6//31 22//31
f 54//31 46//31 38//31
f 6//31 54//31 22//31
f 62//53 64//53 63//53
f 64//54 2//54 1//54
f 63//34 1//34 3//34
f 3//34 5//34 7//34
f 7//34 9//34 11//34
f 11//34 13//34 7//34
f 13//34 15//34 7//34
f 15//34 17//34 19//34
f 19//34 21//34 15//34
f 21//34 23//34 15//34
f 23//34 25//34 31//34
f 25//34 27//34 31//34
f 27//34 29//34 31//34
f 31//34 33//34 35//34
f 35//34 37//34 39//34
f 39//34 41//34 43//34
f 43//34 45//34 47//34
f 47//34 49//34 51//34
f 51//34 53//34 55//34
f 55//34 57//34 63//34
f 57//34 59//34 63//34
f 59//34 61//34 63//34
f 63//34 3//34 7//34
f 31//34 35//34 47//34
f 35//34 39//34 47//34
f 39//34 43//34 47//34
f 47//34 51//34 63//34
f 51//34 55//34 63//34
f 63//34 7//34 15//34
f 15//34 23//34 31//34
f 63//34 15//34 47//34
o Cylinder
v 0.000000 2.000000 -17.945000
v 0.000000 2.000000 -17.895000
v 0.097545 1.990393 -17.945000
v 0.097545 1.990393 -17.895000
v 0.191342 1.961940 -17.945000
v 0.191342 1.961940 -17.895000
v 0.277785 1.915735 -17.945000
v 0.277785 1.915735 -17.895000
v 0.353553 1.853553 -17.945000
v 0.353553 1.853553 -17.895000
v 0.415735 1.777785 -17.945000
v 0.415735 1.777785 -17.895000
v 0.461940 1.691342 -17.945000
v 0.461940 1.691342 -17.895000
v 0.490393 1.597545 -17.945000
v 0.490393 1.597545 -17.895000
v 0.500000 1.500000 -17.945000
v 0.500000 1.500000 -17.895000
v 0.490393 1.402455 -17.945000
v 0.490393 1.402455 -17.895000
v 0.461940 1.308658 -17.945000
v 0.461940 1.308658 -17.895000
v 0.415735 1.222215 -17.945000
v 0.415735 1.222215 -17.895000
v 0.353553 1.146447 -17.945000
v 0.353553 1.146447 -17.895000
v 0.277785 1.084265 -17.945000
v 0.277785 1.084265 -17.895000
v 0.191342 1.038060 -17.945000
v 0.191342 1.038060 -17.895000
v 0.097545 1.009607 -17.945000
v 0.097545 1.009607 -17.895000
v -0.000000 1.000000 -17.945000
v -0.000000 1.000000 -17.895000
v -0.097545 1.009607 -17.945000
v -0.097545 1.009607 -17.895000
v -0.191342 1.038060 -17.945000
v -0.191342 1.038060 -17.895000
v -0.277785 1.084265 -17.945000
v -0.277785 1.084265 -17.895000
v -0.353554 1.146447 -17.945000
v -0.353554 1.146447 -17.895000
v -0.415735 1.222215 -17.945000
v -0.415735 1.222215 -17.895000
v -0.461940 1.308659 -17.945000
v -0.461940 1.308659 -17.895000
v -0.490393 1.402455 -17.945000
v -0.490393 1.402455 -17.895000
v -0.500000 1.500000 -17.945000
v -0.500000 1.500000 -17.895000
v -0.490393 1.597546 -17.945000
v -0.490393 1.597546 -17.895000
v -0.461940 1.691342 -17.945000
v -0.461940 1.691342 -17.895000
v -0.415734 1.777786 -17.945000
v -0.415734 1.777786 -17.895000
v -0.353553 1.853554 -17.945000
v -0.353553 1.853554 -17.895000
v -0.277785 1.915735 -17.945000
v -0.277785 1.915735 -17.895000
v -0.191341 1.961940 -17.945000
v -0.191341 1.961940 -17.895000
v -0.097544 1.990393 -17.945000
v -0.097544 1.990393 -17.895000
vt 0.038060 0.691343
vt 0.308658 0.038060
vt 0.961940 0.308658
vt 0.691342 0.961940
vt 0.597545 0.990392
vt 0.500000 1.000000
vt 0.402455 0.990392
vt 0.308659 0.961940
vt 0.222216 0.915735
vt 0.146447 0.853554
vt 0.084265 0.777785
vt 0.009607 0.597545
vt 0.000000 0.500000
vt 0.009607 0.402456
vt 0.038060 0.308659
vt 0.084265 0.222215
vt 0.146446 0.146447
vt 0.222214 0.084265
vt 0.402454 0.009608
vt 0.500000 0.000000
vt 0.597545 0.009608
vt 0.691342 0.038060
vt 0.777785 0.084265
vt 0.853553 0.146447
vt 0.915735 0.222215
vt 0.990393 0.402455
vt 1.000000 0.500000
vt 0.990393 0.597545
vt 0.961940 0.691342
vt 0.915735 0.777785
vt 0.853553 0.853553
vt 0.777785 0.915735
vt 0.000000 0.000000
vt 0.000000 0.000000
vt 0.000000 0.000000
vt 0.000000 0.000000
vt 0.000000 0.000000
vt 0.000000 0.000000
vt 0.000000 0.000000
vt 0.000000 0.000000
vt 0.000000 0.000000
vt 0.000000 0.000000
vt 0.000000 0.000000
vt 0.000000 0.000000
vt 0.000000 0.000000
vt 0.000000 0.000000
vt 0.000000 0.000000
vt 0.000000 0.000000
vt 0.000000 0.000000
vt 0.000000 0.000000
vt 0.000000 0.000000
vt 0.000000 0.000000
vt 0.000000 0.000000
vt 0.000000 0.000000
vt 0.000000 0.000000
vt 0.000000 0.000000
vt 0.000000 0.000000
vt 0.000000 0.000000
vt 0.000000 0.000000
vt 0.000000 0.000000
vt 0.000000 0.000000
vt 0.000000 0.000000
vt 0.000000 0.000000
vt 0.000000 0.000000
vt 0.000000 0.000000
vt 0.000000 0.000000
vt 0.000000 0.000000
vt 0.000000 0.000000
vt 0.000000 0.000000
vt 0.000000 0.000000
vt 0.000000 0.000000
vt 0.000000 0.000000
vt 0.000000 0.000000
vt 0.000000 0.000000
vt 0.000000 0.000000
vt 0.000000 0.000000
vt 0.000000 0.000000
vt 0.000000 0.000000
vt 0.000000 0.000000
vt 0.000000 0.000000
vt 0.000000 0.000000
vt 0.000000 0.000000
vt 0.000000 0.000000
vt 0.000000 0.000000
vt 0.000000 0.000000
vt 0.000000 0.000000
vt 0.000000 0.000000
vt 0.000000 0.000000
vt 0.000000 0.000000
vt 0.000000 0.000000
vt 0.000000 0.000000
vt 0.000000 0.000000
vt 0.000000 0.000000
vt 0.000000 0.000000
vt 0.000000 0.000000
vt 0.000000 0.000000
vn 0.0000 0.0000 1.0000
vn -0.0001 0.0000 1.0000
vn 0.0002 0.0000 1.0000
vn 0.0001 0.0000 1.0000
vn 0.0980 0.9952 0.0000
vn 0.2903 0.9569 0.0000
vn 0.4714 0.8819 0.0000
vn 0.6344 0.7730 0.0000
vn 0.7730 0.6344 0.0000
vn 0.8819 0.4714 0.0000
vn 0.9569 0.2903 0.0000
vn 0.9952 0.0980 0.0000
vn 0.9952 -0.0980 0.0000
vn 0.9569 -0.2903 0.0000
vn 0.8819 -0.4714 0.0000
vn 0.7730 -0.6344 0.0000
vn 0.6344 -0.7730 0.0000
vn 0.4714 -0.8819 0.0000
vn 0.2903 -0.9569 0.0000
vn 0.0980 -0.9952 0.0000
vn -0.0980 -0.9952 0.0000
vn -0.2903 -0.9569 0.0000
vn -0.4714 -0.8819 0.0000
vn -0.6344 -0.7730 0.0000
vn -0.7730 -0.6344 0.0000
vn -0.8819 -0.4714 0.0000
vn -0.9569 -0.2903 0.0000
vn -0.9952 -0.0980 0.0000
vn -0.9952 0.0980 0.0000
vn -0.9569 0.2903 0.0000
vn -0.8819 0.4714 0.0000
vn -0.7730 0.6344 0.0000
vn -0.6344 0.7730 0.0000
vn -0.4714 0.8819 0.0000
vn -0.2903 0.9569 0.0000
vn -0.0980 0.9952 0.0000
vn 0.0000 0.0000 -1.0000
vn 0.0001 0.0000 -1.0000
vn -0.0001 0.0000 -1.0000
usemtl Face
s off
f 118/1/55 102/2/55 86/3/55
f 70/4/55 68/5/55 66/6/55
f 66/6/55 128/7/55 70/4/55
f 128/7/55 126/8/55 70/4/55
f 126/8/56 124/9/56 122/10/56
f 122/10/55 120/11/55 118/1/55
f 118/1/55 116/12/55 114/13/55
f 114/13/57 112/14/57 118/1/57
f 112/14/55 110/15/55 118/1/55
f 110/15/55 108/16/55 102/2/55
f 108/16/55 106/17/55 102/2/55
f 106/17/56 104/18/56 102/2/56
f 102/2/55 100/19/55 98/20/55
f 98/20/55 96/21/55 94/22/55
f 94/22/58 92/23/58 90/24/58
f 90/24/55 88/25/55 86/3/55
f 86/3/55 84/26/55 82/27/55
f 82/27/55 80/28/55 86/3/55
f 80/28/55 78/29/55 86/3/55
f 78/29/55 76/30/55 74/31/55
f 74/31/58 72/32/58 70/4/58
f 126/8/55 122/10/55 70/4/55
f 122/10/55 118/1/55 70/4/55
f 102/2/55 98/20/55 86/3/55
f 98/20/55 94/22/55 86/3/55
f 94/22/55 90/24/55 86/3/55
f 78/29/55 74/31/55 86/3/55
f 74/31/55 70/4/55 86/3/55
f 118/1/55 110/15/55 102/2/55
f 70/4/55 118/1/55 86/3/55
usemtl Face_NONE
f 66/33/59 67/34/59 65/35/59
f 68/36/60 69/37/60 67/34/60
f 70/38/61 71/39/61 69/37/61
f 72/40/62 73/41/62 71/39/62
f 74/42/63 75/43/63 73/41/63
f 76/44/64 77/45/64 75/43/64
f 78/46/65 79/47/65 77/45/65
f 80/48/66 81/49/66 79/47/66
f 82/50/67 83/51/67 81/49/67
f 84/52/68 85/53/68 83/51/68
f 86/54/69 87/55/69 85/53/69
f 88/56/70 89/57/70 87/55/70
f 90/58/71 91/59/71 89/57/71
f 92/60/72 93/61/72 91/59/72
f 94/62/73 95/63/73 93/61/73
f 96/64/74 97/65/74 95/63/74
f 98/66/75 99/67/75 97/65/75
f 100/68/76 101/69/76 99/67/76
f 102/70/77 103/71/77 101/69/77
f 104/72/78 105/73/78 103/71/78
f 106/74/79 107/75/79 105/73/79
f 108/76/80 109/77/80 107/75/80
f 110/78/81 111/79/81 109/77/81
f 112/80/82 113/81/82 111/79/82
f 114/82/83 115/83/83 113/81/83
f 116/84/84 117/85/84 115/83/84
f 118/86/85 119/87/85 117/85/85
f 120/88/86 121/89/86 119/87/86
f 122/90/87 123/91/87 121/89/87
f 124/92/88 125/93/88 123/91/88
f 126/94/89 127/95/89 125/93/89
f 128/96/90 65/35/90 127/95/90
f 79/47/91 95/63/91 111/79/91
f 66/33/59 68/36/59 67/34/59
f 68/36/60 70/38/60 69/37/60
f 70/38/61 72/40/61 71/39/61
f 72/40/62 74/42/62 73/41/62
f 74/42/63 76/44/63 75/43/63
f 76/44/64 78/46/64 77/45/64
f 78/46/65 80/48/65 79/47/65
f 80/48/66 82/50/66 81/49/66
f 82/50/67 84/52/67 83/51/67
f 84/52/68 86/54/68 85/53/68
f 86/54/69 88/56/69 87/55/69
f 88/56/70 90/58/70 89/57/70
f 90/58/71 92/60/71 91/59/71
f 92/60/72 94/62/72 93/61/72
f 94/62/73 96/64/73 95/63/73
f 96/64/74 98/66/74 97/65/74
f 98/66/75 100/68/75 99/67/75
f 100/68/76 102/70/76 101/69/76
f 102/70/77 104/72/77 103/71/77
f 104/72/78 106/74/78 105/73/78
f 106/74/79 108/76/79 107/75/79
f 108/76/80 110/78/80 109/77/80
f 110/78/81 112/80/81 111/79/81
f 112/80/82 114/82/82 113/81/82
f 114/82/83 116/84/83 115/83/83
f 116/84/84 118/86/84 117/85/84
f 118/86/85 120/88/85 119/87/85
f 120/88/86 122/90/86 121/89/86
f 122/90/87 124/92/87 123/91/87
f 124/92/88 126/94/88 125/93/88
f 126/94/89 128/96/89 127/95/89
f 128/96/90 66/33/90 65/35/90
f 127/95/91 65/35/91 67/34/91
f 67/34/92 69/37/92 71/39/92
f 71/39/92 73/41/92 75/43/92
f 75/43/91 77/45/91 71/39/91
f 77/45/92 79/47/92 71/39/92
f 79/47/91 81/49/91 83/51/91
f 83/51/91 85/53/91 79/47/91
f 85/53/91 87/55/91 79/47/91
f 87/55/91 89/57/91 95/63/91
f 89/57/91 91/59/91 95/63/91
f 91/59/92 93/61/92 95/63/92
f 95/63/91 97/65/91 99/67/91
f 99/67/93 101/69/93 103/71/93
f 103/71/93 105/73/93 107/75/93
f 107/75/93 109/77/93 111/79/93
f 111/79/91 113/81/91 115/83/91
f 115/83/93 117/85/93 119/87/93
f 119/87/91 121/89/91 127/95/91
f 121/89/91 123/91/91 127/95/91
f 123/91/93 125/93/93 127/95/93
f 127/95/91 67/34/91 71/39/91
f 95/63/91 99/67/91 111/79/91
f 99/67/91 103/71/91 111/79/91
f 103/71/91 107/75/91 111/79/91
f 111/79/91 115/83/91 127/95/91
f 115/83/91 119/87/91 127/95/91
f 127/95/91 71/39/91 79/47/91
f 79/47/91 87/55/91 95/63/91
f 127/95/91 79/47/91 111/79/91
