# Blender v2.79 (sub 0) OBJ File: 'SignGivingOrderSchoolCrossingPatrol.blend'
# www.blender.org
mtllib SignGivingOrderSchoolCrossingPatrol.mtl
o Cylinder.001
v 0.000000 0.000000 -23.049999
v 0.000000 1.500000 -23.049999
v 0.009755 0.000000 -23.049040
v 0.009755 1.500000 -23.049040
v 0.019134 0.000000 -23.046194
v 0.019134 1.500000 -23.046194
v 0.027779 0.000000 -23.041573
v 0.027779 1.500000 -23.041573
v 0.035355 0.000000 -23.035355
v 0.035355 1.500000 -23.035355
v 0.041573 0.000000 -23.027779
v 0.041573 1.500000 -23.027779
v 0.046194 0.000000 -23.019135
v 0.046194 1.500000 -23.019135
v 0.049039 0.000000 -23.009754
v 0.049039 1.500000 -23.009754
v 0.050000 0.000000 -23.000000
v 0.050000 1.500000 -23.000000
v 0.049039 0.000000 -22.990246
v 0.049039 1.500000 -22.990246
v 0.046194 0.000000 -22.980865
v 0.046194 1.500000 -22.980865
v 0.041573 0.000000 -22.972221
v 0.041573 1.500000 -22.972221
v 0.035355 0.000000 -22.964645
v 0.035355 1.500000 -22.964645
v 0.027779 0.000000 -22.958427
v 0.027779 1.500000 -22.958427
v 0.019134 0.000000 -22.953806
v 0.019134 1.500000 -22.953806
v 0.009755 0.000000 -22.950960
v 0.009755 1.500000 -22.950960
v -0.000000 0.000000 -22.950001
v -0.000000 1.500000 -22.950001
v -0.009755 0.000000 -22.950960
v -0.009755 1.500000 -22.950960
v -0.019134 0.000000 -22.953806
v -0.019134 1.500000 -22.953806
v -0.027779 0.000000 -22.958427
v -0.027779 1.500000 -22.958427
v -0.035355 0.000000 -22.964645
v -0.035355 1.500000 -22.964645
v -0.041574 0.000000 -22.972221
v -0.041574 1.500000 -22.972221
v -0.046194 0.000000 -22.980865
v -0.046194 1.500000 -22.980865
v -0.049039 0.000000 -22.990246
v -0.049039 1.500000 -22.990246
v -0.050000 0.000000 -23.000000
v -0.050000 1.500000 -23.000000
v -0.049039 0.000000 -23.009754
v -0.049039 1.500000 -23.009754
v -0.046194 0.000000 -23.019135
v -0.046194 1.500000 -23.019135
v -0.041573 0.000000 -23.027779
v -0.041573 1.500000 -23.027779
v -0.035355 0.000000 -23.035355
v -0.035355 1.500000 -23.035355
v -0.027778 0.000000 -23.041573
v -0.027778 1.500000 -23.041573
v -0.019134 0.000000 -23.046194
v -0.019134 1.500000 -23.046194
v -0.009754 0.000000 -23.049040
v -0.009754 1.500000 -23.049040
vn 0.0976 0.0000 -0.9952
vn 0.2901 0.0000 -0.9570
vn 0.4712 0.0000 -0.8820
vn 0.6345 0.0000 -0.7729
vn 0.7731 0.0000 -0.6343
vn 0.8819 0.0000 -0.4715
vn 0.9569 0.0000 -0.2903
vn 0.9952 0.0000 -0.0980
vn 0.9952 0.0000 0.0980
vn 0.9569 0.0000 0.2903
vn 0.8820 0.0000 0.4713
vn 0.7729 0.0000 0.6346
vn 0.6342 0.0000 0.7731
vn 0.4716 0.0000 0.8818
vn 0.2906 0.0000 0.9569
vn 0.0981 0.0000 0.9952
vn -0.0976 0.0000 0.9952
vn -0.2901 0.0000 0.9570
vn -0.4712 0.0000 0.8820
vn -0.6345 0.0000 0.7729
vn -0.7731 0.0000 0.6343
vn -0.8819 0.0000 0.4715
vn -0.9569 0.0000 0.2903
vn -0.9952 0.0000 0.0980
vn -0.9952 0.0000 -0.0980
vn -0.9569 0.0000 -0.2903
vn -0.8820 0.0000 -0.4713
vn -0.7729 0.0000 -0.6346
vn -0.6342 0.0000 -0.7731
vn -0.4716 0.0000 -0.8818
vn 0.0000 1.0000 0.0000
vn -0.2906 0.0000 -0.9569
vn -0.0981 0.0000 -0.9952
vn 0.0000 -1.0000 0.0000
vn 0.0981 0.0000 -0.9952
vn 0.2906 0.0000 -0.9569
vn 0.4716 0.0000 -0.8818
vn 0.6342 0.0000 -0.7731
vn 0.7729 0.0000 -0.6346
vn 0.8820 0.0000 -0.4713
vn 0.8819 0.0000 0.4715
vn 0.7731 0.0000 0.6343
vn 0.6345 0.0000 0.7729
vn 0.4712 0.0000 0.8820
vn 0.2901 0.0000 0.9570
vn 0.0976 0.0000 0.9952
vn -0.0981 0.0000 0.9952
vn -0.2906 0.0000 0.9569
vn -0.4716 0.0000 0.8818
vn -0.6342 0.0000 0.7731
vn -0.7729 0.0000 0.6346
vn -0.8820 0.0000 0.4713
vn -0.8819 0.0000 -0.4715
vn -0.7731 0.0000 -0.6343
vn -0.6345 0.0000 -0.7729
vn -0.4712 0.0000 -0.8820
vn 0.0000 1.0000 -0.0001
vn 0.0000 1.0000 0.0001
vn 0.0000 1.0000 -0.0003
vn 0.0000 1.0000 0.0002
vn -0.2901 0.0000 -0.9570
vn -0.0976 0.0000 -0.9952
usemtl Pole
s off
f 2//1 3//1 1//1
f 4//2 5//2 3//2
f 6//3 7//3 5//3
f 8//4 9//4 7//4
f 10//5 11//5 9//5
f 12//6 13//6 11//6
f 14//7 15//7 13//7
f 16//8 17//8 15//8
f 18//9 19//9 17//9
f 20//10 21//10 19//10
f 22//11 23//11 21//11
f 24//12 25//12 23//12
f 26//13 27//13 25//13
f 28//14 29//14 27//14
f 30//15 31//15 29//15
f 32//16 33//16 31//16
f 34//17 35//17 33//17
f 36//18 37//18 35//18
f 38//19 39//19 37//19
f 40//20 41//20 39//20
f 42//21 43//21 41//21
f 44//22 45//22 43//22
f 46//23 47//23 45//23
f 48//24 49//24 47//24
f 50//25 51//25 49//25
f 52//26 53//26 51//26
f 54//27 55//27 53//27
f 56//28 57//28 55//28
f 58//29 59//29 57//29
f 60//30 61//30 59//30
f 54//31 38//31 22//31
f 62//32 63//32 61//32
f 64//33 1//33 63//33
f 15//34 31//34 47//34
f 2//35 4//35 3//35
f 4//36 6//36 5//36
f 6//37 8//37 7//37
f 8//38 10//38 9//38
f 10//39 12//39 11//39
f 12//40 14//40 13//40
f 14//7 16//7 15//7
f 16//8 18//8 17//8
f 18//9 20//9 19//9
f 20//10 22//10 21//10
f 22//41 24//41 23//41
f 24//42 26//42 25//42
f 26//43 28//43 27//43
f 28//44 30//44 29//44
f 30//45 32//45 31//45
f 32//46 34//46 33//46
f 34//47 36//47 35//47
f 36//48 38//48 37//48
f 38//49 40//49 39//49
f 40//50 42//50 41//50
f 42//51 44//51 43//51
f 44//52 46//52 45//52
f 46//23 48//23 47//23
f 48//24 50//24 49//24
f 50//25 52//25 51//25
f 52//26 54//26 53//26
f 54//53 56//53 55//53
f 56//54 58//54 57//54
f 58//55 60//55 59//55
f 60//56 62//56 61//56
f 6//57 4//57 2//57
f 2//31 64//31 6//31
f 64//58 62//58 6//58
f 62//31 60//31 58//31
f 58//31 56//31 54//31
f 54//31 52//31 50//31
f 50//31 48//31 54//31
f 48//31 46//31 54//31
f 46//31 44//31 38//31
f 44//31 42//31 38//31
f 42//31 40//31 38//31
f 38//59 36//59 34//59
f 34//60 32//60 30//60
f 30//31 28//31 26//31
f 26//31 24//31 22//31
f 22//31 20//31 18//31
f 18//31 16//31 22//31
f 16//31 14//31 22//31
f 14//31 12//31 10//31
f 10//57 8//57 6//57
f 62//31 58//31 6//31
f 58//31 54//31 6//31
f 38//31 34//31 22//31
f 34//31 30//31 22//31
f 30//31 26//31 22//31
f 14//31 10//31 22//31
f 10//31 6//31 22//31
f 54//31 46//31 38//31
f 6//31 54//31 22//31
f 62//61 64//61 63//61
f 64//62 2//62 1//62
f 63//34 1//34 3//34
f 3//34 5//34 7//34
f 7//34 9//34 11//34
f 11//34 13//34 7//34
f 13//34 15//34 7//34
f 15//34 17//34 19//34
f 19//34 21//34 15//34
f 21//34 23//34 15//34
f 23//34 25//34 31//34
f 25//34 27//34 31//34
f 27//34 29//34 31//34
f 31//34 33//34 35//34
f 35//34 37//34 39//34
f 39//34 41//34 43//34
f 43//34 45//34 47//34
f 47//34 49//34 51//34
f 51//34 53//34 55//34
f 55//34 57//34 63//34
f 57//34 59//34 63//34
f 59//34 61//34 63//34
f 63//34 3//34 7//34
f 31//34 35//34 47//34
f 35//34 39//34 47//34
f 39//34 43//34 47//34
f 47//34 51//34 63//34
f 51//34 55//34 63//34
f 63//34 7//34 15//34
f 15//34 23//34 31//34
f 63//34 15//34 47//34
o Cylinder
v 0.000000 2.000000 -22.945000
v 0.000000 2.000000 -22.895000
v 0.097545 1.990393 -22.945000
v 0.097545 1.990393 -22.895000
v 0.191342 1.961940 -22.945000
v 0.191342 1.961940 -22.895000
v 0.277785 1.915735 -22.945000
v 0.277785 1.915735 -22.895000
v 0.353553 1.853553 -22.945000
v 0.353553 1.853553 -22.895000
v 0.415735 1.777785 -22.945000
v 0.415735 1.777785 -22.895000
v 0.461940 1.691342 -22.945000
v 0.461940 1.691342 -22.895000
v 0.490393 1.597545 -22.945000
v 0.490393 1.597545 -22.895000
v 0.500000 1.500000 -22.945000
v 0.500000 1.500000 -22.895000
v 0.490393 1.402455 -22.945000
v 0.490393 1.402455 -22.895000
v 0.461940 1.308658 -22.945000
v 0.461940 1.308658 -22.895000
v 0.415735 1.222215 -22.945000
v 0.415735 1.222215 -22.895000
v 0.353553 1.146447 -22.945000
v 0.353553 1.146447 -22.895000
v 0.277785 1.084265 -22.945000
v 0.277785 1.084265 -22.895000
v 0.191342 1.038060 -22.945000
v 0.191342 1.038060 -22.895000
v 0.097545 1.009607 -22.945000
v 0.097545 1.009607 -22.895000
v -0.000000 1.000000 -22.945000
v -0.000000 1.000000 -22.895000
v -0.097545 1.009607 -22.945000
v -0.097545 1.009607 -22.895000
v -0.191342 1.038060 -22.945000
v -0.191342 1.038060 -22.895000
v -0.277785 1.084265 -22.945000
v -0.277785 1.084265 -22.895000
v -0.353554 1.146447 -22.945000
v -0.353554 1.146447 -22.895000
v -0.415735 1.222215 -22.945000
v -0.415735 1.222215 -22.895000
v -0.461940 1.308659 -22.945000
v -0.461940 1.308659 -22.895000
v -0.490393 1.402455 -22.945000
v -0.490393 1.402455 -22.895000
v -0.500000 1.500000 -22.945000
v -0.500000 1.500000 -22.895000
v -0.490393 1.597546 -22.945000
v -0.490393 1.597546 -22.895000
v -0.461940 1.691342 -22.945000
v -0.461940 1.691342 -22.895000
v -0.415734 1.777786 -22.945000
v -0.415734 1.777786 -22.895000
v -0.353553 1.853554 -22.945000
v -0.353553 1.853554 -22.895000
v -0.277785 1.915735 -22.945000
v -0.277785 1.915735 -22.895000
v -0.191341 1.961940 -22.945000
v -0.191341 1.961940 -22.895000
v -0.097544 1.990393 -22.945000
v -0.097544 1.990393 -22.895000
vt 0.038060 0.691343
vt 0.308658 0.038060
vt 0.961940 0.308658
vt 0.691342 0.961940
vt 0.597545 0.990392
vt 0.500000 1.000000
vt 0.402455 0.990392
vt 0.308659 0.961940
vt 0.222216 0.915735
vt 0.146447 0.853554
vt 0.084265 0.777785
vt 0.009607 0.597545
vt 0.000000 0.500000
vt 0.009607 0.402456
vt 0.038060 0.308659
vt 0.084265 0.222215
vt 0.146446 0.146447
vt 0.222214 0.084265
vt 0.402454 0.009608
vt 0.500000 0.000000
vt 0.597545 0.009608
vt 0.691342 0.038060
vt 0.777785 0.084265
vt 0.853553 0.146447
vt 0.915735 0.222215
vt 0.990393 0.402455
vt 1.000000 0.500000
vt 0.990393 0.597545
vt 0.961940 0.691342
vt 0.915735 0.777785
vt 0.853553 0.853553
vt 0.777785 0.915735
vt 0.000000 0.000000
vt 0.000000 0.000000
vt 0.000000 0.000000
vt 0.000000 0.000000
vt 0.000000 0.000000
vt 0.000000 0.000000
vt 0.000000 0.000000
vt 0.000000 0.000000
vt 0.000000 0.000000
vt 0.000000 0.000000
vt 0.000000 0.000000
vt 0.000000 0.000000
vt 0.000000 0.000000
vt 0.000000 0.000000
vt 0.000000 0.000000
vt 0.000000 0.000000
vt 0.000000 0.000000
vt 0.000000 0.000000
vt 0.000000 0.000000
vt 0.000000 0.000000
vt 0.000000 0.000000
vt 0.000000 0.000000
vt 0.000000 0.000000
vt 0.000000 0.000000
vt 0.000000 0.000000
vt 0.000000 0.000000
vt 0.000000 0.000000
vt 0.000000 0.000000
vt 0.000000 0.000000
vt 0.000000 0.000000
vt 0.000000 0.000000
vt 0.000000 0.000000
vt 0.000000 0.000000
vt 0.000000 0.000000
vt 0.000000 0.000000
vt 0.000000 0.000000
vt 0.000000 0.000000
vt 0.000000 0.000000
vt 0.000000 0.000000
vt 0.000000 0.000000
vt 0.000000 0.000000
vt 0.000000 0.000000
vt 0.000000 0.000000
vt 0.000000 0.000000
vt 0.000000 0.000000
vt 0.000000 0.000000
vt 0.000000 0.000000
vt 0.000000 0.000000
vt 0.000000 0.000000
vt 0.000000 0.000000
vt 0.000000 0.000000
vt 0.000000 0.000000
vt 0.000000 0.000000
vt 0.000000 0.000000
vt 0.000000 0.000000
vt 0.000000 0.000000
vt 0.000000 0.000000
vt 0.000000 0.000000
vt 0.000000 0.000000
vt 0.000000 0.000000
vt 0.000000 0.000000
vt 0.000000 0.000000
vt 0.000000 0.000000
vt 0.000000 0.000000
vn -0.0000 0.0000 1.0000
vn 0.0001 0.0000 1.0000
vn 0.0003 0.0000 1.0000
vn -0.0002 0.0000 1.0000
vn 0.0002 0.0000 1.0000
vn -0.0001 0.0000 1.0000
vn 0.0980 0.9952 0.0000
vn 0.2903 0.9569 0.0000
vn 0.4714 0.8819 0.0000
vn 0.6344 0.7730 0.0000
vn 0.7730 0.6344 0.0000
vn 0.8819 0.4714 0.0000
vn 0.9569 0.2903 0.0000
vn 0.9952 0.0980 0.0000
vn 0.9952 -0.0980 0.0000
vn 0.9569 -0.2903 0.0000
vn 0.8819 -0.4714 0.0000
vn 0.7730 -0.6344 0.0000
vn 0.6344 -0.7730 0.0000
vn 0.4714 -0.8819 0.0000
vn 0.2903 -0.9569 0.0000
vn 0.0980 -0.9952 0.0000
vn -0.0980 -0.9952 0.0000
vn -0.2903 -0.9569 0.0000
vn -0.4714 -0.8819 0.0000
vn -0.6344 -0.7730 0.0000
vn -0.7730 -0.6344 0.0000
vn -0.8819 -0.4714 0.0000
vn -0.9569 -0.2903 0.0000
vn -0.9952 -0.0980 0.0000
vn -0.9952 0.0980 0.0000
vn -0.9569 0.2903 0.0000
vn -0.8819 0.4714 0.0000
vn -0.7730 0.6344 0.0000
vn -0.6344 0.7730 0.0000
vn -0.4714 0.8819 0.0000
vn -0.2903 0.9569 0.0000
vn -0.0980 0.9952 0.0000
vn 0.0000 0.0000 -1.0000
vn 0.0001 0.0000 -1.0000
vn -0.0002 0.0000 -1.0000
vn -0.0001 0.0000 -1.0000
usemtl Face
s off
f 118/1/63 102/2/63 86/3/63
f 70/4/63 68/5/63 66/6/63
f 66/6/63 128/7/63 70/4/63
f 128/7/63 126/8/63 70/4/63
f 126/8/63 124/9/63 122/10/63
f 122/10/64 120/11/64 118/1/64
f 118/1/65 116/12/65 114/13/65
f 114/13/66 112/14/66 118/1/66
f 112/14/67 110/15/67 118/1/67
f 110/15/64 108/16/64 102/2/64
f 108/16/68 106/17/68 102/2/68
f 106/17/63 104/18/63 102/2/63
f 102/2/63 100/19/63 98/20/63
f 98/20/63 96/21/63 94/22/63
f 94/22/64 92/23/64 90/24/64
f 90/24/64 88/25/64 86/3/64
f 86/3/63 84/26/63 82/27/63
f 82/27/63 80/28/63 86/3/63
f 80/28/63 78/29/63 86/3/63
f 78/29/63 76/30/63 74/31/63
f 74/31/64 72/32/64 70/4/64
f 126/8/63 122/10/63 70/4/63
f 122/10/63 118/1/63 70/4/63
f 102/2/63 98/20/63 86/3/63
f 98/20/63 94/22/63 86/3/63
f 94/22/63 90/24/63 86/3/63
f 78/29/63 74/31/63 86/3/63
f 74/31/63 70/4/63 86/3/63
f 118/1/63 110/15/63 102/2/63
f 70/4/63 118/1/63 86/3/63
usemtl Face_NONE
f 66/33/69 67/34/69 65/35/69
f 68/36/70 69/37/70 67/34/70
f 70/38/71 71/39/71 69/37/71
f 72/40/72 73/41/72 71/39/72
f 74/42/73 75/43/73 73/41/73
f 76/44/74 77/45/74 75/43/74
f 78/46/75 79/47/75 77/45/75
f 80/48/76 81/49/76 79/47/76
f 82/50/77 83/51/77 81/49/77
f 84/52/78 85/53/78 83/51/78
f 86/54/79 87/55/79 85/53/79
f 88/56/80 89/57/80 87/55/80
f 90/58/81 91/59/81 89/57/81
f 92/60/82 93/61/82 91/59/82
f 94/62/83 95/63/83 93/61/83
f 96/64/84 97/65/84 95/63/84
f 98/66/85 99/67/85 97/65/85
f 100/68/86 101/69/86 99/67/86
f 102/70/87 103/71/87 101/69/87
f 104/72/88 105/73/88 103/71/88
f 106/74/89 107/75/89 105/73/89
f 108/76/90 109/77/90 107/75/90
f 110/78/91 111/79/91 109/77/91
f 112/80/92 113/81/92 111/79/92
f 114/82/93 115/83/93 113/81/93
f 116/84/94 117/85/94 115/83/94
f 118/86/95 119/87/95 117/85/95
f 120/88/96 121/89/96 119/87/96
f 122/90/97 123/91/97 121/89/97
f 124/92/98 125/93/98 123/91/98
f 126/94/99 127/95/99 125/93/99
f 128/96/100 65/35/100 127/95/100
f 79/47/101 95/63/101 111/79/101
f 66/33/69 68/36/69 67/34/69
f 68/36/70 70/38/70 69/37/70
f 70/38/71 72/40/71 71/39/71
f 72/40/72 74/42/72 73/41/72
f 74/42/73 76/44/73 75/43/73
f 76/44/74 78/46/74 77/45/74
f 78/46/75 80/48/75 79/47/75
f 80/48/76 82/50/76 81/49/76
f 82/50/77 84/52/77 83/51/77
f 84/52/78 86/54/78 85/53/78
f 86/54/79 88/56/79 87/55/79
f 88/56/80 90/58/80 89/57/80
f 90/58/81 92/60/81 91/59/81
f 92/60/82 94/62/82 93/61/82
f 94/62/83 96/64/83 95/63/83
f 96/64/84 98/66/84 97/65/84
f 98/66/85 100/68/85 99/67/85
f 100/68/86 102/70/86 101/69/86
f 102/70/87 104/72/87 103/71/87
f 104/72/88 106/74/88 105/73/88
f 106/74/89 108/76/89 107/75/89
f 108/76/90 110/78/90 109/77/90
f 110/78/91 112/80/91 111/79/91
f 112/80/92 114/82/92 113/81/92
f 114/82/93 116/84/93 115/83/93
f 116/84/94 118/86/94 117/85/94
f 118/86/95 120/88/95 119/87/95
f 120/88/96 122/90/96 121/89/96
f 122/90/97 124/92/97 123/91/97
f 124/92/98 126/94/98 125/93/98
f 126/94/99 128/96/99 127/95/99
f 128/96/100 66/33/100 65/35/100
f 127/95/101 65/35/101 67/34/101
f 67/34/101 69/37/101 71/39/101
f 71/39/102 73/41/102 75/43/102
f 75/43/103 77/45/103 71/39/103
f 77/45/102 79/47/102 71/39/102
f 79/47/101 81/49/101 83/51/101
f 83/51/103 85/53/103 79/47/103
f 85/53/101 87/55/101 79/47/101
f 87/55/101 89/57/101 95/63/101
f 89/57/101 91/59/101 95/63/101
f 91/59/102 93/61/102 95/63/102
f 95/63/101 97/65/101 99/67/101
f 99/67/101 101/69/101 103/71/101
f 103/71/101 105/73/101 107/75/101
f 107/75/101 109/77/101 111/79/101
f 111/79/101 113/81/101 115/83/101
f 115/83/104 117/85/104 119/87/104
f 119/87/104 121/89/104 127/95/104
f 121/89/101 123/91/101 127/95/101
f 123/91/104 125/93/104 127/95/104
f 127/95/101 67/34/101 71/39/101
f 95/63/101 99/67/101 111/79/101
f 99/67/101 103/71/101 111/79/101
f 103/71/104 107/75/104 111/79/104
f 111/79/101 115/83/101 127/95/101
f 115/83/101 119/87/101 127/95/101
f 127/95/101 71/39/101 79/47/101
f 79/47/101 87/55/101 95/63/101
f 127/95/101 79/47/101 111/79/101
