{
    "asset" : {
        "generator" : "Khronos glTF Blender I/O v1.6.16",
        "version" : "2.0"
    },
    "scene" : 0,
    "scenes" : [
        {
            "name" : "Scene",
            "nodes" : [
                0
            ]
        }
    ],
    "nodes" : [
        {
            "mesh" : 0,
            "name" : "RedWine",
            "rotation" : [
                -0.13093821704387665,
                0.0002641030587255955,
                -0.9913890957832336,
                -0.0016715063247829676
            ],
            "scale" : [
                0.062330182641744614,
                0.09565651416778564,
                0.062330178916454315
            ],
            "translation" : [
                0,
                0.061830904334783554,
                0
            ]
        }
    ],
    "materials" : [
        {
            "doubleSided" : true,
            "name" : "Material.001",
            "pbrMetallicRoughness" : {
                "baseColorFactor" : [
                    0.5,
                    0.5,
                    0.5,
                    1
                ],
                "metallicFactor" : 0,
                "roughnessFactor" : 0.20000000298023224
            }
        }
    ],
    "meshes" : [
        {
            "name" : "RedWine.001",
            "primitives" : [
                {
                    "attributes" : {
                        "POSITION" : 0,
                        "NORMAL" : 1,
                        "TEXCOORD_0" : 2,
                        "COLOR_0" : 3
                    },
                    "indices" : 4,
                    "material" : 0
                }
            ]
        }
    ],
    "accessors" : [
        {
            "bufferView" : 0,
            "componentType" : 5126,
            "count" : 2512,
            "max" : [
                2.9039363861083984,
                0.6488778591156006,
                1.2801257371902466
            ],
            "min" : [
                -3.476691722869873,
                -0.648878276348114,
                -1.7309494018554688
            ],
            "type" : "VEC3"
        },
        {
            "bufferView" : 1,
            "componentType" : 5126,
            "count" : 2512,
            "type" : "VEC3"
        },
        {
            "bufferView" : 2,
            "componentType" : 5126,
            "count" : 2512,
            "type" : "VEC2"
        },
        {
            "bufferView" : 3,
            "componentType" : 5123,
            "count" : 2512,
            "normalized" : true,
            "type" : "VEC4"
        },
        {
            "bufferView" : 4,
            "componentType" : 5123,
            "count" : 4506,
            "type" : "SCALAR"
        }
    ],
    "bufferViews" : [
        {
            "buffer" : 0,
            "byteLength" : 30144,
            "byteOffset" : 0
        },
        {
            "buffer" : 0,
            "byteLength" : 30144,
            "byteOffset" : 30144
        },
        {
            "buffer" : 0,
            "byteLength" : 20096,
            "byteOffset" : 60288
        },
        {
            "buffer" : 0,
            "byteLength" : 20096,
            "byteOffset" : 80384
        },
        {
            "buffer" : 0,
            "byteLength" : 9012,
            "byteOffset" : 100480
        }
    ],
    "buffers" : [
        {
            "byteLength" : 109492,
            "uri" : "data:application/octet-stream;base64,"
        }
    ]
}
