{
    "asset" : {
        "generator" : "Khronos glTF Blender I/O v1.6.16",
        "version" : "2.0"
    },
    "scene" : 0,
    "scenes" : [
        {
            "name" : "Scene",
            "nodes" : [
                0,
                1,
                2
            ]
        }
    ],
    "nodes" : [
        {
            "mesh" : 0,
            "name" : "Cube",
            "rotation" : [
                0.19985702633857727,
                0,
                0,
                0.9798250794410706
            ],
            "scale" : [
                0.4000000059604645,
                0.4000000059604645,
                0.800000011920929
            ],
            "translation" : [
                0,
                0.0026002973318099976,
                -0.0005891621112823486
            ]
        },
        {
            "mesh" : 1,
            "name" : "Cylinder",
            "rotation" : [
                0.8341612219810486,
                0,
                0,
                0.5515207052230835
            ],
            "scale" : [
                0.31683576107025146,
                0.31683576107025146,
                0.31683576107025146
            ],
            "translation" : [
                0,
                -0.29271042346954346,
                0.6931929588317871
            ]
        },
        {
            "mesh" : 2,
            "name" : "Sphere",
            "rotation" : [
                0.19985702633857727,
                0,
                0,
                0.9798250794410706
            ],
            "scale" : [
                0.30679672956466675,
                0.30679672956466675,
                0.30679672956466675
            ],
            "translation" : [
                0,
                -0.29858317971229553,
                0.7069898843765259
            ]
        }
    ],
    "materials" : [
        {
            "doubleSided" : true,
            "name" : "Material",
            "pbrMetallicRoughness" : {
                "baseColorFactor" : [
                    0.5,
                    0.5,
                    0.5,
                    1
                ],
                "metallicFactor" : 0.5,
                "roughnessFactor" : 0.20000000298023224
            }
        },
        {
            "doubleSided" : true,
            "name" : "Material.001",
            "pbrMetallicRoughness" : {
                "metallicFactor" : 0,
                "roughnessFactor" : 0
            }
        }
    ],
    "meshes" : [
        {
            "name" : "Cube",
            "primitives" : [
                {
                    "attributes" : {
                        "POSITION" : 0,
                        "NORMAL" : 1,
                        "TEXCOORD_0" : 2,
                        "COLOR_0" : 3
                    },
                    "indices" : 4,
                    "material" : 0
                }
            ]
        },
        {
            "name" : "Cylinder",
            "primitives" : [
                {
                    "attributes" : {
                        "POSITION" : 5,
                        "NORMAL" : 6,
                        "TEXCOORD_0" : 7,
                        "COLOR_0" : 8
                    },
                    "indices" : 9,
                    "material" : 0
                }
            ]
        },
        {
            "name" : "Sphere",
            "primitives" : [
                {
                    "attributes" : {
                        "POSITION" : 10,
                        "NORMAL" : 11,
                        "TEXCOORD_0" : 12,
                        "COLOR_0" : 13
                    },
                    "indices" : 14,
                    "material" : 1
                }
            ]
        }
    ],
    "accessors" : [
        {
            "bufferView" : 0,
            "componentType" : 5126,
            "count" : 4804,
            "max" : [
                1,
                1,
                1
            ],
            "min" : [
                -1,
                -1,
                -1
            ],
            "type" : "VEC3"
        },
        {
            "bufferView" : 1,
            "componentType" : 5126,
            "count" : 4804,
            "type" : "VEC3"
        },
        {
            "bufferView" : 2,
            "componentType" : 5126,
            "count" : 4804,
            "type" : "VEC2"
        },
        {
            "bufferView" : 3,
            "componentType" : 5123,
            "count" : 4804,
            "normalized" : true,
            "type" : "VEC4"
        },
        {
            "bufferView" : 4,
            "componentType" : 5123,
            "count" : 19500,
            "type" : "SCALAR"
        },
        {
            "bufferView" : 5,
            "componentType" : 5126,
            "count" : 404,
            "max" : [
                1,
                1,
                1
            ],
            "min" : [
                -1,
                -1,
                -1
            ],
            "type" : "VEC3"
        },
        {
            "bufferView" : 6,
            "componentType" : 5126,
            "count" : 404,
            "type" : "VEC3"
        },
        {
            "bufferView" : 7,
            "componentType" : 5126,
            "count" : 404,
            "type" : "VEC2"
        },
        {
            "bufferView" : 8,
            "componentType" : 5123,
            "count" : 404,
            "normalized" : true,
            "type" : "VEC4"
        },
        {
            "bufferView" : 9,
            "componentType" : 5123,
            "count" : 756,
            "type" : "SCALAR"
        },
        {
            "bufferView" : 10,
            "componentType" : 5126,
            "count" : 1984,
            "max" : [
                0.9999997019767761,
                1,
                0.9999994039535522
            ],
            "min" : [
                -0.9999990463256836,
                -1,
                -0.9999987483024597
            ],
            "type" : "VEC3"
        },
        {
            "bufferView" : 11,
            "componentType" : 5126,
            "count" : 1984,
            "type" : "VEC3"
        },
        {
            "bufferView" : 12,
            "componentType" : 5126,
            "count" : 1984,
            "type" : "VEC2"
        },
        {
            "bufferView" : 13,
            "componentType" : 5123,
            "count" : 1984,
            "normalized" : true,
            "type" : "VEC4"
        },
        {
            "bufferView" : 14,
            "componentType" : 5123,
            "count" : 2880,
            "type" : "SCALAR"
        }
    ],
    "bufferViews" : [
        {
            "buffer" : 0,
            "byteLength" : 57648,
            "byteOffset" : 0
        },
        {
            "buffer" : 0,
            "byteLength" : 57648,
            "byteOffset" : 57648
        },
        {
            "buffer" : 0,
            "byteLength" : 38432,
            "byteOffset" : 115296
        },
        {
            "buffer" : 0,
            "byteLength" : 38432,
            "byteOffset" : 153728
        },
        {
            "buffer" : 0,
            "byteLength" : 39000,
            "byteOffset" : 192160
        },
        {
            "buffer" : 0,
            "byteLength" : 4848,
            "byteOffset" : 231160
        },
        {
            "buffer" : 0,
            "byteLength" : 4848,
            "byteOffset" : 236008
        },
        {
            "buffer" : 0,
            "byteLength" : 3232,
            "byteOffset" : 240856
        },
        {
            "buffer" : 0,
            "byteLength" : 3232,
            "byteOffset" : 244088
        },
        {
            "buffer" : 0,
            "byteLength" : 1512,
            "byteOffset" : 247320
        },
        {
            "buffer" : 0,
            "byteLength" : 23808,
            "byteOffset" : 248832
        },
        {
            "buffer" : 0,
            "byteLength" : 23808,
            "byteOffset" : 272640
        },
        {
            "buffer" : 0,
            "byteLength" : 15872,
            "byteOffset" : 296448
        },
        {
            "buffer" : 0,
            "byteLength" : 15872,
            "byteOffset" : 312320
        },
        {
            "buffer" : 0,
            "byteLength" : 5760,
            "byteOffset" : 328192
        }
    ],
    "buffers" : [
        {
            "byteLength" : 333952,
            "uri" : "data:application/octet-stream;base64,"
        }
    ]
}
