{
    "asset" : {
        "generator" : "Khronos glTF Blender I/O v1.6.16",
        "version" : "2.0"
    },
    "scene" : 0,
    "scenes" : [
        {
            "name" : "Scene",
            "nodes" : [
                0,
                1
            ]
        }
    ],
    "nodes" : [
        {
            "mesh" : 0,
            "name" : "Road"
        },
        {
            "mesh" : 1,
            "name" : "Plain"
        }
    ],
    "meshes" : [
        {
            "name" : "Road",
            "primitives" : [
                {
                    "attributes" : {
                        "POSITION" : 0,
                        "NORMAL" : 1,
                        "TEXCOORD_0" : 2,
                        "COLOR_0" : 3
                    },
                    "indices" : 4
                }
            ]
        },
        {
            "name" : "Plain",
            "primitives" : [
                {
                    "attributes" : {
                        "POSITION" : 5,
                        "NORMAL" : 6,
                        "TEXCOORD_0" : 7,
                        "COLOR_0" : 8
                    },
                    "indices" : 9
                }
            ]
        }
    ],
    "accessors" : [
        {
            "bufferView" : 0,
            "componentType" : 5126,
            "count" : 15632,
            "max" : [
                1.0000019073486328,
                0,
                469
            ],
            "min" : [
                -1.0000205039978027,
                -0.20000000298023224,
                -43
            ],
            "type" : "VEC3"
        },
        {
            "bufferView" : 1,
            "componentType" : 5126,
            "count" : 15632,
            "type" : "VEC3"
        },
        {
            "bufferView" : 2,
            "componentType" : 5126,
            "count" : 15632,
            "type" : "VEC2"
        },
        {
            "bufferView" : 3,
            "componentType" : 5123,
            "count" : 15632,
            "normalized" : true,
            "type" : "VEC4"
        },
        {
            "bufferView" : 4,
            "componentType" : 5123,
            "count" : 33792,
            "type" : "SCALAR"
        },
        {
            "bufferView" : 5,
            "componentType" : 5126,
            "count" : 24,
            "max" : [
                50,
                -0.08497583866119385,
                473
            ],
            "min" : [
                -50,
                -0.2849758565425873,
                -46.99999237060547
            ],
            "type" : "VEC3"
        },
        {
            "bufferView" : 6,
            "componentType" : 5126,
            "count" : 24,
            "type" : "VEC3"
        },
        {
            "bufferView" : 7,
            "componentType" : 5126,
            "count" : 24,
            "type" : "VEC2"
        },
        {
            "bufferView" : 8,
            "componentType" : 5123,
            "count" : 24,
            "normalized" : true,
            "type" : "VEC4"
        },
        {
            "bufferView" : 9,
            "componentType" : 5123,
            "count" : 36,
            "type" : "SCALAR"
        }
    ],
    "bufferViews" : [
        {
            "buffer" : 0,
            "byteLength" : 187584,
            "byteOffset" : 0
        },
        {
            "buffer" : 0,
            "byteLength" : 187584,
            "byteOffset" : 187584
        },
        {
            "buffer" : 0,
            "byteLength" : 125056,
            "byteOffset" : 375168
        },
        {
            "buffer" : 0,
            "byteLength" : 125056,
            "byteOffset" : 500224
        },
        {
            "buffer" : 0,
            "byteLength" : 67584,
            "byteOffset" : 625280
        },
        {
            "buffer" : 0,
            "byteLength" : 288,
            "byteOffset" : 692864
        },
        {
            "buffer" : 0,
            "byteLength" : 288,
            "byteOffset" : 693152
        },
        {
            "buffer" : 0,
            "byteLength" : 192,
            "byteOffset" : 693440
        },
        {
            "buffer" : 0,
            "byteLength" : 192,
            "byteOffset" : 693632
        },
        {
            "buffer" : 0,
            "byteLength" : 72,
            "byteOffset" : 693824
        }
    ],
    "buffers" : [
        {
            "byteLength" : 693896,
            "uri" : "data:application/octet-stream;base64,"
        }
    ]
}
