{
    "asset" : {
        "generator" : "Khronos glTF Blender I/O v1.6.16",
        "version" : "2.0"
    },
    "scene" : 0,
    "scenes" : [
        {
            "name" : "Scene",
            "nodes" : [
                0,
                1,
                2
            ]
        }
    ],
    "nodes" : [
        {
            "mesh" : 0,
            "name" : "Layer_1"
        },
        {
            "name" : "Lamp",
            "rotation" : [
                0.16907575726509094,
                0.7558803558349609,
                -0.27217137813568115,
                0.570947527885437
            ],
            "translation" : [
                4.076245307922363,
                5.903861999511719,
                -1.0054539442062378
            ]
        },
        {
            "name" : "Camera",
            "rotation" : [
                0.483536034822464,
                0.33687159419059753,
                -0.20870360732078552,
                0.7804827094078064
            ],
            "translation" : [
                7.481131553649902,
                5.34366512298584,
                6.5076398849487305
            ]
        }
    ],
    "meshes" : [
        {
            "extras" : {
                "targetNames" : [
                    "Squash"
                ]
            },
            "name" : "Layer_1_mesh.001",
            "primitives" : [
                {
                    "attributes" : {
                        "POSITION" : 0,
                        "NORMAL" : 1,
                        "COLOR_0" : 2
                    },
                    "indices" : 3,
                    "targets" : [
                        {
                            "POSITION" : 4,
                            "NORMAL" : 5
                        }
                    ]
                }
            ],
            "weights" : [
                1
            ]
        }
    ],
    "accessors" : [
        {
            "bufferView" : 0,
            "componentType" : 5126,
            "count" : 6573,
            "max" : [
                0.4256715774536133,
                0.4351358413696289,
                0.0992518737912178
            ],
            "min" : [
                -0.4855848550796509,
                0.0012814991641789675,
                -0.17993851006031036
            ],
            "type" : "VEC3"
        },
        {
            "bufferView" : 1,
            "componentType" : 5126,
            "count" : 6573,
            "type" : "VEC3"
        },
        {
            "bufferView" : 2,
            "componentType" : 5123,
            "count" : 6573,
            "normalized" : true,
            "type" : "VEC4"
        },
        {
            "bufferView" : 3,
            "componentType" : 5123,
            "count" : 39468,
            "type" : "SCALAR"
        },
        {
            "bufferView" : 4,
            "componentType" : 5126,
            "count" : 6573,
            "max" : [
                0.4575120806694031,
                0.03435753285884857,
                0.039262451231479645
            ],
            "min" : [
                -0.032400161027908325,
                -0.028112828731536865,
                -0.03506018966436386
            ],
            "type" : "VEC3"
        },
        {
            "bufferView" : 5,
            "componentType" : 5126,
            "count" : 6573,
            "type" : "VEC3"
        }
    ],
    "bufferViews" : [
        {
            "buffer" : 0,
            "byteLength" : 78876,
            "byteOffset" : 0
        },
        {
            "buffer" : 0,
            "byteLength" : 78876,
            "byteOffset" : 78876
        },
        {
            "buffer" : 0,
            "byteLength" : 52584,
            "byteOffset" : 157752
        },
        {
            "buffer" : 0,
            "byteLength" : 78936,
            "byteOffset" : 210336
        },
        {
            "buffer" : 0,
            "byteLength" : 78876,
            "byteOffset" : 289272
        },
        {
            "buffer" : 0,
            "byteLength" : 78876,
            "byteOffset" : 368148
        }
    ],
    "buffers" : [
        {
            "byteLength" : 447024,
            "uri" : "data:application/octet-stream;base64,"
        }
    ]
}
