{
    "asset" : {
        "generator" : "Khronos glTF Blender I/O v1.6.16",
        "version" : "2.0"
    },
    "scene" : 0,
    "scenes" : [
        {
            "name" : "Scene",
            "nodes" : [
                0,
                1,
                2
            ]
        }
    ],
    "nodes" : [
        {
            "mesh" : 0,
            "name" : "Cylinder.001",
            "scale" : [
                0.06839107722043991,
                1.96240234375,
                0.06839107722043991
            ],
            "translation" : [
                0,
                1.469772219657898,
                0
            ]
        },
        {
            "mesh" : 1,
            "name" : "Text",
            "rotation" : [
                0.7071068286895752,
                0,
                0,
                0.7071068286895752
            ],
            "scale" : [
                0.25087007880210876,
                0.4025461673736572,
                0.25087007880210876
            ],
            "translation" : [
                -0.5402863025665283,
                3.320380210876465,
                0.10099770873785019
            ]
        },
        {
            "mesh" : 2,
            "name" : "Cube",
            "scale" : [
                1,
                1,
                0.12802696228027344
            ],
            "translation" : [
                0.0009445678442716599,
                3.78395414352417,
                2.199411392211914e-05
            ]
        }
    ],
    "meshes" : [
        {
            "name" : "Cylinder.001",
            "primitives" : [
                {
                    "attributes" : {
                        "POSITION" : 0,
                        "NORMAL" : 1,
                        "TEXCOORD_0" : 2,
                        "COLOR_0" : 3
                    },
                    "indices" : 4
                }
            ]
        },
        {
            "name" : "Text",
            "primitives" : [
                {
                    "attributes" : {
                        "POSITION" : 5,
                        "NORMAL" : 6,
                        "TEXCOORD_0" : 7,
                        "COLOR_0" : 8
                    },
                    "indices" : 9
                }
            ]
        },
        {
            "name" : "Cube.001",
            "primitives" : [
                {
                    "attributes" : {
                        "POSITION" : 10,
                        "NORMAL" : 11,
                        "TEXCOORD_0" : 12,
                        "COLOR_0" : 13
                    },
                    "indices" : 14
                }
            ]
        }
    ],
    "accessors" : [
        {
            "bufferView" : 0,
            "componentType" : 5126,
            "count" : 192,
            "max" : [
                1,
                1,
                1
            ],
            "min" : [
                -1,
                -1,
                -1
            ],
            "type" : "VEC3"
        },
        {
            "bufferView" : 1,
            "componentType" : 5126,
            "count" : 192,
            "type" : "VEC3"
        },
        {
            "bufferView" : 2,
            "componentType" : 5126,
            "count" : 192,
            "type" : "VEC2"
        },
        {
            "bufferView" : 3,
            "componentType" : 5123,
            "count" : 192,
            "normalized" : true,
            "type" : "VEC4"
        },
        {
            "bufferView" : 4,
            "componentType" : 5123,
            "count" : 372,
            "type" : "SCALAR"
        },
        {
            "bufferView" : 5,
            "componentType" : 5126,
            "count" : 1815,
            "max" : [
                4.87600040435791,
                0,
                1.0089999437332153
            ],
            "min" : [
                0.06100000441074371,
                0,
                -0.6820000410079956
            ],
            "type" : "VEC3"
        },
        {
            "bufferView" : 6,
            "componentType" : 5126,
            "count" : 1815,
            "type" : "VEC3"
        },
        {
            "bufferView" : 7,
            "componentType" : 5126,
            "count" : 1815,
            "type" : "VEC2"
        },
        {
            "bufferView" : 8,
            "componentType" : 5123,
            "count" : 1815,
            "normalized" : true,
            "type" : "VEC4"
        },
        {
            "bufferView" : 9,
            "componentType" : 5123,
            "count" : 4068,
            "type" : "SCALAR"
        },
        {
            "bufferView" : 10,
            "componentType" : 5126,
            "count" : 68,
            "max" : [
                1,
                1,
                1
            ],
            "min" : [
                -1,
                -1,
                -1
            ],
            "type" : "VEC3"
        },
        {
            "bufferView" : 11,
            "componentType" : 5126,
            "count" : 68,
            "type" : "VEC3"
        },
        {
            "bufferView" : 12,
            "componentType" : 5126,
            "count" : 68,
            "type" : "VEC2"
        },
        {
            "bufferView" : 13,
            "componentType" : 5123,
            "count" : 68,
            "normalized" : true,
            "type" : "VEC4"
        },
        {
            "bufferView" : 14,
            "componentType" : 5123,
            "count" : 132,
            "type" : "SCALAR"
        }
    ],
    "bufferViews" : [
        {
            "buffer" : 0,
            "byteLength" : 2304,
            "byteOffset" : 0
        },
        {
            "buffer" : 0,
            "byteLength" : 2304,
            "byteOffset" : 2304
        },
        {
            "buffer" : 0,
            "byteLength" : 1536,
            "byteOffset" : 4608
        },
        {
            "buffer" : 0,
            "byteLength" : 1536,
            "byteOffset" : 6144
        },
        {
            "buffer" : 0,
            "byteLength" : 744,
            "byteOffset" : 7680
        },
        {
            "buffer" : 0,
            "byteLength" : 21780,
            "byteOffset" : 8424
        },
        {
            "buffer" : 0,
            "byteLength" : 21780,
            "byteOffset" : 30204
        },
        {
            "buffer" : 0,
            "byteLength" : 14520,
            "byteOffset" : 51984
        },
        {
            "buffer" : 0,
            "byteLength" : 14520,
            "byteOffset" : 66504
        },
        {
            "buffer" : 0,
            "byteLength" : 8136,
            "byteOffset" : 81024
        },
        {
            "buffer" : 0,
            "byteLength" : 816,
            "byteOffset" : 89160
        },
        {
            "buffer" : 0,
            "byteLength" : 816,
            "byteOffset" : 89976
        },
        {
            "buffer" : 0,
            "byteLength" : 544,
            "byteOffset" : 90792
        },
        {
            "buffer" : 0,
            "byteLength" : 544,
            "byteOffset" : 91336
        },
        {
            "buffer" : 0,
            "byteLength" : 264,
            "byteOffset" : 91880
        }
    ],
    "buffers" : [
        {
            "byteLength" : 92144,
            "uri" : "data:application/octet-stream;base64,"
        }
    ]
}
