{
    "asset" : {
        "generator" : "Khronos glTF Blender I/O v1.6.16",
        "version" : "2.0"
    },
    "scene" : 0,
    "scenes" : [
        {
            "name" : "Scene",
            "nodes" : [
                0
            ]
        }
    ],
    "nodes" : [
        {
            "mesh" : 0,
            "name" : "Sun",
            "scale" : [
                12.5,
                12.500000953674316,
                12.500000953674316
            ],
            "translation" : [
                0,
                3.4537222385406494,
                -3.037529706954956
            ]
        }
    ],
    "meshes" : [
        {
            "extras" : {
                "targetNames" : [
                    "Squash"
                ]
            },
            "name" : "Sun",
            "primitives" : [
                {
                    "attributes" : {
                        "POSITION" : 0,
                        "NORMAL" : 1,
                        "COLOR_0" : 2
                    },
                    "indices" : 3,
                    "targets" : [
                        {
                            "POSITION" : 4,
                            "NORMAL" : 5
                        }
                    ]
                }
            ],
            "weights" : [
                0
            ]
        }
    ],
    "accessors" : [
        {
            "bufferView" : 0,
            "componentType" : 5126,
            "count" : 10153,
            "max" : [
                0.06916923075914383,
                0.058287039399147034,
                0.050050847232341766
            ],
            "min" : [
                -0.09345289319753647,
                -0.06949117034673691,
                -0.07736850529909134
            ],
            "type" : "VEC3"
        },
        {
            "bufferView" : 1,
            "componentType" : 5126,
            "count" : 10153,
            "type" : "VEC3"
        },
        {
            "bufferView" : 2,
            "componentType" : 5123,
            "count" : 10153,
            "normalized" : true,
            "type" : "VEC4"
        },
        {
            "bufferView" : 3,
            "componentType" : 5123,
            "count" : 60858,
            "type" : "SCALAR"
        },
        {
            "bufferView" : 4,
            "componentType" : 5126,
            "count" : 10153,
            "max" : [
                0.0771108865737915,
                0.0635732039809227,
                0.05909829959273338
            ],
            "min" : [
                -0.07095271348953247,
                -0.04085342586040497,
                -0.04013664275407791
            ],
            "type" : "VEC3"
        },
        {
            "bufferView" : 5,
            "componentType" : 5126,
            "count" : 10153,
            "type" : "VEC3"
        }
    ],
    "bufferViews" : [
        {
            "buffer" : 0,
            "byteLength" : 121836,
            "byteOffset" : 0
        },
        {
            "buffer" : 0,
            "byteLength" : 121836,
            "byteOffset" : 121836
        },
        {
            "buffer" : 0,
            "byteLength" : 81224,
            "byteOffset" : 243672
        },
        {
            "buffer" : 0,
            "byteLength" : 121716,
            "byteOffset" : 324896
        },
        {
            "buffer" : 0,
            "byteLength" : 121836,
            "byteOffset" : 446612
        },
        {
            "buffer" : 0,
            "byteLength" : 121836,
            "byteOffset" : 568448
        }
    ],
    "buffers" : [
        {
            "byteLength" : 690284,
            "uri" : "data:application/octet-stream;base64,"
        }
    ]
}
