{
    "asset" : {
        "generator" : "Khronos glTF Blender I/O v1.6.16",
        "version" : "2.0"
    },
    "scene" : 0,
    "scenes" : [
        {
            "name" : "Scene",
            "nodes" : [
                0
            ]
        }
    ],
    "nodes" : [
        {
            "mesh" : 0,
            "name" : "Basin",
            "rotation" : [
                0,
                0,
                0.02819172479212284,
                0.9996025562286377
            ],
            "scale" : [
                356.5031433105469,
                356.503173828125,
                356.503173828125
            ],
            "translation" : [
                0.008600026369094849,
                -5.761041641235352,
                -0.03616976737976074
            ]
        }
    ],
    "meshes" : [
        {
            "name" : "Basin",
            "primitives" : [
                {
                    "attributes" : {
                        "POSITION" : 0,
                        "NORMAL" : 1,
                        "COLOR_0" : 2
                    },
                    "indices" : 3
                }
            ]
        }
    ],
    "accessors" : [
        {
            "bufferView" : 0,
            "componentType" : 5126,
            "count" : 9514,
            "max" : [
                0.042805109173059464,
                0.030746545642614365,
                0.041381388902664185
            ],
            "min" : [
                -0.04128890484571457,
                -0.03630346804857254,
                -0.041768062859773636
            ],
            "type" : "VEC3"
        },
        {
            "bufferView" : 1,
            "componentType" : 5126,
            "count" : 9514,
            "type" : "VEC3"
        },
        {
            "bufferView" : 2,
            "componentType" : 5123,
            "count" : 9514,
            "normalized" : true,
            "type" : "VEC4"
        },
        {
            "bufferView" : 3,
            "componentType" : 5123,
            "count" : 57072,
            "type" : "SCALAR"
        }
    ],
    "bufferViews" : [
        {
            "buffer" : 0,
            "byteLength" : 114168,
            "byteOffset" : 0
        },
        {
            "buffer" : 0,
            "byteLength" : 114168,
            "byteOffset" : 114168
        },
        {
            "buffer" : 0,
            "byteLength" : 76112,
            "byteOffset" : 228336
        },
        {
            "buffer" : 0,
            "byteLength" : 114144,
            "byteOffset" : 304448
        }
    ],
    "buffers" : [
        {
            "byteLength" : 418592,
            "uri" : "data:application/octet-stream;base64,"
        }
    ]
}
