{
    "asset" : {
        "generator" : "Khronos glTF Blender I/O v1.6.16",
        "version" : "2.0"
    },
    "scene" : 0,
    "scenes" : [
        {
            "name" : "Scene",
            "nodes" : [
                8
            ]
        }
    ],
    "nodes" : [
        {
            "name" : "Bone.002",
            "rotation" : [
                0.1133471205830574,
                -0.006109341979026794,
                -0.008912825025618076,
                0.9934967160224915
            ],
            "scale" : [
                1,
                0.9999997615814209,
                1
            ],
            "translation" : [
                -6.980951816615288e-09,
                2.952383279800415,
                -2.753222929641197e-07
            ]
        },
        {
            "children" : [
                0
            ],
            "name" : "Bone.001",
            "rotation" : [
                -0.9212280511856079,
                0.028944427147507668,
                0.01218279916793108,
                0.3877531886100769
            ],
            "scale" : [
                1,
                0.9999999403953552,
                0.9999998211860657
            ],
            "translation" : [
                0,
                1,
                0
            ]
        },
        {
            "name" : "Bone.004",
            "rotation" : [
                -0.6060340404510498,
                -0.03370879590511322,
                0.05461403727531433,
                0.7928453683853149
            ],
            "scale" : [
                1.0000001192092896,
                1.0000001192092896,
                1
            ],
            "translation" : [
                -3.098940126733396e-08,
                2.841397285461426,
                1.655055541505135e-07
            ]
        },
        {
            "name" : "Bone.005",
            "rotation" : [
                -0.3069712221622467,
                0.03633572533726692,
                -0.5189692378044128,
                0.7969437837600708
            ],
            "scale" : [
                0.9999998807907104,
                0.9999998807907104,
                1.0000001192092896
            ],
            "translation" : [
                -7.916241884231567e-09,
                2.8413970470428467,
                -1.2236736068871323e-08
            ]
        },
        {
            "name" : "Bone.006",
            "rotation" : [
                -0.2545040547847748,
                -5.565164684639967e-08,
                0.5384975671768188,
                0.8032733201980591
            ],
            "scale" : [
                1,
                1,
                0.9999999403953552
            ],
            "translation" : [
                -7.916241884231567e-09,
                2.8413970470428467,
                -1.2236736068871323e-08
            ]
        },
        {
            "children" : [
                2,
                3,
                4
            ],
            "name" : "Bone.003",
            "rotation" : [
                0.027900228276848793,
                0.0016232396010309458,
                -0.05805649235844612,
                0.9979220628738403
            ],
            "scale" : [
                0.9999999403953552,
                0.9999999403953552,
                0.9999999403953552
            ],
            "translation" : [
                0,
                1,
                0
            ]
        },
        {
            "children" : [
                1,
                5
            ],
            "name" : "Bone"
        },
        {
            "mesh" : 0,
            "name" : "Layer_1",
            "skin" : 0
        },
        {
            "children" : [
                7,
                6
            ],
            "name" : "Armature",
            "rotation" : [
                0.3684026002883911,
                0,
                0,
                0.9296664595603943
            ],
            "scale" : [
                0.18442881107330322,
                0.18442881107330322,
                0.18442881107330322
            ],
            "translation" : [
                0.015825090929865837,
                0.15825091302394867,
                0.2795765995979309
            ]
        }
    ],
    "animations" : [
        {
            "channels" : [
                {
                    "sampler" : 0,
                    "target" : {
                        "node" : 6,
                        "path" : "translation"
                    }
                },
                {
                    "sampler" : 1,
                    "target" : {
                        "node" : 6,
                        "path" : "rotation"
                    }
                },
                {
                    "sampler" : 2,
                    "target" : {
                        "node" : 6,
                        "path" : "scale"
                    }
                },
                {
                    "sampler" : 3,
                    "target" : {
                        "node" : 1,
                        "path" : "translation"
                    }
                },
                {
                    "sampler" : 4,
                    "target" : {
                        "node" : 1,
                        "path" : "rotation"
                    }
                },
                {
                    "sampler" : 5,
                    "target" : {
                        "node" : 1,
                        "path" : "scale"
                    }
                },
                {
                    "sampler" : 6,
                    "target" : {
                        "node" : 0,
                        "path" : "translation"
                    }
                },
                {
                    "sampler" : 7,
                    "target" : {
                        "node" : 0,
                        "path" : "rotation"
                    }
                },
                {
                    "sampler" : 8,
                    "target" : {
                        "node" : 0,
                        "path" : "scale"
                    }
                },
                {
                    "sampler" : 9,
                    "target" : {
                        "node" : 5,
                        "path" : "translation"
                    }
                },
                {
                    "sampler" : 10,
                    "target" : {
                        "node" : 5,
                        "path" : "rotation"
                    }
                },
                {
                    "sampler" : 11,
                    "target" : {
                        "node" : 5,
                        "path" : "scale"
                    }
                },
                {
                    "sampler" : 12,
                    "target" : {
                        "node" : 2,
                        "path" : "translation"
                    }
                },
                {
                    "sampler" : 13,
                    "target" : {
                        "node" : 2,
                        "path" : "rotation"
                    }
                },
                {
                    "sampler" : 14,
                    "target" : {
                        "node" : 2,
                        "path" : "scale"
                    }
                },
                {
                    "sampler" : 15,
                    "target" : {
                        "node" : 3,
                        "path" : "translation"
                    }
                },
                {
                    "sampler" : 16,
                    "target" : {
                        "node" : 3,
                        "path" : "rotation"
                    }
                },
                {
                    "sampler" : 17,
                    "target" : {
                        "node" : 3,
                        "path" : "scale"
                    }
                },
                {
                    "sampler" : 18,
                    "target" : {
                        "node" : 4,
                        "path" : "translation"
                    }
                },
                {
                    "sampler" : 19,
                    "target" : {
                        "node" : 4,
                        "path" : "rotation"
                    }
                },
                {
                    "sampler" : 20,
                    "target" : {
                        "node" : 4,
                        "path" : "scale"
                    }
                }
            ],
            "name" : "ArmatureAction",
            "samplers" : [
                {
                    "input" : 9,
                    "interpolation" : "LINEAR",
                    "output" : 10
                },
                {
                    "input" : 9,
                    "interpolation" : "LINEAR",
                    "output" : 11
                },
                {
                    "input" : 9,
                    "interpolation" : "LINEAR",
                    "output" : 12
                },
                {
                    "input" : 9,
                    "interpolation" : "LINEAR",
                    "output" : 13
                },
                {
                    "input" : 9,
                    "interpolation" : "LINEAR",
                    "output" : 14
                },
                {
                    "input" : 9,
                    "interpolation" : "LINEAR",
                    "output" : 15
                },
                {
                    "input" : 9,
                    "interpolation" : "LINEAR",
                    "output" : 16
                },
                {
                    "input" : 9,
                    "interpolation" : "LINEAR",
                    "output" : 17
                },
                {
                    "input" : 9,
                    "interpolation" : "LINEAR",
                    "output" : 18
                },
                {
                    "input" : 9,
                    "interpolation" : "LINEAR",
                    "output" : 19
                },
                {
                    "input" : 9,
                    "interpolation" : "LINEAR",
                    "output" : 20
                },
                {
                    "input" : 9,
                    "interpolation" : "LINEAR",
                    "output" : 21
                },
                {
                    "input" : 9,
                    "interpolation" : "LINEAR",
                    "output" : 22
                },
                {
                    "input" : 9,
                    "interpolation" : "LINEAR",
                    "output" : 23
                },
                {
                    "input" : 9,
                    "interpolation" : "LINEAR",
                    "output" : 24
                },
                {
                    "input" : 9,
                    "interpolation" : "LINEAR",
                    "output" : 25
                },
                {
                    "input" : 9,
                    "interpolation" : "LINEAR",
                    "output" : 26
                },
                {
                    "input" : 9,
                    "interpolation" : "LINEAR",
                    "output" : 27
                },
                {
                    "input" : 9,
                    "interpolation" : "LINEAR",
                    "output" : 28
                },
                {
                    "input" : 9,
                    "interpolation" : "LINEAR",
                    "output" : 29
                },
                {
                    "input" : 9,
                    "interpolation" : "LINEAR",
                    "output" : 30
                }
            ]
        }
    ],
    "meshes" : [
        {
            "extras" : {
                "targetNames" : [
                    "Squash"
                ]
            },
            "name" : "Layer_1_mesh",
            "primitives" : [
                {
                    "attributes" : {
                        "POSITION" : 0,
                        "NORMAL" : 1,
                        "COLOR_0" : 2,
                        "JOINTS_0" : 3,
                        "WEIGHTS_0" : 4
                    },
                    "indices" : 5,
                    "targets" : [
                        {
                            "POSITION" : 6,
                            "NORMAL" : 7
                        }
                    ]
                }
            ],
            "weights" : [
                0
            ]
        }
    ],
    "skins" : [
        {
            "inverseBindMatrices" : 8,
            "joints" : [
                6,
                1,
                0,
                5,
                2,
                3,
                4
            ],
            "name" : "Armature"
        }
    ],
    "accessors" : [
        {
            "bufferView" : 0,
            "componentType" : 5126,
            "count" : 6562,
            "max" : [
                0.616227388381958,
                1.237177848815918,
                1.226258635520935
            ],
            "min" : [
                -0.4410218298435211,
                0.015874644741415977,
                -1.0609948635101318
            ],
            "type" : "VEC3"
        },
        {
            "bufferView" : 1,
            "componentType" : 5126,
            "count" : 6562,
            "type" : "VEC3"
        },
        {
            "bufferView" : 2,
            "componentType" : 5123,
            "count" : 6562,
            "normalized" : true,
            "type" : "VEC4"
        },
        {
            "bufferView" : 3,
            "componentType" : 5121,
            "count" : 6562,
            "type" : "VEC4"
        },
        {
            "bufferView" : 4,
            "componentType" : 5126,
            "count" : 6562,
            "type" : "VEC4"
        },
        {
            "bufferView" : 5,
            "componentType" : 5123,
            "count" : 39360,
            "type" : "SCALAR"
        },
        {
            "bufferView" : 6,
            "componentType" : 5126,
            "count" : 6562,
            "max" : [
                0.04615657031536102,
                0,
                0.1643245816230774
            ],
            "min" : [
                -0.07230750471353531,
                -0.12465116381645203,
                0
            ],
            "type" : "VEC3"
        },
        {
            "bufferView" : 7,
            "componentType" : 5126,
            "count" : 6562,
            "type" : "VEC3"
        },
        {
            "bufferView" : 8,
            "componentType" : 5126,
            "count" : 7,
            "type" : "MAT4"
        },
        {
            "bufferView" : 9,
            "componentType" : 5126,
            "count" : 101,
            "max" : [
                4
            ],
            "min" : [
                0
            ],
            "type" : "SCALAR"
        },
        {
            "bufferView" : 10,
            "componentType" : 5126,
            "count" : 101,
            "type" : "VEC3"
        },
        {
            "bufferView" : 11,
            "componentType" : 5126,
            "count" : 101,
            "type" : "VEC4"
        },
        {
            "bufferView" : 12,
            "componentType" : 5126,
            "count" : 101,
            "type" : "VEC3"
        },
        {
            "bufferView" : 13,
            "componentType" : 5126,
            "count" : 101,
            "type" : "VEC3"
        },
        {
            "bufferView" : 14,
            "componentType" : 5126,
            "count" : 101,
            "type" : "VEC4"
        },
        {
            "bufferView" : 15,
            "componentType" : 5126,
            "count" : 101,
            "type" : "VEC3"
        },
        {
            "bufferView" : 16,
            "componentType" : 5126,
            "count" : 101,
            "type" : "VEC3"
        },
        {
            "bufferView" : 17,
            "componentType" : 5126,
            "count" : 101,
            "type" : "VEC4"
        },
        {
            "bufferView" : 18,
            "componentType" : 5126,
            "count" : 101,
            "type" : "VEC3"
        },
        {
            "bufferView" : 19,
            "componentType" : 5126,
            "count" : 101,
            "type" : "VEC3"
        },
        {
            "bufferView" : 20,
            "componentType" : 5126,
            "count" : 101,
            "type" : "VEC4"
        },
        {
            "bufferView" : 21,
            "componentType" : 5126,
            "count" : 101,
            "type" : "VEC3"
        },
        {
            "bufferView" : 22,
            "componentType" : 5126,
            "count" : 101,
            "type" : "VEC3"
        },
        {
            "bufferView" : 23,
            "componentType" : 5126,
            "count" : 101,
            "type" : "VEC4"
        },
        {
            "bufferView" : 24,
            "componentType" : 5126,
            "count" : 101,
            "type" : "VEC3"
        },
        {
            "bufferView" : 25,
            "componentType" : 5126,
            "count" : 101,
            "type" : "VEC3"
        },
        {
            "bufferView" : 26,
            "componentType" : 5126,
            "count" : 101,
            "type" : "VEC4"
        },
        {
            "bufferView" : 27,
            "componentType" : 5126,
            "count" : 101,
            "type" : "VEC3"
        },
        {
            "bufferView" : 28,
            "componentType" : 5126,
            "count" : 101,
            "type" : "VEC3"
        },
        {
            "bufferView" : 29,
            "componentType" : 5126,
            "count" : 101,
            "type" : "VEC4"
        },
        {
            "bufferView" : 30,
            "componentType" : 5126,
            "count" : 101,
            "type" : "VEC3"
        }
    ],
    "bufferViews" : [
        {
            "buffer" : 0,
            "byteLength" : 78744,
            "byteOffset" : 0
        },
        {
            "buffer" : 0,
            "byteLength" : 78744,
            "byteOffset" : 78744
        },
        {
            "buffer" : 0,
            "byteLength" : 52496,
            "byteOffset" : 157488
        },
        {
            "buffer" : 0,
            "byteLength" : 26248,
            "byteOffset" : 209984
        },
        {
            "buffer" : 0,
            "byteLength" : 104992,
            "byteOffset" : 236232
        },
        {
            "buffer" : 0,
            "byteLength" : 78720,
            "byteOffset" : 341224
        },
        {
            "buffer" : 0,
            "byteLength" : 78744,
            "byteOffset" : 419944
        },
        {
            "buffer" : 0,
            "byteLength" : 78744,
            "byteOffset" : 498688
        },
        {
            "buffer" : 0,
            "byteLength" : 448,
            "byteOffset" : 577432
        },
        {
            "buffer" : 0,
            "byteLength" : 404,
            "byteOffset" : 577880
        },
        {
            "buffer" : 0,
            "byteLength" : 1212,
            "byteOffset" : 578284
        },
        {
            "buffer" : 0,
            "byteLength" : 1616,
            "byteOffset" : 579496
        },
        {
            "buffer" : 0,
            "byteLength" : 1212,
            "byteOffset" : 581112
        },
        {
            "buffer" : 0,
            "byteLength" : 1212,
            "byteOffset" : 582324
        },
        {
            "buffer" : 0,
            "byteLength" : 1616,
            "byteOffset" : 583536
        },
        {
            "buffer" : 0,
            "byteLength" : 1212,
            "byteOffset" : 585152
        },
        {
            "buffer" : 0,
            "byteLength" : 1212,
            "byteOffset" : 586364
        },
        {
            "buffer" : 0,
            "byteLength" : 1616,
            "byteOffset" : 587576
        },
        {
            "buffer" : 0,
            "byteLength" : 1212,
            "byteOffset" : 589192
        },
        {
            "buffer" : 0,
            "byteLength" : 1212,
            "byteOffset" : 590404
        },
        {
            "buffer" : 0,
            "byteLength" : 1616,
            "byteOffset" : 591616
        },
        {
            "buffer" : 0,
            "byteLength" : 1212,
            "byteOffset" : 593232
        },
        {
            "buffer" : 0,
            "byteLength" : 1212,
            "byteOffset" : 594444
        },
        {
            "buffer" : 0,
            "byteLength" : 1616,
            "byteOffset" : 595656
        },
        {
            "buffer" : 0,
            "byteLength" : 1212,
            "byteOffset" : 597272
        },
        {
            "buffer" : 0,
            "byteLength" : 1212,
            "byteOffset" : 598484
        },
        {
            "buffer" : 0,
            "byteLength" : 1616,
            "byteOffset" : 599696
        },
        {
            "buffer" : 0,
            "byteLength" : 1212,
            "byteOffset" : 601312
        },
        {
            "buffer" : 0,
            "byteLength" : 1212,
            "byteOffset" : 602524
        },
        {
            "buffer" : 0,
            "byteLength" : 1616,
            "byteOffset" : 603736
        },
        {
            "buffer" : 0,
            "byteLength" : 1212,
            "byteOffset" : 605352
        }
    ],
    "buffers" : [
        {
            "byteLength" : 606564,
            "uri" : "data:application/octet-stream;base64,"
        }
    ]
}
