{
    "asset" : {
        "generator" : "Khronos glTF Blender I/O v1.6.16",
        "version" : "2.0"
    },
    "scene" : 0,
    "scenes" : [
        {
            "name" : "Scene",
            "nodes" : [
                0,
                1,
                10
            ]
        }
    ],
    "nodes" : [
        {
            "name" : "Light",
            "rotation" : [
                0.16907575726509094,
                0.7558803558349609,
                -0.27217137813568115,
                0.570947527885437
            ],
            "translation" : [
                4.076245307922363,
                5.903861999511719,
                -1.0054539442062378
            ]
        },
        {
            "name" : "Camera",
            "rotation" : [
                0.483536034822464,
                0.33687159419059753,
                -0.20870360732078552,
                0.7804827094078064
            ],
            "translation" : [
                7.358891487121582,
                4.958309173583984,
                6.925790786743164
            ]
        },
        {
            "name" : "Bone.002",
            "rotation" : [
                0.041936375200748444,
                0.0021010590717196465,
                -0.11104133725166321,
                0.9929283857345581
            ],
            "scale" : [
                1,
                0.9999998807907104,
                1.000000238418579
            ],
            "translation" : [
                1.565289551308524e-07,
                4.215785026550293,
                -3.853446628454549e-07
            ]
        },
        {
            "children" : [
                2
            ],
            "name" : "Bone.001",
            "rotation" : [
                -0.90953528881073,
                0.02789035066962242,
                0.012710219249129295,
                0.414495050907135
            ],
            "scale" : [
                0.9999999403953552,
                0.9999999403953552,
                1.000000238418579
            ],
            "translation" : [
                0,
                1,
                0
            ]
        },
        {
            "name" : "Bone.004",
            "rotation" : [
                -0.2677876055240631,
                0.05720388889312744,
                -0.4744269847869873,
                0.8366221189498901
            ],
            "scale" : [
                0.9999999403953552,
                0.9999999403953552,
                1
            ],
            "translation" : [
                -4.927963459522289e-08,
                3.4668829441070557,
                1.3141480792455695e-07
            ]
        },
        {
            "name" : "Bone.005",
            "rotation" : [
                -0.18506991863250732,
                -0.02269006334245205,
                0.4843040406703949,
                0.8548005223274231
            ],
            "scale" : [
                0.9999998211860657,
                0.9999999403953552,
                0.9999999403953552
            ],
            "translation" : [
                -1.2633073254164628e-07,
                3.4668827056884766,
                3.6881750986594852e-09
            ]
        },
        {
            "name" : "Bone.006",
            "rotation" : [
                -0.46637845039367676,
                -0.004584654234349728,
                0.021102117374539375,
                0.8843216896057129
            ],
            "scale" : [
                1,
                0.9999999403953552,
                0.9999999403953552
            ],
            "translation" : [
                7.878740326816569e-09,
                3.4668827056884766,
                1.669050533337213e-07
            ]
        },
        {
            "children" : [
                4,
                5,
                6
            ],
            "name" : "Bone.003",
            "rotation" : [
                -0.13937880098819733,
                1.1804572608298258e-07,
                -1.661524962059957e-08,
                0.990239143371582
            ],
            "translation" : [
                0,
                1,
                0
            ]
        },
        {
            "children" : [
                3,
                7
            ],
            "name" : "Bone"
        },
        {
            "mesh" : 0,
            "name" : "Layer_1",
            "skin" : 0
        },
        {
            "children" : [
                9,
                8
            ],
            "name" : "Armature",
            "rotation" : [
                0.3548281788825989,
                0,
                0,
                0.9349315166473389
            ],
            "scale" : [
                0.19055837392807007,
                0.19055837392807007,
                0.19055837392807007
            ],
            "translation" : [
                0,
                0.18990105390548706,
                0.5848952531814575
            ]
        }
    ],
    "animations" : [
        {
            "channels" : [
                {
                    "sampler" : 0,
                    "target" : {
                        "node" : 8,
                        "path" : "translation"
                    }
                },
                {
                    "sampler" : 1,
                    "target" : {
                        "node" : 8,
                        "path" : "rotation"
                    }
                },
                {
                    "sampler" : 2,
                    "target" : {
                        "node" : 8,
                        "path" : "scale"
                    }
                },
                {
                    "sampler" : 3,
                    "target" : {
                        "node" : 3,
                        "path" : "translation"
                    }
                },
                {
                    "sampler" : 4,
                    "target" : {
                        "node" : 3,
                        "path" : "rotation"
                    }
                },
                {
                    "sampler" : 5,
                    "target" : {
                        "node" : 3,
                        "path" : "scale"
                    }
                },
                {
                    "sampler" : 6,
                    "target" : {
                        "node" : 2,
                        "path" : "translation"
                    }
                },
                {
                    "sampler" : 7,
                    "target" : {
                        "node" : 2,
                        "path" : "rotation"
                    }
                },
                {
                    "sampler" : 8,
                    "target" : {
                        "node" : 2,
                        "path" : "scale"
                    }
                },
                {
                    "sampler" : 9,
                    "target" : {
                        "node" : 7,
                        "path" : "translation"
                    }
                },
                {
                    "sampler" : 10,
                    "target" : {
                        "node" : 7,
                        "path" : "rotation"
                    }
                },
                {
                    "sampler" : 11,
                    "target" : {
                        "node" : 7,
                        "path" : "scale"
                    }
                },
                {
                    "sampler" : 12,
                    "target" : {
                        "node" : 4,
                        "path" : "translation"
                    }
                },
                {
                    "sampler" : 13,
                    "target" : {
                        "node" : 4,
                        "path" : "rotation"
                    }
                },
                {
                    "sampler" : 14,
                    "target" : {
                        "node" : 4,
                        "path" : "scale"
                    }
                },
                {
                    "sampler" : 15,
                    "target" : {
                        "node" : 5,
                        "path" : "translation"
                    }
                },
                {
                    "sampler" : 16,
                    "target" : {
                        "node" : 5,
                        "path" : "rotation"
                    }
                },
                {
                    "sampler" : 17,
                    "target" : {
                        "node" : 5,
                        "path" : "scale"
                    }
                },
                {
                    "sampler" : 18,
                    "target" : {
                        "node" : 6,
                        "path" : "translation"
                    }
                },
                {
                    "sampler" : 19,
                    "target" : {
                        "node" : 6,
                        "path" : "rotation"
                    }
                },
                {
                    "sampler" : 20,
                    "target" : {
                        "node" : 6,
                        "path" : "scale"
                    }
                }
            ],
            "name" : "ArmatureAction",
            "samplers" : [
                {
                    "input" : 9,
                    "interpolation" : "LINEAR",
                    "output" : 10
                },
                {
                    "input" : 9,
                    "interpolation" : "LINEAR",
                    "output" : 11
                },
                {
                    "input" : 9,
                    "interpolation" : "LINEAR",
                    "output" : 12
                },
                {
                    "input" : 9,
                    "interpolation" : "LINEAR",
                    "output" : 13
                },
                {
                    "input" : 9,
                    "interpolation" : "LINEAR",
                    "output" : 14
                },
                {
                    "input" : 9,
                    "interpolation" : "LINEAR",
                    "output" : 15
                },
                {
                    "input" : 9,
                    "interpolation" : "LINEAR",
                    "output" : 16
                },
                {
                    "input" : 9,
                    "interpolation" : "LINEAR",
                    "output" : 17
                },
                {
                    "input" : 9,
                    "interpolation" : "LINEAR",
                    "output" : 18
                },
                {
                    "input" : 9,
                    "interpolation" : "LINEAR",
                    "output" : 19
                },
                {
                    "input" : 9,
                    "interpolation" : "LINEAR",
                    "output" : 20
                },
                {
                    "input" : 9,
                    "interpolation" : "LINEAR",
                    "output" : 21
                },
                {
                    "input" : 9,
                    "interpolation" : "LINEAR",
                    "output" : 22
                },
                {
                    "input" : 9,
                    "interpolation" : "LINEAR",
                    "output" : 23
                },
                {
                    "input" : 9,
                    "interpolation" : "LINEAR",
                    "output" : 24
                },
                {
                    "input" : 9,
                    "interpolation" : "LINEAR",
                    "output" : 25
                },
                {
                    "input" : 9,
                    "interpolation" : "LINEAR",
                    "output" : 26
                },
                {
                    "input" : 9,
                    "interpolation" : "LINEAR",
                    "output" : 27
                },
                {
                    "input" : 9,
                    "interpolation" : "LINEAR",
                    "output" : 28
                },
                {
                    "input" : 9,
                    "interpolation" : "LINEAR",
                    "output" : 29
                },
                {
                    "input" : 9,
                    "interpolation" : "LINEAR",
                    "output" : 30
                }
            ]
        }
    ],
    "meshes" : [
        {
            "extras" : {
                "targetNames" : [
                    "Squash"
                ]
            },
            "name" : "Layer_1_mesh",
            "primitives" : [
                {
                    "attributes" : {
                        "POSITION" : 0,
                        "NORMAL" : 1,
                        "COLOR_0" : 2,
                        "JOINTS_0" : 3,
                        "WEIGHTS_0" : 4
                    },
                    "indices" : 5,
                    "targets" : [
                        {
                            "POSITION" : 6,
                            "NORMAL" : 7
                        }
                    ]
                }
            ],
            "weights" : [
                0
            ]
        }
    ],
    "skins" : [
        {
            "inverseBindMatrices" : 8,
            "joints" : [
                8,
                3,
                2,
                7,
                4,
                5,
                6
            ],
            "name" : "Armature"
        }
    ],
    "accessors" : [
        {
            "bufferView" : 0,
            "componentType" : 5126,
            "count" : 8042,
            "max" : [
                0.684149444103241,
                1.6725703477859497,
                1.5103745460510254
            ],
            "min" : [
                -0.6965140700340271,
                0.014807847328484058,
                -1.4276701211929321
            ],
            "type" : "VEC3"
        },
        {
            "bufferView" : 1,
            "componentType" : 5126,
            "count" : 8042,
            "type" : "VEC3"
        },
        {
            "bufferView" : 2,
            "componentType" : 5123,
            "count" : 8042,
            "normalized" : true,
            "type" : "VEC4"
        },
        {
            "bufferView" : 3,
            "componentType" : 5121,
            "count" : 8042,
            "type" : "VEC4"
        },
        {
            "bufferView" : 4,
            "componentType" : 5126,
            "count" : 8042,
            "type" : "VEC4"
        },
        {
            "bufferView" : 5,
            "componentType" : 5123,
            "count" : 48252,
            "type" : "SCALAR"
        },
        {
            "bufferView" : 6,
            "componentType" : 5126,
            "count" : 8042,
            "max" : [
                0.15193849802017212,
                0.18922919034957886,
                1.1920928955078125e-07
            ],
            "min" : [
                -0.23438099026679993,
                -0.18797415494918823,
                -1.1920928955078125e-07
            ],
            "type" : "VEC3"
        },
        {
            "bufferView" : 7,
            "componentType" : 5126,
            "count" : 8042,
            "type" : "VEC3"
        },
        {
            "bufferView" : 8,
            "componentType" : 5126,
            "count" : 7,
            "type" : "MAT4"
        },
        {
            "bufferView" : 9,
            "componentType" : 5126,
            "count" : 101,
            "max" : [
                4
            ],
            "min" : [
                0
            ],
            "type" : "SCALAR"
        },
        {
            "bufferView" : 10,
            "componentType" : 5126,
            "count" : 101,
            "type" : "VEC3"
        },
        {
            "bufferView" : 11,
            "componentType" : 5126,
            "count" : 101,
            "type" : "VEC4"
        },
        {
            "bufferView" : 12,
            "componentType" : 5126,
            "count" : 101,
            "type" : "VEC3"
        },
        {
            "bufferView" : 13,
            "componentType" : 5126,
            "count" : 101,
            "type" : "VEC3"
        },
        {
            "bufferView" : 14,
            "componentType" : 5126,
            "count" : 101,
            "type" : "VEC4"
        },
        {
            "bufferView" : 15,
            "componentType" : 5126,
            "count" : 101,
            "type" : "VEC3"
        },
        {
            "bufferView" : 16,
            "componentType" : 5126,
            "count" : 101,
            "type" : "VEC3"
        },
        {
            "bufferView" : 17,
            "componentType" : 5126,
            "count" : 101,
            "type" : "VEC4"
        },
        {
            "bufferView" : 18,
            "componentType" : 5126,
            "count" : 101,
            "type" : "VEC3"
        },
        {
            "bufferView" : 19,
            "componentType" : 5126,
            "count" : 101,
            "type" : "VEC3"
        },
        {
            "bufferView" : 20,
            "componentType" : 5126,
            "count" : 101,
            "type" : "VEC4"
        },
        {
            "bufferView" : 21,
            "componentType" : 5126,
            "count" : 101,
            "type" : "VEC3"
        },
        {
            "bufferView" : 22,
            "componentType" : 5126,
            "count" : 101,
            "type" : "VEC3"
        },
        {
            "bufferView" : 23,
            "componentType" : 5126,
            "count" : 101,
            "type" : "VEC4"
        },
        {
            "bufferView" : 24,
            "componentType" : 5126,
            "count" : 101,
            "type" : "VEC3"
        },
        {
            "bufferView" : 25,
            "componentType" : 5126,
            "count" : 101,
            "type" : "VEC3"
        },
        {
            "bufferView" : 26,
            "componentType" : 5126,
            "count" : 101,
            "type" : "VEC4"
        },
        {
            "bufferView" : 27,
            "componentType" : 5126,
            "count" : 101,
            "type" : "VEC3"
        },
        {
            "bufferView" : 28,
            "componentType" : 5126,
            "count" : 101,
            "type" : "VEC3"
        },
        {
            "bufferView" : 29,
            "componentType" : 5126,
            "count" : 101,
            "type" : "VEC4"
        },
        {
            "bufferView" : 30,
            "componentType" : 5126,
            "count" : 101,
            "type" : "VEC3"
        }
    ],
    "bufferViews" : [
        {
            "buffer" : 0,
            "byteLength" : 96504,
            "byteOffset" : 0
        },
        {
            "buffer" : 0,
            "byteLength" : 96504,
            "byteOffset" : 96504
        },
        {
            "buffer" : 0,
            "byteLength" : 64336,
            "byteOffset" : 193008
        },
        {
            "buffer" : 0,
            "byteLength" : 32168,
            "byteOffset" : 257344
        },
        {
            "buffer" : 0,
            "byteLength" : 128672,
            "byteOffset" : 289512
        },
        {
            "buffer" : 0,
            "byteLength" : 96504,
            "byteOffset" : 418184
        },
        {
            "buffer" : 0,
            "byteLength" : 96504,
            "byteOffset" : 514688
        },
        {
            "buffer" : 0,
            "byteLength" : 96504,
            "byteOffset" : 611192
        },
        {
            "buffer" : 0,
            "byteLength" : 448,
            "byteOffset" : 707696
        },
        {
            "buffer" : 0,
            "byteLength" : 404,
            "byteOffset" : 708144
        },
        {
            "buffer" : 0,
            "byteLength" : 1212,
            "byteOffset" : 708548
        },
        {
            "buffer" : 0,
            "byteLength" : 1616,
            "byteOffset" : 709760
        },
        {
            "buffer" : 0,
            "byteLength" : 1212,
            "byteOffset" : 711376
        },
        {
            "buffer" : 0,
            "byteLength" : 1212,
            "byteOffset" : 712588
        },
        {
            "buffer" : 0,
            "byteLength" : 1616,
            "byteOffset" : 713800
        },
        {
            "buffer" : 0,
            "byteLength" : 1212,
            "byteOffset" : 715416
        },
        {
            "buffer" : 0,
            "byteLength" : 1212,
            "byteOffset" : 716628
        },
        {
            "buffer" : 0,
            "byteLength" : 1616,
            "byteOffset" : 717840
        },
        {
            "buffer" : 0,
            "byteLength" : 1212,
            "byteOffset" : 719456
        },
        {
            "buffer" : 0,
            "byteLength" : 1212,
            "byteOffset" : 720668
        },
        {
            "buffer" : 0,
            "byteLength" : 1616,
            "byteOffset" : 721880
        },
        {
            "buffer" : 0,
            "byteLength" : 1212,
            "byteOffset" : 723496
        },
        {
            "buffer" : 0,
            "byteLength" : 1212,
            "byteOffset" : 724708
        },
        {
            "buffer" : 0,
            "byteLength" : 1616,
            "byteOffset" : 725920
        },
        {
            "buffer" : 0,
            "byteLength" : 1212,
            "byteOffset" : 727536
        },
        {
            "buffer" : 0,
            "byteLength" : 1212,
            "byteOffset" : 728748
        },
        {
            "buffer" : 0,
            "byteLength" : 1616,
            "byteOffset" : 729960
        },
        {
            "buffer" : 0,
            "byteLength" : 1212,
            "byteOffset" : 731576
        },
        {
            "buffer" : 0,
            "byteLength" : 1212,
            "byteOffset" : 732788
        },
        {
            "buffer" : 0,
            "byteLength" : 1616,
            "byteOffset" : 734000
        },
        {
            "buffer" : 0,
            "byteLength" : 1212,
            "byteOffset" : 735616
        }
    ],
    "buffers" : [
        {
            "byteLength" : 736828,
            "uri" : "data:application/octet-stream;base64,"
        }
    ]
}
