{
    "asset" : {
        "generator" : "Khronos glTF Blender I/O v1.6.16",
        "version" : "2.0"
    },
    "scene" : 0,
    "scenes" : [
        {
            "name" : "Scene",
            "nodes" : [
                0
            ]
        }
    ],
    "nodes" : [
        {
            "mesh" : 0,
            "name" : "Cylinder",
            "rotation" : [
                0,
                0,
                -0.7071067690849304,
                0.7071068286895752
            ],
            "scale" : [
                0.09839080274105072,
                0.09839080274105072,
                0.09839080274105072
            ],
            "translation" : [
                0,
                0.10166214406490326,
                0
            ]
        }
    ],
    "materials" : [
        {
            "doubleSided" : true,
            "name" : "Material.001",
            "pbrMetallicRoughness" : {
                "baseColorFactor" : [
                    0.5,
                    0.5,
                    0.5,
                    1
                ],
                "metallicFactor" : 0,
                "roughnessFactor" : 0.4000000059604645
            }
        }
    ],
    "meshes" : [
        {
            "name" : "Cylinder",
            "primitives" : [
                {
                    "attributes" : {
                        "POSITION" : 0,
                        "NORMAL" : 1,
                        "TEXCOORD_0" : 2,
                        "COLOR_0" : 3
                    },
                    "indices" : 4,
                    "material" : 0
                }
            ]
        }
    ],
    "accessors" : [
        {
            "bufferView" : 0,
            "componentType" : 5126,
            "count" : 3244,
            "max" : [
                1,
                3.9612247943878174,
                1
            ],
            "min" : [
                -3.716975688934326,
                -4.491117477416992,
                -1
            ],
            "type" : "VEC3"
        },
        {
            "bufferView" : 1,
            "componentType" : 5126,
            "count" : 3244,
            "type" : "VEC3"
        },
        {
            "bufferView" : 2,
            "componentType" : 5126,
            "count" : 3244,
            "type" : "VEC2"
        },
        {
            "bufferView" : 3,
            "componentType" : 5123,
            "count" : 3244,
            "normalized" : true,
            "type" : "VEC4"
        },
        {
            "bufferView" : 4,
            "componentType" : 5123,
            "count" : 4980,
            "type" : "SCALAR"
        }
    ],
    "bufferViews" : [
        {
            "buffer" : 0,
            "byteLength" : 38928,
            "byteOffset" : 0
        },
        {
            "buffer" : 0,
            "byteLength" : 38928,
            "byteOffset" : 38928
        },
        {
            "buffer" : 0,
            "byteLength" : 25952,
            "byteOffset" : 77856
        },
        {
            "buffer" : 0,
            "byteLength" : 25952,
            "byteOffset" : 103808
        },
        {
            "buffer" : 0,
            "byteLength" : 9960,
            "byteOffset" : 129760
        }
    ],
    "buffers" : [
        {
            "byteLength" : 139720,
            "uri" : "data:application/octet-stream;base64,"
        }
    ]
}
