{
    "asset" : {
        "generator" : "Khronos glTF Blender I/O v1.6.16",
        "version" : "2.0"
    },
    "scene" : 0,
    "scenes" : [
        {
            "name" : "Scene",
            "nodes" : [
                0
            ]
        }
    ],
    "nodes" : [
        {
            "mesh" : 0,
            "name" : "Apple",
            "rotation" : [
                0,
                0,
                0.11482047289609909,
                0.9933862686157227
            ],
            "scale" : [
                0.0072671230882406235,
                0.05796026811003685,
                0.0072671230882406235
            ],
            "translation" : [
                0,
                0.32338401675224304,
                0
            ]
        }
    ],
    "materials" : [
        {
            "doubleSided" : true,
            "name" : "Material.001",
            "pbrMetallicRoughness" : {
                "baseColorFactor" : [
                    0.5,
                    0.5,
                    0.5,
                    1
                ],
                "metallicFactor" : 0,
                "roughnessFactor" : 0.30000001192092896
            }
        }
    ],
    "meshes" : [
        {
            "name" : "Cylinder",
            "primitives" : [
                {
                    "attributes" : {
                        "POSITION" : 0,
                        "NORMAL" : 1,
                        "TEXCOORD_0" : 2,
                        "COLOR_0" : 3
                    },
                    "indices" : 4,
                    "material" : 0
                }
            ]
        }
    ],
    "accessors" : [
        {
            "bufferView" : 0,
            "componentType" : 5126,
            "count" : 4230,
            "max" : [
                17.99835205078125,
                1.1423894166946411,
                20.660240173339844
            ],
            "min" : [
                -24.269947052001953,
                -5.63850212097168,
                -20.26325225830078
            ],
            "type" : "VEC3"
        },
        {
            "bufferView" : 1,
            "componentType" : 5126,
            "count" : 4230,
            "type" : "VEC3"
        },
        {
            "bufferView" : 2,
            "componentType" : 5126,
            "count" : 4230,
            "type" : "VEC2"
        },
        {
            "bufferView" : 3,
            "componentType" : 5123,
            "count" : 4230,
            "normalized" : true,
            "type" : "VEC4"
        },
        {
            "bufferView" : 4,
            "componentType" : 5123,
            "count" : 6588,
            "type" : "SCALAR"
        }
    ],
    "bufferViews" : [
        {
            "buffer" : 0,
            "byteLength" : 50760,
            "byteOffset" : 0
        },
        {
            "buffer" : 0,
            "byteLength" : 50760,
            "byteOffset" : 50760
        },
        {
            "buffer" : 0,
            "byteLength" : 33840,
            "byteOffset" : 101520
        },
        {
            "buffer" : 0,
            "byteLength" : 33840,
            "byteOffset" : 135360
        },
        {
            "buffer" : 0,
            "byteLength" : 13176,
            "byteOffset" : 169200
        }
    ],
    "buffers" : [
        {
            "byteLength" : 182376,
            "uri" : "data:application/octet-stream;base64,"
        }
    ]
}
