{
    "asset" : {
        "generator" : "Khronos glTF Blender I/O v1.6.16",
        "version" : "2.0"
    },
    "scene" : 0,
    "scenes" : [
        {
            "name" : "Scene",
            "nodes" : [
                0
            ]
        }
    ],
    "nodes" : [
        {
            "mesh" : 0,
            "name" : "ShoppingTrolley",
            "rotation" : [
                0,
                0.7071068286895752,
                -0.7071068286895752,
                -1.1815114930868731e-07
            ],
            "scale" : [
                -0.008987379260361195,
                -0.30738043785095215,
                -0.008987379260361195
            ],
            "translation" : [
                0.5007795691490173,
                0.5873019099235535,
                0.000525658018887043
            ]
        }
    ],
    "materials" : [
        {
            "doubleSided" : true,
            "name" : "Material.001",
            "pbrMetallicRoughness" : {
                "baseColorFactor" : [
                    0.5,
                    0.5,
                    0.5,
                    1
                ],
                "metallicFactor" : 0.6000000238418579,
                "roughnessFactor" : 0.30000001192092896
            }
        }
    ],
    "meshes" : [
        {
            "name" : "Cylinder.044",
            "primitives" : [
                {
                    "attributes" : {
                        "POSITION" : 0,
                        "NORMAL" : 1,
                        "TEXCOORD_0" : 2,
                        "COLOR_0" : 3
                    },
                    "indices" : 4,
                    "material" : 0
                }
            ]
        }
    ],
    "accessors" : [
        {
            "bufferView" : 0,
            "componentType" : 5126,
            "count" : 21930,
            "max" : [
                38.736812591552734,
                1.0765430927276611,
                53.71845626831055
            ],
            "min" : [
                -120.30227661132812,
                -1.076542615890503,
                -65.13985443115234
            ],
            "type" : "VEC3"
        },
        {
            "bufferView" : 1,
            "componentType" : 5126,
            "count" : 21930,
            "type" : "VEC3"
        },
        {
            "bufferView" : 2,
            "componentType" : 5126,
            "count" : 21930,
            "type" : "VEC2"
        },
        {
            "bufferView" : 3,
            "componentType" : 5123,
            "count" : 21930,
            "normalized" : true,
            "type" : "VEC4"
        },
        {
            "bufferView" : 4,
            "componentType" : 5123,
            "count" : 37068,
            "type" : "SCALAR"
        }
    ],
    "bufferViews" : [
        {
            "buffer" : 0,
            "byteLength" : 263160,
            "byteOffset" : 0
        },
        {
            "buffer" : 0,
            "byteLength" : 263160,
            "byteOffset" : 263160
        },
        {
            "buffer" : 0,
            "byteLength" : 175440,
            "byteOffset" : 526320
        },
        {
            "buffer" : 0,
            "byteLength" : 175440,
            "byteOffset" : 701760
        },
        {
            "buffer" : 0,
            "byteLength" : 74136,
            "byteOffset" : 877200
        }
    ],
    "buffers" : [
        {
            "byteLength" : 951336,
            "uri" : "data:application/octet-stream;base64,"
        }
    ]
}
