{
    "asset" : {
        "generator" : "Khronos glTF Blender I/O v1.6.16",
        "version" : "2.0"
    },
    "scene" : 0,
    "scenes" : [
        {
            "name" : "Scene",
            "nodes" : [
                0
            ]
        }
    ],
    "nodes" : [
        {
            "mesh" : 0,
            "name" : "Cylinder",
            "rotation" : [
                0,
                -0.14343546330928802,
                0,
                0.9896596670150757
            ],
            "scale" : [
                0.08762264996767044,
                0.13447219133377075,
                0.08762264996767044
            ],
            "translation" : [
                0.0002921968698501587,
                0.13560643792152405,
                -0.0007457733154296875
            ]
        }
    ],
    "materials" : [
        {
            "doubleSided" : true,
            "name" : "Material.001",
            "pbrMetallicRoughness" : {
                "baseColorFactor" : [
                    0.5,
                    0.5,
                    0.5,
                    1
                ],
                "metallicFactor" : 0,
                "roughnessFactor" : 0.20000000298023224
            }
        }
    ],
    "meshes" : [
        {
            "name" : "Cylinder",
            "primitives" : [
                {
                    "attributes" : {
                        "POSITION" : 0,
                        "NORMAL" : 1,
                        "TEXCOORD_0" : 2,
                        "COLOR_0" : 3
                    },
                    "indices" : 4,
                    "material" : 0
                }
            ]
        }
    ],
    "accessors" : [
        {
            "bufferView" : 0,
            "componentType" : 5126,
            "count" : 4608,
            "max" : [
                1,
                3.698268175125122,
                1
            ],
            "min" : [
                -1,
                -1,
                -1
            ],
            "type" : "VEC3"
        },
        {
            "bufferView" : 1,
            "componentType" : 5126,
            "count" : 4608,
            "type" : "VEC3"
        },
        {
            "bufferView" : 2,
            "componentType" : 5126,
            "count" : 4608,
            "type" : "VEC2"
        },
        {
            "bufferView" : 3,
            "componentType" : 5123,
            "count" : 4608,
            "normalized" : true,
            "type" : "VEC4"
        },
        {
            "bufferView" : 4,
            "componentType" : 5123,
            "count" : 7284,
            "type" : "SCALAR"
        }
    ],
    "bufferViews" : [
        {
            "buffer" : 0,
            "byteLength" : 55296,
            "byteOffset" : 0
        },
        {
            "buffer" : 0,
            "byteLength" : 55296,
            "byteOffset" : 55296
        },
        {
            "buffer" : 0,
            "byteLength" : 36864,
            "byteOffset" : 110592
        },
        {
            "buffer" : 0,
            "byteLength" : 36864,
            "byteOffset" : 147456
        },
        {
            "buffer" : 0,
            "byteLength" : 14568,
            "byteOffset" : 184320
        }
    ],
    "buffers" : [
        {
            "byteLength" : 198888,
            "uri" : "data:application/octet-stream;base64,"
        }
    ]
}
