{
    "asset" : {
        "generator" : "Khronos glTF Blender I/O v1.6.16",
        "version" : "2.0"
    },
    "scene" : 0,
    "scenes" : [
        {
            "name" : "Scene",
            "nodes" : [
                0
            ]
        }
    ],
    "nodes" : [
        {
            "mesh" : 0,
            "name" : "Layer_1",
            "rotation" : [
                0,
                0,
                0.003689958481118083,
                0.9999932050704956
            ],
            "translation" : [
                0,
                0.06325745582580566,
                -2.9799997806549072
            ]
        }
    ],
    "materials" : [
        {
            "doubleSided" : true,
            "name" : "Material.001",
            "pbrMetallicRoughness" : {
                "baseColorFactor" : [
                    0.30000001192092896,
                    0.30000001192092896,
                    0.30000001192092896,
                    1
                ],
                "metallicFactor" : 0,
                "roughnessFactor" : 0.8999999761581421
            }
        }
    ],
    "meshes" : [
        {
            "name" : "Layer_1_mesh",
            "primitives" : [
                {
                    "attributes" : {
                        "POSITION" : 0,
                        "NORMAL" : 1,
                        "COLOR_0" : 2
                    },
                    "indices" : 3,
                    "material" : 0
                }
            ]
        }
    ],
    "accessors" : [
        {
            "bufferView" : 0,
            "componentType" : 5126,
            "count" : 6812,
            "max" : [
                11.241204261779785,
                2.1621334552764893,
                9.280722618103027
            ],
            "min" : [
                -10.925203323364258,
                -21.654151916503906,
                -12.79770565032959
            ],
            "type" : "VEC3"
        },
        {
            "bufferView" : 1,
            "componentType" : 5126,
            "count" : 6812,
            "type" : "VEC3"
        },
        {
            "bufferView" : 2,
            "componentType" : 5123,
            "count" : 6812,
            "normalized" : true,
            "type" : "VEC4"
        },
        {
            "bufferView" : 3,
            "componentType" : 5123,
            "count" : 40860,
            "type" : "SCALAR"
        }
    ],
    "bufferViews" : [
        {
            "buffer" : 0,
            "byteLength" : 81744,
            "byteOffset" : 0
        },
        {
            "buffer" : 0,
            "byteLength" : 81744,
            "byteOffset" : 81744
        },
        {
            "buffer" : 0,
            "byteLength" : 54496,
            "byteOffset" : 163488
        },
        {
            "buffer" : 0,
            "byteLength" : 81720,
            "byteOffset" : 217984
        }
    ],
    "buffers" : [
        {
            "byteLength" : 299704,
            "uri" : "data:application/octet-stream;base64,"
        }
    ]
}
