{
    "asset" : {
        "generator" : "Khronos glTF Blender I/O v1.6.16",
        "version" : "2.0"
    },
    "scene" : 0,
    "scenes" : [
        {
            "name" : "Scene",
            "nodes" : [
                0
            ]
        }
    ],
    "nodes" : [
        {
            "mesh" : 0,
            "name" : "Cylinder.005",
            "rotation" : [
                0,
                -0.14343546330928802,
                0,
                0.9896596670150757
            ],
            "scale" : [
                0.0957428514957428,
                0.08699540793895721,
                0.0957428514957428
            ],
            "translation" : [
                -7.874146103858948e-05,
                0.2735011577606201,
                -0.00043205032125115395
            ]
        }
    ],
    "materials" : [
        {
            "doubleSided" : true,
            "name" : "Material.001",
            "pbrMetallicRoughness" : {
                "baseColorFactor" : [
                    0.5,
                    0.5,
                    0.5,
                    1
                ],
                "metallicFactor" : 0,
                "roughnessFactor" : 0.20000000298023224
            }
        }
    ],
    "meshes" : [
        {
            "name" : "Cylinder.006",
            "primitives" : [
                {
                    "attributes" : {
                        "POSITION" : 0,
                        "NORMAL" : 1,
                        "TEXCOORD_0" : 2,
                        "COLOR_0" : 3
                    },
                    "indices" : 4,
                    "material" : 0
                }
            ]
        }
    ],
    "accessors" : [
        {
            "bufferView" : 0,
            "componentType" : 5126,
            "count" : 5312,
            "max" : [
                0.9298834800720215,
                1.0000001192092896,
                0.9298834800720215
            ],
            "min" : [
                -0.9298834800720215,
                -3.1370816230773926,
                -0.9298834800720215
            ],
            "type" : "VEC3"
        },
        {
            "bufferView" : 1,
            "componentType" : 5126,
            "count" : 5312,
            "type" : "VEC3"
        },
        {
            "bufferView" : 2,
            "componentType" : 5126,
            "count" : 5312,
            "type" : "VEC2"
        },
        {
            "bufferView" : 3,
            "componentType" : 5123,
            "count" : 5312,
            "normalized" : true,
            "type" : "VEC4"
        },
        {
            "bufferView" : 4,
            "componentType" : 5123,
            "count" : 9780,
            "type" : "SCALAR"
        }
    ],
    "bufferViews" : [
        {
            "buffer" : 0,
            "byteLength" : 63744,
            "byteOffset" : 0
        },
        {
            "buffer" : 0,
            "byteLength" : 63744,
            "byteOffset" : 63744
        },
        {
            "buffer" : 0,
            "byteLength" : 42496,
            "byteOffset" : 127488
        },
        {
            "buffer" : 0,
            "byteLength" : 42496,
            "byteOffset" : 169984
        },
        {
            "buffer" : 0,
            "byteLength" : 19560,
            "byteOffset" : 212480
        }
    ],
    "buffers" : [
        {
            "byteLength" : 232040,
            "uri" : "data:application/octet-stream;base64,"
        }
    ]
}
