{
    "asset" : {
        "generator" : "Khronos glTF Blender I/O v1.6.16",
        "version" : "2.0"
    },
    "scene" : 0,
    "scenes" : [
        {
            "name" : "Scene",
            "nodes" : [
                0,
                1
            ]
        }
    ],
    "nodes" : [
        {
            "mesh" : 0,
            "name" : "Layer_1",
            "rotation" : [
                0.0766398087143898,
                -0.04370689392089844,
                -0.035592012107372284,
                0.9954644441604614
            ],
            "scale" : [
                15.793431282043457,
                15.793431282043457,
                15.793429374694824
            ],
            "translation" : [
                5.880976676940918,
                1.6548197269439697,
                -4.258979320526123
            ]
        },
        {
            "mesh" : 1,
            "name" : "Layer_1.001",
            "rotation" : [
                0,
                0.23203454911708832,
                0,
                0.9727075695991516
            ],
            "scale" : [
                19.142330169677734,
                19.142330169677734,
                19.142330169677734
            ],
            "translation" : [
                1.1775344610214233,
                -0.7391022443771362,
                -0.1260920763015747
            ]
        }
    ],
    "materials" : [
        {
            "doubleSided" : true,
            "name" : "Material.001",
            "pbrMetallicRoughness" : {
                "baseColorFactor" : [
                    0.5,
                    0.5,
                    0.5,
                    1
                ],
                "metallicFactor" : 0,
                "roughnessFactor" : 0.800000011920929
            }
        }
    ],
    "meshes" : [
        {
            "name" : "Layer_1_mesh",
            "primitives" : [
                {
                    "attributes" : {
                        "POSITION" : 0,
                        "NORMAL" : 1,
                        "COLOR_0" : 2
                    },
                    "indices" : 3,
                    "material" : 0
                }
            ]
        },
        {
            "name" : "Layer_1_mesh.001",
            "primitives" : [
                {
                    "attributes" : {
                        "POSITION" : 4,
                        "NORMAL" : 5,
                        "COLOR_0" : 6
                    },
                    "indices" : 7
                }
            ]
        }
    ],
    "accessors" : [
        {
            "bufferView" : 0,
            "componentType" : 5126,
            "count" : 4153,
            "max" : [
                0.09054902195930481,
                0.10799533128738403,
                0.046781547367572784
            ],
            "min" : [
                -0.08683852106332779,
                -0.12402292340993881,
                -0.025996975600719452
            ],
            "type" : "VEC3"
        },
        {
            "bufferView" : 1,
            "componentType" : 5126,
            "count" : 4153,
            "type" : "VEC3"
        },
        {
            "bufferView" : 2,
            "componentType" : 5123,
            "count" : 4153,
            "normalized" : true,
            "type" : "VEC4"
        },
        {
            "bufferView" : 3,
            "componentType" : 5123,
            "count" : 24906,
            "type" : "SCALAR"
        },
        {
            "bufferView" : 4,
            "componentType" : 5126,
            "count" : 4928,
            "max" : [
                0.043987248092889786,
                0.20766280591487885,
                0.02175484038889408
            ],
            "min" : [
                -0.09118343889713287,
                0.023299820721149445,
                -0.07468657940626144
            ],
            "type" : "VEC3"
        },
        {
            "bufferView" : 5,
            "componentType" : 5126,
            "count" : 4928,
            "type" : "VEC3"
        },
        {
            "bufferView" : 6,
            "componentType" : 5123,
            "count" : 4928,
            "normalized" : true,
            "type" : "VEC4"
        },
        {
            "bufferView" : 7,
            "componentType" : 5123,
            "count" : 29568,
            "type" : "SCALAR"
        }
    ],
    "bufferViews" : [
        {
            "buffer" : 0,
            "byteLength" : 49836,
            "byteOffset" : 0
        },
        {
            "buffer" : 0,
            "byteLength" : 49836,
            "byteOffset" : 49836
        },
        {
            "buffer" : 0,
            "byteLength" : 33224,
            "byteOffset" : 99672
        },
        {
            "buffer" : 0,
            "byteLength" : 49812,
            "byteOffset" : 132896
        },
        {
            "buffer" : 0,
            "byteLength" : 59136,
            "byteOffset" : 182708
        },
        {
            "buffer" : 0,
            "byteLength" : 59136,
            "byteOffset" : 241844
        },
        {
            "buffer" : 0,
            "byteLength" : 39424,
            "byteOffset" : 300980
        },
        {
            "buffer" : 0,
            "byteLength" : 59136,
            "byteOffset" : 340404
        }
    ],
    "buffers" : [
        {
            "byteLength" : 399540,
            "uri" : "data:application/octet-stream;base64,"
        }
    ]
}
