{
    "asset" : {
        "generator" : "Khronos glTF Blender I/O v1.6.16",
        "version" : "2.0"
    },
    "scene" : 0,
    "scenes" : [
        {
            "name" : "Scene",
            "nodes" : [
                0
            ]
        }
    ],
    "nodes" : [
        {
            "mesh" : 0,
            "name" : "Layer_1",
            "rotation" : [
                0.0635099858045578,
                0.0018084668554365635,
                -0.05175398662686348,
                0.9966368079185486
            ],
            "scale" : [
                248.8291778564453,
                248.82923889160156,
                248.82925415039062
            ],
            "translation" : [
                0.425281286239624,
                -12.970000267028809,
                -9.900035858154297
            ]
        }
    ],
    "materials" : [
        {
            "doubleSided" : true,
            "name" : "Material.001",
            "pbrMetallicRoughness" : {
                "baseColorFactor" : [
                    0.30000001192092896,
                    0.30000001192092896,
                    0.30000001192092896,
                    1
                ],
                "metallicFactor" : 0,
                "roughnessFactor" : 0.8999999761581421
            }
        }
    ],
    "meshes" : [
        {
            "name" : "Layer_1_mesh",
            "primitives" : [
                {
                    "attributes" : {
                        "POSITION" : 0,
                        "NORMAL" : 1,
                        "COLOR_0" : 2
                    },
                    "indices" : 3,
                    "material" : 0
                }
            ]
        }
    ],
    "accessors" : [
        {
            "bufferView" : 0,
            "componentType" : 5126,
            "count" : 9091,
            "max" : [
                0.04932311549782753,
                0.10168281942605972,
                0.0641321912407875
            ],
            "min" : [
                -0.06244112178683281,
                -0.04251052066683769,
                -0.06846727430820465
            ],
            "type" : "VEC3"
        },
        {
            "bufferView" : 1,
            "componentType" : 5126,
            "count" : 9091,
            "type" : "VEC3"
        },
        {
            "bufferView" : 2,
            "componentType" : 5123,
            "count" : 9091,
            "normalized" : true,
            "type" : "VEC4"
        },
        {
            "bufferView" : 3,
            "componentType" : 5123,
            "count" : 54546,
            "type" : "SCALAR"
        }
    ],
    "bufferViews" : [
        {
            "buffer" : 0,
            "byteLength" : 109092,
            "byteOffset" : 0
        },
        {
            "buffer" : 0,
            "byteLength" : 109092,
            "byteOffset" : 109092
        },
        {
            "buffer" : 0,
            "byteLength" : 72728,
            "byteOffset" : 218184
        },
        {
            "buffer" : 0,
            "byteLength" : 109092,
            "byteOffset" : 290912
        }
    ],
    "buffers" : [
        {
            "byteLength" : 400004,
            "uri" : "data:application/octet-stream;base64,"
        }
    ]
}
