{
    "asset" : {
        "generator" : "Khronos glTF Blender I/O v1.6.16",
        "version" : "2.0"
    },
    "scene" : 0,
    "scenes" : [
        {
            "name" : "Scene",
            "nodes" : [
                0,
                1,
                2,
                3
            ]
        }
    ],
    "nodes" : [
        {
            "mesh" : 0,
            "name" : "Gym",
            "rotation" : [
                0,
                0.7071068286895752,
                0,
                0.7071068286895752
            ],
            "scale" : [
                0.4702907204627991,
                0.3046590983867645,
                0.016580073162913322
            ],
            "translation" : [
                -1.8420571088790894,
                2.1708812713623047,
                -1.157632827758789
            ]
        },
        {
            "mesh" : 1,
            "name" : "Sink",
            "scale" : [
                0.9487503170967102,
                0.049123264849185944,
                0.41585347056388855
            ],
            "translation" : [
                -3.0572710037231445,
                1.1105575561523438,
                0.1194676011800766
            ]
        },
        {
            "mesh" : 2,
            "name" : "Spanner",
            "rotation" : [
                0,
                -0.5483534336090088,
                0,
                0.83624666929245
            ],
            "scale" : [
                0.051933228969573975,
                0.00903381872922182,
                0.051933228969573975
            ],
            "translation" : [
                -2.2011523246765137,
                1.1644821166992188,
                0.236162468791008
            ]
        },
        {
            "mesh" : 3,
            "name" : "Press",
            "rotation" : [
                -0.5000001788139343,
                0.5,
                -0.4999997913837433,
                0.5
            ],
            "scale" : [
                0.04849841818213463,
                0.11505310982465744,
                0.04849841818213463
            ],
            "translation" : [
                1.2900424003601074,
                1.1320769786834717,
                -1.3136100769042969
            ]
        }
    ],
    "materials" : [
        {
            "doubleSided" : true,
            "name" : "Picture",
            "pbrMetallicRoughness" : {
                "baseColorFactor" : [
                    0.800000011920929,
                    0.800000011920929,
                    0.800000011920929,
                    1
                ],
                "metallicFactor" : 0,
                "roughnessFactor" : 0.5
            }
        },
        {
            "doubleSided" : true,
            "name" : "Material.006",
            "pbrMetallicRoughness" : {
                "baseColorTexture" : {
                    "index" : 0
                },
                "metallicFactor" : 0,
                "roughnessFactor" : 0.5
            }
        },
        {
            "doubleSided" : true,
            "name" : "Material.003",
            "pbrMetallicRoughness" : {
                "baseColorFactor" : [
                    0.800000011920929,
                    0.800000011920929,
                    0.800000011920929,
                    1
                ],
                "metallicFactor" : 0,
                "roughnessFactor" : 0.4000000059604645
            }
        },
        {
            "doubleSided" : true,
            "name" : "Material.005",
            "pbrMetallicRoughness" : {
                "baseColorFactor" : [
                    0.800000011920929,
                    0.800000011920929,
                    0.800000011920929,
                    1
                ],
                "metallicFactor" : 0,
                "roughnessFactor" : 0.5
            }
        },
        {
            "doubleSided" : true,
            "name" : "Material.004",
            "pbrMetallicRoughness" : {
                "baseColorFactor" : [
                    0.800000011920929,
                    0.800000011920929,
                    0.800000011920929,
                    1
                ],
                "metallicFactor" : 0,
                "roughnessFactor" : 0.4000000059604645
            }
        }
    ],
    "meshes" : [
        {
            "name" : "Gym",
            "primitives" : [
                {
                    "attributes" : {
                        "POSITION" : 0,
                        "NORMAL" : 1,
                        "TEXCOORD_0" : 2,
                        "COLOR_0" : 3
                    },
                    "indices" : 4,
                    "material" : 0
                },
                {
                    "attributes" : {
                        "POSITION" : 5,
                        "NORMAL" : 6,
                        "TEXCOORD_0" : 7,
                        "COLOR_0" : 8
                    },
                    "indices" : 9,
                    "material" : 1
                }
            ]
        },
        {
            "name" : "Sink.001",
            "primitives" : [
                {
                    "attributes" : {
                        "POSITION" : 10,
                        "NORMAL" : 11,
                        "TEXCOORD_0" : 12,
                        "COLOR_0" : 13
                    },
                    "indices" : 14,
                    "material" : 2
                }
            ]
        },
        {
            "name" : "Spanner",
            "primitives" : [
                {
                    "attributes" : {
                        "POSITION" : 15,
                        "NORMAL" : 16,
                        "TEXCOORD_0" : 17,
                        "COLOR_0" : 18
                    },
                    "indices" : 19,
                    "material" : 3
                }
            ]
        },
        {
            "name" : "Press",
            "primitives" : [
                {
                    "attributes" : {
                        "POSITION" : 20,
                        "NORMAL" : 21,
                        "TEXCOORD_0" : 22,
                        "COLOR_0" : 23
                    },
                    "indices" : 24,
                    "material" : 4
                }
            ]
        }
    ],
    "textures" : [
        {
            "sampler" : 0,
            "source" : 0
        }
    ],
    "images" : [
        {
            "bufferView" : 10,
            "mimeType" : "image/png",
            "name" : "SumoPicture"
        }
    ],
    "accessors" : [
        {
            "bufferView" : 0,
            "componentType" : 5126,
            "count" : 6458,
            "max" : [
                2.4454233646392822,
                2.8572998046875,
                426.2373352050781
            ],
            "min" : [
                -13.094508171081543,
                -7.782296180725098,
                -204.2601318359375
            ],
            "type" : "VEC3"
        },
        {
            "bufferView" : 1,
            "componentType" : 5126,
            "count" : 6458,
            "type" : "VEC3"
        },
        {
            "bufferView" : 2,
            "componentType" : 5126,
            "count" : 6458,
            "type" : "VEC2"
        },
        {
            "bufferView" : 3,
            "componentType" : 5123,
            "count" : 6458,
            "normalized" : true,
            "type" : "VEC4"
        },
        {
            "bufferView" : 4,
            "componentType" : 5123,
            "count" : 12726,
            "type" : "SCALAR"
        },
        {
            "bufferView" : 5,
            "componentType" : 5126,
            "count" : 4,
            "max" : [
                0.8944305181503296,
                0.8944305181503296,
                1
            ],
            "min" : [
                -0.8944305181503296,
                -0.8944305181503296,
                1
            ],
            "type" : "VEC3"
        },
        {
            "bufferView" : 6,
            "componentType" : 5126,
            "count" : 4,
            "type" : "VEC3"
        },
        {
            "bufferView" : 7,
            "componentType" : 5126,
            "count" : 4,
            "type" : "VEC2"
        },
        {
            "bufferView" : 8,
            "componentType" : 5123,
            "count" : 4,
            "normalized" : true,
            "type" : "VEC4"
        },
        {
            "bufferView" : 9,
            "componentType" : 5123,
            "count" : 6,
            "type" : "SCALAR"
        },
        {
            "bufferView" : 11,
            "componentType" : 5126,
            "count" : 24245,
            "max" : [
                1,
                8.626848220825195,
                1
            ],
            "min" : [
                -1,
                -23.28841781616211,
                -1.185981273651123
            ],
            "type" : "VEC3"
        },
        {
            "bufferView" : 12,
            "componentType" : 5126,
            "count" : 24245,
            "type" : "VEC3"
        },
        {
            "bufferView" : 13,
            "componentType" : 5126,
            "count" : 24245,
            "type" : "VEC2"
        },
        {
            "bufferView" : 14,
            "componentType" : 5123,
            "count" : 24245,
            "normalized" : true,
            "type" : "VEC4"
        },
        {
            "bufferView" : 15,
            "componentType" : 5123,
            "count" : 58584,
            "type" : "SCALAR"
        },
        {
            "bufferView" : 16,
            "componentType" : 5126,
            "count" : 854,
            "max" : [
                4.6350908279418945,
                0.9859144687652588,
                1.1014511585235596
            ],
            "min" : [
                -4.670510292053223,
                -1.0140904188156128,
                -1.1070530414581299
            ],
            "type" : "VEC3"
        },
        {
            "bufferView" : 17,
            "componentType" : 5126,
            "count" : 854,
            "type" : "VEC3"
        },
        {
            "bufferView" : 18,
            "componentType" : 5126,
            "count" : 854,
            "type" : "VEC2"
        },
        {
            "bufferView" : 19,
            "componentType" : 5123,
            "count" : 854,
            "normalized" : true,
            "type" : "VEC4"
        },
        {
            "bufferView" : 20,
            "componentType" : 5123,
            "count" : 1896,
            "type" : "SCALAR"
        },
        {
            "bufferView" : 21,
            "componentType" : 5126,
            "count" : 3402,
            "max" : [
                23.483949661254883,
                1,
                25.629638671875
            ],
            "min" : [
                -11.938232421875,
                -18.48375701904297,
                -43.03828430175781
            ],
            "type" : "VEC3"
        },
        {
            "bufferView" : 22,
            "componentType" : 5126,
            "count" : 3402,
            "type" : "VEC3"
        },
        {
            "bufferView" : 23,
            "componentType" : 5126,
            "count" : 3402,
            "type" : "VEC2"
        },
        {
            "bufferView" : 24,
            "componentType" : 5123,
            "count" : 3402,
            "normalized" : true,
            "type" : "VEC4"
        },
        {
            "bufferView" : 25,
            "componentType" : 5123,
            "count" : 7500,
            "type" : "SCALAR"
        }
    ],
    "bufferViews" : [
        {
            "buffer" : 0,
            "byteLength" : 77496,
            "byteOffset" : 0
        },
        {
            "buffer" : 0,
            "byteLength" : 77496,
            "byteOffset" : 77496
        },
        {
            "buffer" : 0,
            "byteLength" : 51664,
            "byteOffset" : 154992
        },
        {
            "buffer" : 0,
            "byteLength" : 51664,
            "byteOffset" : 206656
        },
        {
            "buffer" : 0,
            "byteLength" : 25452,
            "byteOffset" : 258320
        },
        {
            "buffer" : 0,
            "byteLength" : 48,
            "byteOffset" : 283772
        },
        {
            "buffer" : 0,
            "byteLength" : 48,
            "byteOffset" : 283820
        },
        {
            "buffer" : 0,
            "byteLength" : 32,
            "byteOffset" : 283868
        },
        {
            "buffer" : 0,
            "byteLength" : 32,
            "byteOffset" : 283900
        },
        {
            "buffer" : 0,
            "byteLength" : 12,
            "byteOffset" : 283932
        },
        {
            "buffer" : 0,
            "byteLength" : 271300,
            "byteOffset" : 283944
        },
        {
            "buffer" : 0,
            "byteLength" : 290940,
            "byteOffset" : 555244
        },
        {
            "buffer" : 0,
            "byteLength" : 290940,
            "byteOffset" : 846184
        },
        {
            "buffer" : 0,
            "byteLength" : 193960,
            "byteOffset" : 1137124
        },
        {
            "buffer" : 0,
            "byteLength" : 193960,
            "byteOffset" : 1331084
        },
        {
            "buffer" : 0,
            "byteLength" : 117168,
            "byteOffset" : 1525044
        },
        {
            "buffer" : 0,
            "byteLength" : 10248,
            "byteOffset" : 1642212
        },
        {
            "buffer" : 0,
            "byteLength" : 10248,
            "byteOffset" : 1652460
        },
        {
            "buffer" : 0,
            "byteLength" : 6832,
            "byteOffset" : 1662708
        },
        {
            "buffer" : 0,
            "byteLength" : 6832,
            "byteOffset" : 1669540
        },
        {
            "buffer" : 0,
            "byteLength" : 3792,
            "byteOffset" : 1676372
        },
        {
            "buffer" : 0,
            "byteLength" : 40824,
            "byteOffset" : 1680164
        },
        {
            "buffer" : 0,
            "byteLength" : 40824,
            "byteOffset" : 1720988
        },
        {
            "buffer" : 0,
            "byteLength" : 27216,
            "byteOffset" : 1761812
        },
        {
            "buffer" : 0,
            "byteLength" : 27216,
            "byteOffset" : 1789028
        },
        {
            "buffer" : 0,
            "byteLength" : 15000,
            "byteOffset" : 1816244
        }
    ],
    "samplers" : [
        {
            "magFilter" : 9729,
            "minFilter" : 9987
        }
    ],
    "buffers" : [
        {
            "byteLength" : 1831244,
            "uri" : "data:application/octet-stream;base64,"
        }
    ]
}
