{
    "asset" : {
        "generator" : "Khronos glTF Blender I/O v1.6.16",
        "version" : "2.0"
    },
    "scene" : 0,
    "scenes" : [
        {
            "name" : "Scene",
            "nodes" : [
                0,
                1,
                2
            ]
        }
    ],
    "nodes" : [
        {
            "mesh" : 0,
            "name" : "Body",
            "scale" : [
                0.6179460287094116,
                0.04329685866832733,
                0.17473924160003662
            ],
            "translation" : [
                -0.015587687492370605,
                1.9853804111480713,
                0.6048717498779297
            ]
        },
        {
            "mesh" : 1,
            "name" : "Lid",
            "rotation" : [
                0.06407146155834198,
                0,
                0,
                0.9979453086853027
            ],
            "scale" : [
                0.020121801644563675,
                0.2328208088874817,
                0.020121801644563675
            ],
            "translation" : [
                0.9619701504707336,
                2.57845139503479,
                -0.7185276746749878
            ]
        },
        {
            "mesh" : 2,
            "name" : "Handles",
            "rotation" : [
                0,
                0.7071068286895752,
                -0.7071068286895752,
                -1.1520232590100932e-07
            ],
            "scale" : [
                0.019804822281003,
                0.12445972114801407,
                0.019804822281003
            ],
            "translation" : [
                1.017106056213379,
                1.8363295793533325,
                0.2531996965408325
            ]
        }
    ],
    "materials" : [
        {
            "doubleSided" : true,
            "name" : "Material",
            "pbrMetallicRoughness" : {
                "baseColorFactor" : [
                    0.5,
                    0.5,
                    0.5,
                    1
                ],
                "metallicFactor" : 0.10000000149011612,
                "roughnessFactor" : 0.20000000298023224
            }
        },
        {
            "doubleSided" : true,
            "name" : "Material.001",
            "pbrMetallicRoughness" : {
                "baseColorFactor" : [
                    0.5,
                    0.5,
                    0.5,
                    1
                ],
                "metallicFactor" : 0.5,
                "roughnessFactor" : 0.20000000298023224
            }
        }
    ],
    "meshes" : [
        {
            "name" : "Body",
            "primitives" : [
                {
                    "attributes" : {
                        "POSITION" : 0,
                        "NORMAL" : 1,
                        "TEXCOORD_0" : 2,
                        "COLOR_0" : 3
                    },
                    "indices" : 4,
                    "material" : 0
                }
            ]
        },
        {
            "name" : "Lid",
            "primitives" : [
                {
                    "attributes" : {
                        "POSITION" : 5,
                        "NORMAL" : 6,
                        "TEXCOORD_0" : 7,
                        "COLOR_0" : 8
                    },
                    "indices" : 9,
                    "material" : 0
                }
            ]
        },
        {
            "name" : "Handles",
            "primitives" : [
                {
                    "attributes" : {
                        "POSITION" : 10,
                        "NORMAL" : 11,
                        "TEXCOORD_0" : 12,
                        "COLOR_0" : 13
                    },
                    "indices" : 14,
                    "material" : 1
                }
            ]
        }
    ],
    "accessors" : [
        {
            "bufferView" : 0,
            "componentType" : 5126,
            "count" : 4208,
            "max" : [
                1.7460236549377441,
                1,
                1
            ],
            "min" : [
                -1.6966700553894043,
                -37.26545715332031,
                -7.741147994995117
            ],
            "type" : "VEC3"
        },
        {
            "bufferView" : 1,
            "componentType" : 5126,
            "count" : 4208,
            "type" : "VEC3"
        },
        {
            "bufferView" : 2,
            "componentType" : 5126,
            "count" : 4208,
            "type" : "VEC2"
        },
        {
            "bufferView" : 3,
            "componentType" : 5123,
            "count" : 4208,
            "normalized" : true,
            "type" : "VEC4"
        },
        {
            "bufferView" : 4,
            "componentType" : 5123,
            "count" : 9192,
            "type" : "SCALAR"
        },
        {
            "bufferView" : 5,
            "componentType" : 5126,
            "count" : 13492,
            "max" : [
                3.4266891479492188,
                2.974637508392334,
                10.28031063079834
            ],
            "min" : [
                -98.84056091308594,
                -2.954249858856201,
                -6.3939056396484375
            ],
            "type" : "VEC3"
        },
        {
            "bufferView" : 6,
            "componentType" : 5126,
            "count" : 13492,
            "type" : "VEC3"
        },
        {
            "bufferView" : 7,
            "componentType" : 5126,
            "count" : 13492,
            "type" : "VEC2"
        },
        {
            "bufferView" : 8,
            "componentType" : 5123,
            "count" : 13492,
            "normalized" : true,
            "type" : "VEC4"
        },
        {
            "bufferView" : 9,
            "componentType" : 5123,
            "count" : 21588,
            "type" : "SCALAR"
        },
        {
            "bufferView" : 10,
            "componentType" : 5126,
            "count" : 12121,
            "max" : [
                104.56659698486328,
                5.119401931762695,
                1.0567752122879028
            ],
            "min" : [
                -1.7954354286193848,
                -1.0485422611236572,
                -1.0567680597305298
            ],
            "type" : "VEC3"
        },
        {
            "bufferView" : 11,
            "componentType" : 5126,
            "count" : 12121,
            "type" : "VEC3"
        },
        {
            "bufferView" : 12,
            "componentType" : 5126,
            "count" : 12121,
            "type" : "VEC2"
        },
        {
            "bufferView" : 13,
            "componentType" : 5123,
            "count" : 12121,
            "normalized" : true,
            "type" : "VEC4"
        },
        {
            "bufferView" : 14,
            "componentType" : 5123,
            "count" : 35952,
            "type" : "SCALAR"
        }
    ],
    "bufferViews" : [
        {
            "buffer" : 0,
            "byteLength" : 50496,
            "byteOffset" : 0
        },
        {
            "buffer" : 0,
            "byteLength" : 50496,
            "byteOffset" : 50496
        },
        {
            "buffer" : 0,
            "byteLength" : 33664,
            "byteOffset" : 100992
        },
        {
            "buffer" : 0,
            "byteLength" : 33664,
            "byteOffset" : 134656
        },
        {
            "buffer" : 0,
            "byteLength" : 18384,
            "byteOffset" : 168320
        },
        {
            "buffer" : 0,
            "byteLength" : 161904,
            "byteOffset" : 186704
        },
        {
            "buffer" : 0,
            "byteLength" : 161904,
            "byteOffset" : 348608
        },
        {
            "buffer" : 0,
            "byteLength" : 107936,
            "byteOffset" : 510512
        },
        {
            "buffer" : 0,
            "byteLength" : 107936,
            "byteOffset" : 618448
        },
        {
            "buffer" : 0,
            "byteLength" : 43176,
            "byteOffset" : 726384
        },
        {
            "buffer" : 0,
            "byteLength" : 145452,
            "byteOffset" : 769560
        },
        {
            "buffer" : 0,
            "byteLength" : 145452,
            "byteOffset" : 915012
        },
        {
            "buffer" : 0,
            "byteLength" : 96968,
            "byteOffset" : 1060464
        },
        {
            "buffer" : 0,
            "byteLength" : 96968,
            "byteOffset" : 1157432
        },
        {
            "buffer" : 0,
            "byteLength" : 71904,
            "byteOffset" : 1254400
        }
    ],
    "buffers" : [
        {
            "byteLength" : 1326304,
            "uri" : "data:application/octet-stream;base64,"
        }
    ]
}
