{
    "asset" : {
        "generator" : "Khronos glTF Blender I/O v1.6.16",
        "version" : "2.0"
    },
    "scene" : 0,
    "scenes" : [
        {
            "name" : "Scene",
            "nodes" : [
                0
            ]
        }
    ],
    "nodes" : [
        {
            "mesh" : 0,
            "name" : "Wheels.001",
            "rotation" : [
                0,
                0.03867188096046448,
                0,
                0.9992519617080688
            ],
            "scale" : [
                0.07477717846632004,
                0.033013295382261276,
                0.10653696209192276
            ],
            "translation" : [
                -0.06867700070142746,
                0,
                0
            ]
        }
    ],
    "materials" : [
        {
            "doubleSided" : true,
            "name" : "Material.001",
            "pbrMetallicRoughness" : {
                "baseColorFactor" : [
                    0.5,
                    0.5,
                    0.5,
                    1
                ],
                "metallicFactor" : 0.5,
                "roughnessFactor" : 0.20000000298023224
            }
        }
    ],
    "meshes" : [
        {
            "name" : "Wheels.001",
            "primitives" : [
                {
                    "attributes" : {
                        "POSITION" : 0,
                        "NORMAL" : 1,
                        "TEXCOORD_0" : 2,
                        "COLOR_0" : 3
                    },
                    "indices" : 4,
                    "material" : 0
                }
            ]
        }
    ],
    "accessors" : [
        {
            "bufferView" : 0,
            "componentType" : 5126,
            "count" : 3718,
            "max" : [
                2.3040387630462646,
                11.27713394165039,
                0.9426742196083069
            ],
            "min" : [
                -2.2881529331207275,
                -0.010261058807373047,
                -0.9024086594581604
            ],
            "type" : "VEC3"
        },
        {
            "bufferView" : 1,
            "componentType" : 5126,
            "count" : 3718,
            "type" : "VEC3"
        },
        {
            "bufferView" : 2,
            "componentType" : 5126,
            "count" : 3718,
            "type" : "VEC2"
        },
        {
            "bufferView" : 3,
            "componentType" : 5123,
            "count" : 3718,
            "normalized" : true,
            "type" : "VEC4"
        },
        {
            "bufferView" : 4,
            "componentType" : 5123,
            "count" : 5748,
            "type" : "SCALAR"
        }
    ],
    "bufferViews" : [
        {
            "buffer" : 0,
            "byteLength" : 44616,
            "byteOffset" : 0
        },
        {
            "buffer" : 0,
            "byteLength" : 44616,
            "byteOffset" : 44616
        },
        {
            "buffer" : 0,
            "byteLength" : 29744,
            "byteOffset" : 89232
        },
        {
            "buffer" : 0,
            "byteLength" : 29744,
            "byteOffset" : 118976
        },
        {
            "buffer" : 0,
            "byteLength" : 11496,
            "byteOffset" : 148720
        }
    ],
    "buffers" : [
        {
            "byteLength" : 160216,
            "uri" : "data:application/octet-stream;base64,"
        }
    ]
}
