{
    "asset" : {
        "generator" : "Khronos glTF Blender I/O v1.6.16",
        "version" : "2.0"
    },
    "scene" : 0,
    "scenes" : [
        {
            "name" : "Scene",
            "nodes" : [
                0,
                1,
                2,
                3,
                4,
                5
            ]
        }
    ],
    "nodes" : [
        {
            "name" : "Light",
            "rotation" : [
                0.16907575726509094,
                0.7558803558349609,
                -0.27217137813568115,
                0.570947527885437
            ],
            "translation" : [
                4.076245307922363,
                5.903861999511719,
                -1.0054539442062378
            ]
        },
        {
            "name" : "Camera",
            "rotation" : [
                0.483536034822464,
                0.33687159419059753,
                -0.20870360732078552,
                0.7804827094078064
            ],
            "translation" : [
                7.358891487121582,
                4.958309173583984,
                6.925790786743164
            ]
        },
        {
            "mesh" : 0,
            "name" : "Layer_1",
            "rotation" : [
                0.013396269641816616,
                0.05075009912252426,
                0.02974516898393631,
                0.9981784224510193
            ],
            "scale" : [
                598.3802490234375,
                598.3802490234375,
                598.3802490234375
            ],
            "translation" : [
                0,
                0.05670425295829773,
                0
            ]
        },
        {
            "mesh" : 1,
            "name" : "Layer_1.001",
            "rotation" : [
                -0.015130963176488876,
                -0.3025887906551361,
                0.04759538546204567,
                0.9518118500709534
            ],
            "scale" : [
                44.07569122314453,
                44.07569122314453,
                44.07569122314453
            ],
            "translation" : [
                10.067302703857422,
                -0.041280634701251984,
                -24.758455276489258
            ]
        },
        {
            "mesh" : 2,
            "name" : "Layer_1.002",
            "rotation" : [
                -0.006946807727217674,
                -0.13892216980457306,
                0.049457136541604996,
                0.9890431761741638
            ],
            "scale" : [
                44.07569122314453,
                44.07569122314453,
                44.07569122314453
            ],
            "translation" : [
                11.25149154663086,
                -0.041280634701251984,
                -22.819440841674805
            ]
        },
        {
            "mesh" : 3,
            "name" : "Layer_1.003",
            "rotation" : [
                0,
                0.07109779864549637,
                0,
                0.9974693655967712
            ],
            "scale" : [
                43.22151565551758,
                43.22151565551758,
                43.22151565551758
            ],
            "translation" : [
                0.7930474281311035,
                -0.9127755165100098,
                -4.358375072479248
            ]
        }
    ],
    "meshes" : [
        {
            "name" : "Layer_1_mesh",
            "primitives" : [
                {
                    "attributes" : {
                        "POSITION" : 0,
                        "NORMAL" : 1,
                        "COLOR_0" : 2
                    },
                    "indices" : 3
                }
            ]
        },
        {
            "name" : "Layer_1_mesh.005",
            "primitives" : [
                {
                    "attributes" : {
                        "POSITION" : 4,
                        "NORMAL" : 5,
                        "COLOR_0" : 6
                    },
                    "indices" : 7
                }
            ]
        },
        {
            "name" : "Layer_1_mesh.007",
            "primitives" : [
                {
                    "attributes" : {
                        "POSITION" : 8,
                        "NORMAL" : 9,
                        "COLOR_0" : 10
                    },
                    "indices" : 11
                }
            ]
        },
        {
            "name" : "Layer_1_mesh.008",
            "primitives" : [
                {
                    "attributes" : {
                        "POSITION" : 12,
                        "NORMAL" : 13,
                        "COLOR_0" : 14
                    },
                    "indices" : 15
                }
            ]
        }
    ],
    "accessors" : [
        {
            "bufferView" : 0,
            "componentType" : 5126,
            "count" : 7894,
            "max" : [
                0.04350210353732109,
                0.002494337037205696,
                0.024490084499120712
            ],
            "min" : [
                -0.04136165603995323,
                -0.07778335362672806,
                -0.05784336477518082
            ],
            "type" : "VEC3"
        },
        {
            "bufferView" : 1,
            "componentType" : 5126,
            "count" : 7894,
            "type" : "VEC3"
        },
        {
            "bufferView" : 2,
            "componentType" : 5123,
            "count" : 7894,
            "normalized" : true,
            "type" : "VEC4"
        },
        {
            "bufferView" : 3,
            "componentType" : 5123,
            "count" : 47352,
            "type" : "SCALAR"
        },
        {
            "bufferView" : 4,
            "componentType" : 5126,
            "count" : 4421,
            "max" : [
                -0.04016508162021637,
                0.10685409605503082,
                0.004443964455276728
            ],
            "min" : [
                -0.1261429637670517,
                -9.069104999070987e-05,
                -0.04577770456671715
            ],
            "type" : "VEC3"
        },
        {
            "bufferView" : 5,
            "componentType" : 5126,
            "count" : 4421,
            "type" : "VEC3"
        },
        {
            "bufferView" : 6,
            "componentType" : 5123,
            "count" : 4421,
            "normalized" : true,
            "type" : "VEC4"
        },
        {
            "bufferView" : 7,
            "componentType" : 5123,
            "count" : 26514,
            "type" : "SCALAR"
        },
        {
            "bufferView" : 8,
            "componentType" : 5126,
            "count" : 5156,
            "max" : [
                0.05479879677295685,
                0.09012346714735031,
                -0.010169768705964088
            ],
            "min" : [
                -0.04882015287876129,
                -0.012768328189849854,
                -0.06812094151973724
            ],
            "type" : "VEC3"
        },
        {
            "bufferView" : 9,
            "componentType" : 5126,
            "count" : 5156,
            "type" : "VEC3"
        },
        {
            "bufferView" : 10,
            "componentType" : 5123,
            "count" : 5156,
            "normalized" : true,
            "type" : "VEC4"
        },
        {
            "bufferView" : 11,
            "componentType" : 5123,
            "count" : 30948,
            "type" : "SCALAR"
        },
        {
            "bufferView" : 12,
            "componentType" : 5126,
            "count" : 2270,
            "max" : [
                -0.08655920624732971,
                0.14429737627506256,
                0.0612250380218029
            ],
            "min" : [
                -0.15544657409191132,
                0.011240782216191292,
                -0.008449038490653038
            ],
            "type" : "VEC3"
        },
        {
            "bufferView" : 13,
            "componentType" : 5126,
            "count" : 2270,
            "type" : "VEC3"
        },
        {
            "bufferView" : 14,
            "componentType" : 5123,
            "count" : 2270,
            "normalized" : true,
            "type" : "VEC4"
        },
        {
            "bufferView" : 15,
            "componentType" : 5123,
            "count" : 13608,
            "type" : "SCALAR"
        }
    ],
    "bufferViews" : [
        {
            "buffer" : 0,
            "byteLength" : 94728,
            "byteOffset" : 0
        },
        {
            "buffer" : 0,
            "byteLength" : 94728,
            "byteOffset" : 94728
        },
        {
            "buffer" : 0,
            "byteLength" : 63152,
            "byteOffset" : 189456
        },
        {
            "buffer" : 0,
            "byteLength" : 94704,
            "byteOffset" : 252608
        },
        {
            "buffer" : 0,
            "byteLength" : 53052,
            "byteOffset" : 347312
        },
        {
            "buffer" : 0,
            "byteLength" : 53052,
            "byteOffset" : 400364
        },
        {
            "buffer" : 0,
            "byteLength" : 35368,
            "byteOffset" : 453416
        },
        {
            "buffer" : 0,
            "byteLength" : 53028,
            "byteOffset" : 488784
        },
        {
            "buffer" : 0,
            "byteLength" : 61872,
            "byteOffset" : 541812
        },
        {
            "buffer" : 0,
            "byteLength" : 61872,
            "byteOffset" : 603684
        },
        {
            "buffer" : 0,
            "byteLength" : 41248,
            "byteOffset" : 665556
        },
        {
            "buffer" : 0,
            "byteLength" : 61896,
            "byteOffset" : 706804
        },
        {
            "buffer" : 0,
            "byteLength" : 27240,
            "byteOffset" : 768700
        },
        {
            "buffer" : 0,
            "byteLength" : 27240,
            "byteOffset" : 795940
        },
        {
            "buffer" : 0,
            "byteLength" : 18160,
            "byteOffset" : 823180
        },
        {
            "buffer" : 0,
            "byteLength" : 27216,
            "byteOffset" : 841340
        }
    ],
    "buffers" : [
        {
            "byteLength" : 868556,
            "uri" : "data:application/octet-stream;base64,"
        }
    ]
}
