{
    "asset" : {
        "generator" : "Khronos glTF Blender I/O v1.6.16",
        "version" : "2.0"
    },
    "scene" : 0,
    "scenes" : [
        {
            "name" : "Scene",
            "nodes" : [
                0
            ]
        }
    ],
    "nodes" : [
        {
            "mesh" : 0,
            "name" : "Layer_1",
            "rotation" : [
                -0.00025329639902338386,
                -0.10695354640483856,
                -0.0026257713325321674,
                0.9942604899406433
            ],
            "scale" : [
                1558.4407958984375,
                1558.4407958984375,
                1558.4407958984375
            ],
            "translation" : [
                -41.460723876953125,
                -58.70000076293945,
                -37.1978645324707
            ]
        }
    ],
    "materials" : [
        {
            "doubleSided" : true,
            "name" : "Material.001",
            "pbrMetallicRoughness" : {
                "baseColorFactor" : [
                    0.5,
                    0.5,
                    0.5,
                    1
                ],
                "metallicFactor" : 0,
                "roughnessFactor" : 0.5
            }
        }
    ],
    "meshes" : [
        {
            "name" : "Layer_1_mesh",
            "primitives" : [
                {
                    "attributes" : {
                        "POSITION" : 0,
                        "NORMAL" : 1,
                        "COLOR_0" : 2
                    },
                    "indices" : 3,
                    "material" : 0
                }
            ]
        }
    ],
    "accessors" : [
        {
            "bufferView" : 0,
            "componentType" : 5126,
            "count" : 11369,
            "max" : [
                0.04913672059774399,
                0.05678141489624977,
                0.049889057874679565
            ],
            "min" : [
                -0.04830681532621384,
                -0.04423898458480835,
                -0.04718625172972679
            ],
            "type" : "VEC3"
        },
        {
            "bufferView" : 1,
            "componentType" : 5126,
            "count" : 11369,
            "type" : "VEC3"
        },
        {
            "bufferView" : 2,
            "componentType" : 5123,
            "count" : 11369,
            "normalized" : true,
            "type" : "VEC4"
        },
        {
            "bufferView" : 3,
            "componentType" : 5123,
            "count" : 68202,
            "type" : "SCALAR"
        }
    ],
    "bufferViews" : [
        {
            "buffer" : 0,
            "byteLength" : 136428,
            "byteOffset" : 0
        },
        {
            "buffer" : 0,
            "byteLength" : 136428,
            "byteOffset" : 136428
        },
        {
            "buffer" : 0,
            "byteLength" : 90952,
            "byteOffset" : 272856
        },
        {
            "buffer" : 0,
            "byteLength" : 136404,
            "byteOffset" : 363808
        }
    ],
    "buffers" : [
        {
            "byteLength" : 500212,
            "uri" : "data:application/octet-stream;base64,"
        }
    ]
}
