{
    "asset" : {
        "generator" : "Khronos glTF Blender I/O v1.6.16",
        "version" : "2.0"
    },
    "scene" : 0,
    "scenes" : [
        {
            "name" : "Scene",
            "nodes" : [
                0,
                1,
                2,
                3,
                4
            ]
        }
    ],
    "nodes" : [
        {
            "mesh" : 0,
            "name" : "Cylinder.021",
            "rotation" : [
                0.7071068286895752,
                0,
                0,
                0.7071067094802856
            ],
            "scale" : [
                0.2567594051361084,
                0.2567594051361084,
                0.2567594051361084
            ],
            "translation" : [
                0.0007923692464828491,
                0.0017173141241073608,
                -0.00010239332914352417
            ]
        },
        {
            "mesh" : 1,
            "name" : "Cube.043",
            "rotation" : [
                0,
                0,
                -0.2182334065437317,
                0.9758965969085693
            ],
            "scale" : [
                0.15354011952877045,
                0.10906203091144562,
                0.10906197130680084
            ],
            "translation" : [
                0.006036505103111267,
                -0.06240583956241608,
                -0.11954032629728317
            ]
        },
        {
            "mesh" : 2,
            "name" : "Cube.044",
            "scale" : [
                0.10906197130680084,
                0.10906197130680084,
                0.1557798683643341
            ],
            "translation" : [
                -0.020558848977088928,
                -0.13004045188426971,
                0.09023941308259964
            ]
        },
        {
            "mesh" : 3,
            "name" : "Cube.045",
            "rotation" : [
                0,
                0,
                0.903943657875061,
                0.4276515543460846
            ],
            "scale" : [
                0.10906195640563965,
                0.07344802469015121,
                0.10906197130680084
            ],
            "translation" : [
                0.10368190705776215,
                -0.05660577118396759,
                0.11152232438325882
            ]
        },
        {
            "mesh" : 4,
            "name" : "Cube.046",
            "scale" : [
                0.07265786826610565,
                0.10906197130680084,
                0.10906197130680084
            ],
            "translation" : [
                -0.12398447096347809,
                -0.03798840939998627,
                0.008151896297931671
            ]
        }
    ],
    "materials" : [
        {
            "doubleSided" : true,
            "name" : "Material.004",
            "pbrMetallicRoughness" : {
                "baseColorFactor" : [
                    0.5,
                    0.5,
                    0.5,
                    1
                ],
                "metallicFactor" : 0.10000000149011612,
                "roughnessFactor" : 0.20000000298023224
            }
        },
        {
            "doubleSided" : true,
            "name" : "Material.010",
            "pbrMetallicRoughness" : {
                "baseColorFactor" : [
                    0.5,
                    0.5,
                    0.5,
                    1
                ],
                "metallicFactor" : 0,
                "roughnessFactor" : 0.6000000238418579
            }
        }
    ],
    "meshes" : [
        {
            "name" : "Cylinder.021",
            "primitives" : [
                {
                    "attributes" : {
                        "POSITION" : 0,
                        "NORMAL" : 1,
                        "TEXCOORD_0" : 2,
                        "COLOR_0" : 3
                    },
                    "indices" : 4,
                    "material" : 0
                }
            ]
        },
        {
            "name" : "Cube.043",
            "primitives" : [
                {
                    "attributes" : {
                        "POSITION" : 5,
                        "NORMAL" : 6,
                        "TEXCOORD_0" : 7,
                        "COLOR_0" : 8
                    },
                    "indices" : 9,
                    "material" : 1
                }
            ]
        },
        {
            "name" : "Cube.044",
            "primitives" : [
                {
                    "attributes" : {
                        "POSITION" : 10,
                        "NORMAL" : 11,
                        "TEXCOORD_0" : 12,
                        "COLOR_0" : 13
                    },
                    "indices" : 9,
                    "material" : 1
                }
            ]
        },
        {
            "name" : "Cube.045",
            "primitives" : [
                {
                    "attributes" : {
                        "POSITION" : 14,
                        "NORMAL" : 15,
                        "TEXCOORD_0" : 16,
                        "COLOR_0" : 17
                    },
                    "indices" : 9,
                    "material" : 1
                }
            ]
        },
        {
            "name" : "Cube.046",
            "primitives" : [
                {
                    "attributes" : {
                        "POSITION" : 18,
                        "NORMAL" : 19,
                        "TEXCOORD_0" : 20,
                        "COLOR_0" : 21
                    },
                    "indices" : 9,
                    "material" : 1
                }
            ]
        }
    ],
    "accessors" : [
        {
            "bufferView" : 0,
            "componentType" : 5126,
            "count" : 320,
            "max" : [
                1,
                1,
                1
            ],
            "min" : [
                -1,
                -1,
                -1
            ],
            "type" : "VEC3"
        },
        {
            "bufferView" : 1,
            "componentType" : 5126,
            "count" : 320,
            "type" : "VEC3"
        },
        {
            "bufferView" : 2,
            "componentType" : 5126,
            "count" : 320,
            "type" : "VEC2"
        },
        {
            "bufferView" : 3,
            "componentType" : 5123,
            "count" : 320,
            "normalized" : true,
            "type" : "VEC4"
        },
        {
            "bufferView" : 4,
            "componentType" : 5123,
            "count" : 576,
            "type" : "SCALAR"
        },
        {
            "bufferView" : 5,
            "componentType" : 5126,
            "count" : 96,
            "max" : [
                0.8395062685012817,
                0.8395062685012817,
                0.8395062685012817
            ],
            "min" : [
                -0.8395062685012817,
                -0.8395062685012817,
                -0.8395062685012817
            ],
            "type" : "VEC3"
        },
        {
            "bufferView" : 6,
            "componentType" : 5126,
            "count" : 96,
            "type" : "VEC3"
        },
        {
            "bufferView" : 7,
            "componentType" : 5126,
            "count" : 96,
            "type" : "VEC2"
        },
        {
            "bufferView" : 8,
            "componentType" : 5123,
            "count" : 96,
            "normalized" : true,
            "type" : "VEC4"
        },
        {
            "bufferView" : 9,
            "componentType" : 5123,
            "count" : 144,
            "type" : "SCALAR"
        },
        {
            "bufferView" : 10,
            "componentType" : 5126,
            "count" : 96,
            "max" : [
                0.8395062685012817,
                0.8395062685012817,
                0.8395062685012817
            ],
            "min" : [
                -0.8395062685012817,
                -0.8395062685012817,
                -0.8395062685012817
            ],
            "type" : "VEC3"
        },
        {
            "bufferView" : 11,
            "componentType" : 5126,
            "count" : 96,
            "type" : "VEC3"
        },
        {
            "bufferView" : 12,
            "componentType" : 5126,
            "count" : 96,
            "type" : "VEC2"
        },
        {
            "bufferView" : 13,
            "componentType" : 5123,
            "count" : 96,
            "normalized" : true,
            "type" : "VEC4"
        },
        {
            "bufferView" : 14,
            "componentType" : 5126,
            "count" : 96,
            "max" : [
                0.8395062685012817,
                0.8395062685012817,
                0.8395062685012817
            ],
            "min" : [
                -0.8395062685012817,
                -0.8395062685012817,
                -0.8395062685012817
            ],
            "type" : "VEC3"
        },
        {
            "bufferView" : 15,
            "componentType" : 5126,
            "count" : 96,
            "type" : "VEC3"
        },
        {
            "bufferView" : 16,
            "componentType" : 5126,
            "count" : 96,
            "type" : "VEC2"
        },
        {
            "bufferView" : 17,
            "componentType" : 5123,
            "count" : 96,
            "normalized" : true,
            "type" : "VEC4"
        },
        {
            "bufferView" : 18,
            "componentType" : 5126,
            "count" : 96,
            "max" : [
                0.8395062685012817,
                0.8395062685012817,
                0.8395062685012817
            ],
            "min" : [
                -0.8395062685012817,
                -0.8395062685012817,
                -0.8395062685012817
            ],
            "type" : "VEC3"
        },
        {
            "bufferView" : 19,
            "componentType" : 5126,
            "count" : 96,
            "type" : "VEC3"
        },
        {
            "bufferView" : 20,
            "componentType" : 5126,
            "count" : 96,
            "type" : "VEC2"
        },
        {
            "bufferView" : 21,
            "componentType" : 5123,
            "count" : 96,
            "normalized" : true,
            "type" : "VEC4"
        }
    ],
    "bufferViews" : [
        {
            "buffer" : 0,
            "byteLength" : 3840,
            "byteOffset" : 0
        },
        {
            "buffer" : 0,
            "byteLength" : 3840,
            "byteOffset" : 3840
        },
        {
            "buffer" : 0,
            "byteLength" : 2560,
            "byteOffset" : 7680
        },
        {
            "buffer" : 0,
            "byteLength" : 2560,
            "byteOffset" : 10240
        },
        {
            "buffer" : 0,
            "byteLength" : 1152,
            "byteOffset" : 12800
        },
        {
            "buffer" : 0,
            "byteLength" : 1152,
            "byteOffset" : 13952
        },
        {
            "buffer" : 0,
            "byteLength" : 1152,
            "byteOffset" : 15104
        },
        {
            "buffer" : 0,
            "byteLength" : 768,
            "byteOffset" : 16256
        },
        {
            "buffer" : 0,
            "byteLength" : 768,
            "byteOffset" : 17024
        },
        {
            "buffer" : 0,
            "byteLength" : 288,
            "byteOffset" : 17792
        },
        {
            "buffer" : 0,
            "byteLength" : 1152,
            "byteOffset" : 18080
        },
        {
            "buffer" : 0,
            "byteLength" : 1152,
            "byteOffset" : 19232
        },
        {
            "buffer" : 0,
            "byteLength" : 768,
            "byteOffset" : 20384
        },
        {
            "buffer" : 0,
            "byteLength" : 768,
            "byteOffset" : 21152
        },
        {
            "buffer" : 0,
            "byteLength" : 1152,
            "byteOffset" : 21920
        },
        {
            "buffer" : 0,
            "byteLength" : 1152,
            "byteOffset" : 23072
        },
        {
            "buffer" : 0,
            "byteLength" : 768,
            "byteOffset" : 24224
        },
        {
            "buffer" : 0,
            "byteLength" : 768,
            "byteOffset" : 24992
        },
        {
            "buffer" : 0,
            "byteLength" : 1152,
            "byteOffset" : 25760
        },
        {
            "buffer" : 0,
            "byteLength" : 1152,
            "byteOffset" : 26912
        },
        {
            "buffer" : 0,
            "byteLength" : 768,
            "byteOffset" : 28064
        },
        {
            "buffer" : 0,
            "byteLength" : 768,
            "byteOffset" : 28832
        }
    ],
    "buffers" : [
        {
            "byteLength" : 29600,
            "uri" : "data:application/octet-stream;base64,"
        }
    ]
}
