{
    "asset" : {
        "generator" : "Khronos glTF Blender I/O v1.6.16",
        "version" : "2.0"
    },
    "scene" : 0,
    "scenes" : [
        {
            "name" : "Scene",
            "nodes" : [
                0
            ]
        }
    ],
    "nodes" : [
        {
            "mesh" : 0,
            "name" : "Layer_1",
            "rotation" : [
                0.23180468380451202,
                0.9717296361923218,
                -0.042180102318525314,
                0.015131865628063679
            ],
            "scale" : [
                12.5,
                12.5,
                12.5
            ],
            "translation" : [
                0.00639719981700182,
                0.03956003487110138,
                0.01140739768743515
            ]
        }
    ],
    "materials" : [
        {
            "doubleSided" : true,
            "name" : "Material.001",
            "pbrMetallicRoughness" : {
                "baseColorFactor" : [
                    0.5,
                    0.5,
                    0.5,
                    1
                ],
                "metallicFactor" : 0,
                "roughnessFactor" : 0.6000000238418579
            }
        }
    ],
    "meshes" : [
        {
            "extras" : {
                "targetNames" : [
                    "Squash"
                ]
            },
            "name" : "Layer_1_mesh",
            "primitives" : [
                {
                    "attributes" : {
                        "POSITION" : 0,
                        "NORMAL" : 1,
                        "COLOR_0" : 2
                    },
                    "indices" : 3,
                    "material" : 0,
                    "targets" : [
                        {
                            "POSITION" : 4,
                            "NORMAL" : 5
                        }
                    ]
                }
            ],
            "weights" : [
                0
            ]
        }
    ],
    "accessors" : [
        {
            "bufferView" : 0,
            "componentType" : 5126,
            "count" : 7595,
            "max" : [
                0.02194088138639927,
                0.01994458958506584,
                0.017946651205420494
            ],
            "min" : [
                -0.021922770887613297,
                -0.024836748838424683,
                -0.021006129682064056
            ],
            "type" : "VEC3"
        },
        {
            "bufferView" : 1,
            "componentType" : 5126,
            "count" : 7595,
            "type" : "VEC3"
        },
        {
            "bufferView" : 2,
            "componentType" : 5123,
            "count" : 7595,
            "normalized" : true,
            "type" : "VEC4"
        },
        {
            "bufferView" : 3,
            "componentType" : 5123,
            "count" : 45594,
            "type" : "SCALAR"
        },
        {
            "bufferView" : 4,
            "componentType" : 5126,
            "count" : 7595,
            "max" : [
                0.0003306679427623749,
                0.0006543584167957306,
                0.0004913001321256161
            ],
            "min" : [
                -0.00034903804771602154,
                -0.0006907116621732712,
                -6.550457328557968e-05
            ],
            "type" : "VEC3"
        },
        {
            "bufferView" : 5,
            "componentType" : 5126,
            "count" : 7595,
            "type" : "VEC3"
        }
    ],
    "bufferViews" : [
        {
            "buffer" : 0,
            "byteLength" : 91140,
            "byteOffset" : 0
        },
        {
            "buffer" : 0,
            "byteLength" : 91140,
            "byteOffset" : 91140
        },
        {
            "buffer" : 0,
            "byteLength" : 60760,
            "byteOffset" : 182280
        },
        {
            "buffer" : 0,
            "byteLength" : 91188,
            "byteOffset" : 243040
        },
        {
            "buffer" : 0,
            "byteLength" : 91140,
            "byteOffset" : 334228
        },
        {
            "buffer" : 0,
            "byteLength" : 91140,
            "byteOffset" : 425368
        }
    ],
    "buffers" : [
        {
            "byteLength" : 516508,
            "uri" : "data:application/octet-stream;base64,"
        }
    ]
}
