{
    "asset" : {
        "generator" : "Khronos glTF Blender I/O v1.6.16",
        "version" : "2.0"
    },
    "scene" : 0,
    "scenes" : [
        {
            "name" : "Scene",
            "nodes" : [
                0
            ]
        }
    ],
    "nodes" : [
        {
            "mesh" : 0,
            "name" : "Layer_1",
            "rotation" : [
                0.1663161665201187,
                0.011283144354820251,
                -0.0867651030421257,
                0.9821829795837402
            ],
            "scale" : [
                2.8998775482177734,
                2.8998777866363525,
                2.8998782634735107
            ],
            "translation" : [
                -0.12248101830482483,
                0.594819962978363,
                -0.19700086116790771
            ]
        }
    ],
    "materials" : [
        {
            "doubleSided" : true,
            "name" : "Material.001",
            "pbrMetallicRoughness" : {
                "baseColorFactor" : [
                    0.5,
                    0.5,
                    0.5,
                    1
                ],
                "metallicFactor" : 0.5,
                "roughnessFactor" : 0.20000000298023224
            }
        }
    ],
    "meshes" : [
        {
            "extras" : {
                "targetNames" : [
                    "Squash"
                ]
            },
            "name" : "Layer_1_mesh",
            "primitives" : [
                {
                    "attributes" : {
                        "POSITION" : 0,
                        "NORMAL" : 1,
                        "COLOR_0" : 2
                    },
                    "indices" : 3,
                    "material" : 0,
                    "targets" : [
                        {
                            "POSITION" : 4,
                            "NORMAL" : 5
                        }
                    ]
                }
            ],
            "weights" : [
                1
            ]
        }
    ],
    "accessors" : [
        {
            "bufferView" : 0,
            "componentType" : 5126,
            "count" : 6981,
            "max" : [
                0.20210915803909302,
                0.42882296442985535,
                0.18254010379314423
            ],
            "min" : [
                -0.18785135447978973,
                -0.1742997169494629,
                -0.11542654037475586
            ],
            "type" : "VEC3"
        },
        {
            "bufferView" : 1,
            "componentType" : 5126,
            "count" : 6981,
            "type" : "VEC3"
        },
        {
            "bufferView" : 2,
            "componentType" : 5123,
            "count" : 6981,
            "normalized" : true,
            "type" : "VEC4"
        },
        {
            "bufferView" : 3,
            "componentType" : 5123,
            "count" : 41775,
            "type" : "SCALAR"
        },
        {
            "bufferView" : 4,
            "componentType" : 5126,
            "count" : 6981,
            "max" : [
                0.0030910074710845947,
                0.018408671021461487,
                0.025999687612056732
            ],
            "min" : [
                -0.0032730239909142256,
                -0.01725800335407257,
                -0.01810820773243904
            ],
            "type" : "VEC3"
        },
        {
            "bufferView" : 5,
            "componentType" : 5126,
            "count" : 6981,
            "type" : "VEC3"
        }
    ],
    "bufferViews" : [
        {
            "buffer" : 0,
            "byteLength" : 83772,
            "byteOffset" : 0
        },
        {
            "buffer" : 0,
            "byteLength" : 83772,
            "byteOffset" : 83772
        },
        {
            "buffer" : 0,
            "byteLength" : 55848,
            "byteOffset" : 167544
        },
        {
            "buffer" : 0,
            "byteLength" : 83550,
            "byteOffset" : 223392
        },
        {
            "buffer" : 0,
            "byteLength" : 83772,
            "byteOffset" : 306944
        },
        {
            "buffer" : 0,
            "byteLength" : 83772,
            "byteOffset" : 390716
        }
    ],
    "buffers" : [
        {
            "byteLength" : 474488,
            "uri" : "data:application/octet-stream;base64,"
        }
    ]
}
