{
    "asset" : {
        "generator" : "Khronos glTF Blender I/O v1.6.16",
        "version" : "2.0"
    },
    "scene" : 0,
    "scenes" : [
        {
            "name" : "Scene",
            "nodes" : [
                0
            ]
        }
    ],
    "nodes" : [
        {
            "mesh" : 0,
            "name" : "Pawn",
            "scale" : [
                0.06232109293341637,
                0.06232109293341637,
                0.06232109293341637
            ],
            "translation" : [
                0,
                0.3074508011341095,
                0
            ]
        }
    ],
    "materials" : [
        {
            "doubleSided" : true,
            "name" : "Material.001",
            "pbrMetallicRoughness" : {
                "baseColorFactor" : [
                    0.5,
                    0.5,
                    0.5,
                    1
                ],
                "metallicFactor" : 0,
                "roughnessFactor" : 0.20000000298023224
            }
        }
    ],
    "meshes" : [
        {
            "name" : "Sphere",
            "primitives" : [
                {
                    "attributes" : {
                        "POSITION" : 0,
                        "NORMAL" : 1,
                        "TEXCOORD_0" : 2,
                        "COLOR_0" : 3
                    },
                    "indices" : 4,
                    "material" : 0
                }
            ]
        }
    ],
    "accessors" : [
        {
            "bufferView" : 0,
            "componentType" : 5126,
            "count" : 10048,
            "max" : [
                1.9969487190246582,
                1,
                1.9969487190246582
            ],
            "min" : [
                -1.9969485998153687,
                -4.915153503417969,
                -1.9969487190246582
            ],
            "type" : "VEC3"
        },
        {
            "bufferView" : 1,
            "componentType" : 5126,
            "count" : 10048,
            "type" : "VEC3"
        },
        {
            "bufferView" : 2,
            "componentType" : 5126,
            "count" : 10048,
            "type" : "VEC2"
        },
        {
            "bufferView" : 3,
            "componentType" : 5123,
            "count" : 10048,
            "normalized" : true,
            "type" : "VEC4"
        },
        {
            "bufferView" : 4,
            "componentType" : 5123,
            "count" : 15648,
            "type" : "SCALAR"
        }
    ],
    "bufferViews" : [
        {
            "buffer" : 0,
            "byteLength" : 120576,
            "byteOffset" : 0
        },
        {
            "buffer" : 0,
            "byteLength" : 120576,
            "byteOffset" : 120576
        },
        {
            "buffer" : 0,
            "byteLength" : 80384,
            "byteOffset" : 241152
        },
        {
            "buffer" : 0,
            "byteLength" : 80384,
            "byteOffset" : 321536
        },
        {
            "buffer" : 0,
            "byteLength" : 31296,
            "byteOffset" : 401920
        }
    ],
    "buffers" : [
        {
            "byteLength" : 433216,
            "uri" : "data:application/octet-stream;base64,"
        }
    ]
}
