{
    "asset" : {
        "generator" : "Khronos glTF Blender I/O v1.6.16",
        "version" : "2.0"
    },
    "scene" : 0,
    "scenes" : [
        {
            "name" : "Scene",
            "nodes" : [
                0
            ]
        }
    ],
    "nodes" : [
        {
            "mesh" : 0,
            "name" : "Rook",
            "scale" : [
                0.1554262489080429,
                0.1554262489080429,
                0.1554262489080429
            ],
            "translation" : [
                0,
                0.15095090866088867,
                0
            ]
        }
    ],
    "materials" : [
        {
            "doubleSided" : true,
            "name" : "Material.001",
            "pbrMetallicRoughness" : {
                "baseColorFactor" : [
                    0.5,
                    0.5,
                    0.5,
                    1
                ],
                "metallicFactor" : 0,
                "roughnessFactor" : 0.20000000298023224
            }
        }
    ],
    "meshes" : [
        {
            "name" : "Cylinder.002",
            "primitives" : [
                {
                    "attributes" : {
                        "POSITION" : 0,
                        "NORMAL" : 1,
                        "TEXCOORD_0" : 2,
                        "COLOR_0" : 3
                    },
                    "indices" : 4,
                    "material" : 0
                }
            ]
        }
    ],
    "accessors" : [
        {
            "bufferView" : 0,
            "componentType" : 5126,
            "count" : 3508,
            "max" : [
                0.9941414594650269,
                2.1059727668762207,
                0.9941414594650269
            ],
            "min" : [
                -0.9941414594650269,
                -0.9757651686668396,
                -0.9941414594650269
            ],
            "type" : "VEC3"
        },
        {
            "bufferView" : 1,
            "componentType" : 5126,
            "count" : 3508,
            "type" : "VEC3"
        },
        {
            "bufferView" : 2,
            "componentType" : 5126,
            "count" : 3508,
            "type" : "VEC2"
        },
        {
            "bufferView" : 3,
            "componentType" : 5123,
            "count" : 3508,
            "normalized" : true,
            "type" : "VEC4"
        },
        {
            "bufferView" : 4,
            "componentType" : 5123,
            "count" : 5700,
            "type" : "SCALAR"
        }
    ],
    "bufferViews" : [
        {
            "buffer" : 0,
            "byteLength" : 42096,
            "byteOffset" : 0
        },
        {
            "buffer" : 0,
            "byteLength" : 42096,
            "byteOffset" : 42096
        },
        {
            "buffer" : 0,
            "byteLength" : 28064,
            "byteOffset" : 84192
        },
        {
            "buffer" : 0,
            "byteLength" : 28064,
            "byteOffset" : 112256
        },
        {
            "buffer" : 0,
            "byteLength" : 11400,
            "byteOffset" : 140320
        }
    ],
    "buffers" : [
        {
            "byteLength" : 151720,
            "uri" : "data:application/octet-stream;base64,"
        }
    ]
}
