{
    "asset" : {
        "generator" : "Khronos glTF Blender I/O v1.6.16",
        "version" : "2.0"
    },
    "scene" : 0,
    "scenes" : [
        {
            "name" : "Scene",
            "nodes" : [
                0
            ]
        }
    ],
    "nodes" : [
        {
            "mesh" : 0,
            "name" : "Layer_1",
            "rotation" : [
                0.0057698506861925125,
                -0.0002868678711820394,
                0.049655113369226456,
                0.9987497329711914
            ],
            "scale" : [
                4.28128719329834,
                4.28128719329834,
                4.281286716461182
            ],
            "translation" : [
                0,
                0.25889357924461365,
                -0.051033586263656616
            ]
        }
    ],
    "materials" : [
        {
            "doubleSided" : true,
            "name" : "Material.001",
            "pbrMetallicRoughness" : {
                "baseColorFactor" : [
                    0.5,
                    0.5,
                    0.5,
                    1
                ],
                "metallicFactor" : 0.5,
                "roughnessFactor" : 0.20000000298023224
            }
        }
    ],
    "meshes" : [
        {
            "extras" : {
                "targetNames" : [
                    "Squash"
                ]
            },
            "name" : "Layer_1_mesh",
            "primitives" : [
                {
                    "attributes" : {
                        "POSITION" : 0,
                        "NORMAL" : 1,
                        "COLOR_0" : 2
                    },
                    "indices" : 3,
                    "material" : 0,
                    "targets" : [
                        {
                            "POSITION" : 4,
                            "NORMAL" : 5
                        }
                    ]
                }
            ],
            "weights" : [
                1
            ]
        }
    ],
    "accessors" : [
        {
            "bufferView" : 0,
            "componentType" : 5126,
            "count" : 9059,
            "max" : [
                0.1455315351486206,
                0.3566807806491852,
                0.07002142071723938
            ],
            "min" : [
                -0.13143286108970642,
                -0.0693846046924591,
                -0.01814262755215168
            ],
            "type" : "VEC3"
        },
        {
            "bufferView" : 1,
            "componentType" : 5126,
            "count" : 9059,
            "type" : "VEC3"
        },
        {
            "bufferView" : 2,
            "componentType" : 5123,
            "count" : 9059,
            "normalized" : true,
            "type" : "VEC4"
        },
        {
            "bufferView" : 3,
            "componentType" : 5123,
            "count" : 54156,
            "type" : "SCALAR"
        },
        {
            "bufferView" : 4,
            "componentType" : 5126,
            "count" : 9059,
            "max" : [
                0.0009998828172683716,
                0.0100308358669281,
                0.008078866638243198
            ],
            "min" : [
                -0.000894761411473155,
                -0.008976258337497711,
                -0.008955242112278938
            ],
            "type" : "VEC3"
        },
        {
            "bufferView" : 5,
            "componentType" : 5126,
            "count" : 9059,
            "type" : "VEC3"
        }
    ],
    "bufferViews" : [
        {
            "buffer" : 0,
            "byteLength" : 108708,
            "byteOffset" : 0
        },
        {
            "buffer" : 0,
            "byteLength" : 108708,
            "byteOffset" : 108708
        },
        {
            "buffer" : 0,
            "byteLength" : 72472,
            "byteOffset" : 217416
        },
        {
            "buffer" : 0,
            "byteLength" : 108312,
            "byteOffset" : 289888
        },
        {
            "buffer" : 0,
            "byteLength" : 108708,
            "byteOffset" : 398200
        },
        {
            "buffer" : 0,
            "byteLength" : 108708,
            "byteOffset" : 506908
        }
    ],
    "buffers" : [
        {
            "byteLength" : 615616,
            "uri" : "data:application/octet-stream;base64,"
        }
    ]
}
