{
    "asset" : {
        "generator" : "Khronos glTF Blender I/O v1.6.16",
        "version" : "2.0"
    },
    "scene" : 0,
    "scenes" : [
        {
            "name" : "Scene",
            "nodes" : [
                0,
                1,
                2
            ]
        }
    ],
    "nodes" : [
        {
            "mesh" : 0,
            "name" : "Slats",
            "scale" : [
                1,
                1,
                1.3735297918319702
            ],
            "translation" : [
                -134.29481506347656,
                -0.06232385337352753,
                0.0010223499266430736
            ]
        },
        {
            "mesh" : 1,
            "name" : "Rails",
            "scale" : [
                100,
                0.11737683415412903,
                0.05938105285167694
            ],
            "translation" : [
                129.20494079589844,
                -0.06232385337352753,
                -0.005248427391052246
            ]
        },
        {
            "mesh" : 2,
            "name" : "Layer_1",
            "rotation" : [
                0,
                0,
                0.0004363323678262532,
                1
            ],
            "translation" : [
                0,
                0.5,
                0
            ]
        }
    ],
    "materials" : [
        {
            "doubleSided" : true,
            "name" : "Material",
            "pbrMetallicRoughness" : {
                "baseColorFactor" : [
                    0.5,
                    0.5,
                    0.5,
                    1
                ],
                "metallicFactor" : 0,
                "roughnessFactor" : 0.4000000059604645
            }
        },
        {
            "doubleSided" : true,
            "name" : "Material.001",
            "pbrMetallicRoughness" : {
                "baseColorFactor" : [
                    0.5,
                    0.5,
                    0.5,
                    1
                ],
                "metallicFactor" : 0.4000000059604645,
                "roughnessFactor" : 0.20000000298023224
            }
        },
        {
            "doubleSided" : true,
            "name" : "Material.002",
            "pbrMetallicRoughness" : {
                "baseColorFactor" : [
                    0.5000003576278687,
                    0.5000003576278687,
                    0.5000003576278687,
                    1
                ],
                "metallicFactor" : 0,
                "roughnessFactor" : 0.20000000298023224
            }
        }
    ],
    "meshes" : [
        {
            "name" : "Slats",
            "primitives" : [
                {
                    "attributes" : {
                        "POSITION" : 0,
                        "NORMAL" : 1,
                        "TEXCOORD_0" : 2,
                        "COLOR_0" : 3
                    },
                    "indices" : 4,
                    "material" : 0
                }
            ]
        },
        {
            "name" : "Rails",
            "primitives" : [
                {
                    "attributes" : {
                        "POSITION" : 5,
                        "NORMAL" : 6,
                        "TEXCOORD_0" : 7,
                        "COLOR_0" : 8
                    },
                    "indices" : 9,
                    "material" : 1
                }
            ]
        },
        {
            "name" : "Layer_1_mesh",
            "primitives" : [
                {
                    "attributes" : {
                        "POSITION" : 10,
                        "NORMAL" : 11,
                        "COLOR_0" : 12
                    },
                    "indices" : 13,
                    "material" : 2
                }
            ]
        }
    ],
    "accessors" : [
        {
            "bufferView" : 0,
            "componentType" : 5126,
            "count" : 25320,
            "max" : [
                395.4193420410156,
                0.05938106030225754,
                1.0152373313903809
            ],
            "min" : [
                -131.8651580810547,
                -0.05938106030225754,
                -1.0152373313903809
            ],
            "type" : "VEC3"
        },
        {
            "bufferView" : 1,
            "componentType" : 5126,
            "count" : 25320,
            "type" : "VEC3"
        },
        {
            "bufferView" : 2,
            "componentType" : 5126,
            "count" : 25320,
            "type" : "VEC2"
        },
        {
            "bufferView" : 3,
            "componentType" : 5123,
            "count" : 25320,
            "normalized" : true,
            "type" : "VEC4"
        },
        {
            "bufferView" : 4,
            "componentType" : 5123,
            "count" : 37980,
            "type" : "SCALAR"
        },
        {
            "bufferView" : 5,
            "componentType" : 5126,
            "count" : 96,
            "max" : [
                1.3175458908081055,
                1,
                18.580055236816406
            ],
            "min" : [
                -3.9524753093719482,
                -1,
                -18.580055236816406
            ],
            "type" : "VEC3"
        },
        {
            "bufferView" : 6,
            "componentType" : 5126,
            "count" : 96,
            "type" : "VEC3"
        },
        {
            "bufferView" : 7,
            "componentType" : 5126,
            "count" : 96,
            "type" : "VEC2"
        },
        {
            "bufferView" : 8,
            "componentType" : 5123,
            "count" : 96,
            "normalized" : true,
            "type" : "VEC4"
        },
        {
            "bufferView" : 9,
            "componentType" : 5123,
            "count" : 144,
            "type" : "SCALAR"
        },
        {
            "bufferView" : 10,
            "componentType" : 5126,
            "count" : 10402,
            "max" : [
                326.0648498535156,
                94.92273712158203,
                198.28213500976562
            ],
            "min" : [
                -336.37158203125,
                -616.6580200195312,
                -436.6803283691406
            ],
            "type" : "VEC3"
        },
        {
            "bufferView" : 11,
            "componentType" : 5126,
            "count" : 10402,
            "type" : "VEC3"
        },
        {
            "bufferView" : 12,
            "componentType" : 5123,
            "count" : 10402,
            "normalized" : true,
            "type" : "VEC4"
        },
        {
            "bufferView" : 13,
            "componentType" : 5123,
            "count" : 62400,
            "type" : "SCALAR"
        }
    ],
    "bufferViews" : [
        {
            "buffer" : 0,
            "byteLength" : 303840,
            "byteOffset" : 0
        },
        {
            "buffer" : 0,
            "byteLength" : 303840,
            "byteOffset" : 303840
        },
        {
            "buffer" : 0,
            "byteLength" : 202560,
            "byteOffset" : 607680
        },
        {
            "buffer" : 0,
            "byteLength" : 202560,
            "byteOffset" : 810240
        },
        {
            "buffer" : 0,
            "byteLength" : 75960,
            "byteOffset" : 1012800
        },
        {
            "buffer" : 0,
            "byteLength" : 1152,
            "byteOffset" : 1088760
        },
        {
            "buffer" : 0,
            "byteLength" : 1152,
            "byteOffset" : 1089912
        },
        {
            "buffer" : 0,
            "byteLength" : 768,
            "byteOffset" : 1091064
        },
        {
            "buffer" : 0,
            "byteLength" : 768,
            "byteOffset" : 1091832
        },
        {
            "buffer" : 0,
            "byteLength" : 288,
            "byteOffset" : 1092600
        },
        {
            "buffer" : 0,
            "byteLength" : 124824,
            "byteOffset" : 1092888
        },
        {
            "buffer" : 0,
            "byteLength" : 124824,
            "byteOffset" : 1217712
        },
        {
            "buffer" : 0,
            "byteLength" : 83216,
            "byteOffset" : 1342536
        },
        {
            "buffer" : 0,
            "byteLength" : 124800,
            "byteOffset" : 1425752
        }
    ],
    "buffers" : [
        {
            "byteLength" : 1550552,
            "uri" : "data:application/octet-stream;base64,"
        }
    ]
}
