{
    "asset" : {
        "generator" : "Khronos glTF Blender I/O v1.6.16",
        "version" : "2.0"
    },
    "scene" : 0,
    "scenes" : [
        {
            "name" : "Scene",
            "nodes" : [
                0,
                1
            ]
        }
    ],
    "nodes" : [
        {
            "mesh" : 0,
            "name" : "Engine",
            "scale" : [
                4.199999809265137,
                4.199999809265137,
                4.199999809265137
            ]
        },
        {
            "mesh" : 1,
            "name" : "Carriage",
            "rotation" : [
                0,
                1,
                0,
                -1.6292068494294654e-07
            ],
            "scale" : [
                4.199999809265137,
                4.199999809265137,
                4.199999809265137
            ],
            "translation" : [
                4.538646697998047,
                0.9516403675079346,
                -0.0011442514369264245
            ]
        }
    ],
    "materials" : [
        {
            "doubleSided" : true,
            "name" : "Material.001",
            "pbrMetallicRoughness" : {
                "baseColorFactor" : [
                    0.5,
                    0.5,
                    0.5,
                    1
                ],
                "metallicFactor" : 0.4000000059604645,
                "roughnessFactor" : 0.20000000298023224
            }
        },
        {
            "doubleSided" : true,
            "name" : "Material.002",
            "pbrMetallicRoughness" : {
                "baseColorFactor" : [
                    0.5,
                    0.5,
                    0.5,
                    1
                ],
                "metallicFactor" : 0,
                "roughnessFactor" : 0.4000000059604645
            }
        }
    ],
    "meshes" : [
        {
            "name" : "Engine",
            "primitives" : [
                {
                    "attributes" : {
                        "POSITION" : 0,
                        "NORMAL" : 1,
                        "TEXCOORD_0" : 2,
                        "COLOR_0" : 3
                    },
                    "indices" : 4,
                    "material" : 0
                }
            ]
        },
        {
            "name" : "Carriage.001",
            "primitives" : [
                {
                    "attributes" : {
                        "POSITION" : 5,
                        "NORMAL" : 6,
                        "TEXCOORD_0" : 7,
                        "COLOR_0" : 8
                    },
                    "indices" : 9,
                    "material" : 1
                }
            ]
        }
    ],
    "accessors" : [
        {
            "bufferView" : 0,
            "componentType" : 5126,
            "count" : 19664,
            "max" : [
                1.0436053276062012,
                1.0937654972076416,
                0.28742897510528564
            ],
            "min" : [
                -1.219819188117981,
                0.0007779152365401387,
                -0.2874278426170349
            ],
            "type" : "VEC3"
        },
        {
            "bufferView" : 1,
            "componentType" : 5126,
            "count" : 19664,
            "type" : "VEC3"
        },
        {
            "bufferView" : 2,
            "componentType" : 5126,
            "count" : 19664,
            "type" : "VEC2"
        },
        {
            "bufferView" : 3,
            "componentType" : 5123,
            "count" : 19664,
            "normalized" : true,
            "type" : "VEC4"
        },
        {
            "bufferView" : 4,
            "componentType" : 5123,
            "count" : 32076,
            "type" : "SCALAR"
        },
        {
            "bufferView" : 5,
            "componentType" : 5126,
            "count" : 454,
            "max" : [
                0.37991324067115784,
                0.04402066767215729,
                0.32256609201431274
            ],
            "min" : [
                -0.014179408550262451,
                -0.0440860390663147,
                -0.3222416043281555
            ],
            "type" : "VEC3"
        },
        {
            "bufferView" : 6,
            "componentType" : 5126,
            "count" : 454,
            "type" : "VEC3"
        },
        {
            "bufferView" : 7,
            "componentType" : 5126,
            "count" : 454,
            "type" : "VEC2"
        },
        {
            "bufferView" : 8,
            "componentType" : 5123,
            "count" : 454,
            "normalized" : true,
            "type" : "VEC4"
        },
        {
            "bufferView" : 9,
            "componentType" : 5123,
            "count" : 864,
            "type" : "SCALAR"
        }
    ],
    "bufferViews" : [
        {
            "buffer" : 0,
            "byteLength" : 235968,
            "byteOffset" : 0
        },
        {
            "buffer" : 0,
            "byteLength" : 235968,
            "byteOffset" : 235968
        },
        {
            "buffer" : 0,
            "byteLength" : 157312,
            "byteOffset" : 471936
        },
        {
            "buffer" : 0,
            "byteLength" : 157312,
            "byteOffset" : 629248
        },
        {
            "buffer" : 0,
            "byteLength" : 64152,
            "byteOffset" : 786560
        },
        {
            "buffer" : 0,
            "byteLength" : 5448,
            "byteOffset" : 850712
        },
        {
            "buffer" : 0,
            "byteLength" : 5448,
            "byteOffset" : 856160
        },
        {
            "buffer" : 0,
            "byteLength" : 3632,
            "byteOffset" : 861608
        },
        {
            "buffer" : 0,
            "byteLength" : 3632,
            "byteOffset" : 865240
        },
        {
            "buffer" : 0,
            "byteLength" : 1728,
            "byteOffset" : 868872
        }
    ],
    "buffers" : [
        {
            "byteLength" : 870600,
            "uri" : "data:application/octet-stream;base64,"
        }
    ]
}
