{
    "asset" : {
        "generator" : "Khronos glTF Blender I/O v1.6.16",
        "version" : "2.0"
    },
    "scene" : 0,
    "scenes" : [
        {
            "name" : "Scene",
            "nodes" : [
                0
            ]
        }
    ],
    "nodes" : [
        {
            "mesh" : 0,
            "name" : "Cube",
            "scale" : [
                0.3112247884273529,
                0.17918214201927185,
                0.1226763129234314
            ],
            "translation" : [
                0,
                0.17952516674995422,
                0
            ]
        }
    ],
    "materials" : [
        {
            "doubleSided" : true,
            "name" : "Case",
            "pbrMetallicRoughness" : {
                "baseColorFactor" : [
                    0.3462814390659332,
                    0.47476428747177124,
                    0.8000000715255737,
                    1
                ],
                "metallicFactor" : 0,
                "roughnessFactor" : 0.5
            }
        },
        {
            "doubleSided" : true,
            "name" : "Handle",
            "pbrMetallicRoughness" : {
                "baseColorFactor" : [
                    0.5,
                    0.5,
                    0.5,
                    1
                ],
                "metallicFactor" : 0,
                "roughnessFactor" : 0.5
            }
        }
    ],
    "meshes" : [
        {
            "name" : "Cube",
            "primitives" : [
                {
                    "attributes" : {
                        "POSITION" : 0,
                        "NORMAL" : 1
                    },
                    "indices" : 2,
                    "material" : 0
                },
                {
                    "attributes" : {
                        "POSITION" : 3,
                        "NORMAL" : 4
                    },
                    "indices" : 5,
                    "material" : 1
                }
            ]
        }
    ],
    "accessors" : [
        {
            "bufferView" : 0,
            "componentType" : 5126,
            "count" : 1970,
            "max" : [
                0.9978269934654236,
                1.1135351657867432,
                0.9999675154685974
            ],
            "min" : [
                -0.9978269934654236,
                -0.9971206188201904,
                -0.9999673366546631
            ],
            "type" : "VEC3"
        },
        {
            "bufferView" : 1,
            "componentType" : 5126,
            "count" : 1970,
            "type" : "VEC3"
        },
        {
            "bufferView" : 2,
            "componentType" : 5123,
            "count" : 2964,
            "type" : "SCALAR"
        },
        {
            "bufferView" : 3,
            "componentType" : 5126,
            "count" : 150,
            "max" : [
                0.2965661883354187,
                1.3958425521850586,
                0.1517365425825119
            ],
            "min" : [
                -0.29656630754470825,
                1.1078859567642212,
                -0.15173614025115967
            ],
            "type" : "VEC3"
        },
        {
            "bufferView" : 4,
            "componentType" : 5126,
            "count" : 150,
            "type" : "VEC3"
        },
        {
            "bufferView" : 5,
            "componentType" : 5123,
            "count" : 240,
            "type" : "SCALAR"
        }
    ],
    "bufferViews" : [
        {
            "buffer" : 0,
            "byteLength" : 23640,
            "byteOffset" : 0
        },
        {
            "buffer" : 0,
            "byteLength" : 23640,
            "byteOffset" : 23640
        },
        {
            "buffer" : 0,
            "byteLength" : 5928,
            "byteOffset" : 47280
        },
        {
            "buffer" : 0,
            "byteLength" : 1800,
            "byteOffset" : 53208
        },
        {
            "buffer" : 0,
            "byteLength" : 1800,
            "byteOffset" : 55008
        },
        {
            "buffer" : 0,
            "byteLength" : 480,
            "byteOffset" : 56808
        }
    ],
    "buffers" : [
        {
            "byteLength" : 57288,
            "uri" : "data:application/octet-stream;base64,"
        }
    ]
}
