{
    "asset" : {
        "generator" : "Khronos glTF Blender I/O v1.6.16",
        "version" : "2.0"
    },
    "scene" : 0,
    "scenes" : [
        {
            "name" : "Scene",
            "nodes" : [
                0
            ]
        }
    ],
    "nodes" : [
        {
            "mesh" : 0,
            "name" : "Carriage",
            "scale" : [
                4.199999809265137,
                4.199999809265137,
                4.199999809265137
            ]
        }
    ],
    "materials" : [
        {
            "doubleSided" : true,
            "name" : "Material",
            "pbrMetallicRoughness" : {
                "baseColorFactor" : [
                    0.5,
                    0.5,
                    0.5,
                    1
                ],
                "metallicFactor" : 0,
                "roughnessFactor" : 0.4000000059604645
            }
        }
    ],
    "meshes" : [
        {
            "name" : "Carriage",
            "primitives" : [
                {
                    "attributes" : {
                        "POSITION" : 0,
                        "NORMAL" : 1,
                        "TEXCOORD_0" : 2,
                        "COLOR_0" : 3
                    },
                    "indices" : 4,
                    "material" : 0
                }
            ]
        }
    ],
    "accessors" : [
        {
            "bufferView" : 0,
            "componentType" : 5126,
            "count" : 13114,
            "max" : [
                0.9409374594688416,
                0.8904616832733154,
                0.3291231393814087
            ],
            "min" : [
                -0.949638307094574,
                0.0010909801349043846,
                -0.33282271027565
            ],
            "type" : "VEC3"
        },
        {
            "bufferView" : 1,
            "componentType" : 5126,
            "count" : 13114,
            "type" : "VEC3"
        },
        {
            "bufferView" : 2,
            "componentType" : 5126,
            "count" : 13114,
            "type" : "VEC2"
        },
        {
            "bufferView" : 3,
            "componentType" : 5123,
            "count" : 13114,
            "normalized" : true,
            "type" : "VEC4"
        },
        {
            "bufferView" : 4,
            "componentType" : 5123,
            "count" : 24240,
            "type" : "SCALAR"
        }
    ],
    "bufferViews" : [
        {
            "buffer" : 0,
            "byteLength" : 157368,
            "byteOffset" : 0
        },
        {
            "buffer" : 0,
            "byteLength" : 157368,
            "byteOffset" : 157368
        },
        {
            "buffer" : 0,
            "byteLength" : 104912,
            "byteOffset" : 314736
        },
        {
            "buffer" : 0,
            "byteLength" : 104912,
            "byteOffset" : 419648
        },
        {
            "buffer" : 0,
            "byteLength" : 48480,
            "byteOffset" : 524560
        }
    ],
    "buffers" : [
        {
            "byteLength" : 573040,
            "uri" : "data:application/octet-stream;base64,"
        }
    ]
}
