{
    "asset" : {
        "generator" : "Khronos glTF Blender I/O v1.6.16",
        "version" : "2.0"
    },
    "scene" : 0,
    "scenes" : [
        {
            "name" : "Scene",
            "nodes" : [
                4
            ]
        }
    ],
    "nodes" : [
        {
            "mesh" : 0,
            "name" : "Paint",
            "rotation" : [
                0,
                -0.04296943172812462,
                0,
                0.9990764856338501
            ],
            "translation" : [
                -0.4261089861392975,
                0.47395414113998413,
                1.0210461616516113
            ]
        },
        {
            "mesh" : 1,
            "name" : "Paint.001",
            "rotation" : [
                0,
                0.061563584953546524,
                0,
                0.9981032609939575
            ],
            "translation" : [
                -0.6662453413009644,
                -0.14243513345718384,
                -0.2828364968299866
            ]
        },
        {
            "mesh" : 2,
            "name" : "Paint.002",
            "translation" : [
                0.06909874826669693,
                0.9081039428710938,
                1.0517566204071045
            ]
        },
        {
            "children" : [
                0,
                1,
                2
            ],
            "name" : "Root"
        },
        {
            "children" : [
                3
            ],
            "name" : "BakedMesh",
            "rotation" : [
                0.7071068286895752,
                0,
                0,
                0.7071067094802856
            ],
            "scale" : [
                2.8886685371398926,
                2.8886685371398926,
                2.8886685371398926
            ],
            "translation" : [
                0,
                0.3150230646133423,
                0
            ]
        }
    ],
    "materials" : [
        {
            "doubleSided" : true,
            "name" : "Single Sided Material",
            "pbrMetallicRoughness" : {
                "baseColorFactor" : [
                    0.30000001192092896,
                    0.30000001192092896,
                    0.30000001192092896,
                    1
                ],
                "metallicFactor" : 0,
                "roughnessFactor" : 0.5527864098548889
            }
        }
    ],
    "meshes" : [
        {
            "name" : "element",
            "primitives" : [
                {
                    "attributes" : {
                        "POSITION" : 0,
                        "NORMAL" : 1,
                        "COLOR_0" : 2
                    },
                    "indices" : 3,
                    "material" : 0
                }
            ]
        },
        {
            "name" : "element.001",
            "primitives" : [
                {
                    "attributes" : {
                        "POSITION" : 4,
                        "NORMAL" : 5,
                        "COLOR_0" : 6
                    },
                    "indices" : 7,
                    "material" : 0
                }
            ]
        },
        {
            "name" : "element.002",
            "primitives" : [
                {
                    "attributes" : {
                        "POSITION" : 8,
                        "NORMAL" : 9,
                        "COLOR_0" : 10
                    },
                    "indices" : 11,
                    "material" : 0
                }
            ]
        }
    ],
    "accessors" : [
        {
            "bufferView" : 0,
            "componentType" : 5126,
            "count" : 1316,
            "max" : [
                0.15428104996681213,
                -0.7521477937698364,
                -0.9577165246009827
            ],
            "min" : [
                -0.14287027716636658,
                -0.962594747543335,
                -1.640905499458313
            ],
            "type" : "VEC3"
        },
        {
            "bufferView" : 1,
            "componentType" : 5126,
            "count" : 1316,
            "type" : "VEC3"
        },
        {
            "bufferView" : 2,
            "componentType" : 5123,
            "count" : 1316,
            "normalized" : true,
            "type" : "VEC4"
        },
        {
            "bufferView" : 3,
            "componentType" : 5123,
            "count" : 7812,
            "type" : "SCALAR"
        },
        {
            "bufferView" : 4,
            "componentType" : 5126,
            "count" : 1260,
            "max" : [
                0.12028750777244568,
                0.20154613256454468,
                0.3626899719238281
            ],
            "min" : [
                -0.16725414991378784,
                -0.09304428100585938,
                -0.30674421787261963
            ],
            "type" : "VEC3"
        },
        {
            "bufferView" : 5,
            "componentType" : 5126,
            "count" : 1260,
            "type" : "VEC3"
        },
        {
            "bufferView" : 6,
            "componentType" : 5123,
            "count" : 1260,
            "normalized" : true,
            "type" : "VEC4"
        },
        {
            "bufferView" : 7,
            "componentType" : 5123,
            "count" : 7434,
            "type" : "SCALAR"
        },
        {
            "bufferView" : 8,
            "componentType" : 5126,
            "count" : 1267,
            "max" : [
                0.488589346408844,
                -0.6745806336402893,
                -0.969918966293335
            ],
            "min" : [
                0.19923004508018494,
                -0.9214842915534973,
                -1.6418743133544922
            ],
            "type" : "VEC3"
        },
        {
            "bufferView" : 9,
            "componentType" : 5126,
            "count" : 1267,
            "type" : "VEC3"
        },
        {
            "bufferView" : 10,
            "componentType" : 5123,
            "count" : 1267,
            "normalized" : true,
            "type" : "VEC4"
        },
        {
            "bufferView" : 11,
            "componentType" : 5123,
            "count" : 7476,
            "type" : "SCALAR"
        }
    ],
    "bufferViews" : [
        {
            "buffer" : 0,
            "byteLength" : 15792,
            "byteOffset" : 0
        },
        {
            "buffer" : 0,
            "byteLength" : 15792,
            "byteOffset" : 15792
        },
        {
            "buffer" : 0,
            "byteLength" : 10528,
            "byteOffset" : 31584
        },
        {
            "buffer" : 0,
            "byteLength" : 15624,
            "byteOffset" : 42112
        },
        {
            "buffer" : 0,
            "byteLength" : 15120,
            "byteOffset" : 57736
        },
        {
            "buffer" : 0,
            "byteLength" : 15120,
            "byteOffset" : 72856
        },
        {
            "buffer" : 0,
            "byteLength" : 10080,
            "byteOffset" : 87976
        },
        {
            "buffer" : 0,
            "byteLength" : 14868,
            "byteOffset" : 98056
        },
        {
            "buffer" : 0,
            "byteLength" : 15204,
            "byteOffset" : 112924
        },
        {
            "buffer" : 0,
            "byteLength" : 15204,
            "byteOffset" : 128128
        },
        {
            "buffer" : 0,
            "byteLength" : 10136,
            "byteOffset" : 143332
        },
        {
            "buffer" : 0,
            "byteLength" : 14952,
            "byteOffset" : 153468
        }
    ],
    "buffers" : [
        {
            "byteLength" : 168420,
            "uri" : "data:application/octet-stream;base64,"
        }
    ]
}
