{
    "asset" : {
        "generator" : "Khronos glTF Blender I/O v1.6.16",
        "version" : "2.0"
    },
    "scene" : 0,
    "scenes" : [
        {
            "name" : "Scene",
            "nodes" : [
                5
            ]
        }
    ],
    "nodes" : [
        {
            "name" : "Bone.001",
            "rotation" : [
                0.33355650305747986,
                -1.1238212493935862e-07,
                -3.976302664909781e-08,
                0.9427301287651062
            ],
            "scale" : [
                1,
                1,
                1.0000001192092896
            ],
            "translation" : [
                0,
                1,
                0
            ]
        },
        {
            "name" : "Bone.002",
            "rotation" : [
                -0.2584659159183502,
                -0.08336127549409866,
                -0.2954172194004059,
                0.9159557819366455
            ],
            "scale" : [
                0.9999999403953552,
                0.9999999403953552,
                1
            ],
            "translation" : [
                0,
                1,
                0
            ]
        },
        {
            "name" : "Bone.003",
            "rotation" : [
                -0.2547498345375061,
                0.10270044952630997,
                0.35952091217041016,
                0.8917958736419678
            ],
            "scale" : [
                1,
                1,
                0.9999999403953552
            ],
            "translation" : [
                0,
                1,
                0
            ]
        },
        {
            "children" : [
                0,
                1,
                2
            ],
            "name" : "Bone"
        },
        {
            "mesh" : 0,
            "name" : "Layer_1",
            "skin" : 0
        },
        {
            "children" : [
                4,
                3
            ],
            "name" : "Armature",
            "rotation" : [
                0.5809146761894226,
                0.2302374392747879,
                -0.17583057284355164,
                0.7606658339500427
            ],
            "scale" : [
                0.038846638053655624,
                0.038846638053655624,
                0.038846638053655624
            ],
            "translation" : [
                0,
                0.12631167471408844,
                0
            ]
        }
    ],
    "animations" : [
        {
            "channels" : [
                {
                    "sampler" : 0,
                    "target" : {
                        "node" : 3,
                        "path" : "translation"
                    }
                },
                {
                    "sampler" : 1,
                    "target" : {
                        "node" : 3,
                        "path" : "rotation"
                    }
                },
                {
                    "sampler" : 2,
                    "target" : {
                        "node" : 3,
                        "path" : "scale"
                    }
                },
                {
                    "sampler" : 3,
                    "target" : {
                        "node" : 0,
                        "path" : "translation"
                    }
                },
                {
                    "sampler" : 4,
                    "target" : {
                        "node" : 0,
                        "path" : "rotation"
                    }
                },
                {
                    "sampler" : 5,
                    "target" : {
                        "node" : 0,
                        "path" : "scale"
                    }
                },
                {
                    "sampler" : 6,
                    "target" : {
                        "node" : 1,
                        "path" : "translation"
                    }
                },
                {
                    "sampler" : 7,
                    "target" : {
                        "node" : 1,
                        "path" : "rotation"
                    }
                },
                {
                    "sampler" : 8,
                    "target" : {
                        "node" : 1,
                        "path" : "scale"
                    }
                },
                {
                    "sampler" : 9,
                    "target" : {
                        "node" : 2,
                        "path" : "translation"
                    }
                },
                {
                    "sampler" : 10,
                    "target" : {
                        "node" : 2,
                        "path" : "rotation"
                    }
                },
                {
                    "sampler" : 11,
                    "target" : {
                        "node" : 2,
                        "path" : "scale"
                    }
                }
            ],
            "name" : "ArmatureAction",
            "samplers" : [
                {
                    "input" : 7,
                    "interpolation" : "LINEAR",
                    "output" : 8
                },
                {
                    "input" : 7,
                    "interpolation" : "LINEAR",
                    "output" : 9
                },
                {
                    "input" : 7,
                    "interpolation" : "LINEAR",
                    "output" : 10
                },
                {
                    "input" : 7,
                    "interpolation" : "LINEAR",
                    "output" : 11
                },
                {
                    "input" : 7,
                    "interpolation" : "LINEAR",
                    "output" : 12
                },
                {
                    "input" : 7,
                    "interpolation" : "LINEAR",
                    "output" : 13
                },
                {
                    "input" : 7,
                    "interpolation" : "LINEAR",
                    "output" : 14
                },
                {
                    "input" : 7,
                    "interpolation" : "LINEAR",
                    "output" : 15
                },
                {
                    "input" : 7,
                    "interpolation" : "LINEAR",
                    "output" : 16
                },
                {
                    "input" : 7,
                    "interpolation" : "LINEAR",
                    "output" : 17
                },
                {
                    "input" : 7,
                    "interpolation" : "LINEAR",
                    "output" : 18
                },
                {
                    "input" : 7,
                    "interpolation" : "LINEAR",
                    "output" : 19
                }
            ]
        }
    ],
    "materials" : [
        {
            "doubleSided" : true,
            "name" : "Material.001",
            "pbrMetallicRoughness" : {
                "baseColorFactor" : [
                    0.5,
                    0.5,
                    0.5,
                    1
                ],
                "metallicFactor" : 0,
                "roughnessFactor" : 0.5
            }
        }
    ],
    "meshes" : [
        {
            "name" : "Layer_1_mesh",
            "primitives" : [
                {
                    "attributes" : {
                        "POSITION" : 0,
                        "NORMAL" : 1,
                        "COLOR_0" : 2,
                        "JOINTS_0" : 3,
                        "WEIGHTS_0" : 4
                    },
                    "indices" : 5,
                    "material" : 0
                }
            ]
        }
    ],
    "skins" : [
        {
            "inverseBindMatrices" : 6,
            "joints" : [
                3,
                0,
                1,
                2
            ],
            "name" : "Armature"
        }
    ],
    "accessors" : [
        {
            "bufferView" : 0,
            "componentType" : 5126,
            "count" : 9540,
            "max" : [
                0.16825835406780243,
                0.2524843215942383,
                0.17418202757835388
            ],
            "min" : [
                -0.172968327999115,
                0.0012614355655387044,
                -0.17831546068191528
            ],
            "type" : "VEC3"
        },
        {
            "bufferView" : 1,
            "componentType" : 5126,
            "count" : 9540,
            "type" : "VEC3"
        },
        {
            "bufferView" : 2,
            "componentType" : 5123,
            "count" : 9540,
            "normalized" : true,
            "type" : "VEC4"
        },
        {
            "bufferView" : 3,
            "componentType" : 5121,
            "count" : 9540,
            "type" : "VEC4"
        },
        {
            "bufferView" : 4,
            "componentType" : 5126,
            "count" : 9540,
            "type" : "VEC4"
        },
        {
            "bufferView" : 5,
            "componentType" : 5123,
            "count" : 57228,
            "type" : "SCALAR"
        },
        {
            "bufferView" : 6,
            "componentType" : 5126,
            "count" : 4,
            "type" : "MAT4"
        },
        {
            "bufferView" : 7,
            "componentType" : 5126,
            "count" : 101,
            "max" : [
                4
            ],
            "min" : [
                0
            ],
            "type" : "SCALAR"
        },
        {
            "bufferView" : 8,
            "componentType" : 5126,
            "count" : 101,
            "type" : "VEC3"
        },
        {
            "bufferView" : 9,
            "componentType" : 5126,
            "count" : 101,
            "type" : "VEC4"
        },
        {
            "bufferView" : 10,
            "componentType" : 5126,
            "count" : 101,
            "type" : "VEC3"
        },
        {
            "bufferView" : 11,
            "componentType" : 5126,
            "count" : 101,
            "type" : "VEC3"
        },
        {
            "bufferView" : 12,
            "componentType" : 5126,
            "count" : 101,
            "type" : "VEC4"
        },
        {
            "bufferView" : 13,
            "componentType" : 5126,
            "count" : 101,
            "type" : "VEC3"
        },
        {
            "bufferView" : 14,
            "componentType" : 5126,
            "count" : 101,
            "type" : "VEC3"
        },
        {
            "bufferView" : 15,
            "componentType" : 5126,
            "count" : 101,
            "type" : "VEC4"
        },
        {
            "bufferView" : 16,
            "componentType" : 5126,
            "count" : 101,
            "type" : "VEC3"
        },
        {
            "bufferView" : 17,
            "componentType" : 5126,
            "count" : 101,
            "type" : "VEC3"
        },
        {
            "bufferView" : 18,
            "componentType" : 5126,
            "count" : 101,
            "type" : "VEC4"
        },
        {
            "bufferView" : 19,
            "componentType" : 5126,
            "count" : 101,
            "type" : "VEC3"
        }
    ],
    "bufferViews" : [
        {
            "buffer" : 0,
            "byteLength" : 114480,
            "byteOffset" : 0
        },
        {
            "buffer" : 0,
            "byteLength" : 114480,
            "byteOffset" : 114480
        },
        {
            "buffer" : 0,
            "byteLength" : 76320,
            "byteOffset" : 228960
        },
        {
            "buffer" : 0,
            "byteLength" : 38160,
            "byteOffset" : 305280
        },
        {
            "buffer" : 0,
            "byteLength" : 152640,
            "byteOffset" : 343440
        },
        {
            "buffer" : 0,
            "byteLength" : 114456,
            "byteOffset" : 496080
        },
        {
            "buffer" : 0,
            "byteLength" : 256,
            "byteOffset" : 610536
        },
        {
            "buffer" : 0,
            "byteLength" : 404,
            "byteOffset" : 610792
        },
        {
            "buffer" : 0,
            "byteLength" : 1212,
            "byteOffset" : 611196
        },
        {
            "buffer" : 0,
            "byteLength" : 1616,
            "byteOffset" : 612408
        },
        {
            "buffer" : 0,
            "byteLength" : 1212,
            "byteOffset" : 614024
        },
        {
            "buffer" : 0,
            "byteLength" : 1212,
            "byteOffset" : 615236
        },
        {
            "buffer" : 0,
            "byteLength" : 1616,
            "byteOffset" : 616448
        },
        {
            "buffer" : 0,
            "byteLength" : 1212,
            "byteOffset" : 618064
        },
        {
            "buffer" : 0,
            "byteLength" : 1212,
            "byteOffset" : 619276
        },
        {
            "buffer" : 0,
            "byteLength" : 1616,
            "byteOffset" : 620488
        },
        {
            "buffer" : 0,
            "byteLength" : 1212,
            "byteOffset" : 622104
        },
        {
            "buffer" : 0,
            "byteLength" : 1212,
            "byteOffset" : 623316
        },
        {
            "buffer" : 0,
            "byteLength" : 1616,
            "byteOffset" : 624528
        },
        {
            "buffer" : 0,
            "byteLength" : 1212,
            "byteOffset" : 626144
        }
    ],
    "buffers" : [
        {
            "byteLength" : 627356,
            "uri" : "data:application/octet-stream;base64,"
        }
    ]
}
