{
    "asset" : {
        "generator" : "Khronos glTF Blender I/O v1.6.16",
        "version" : "2.0"
    },
    "scene" : 0,
    "scenes" : [
        {
            "name" : "Scene",
            "nodes" : [
                0
            ]
        }
    ],
    "nodes" : [
        {
            "mesh" : 0,
            "name" : "Layer_1",
            "rotation" : [
                -0.3623000681400299,
                0.4641934633255005,
                0.08777429163455963,
                0.8034667372703552
            ],
            "scale" : [
                12.5,
                12.5,
                12.5
            ],
            "translation" : [
                0.2845781743526459,
                0.25978466868400574,
                0.3554948568344116
            ]
        }
    ],
    "materials" : [
        {
            "doubleSided" : true,
            "name" : "Material.001",
            "pbrMetallicRoughness" : {
                "baseColorFactor" : [
                    0.5,
                    0.5,
                    0.5,
                    1
                ],
                "metallicFactor" : 0,
                "roughnessFactor" : 0.5
            }
        }
    ],
    "meshes" : [
        {
            "extras" : {
                "targetNames" : [
                    "Squash"
                ]
            },
            "name" : "Layer_1_mesh",
            "primitives" : [
                {
                    "attributes" : {
                        "POSITION" : 0,
                        "NORMAL" : 1,
                        "COLOR_0" : 2
                    },
                    "indices" : 3,
                    "material" : 0,
                    "targets" : [
                        {
                            "POSITION" : 4,
                            "NORMAL" : 5
                        }
                    ]
                }
            ],
            "weights" : [
                0
            ]
        }
    ],
    "accessors" : [
        {
            "bufferView" : 0,
            "componentType" : 5126,
            "count" : 10850,
            "max" : [
                0.07284661382436752,
                0.11726593226194382,
                0.011197852902114391
            ],
            "min" : [
                -0.06914939731359482,
                -0.015388334169983864,
                -0.07095474749803543
            ],
            "type" : "VEC3"
        },
        {
            "bufferView" : 1,
            "componentType" : 5126,
            "count" : 10850,
            "type" : "VEC3"
        },
        {
            "bufferView" : 2,
            "componentType" : 5123,
            "count" : 10850,
            "normalized" : true,
            "type" : "VEC4"
        },
        {
            "bufferView" : 3,
            "componentType" : 5123,
            "count" : 65088,
            "type" : "SCALAR"
        },
        {
            "bufferView" : 4,
            "componentType" : 5126,
            "count" : 10850,
            "max" : [
                0.07991737127304077,
                -0.01967591792345047,
                0.041358496993780136
            ],
            "min" : [
                -0.04226718842983246,
                -0.11082305759191513,
                -0.024851059541106224
            ],
            "type" : "VEC3"
        },
        {
            "bufferView" : 5,
            "componentType" : 5126,
            "count" : 10850,
            "type" : "VEC3"
        }
    ],
    "bufferViews" : [
        {
            "buffer" : 0,
            "byteLength" : 130200,
            "byteOffset" : 0
        },
        {
            "buffer" : 0,
            "byteLength" : 130200,
            "byteOffset" : 130200
        },
        {
            "buffer" : 0,
            "byteLength" : 86800,
            "byteOffset" : 260400
        },
        {
            "buffer" : 0,
            "byteLength" : 130176,
            "byteOffset" : 347200
        },
        {
            "buffer" : 0,
            "byteLength" : 130200,
            "byteOffset" : 477376
        },
        {
            "buffer" : 0,
            "byteLength" : 130200,
            "byteOffset" : 607576
        }
    ],
    "buffers" : [
        {
            "byteLength" : 737776,
            "uri" : "data:application/octet-stream;base64,"
        }
    ]
}
