{
    "asset" : {
        "generator" : "Khronos glTF Blender I/O v1.6.16",
        "version" : "2.0"
    },
    "scene" : 0,
    "scenes" : [
        {
            "name" : "Scene",
            "nodes" : [
                9
            ]
        }
    ],
    "nodes" : [
        {
            "name" : "Bone.001",
            "rotation" : [
                -0.9126613140106201,
                -0.21597489714622498,
                -0.06956470012664795,
                0.339948445558548
            ],
            "scale" : [
                1.0000001192092896,
                1.0000001192092896,
                1.0000001192092896
            ],
            "translation" : [
                0,
                1,
                0
            ]
        },
        {
            "name" : "Bone.002",
            "rotation" : [
                -0.9416974186897278,
                -0.33317136764526367,
                -0.009981230832636356,
                0.04586106911301613
            ],
            "scale" : [
                0.9999995231628418,
                0.9999996423721313,
                1.0000001192092896
            ],
            "translation" : [
                0,
                1,
                0
            ]
        },
        {
            "name" : "Bone.003",
            "rotation" : [
                0.9256739616394043,
                0.15933918952941895,
                -0.05820822715759277,
                0.3381577134132385
            ],
            "scale" : [
                1.0000001192092896,
                1,
                1.0000001192092896
            ],
            "translation" : [
                0,
                1,
                0
            ]
        },
        {
            "name" : "Bone.004",
            "rotation" : [
                0.9185633659362793,
                -0.19785888493061066,
                0.07663825899362564,
                0.3334963023662567
            ],
            "scale" : [
                1.0000001192092896,
                1.0000001192092896,
                1.000000238418579
            ],
            "translation" : [
                0,
                1,
                0
            ]
        },
        {
            "name" : "Bone.005",
            "rotation" : [
                -0.9639189839363098,
                0.23362769186496735,
                0.03115532174706459,
                0.12372429668903351
            ],
            "scale" : [
                0.9999994039535522,
                0.9999998807907104,
                0.9999998211860657
            ],
            "translation" : [
                0,
                1,
                0
            ]
        },
        {
            "name" : "Bone.006",
            "rotation" : [
                0.313139408826828,
                0.06035809963941574,
                -0.17675308883190155,
                0.931160032749176
            ],
            "scale" : [
                0.9999999403953552,
                1,
                1
            ],
            "translation" : [
                0,
                1,
                0
            ]
        },
        {
            "name" : "Bone.007",
            "rotation" : [
                0.3313107490539551,
                -0.06079907715320587,
                0.16994856297969818,
                0.9260963201522827
            ],
            "scale" : [
                1,
                0.9999999403953552,
                1
            ],
            "translation" : [
                0,
                1,
                0
            ]
        },
        {
            "children" : [
                0,
                1,
                2,
                3,
                4,
                5,
                6
            ],
            "name" : "Bone"
        },
        {
            "mesh" : 0,
            "name" : "Layer_1",
            "skin" : 0
        },
        {
            "children" : [
                8,
                7
            ],
            "name" : "Armature",
            "scale" : [
                0.3075895309448242,
                0.3075895309448242,
                0.3075895309448242
            ],
            "translation" : [
                0.05469151586294174,
                0.9024099707603455,
                0
            ]
        }
    ],
    "animations" : [
        {
            "channels" : [
                {
                    "sampler" : 0,
                    "target" : {
                        "node" : 7,
                        "path" : "translation"
                    }
                },
                {
                    "sampler" : 1,
                    "target" : {
                        "node" : 7,
                        "path" : "rotation"
                    }
                },
                {
                    "sampler" : 2,
                    "target" : {
                        "node" : 7,
                        "path" : "scale"
                    }
                },
                {
                    "sampler" : 3,
                    "target" : {
                        "node" : 0,
                        "path" : "translation"
                    }
                },
                {
                    "sampler" : 4,
                    "target" : {
                        "node" : 0,
                        "path" : "rotation"
                    }
                },
                {
                    "sampler" : 5,
                    "target" : {
                        "node" : 0,
                        "path" : "scale"
                    }
                },
                {
                    "sampler" : 6,
                    "target" : {
                        "node" : 1,
                        "path" : "translation"
                    }
                },
                {
                    "sampler" : 7,
                    "target" : {
                        "node" : 1,
                        "path" : "rotation"
                    }
                },
                {
                    "sampler" : 8,
                    "target" : {
                        "node" : 1,
                        "path" : "scale"
                    }
                },
                {
                    "sampler" : 9,
                    "target" : {
                        "node" : 2,
                        "path" : "translation"
                    }
                },
                {
                    "sampler" : 10,
                    "target" : {
                        "node" : 2,
                        "path" : "rotation"
                    }
                },
                {
                    "sampler" : 11,
                    "target" : {
                        "node" : 2,
                        "path" : "scale"
                    }
                },
                {
                    "sampler" : 12,
                    "target" : {
                        "node" : 3,
                        "path" : "translation"
                    }
                },
                {
                    "sampler" : 13,
                    "target" : {
                        "node" : 3,
                        "path" : "rotation"
                    }
                },
                {
                    "sampler" : 14,
                    "target" : {
                        "node" : 3,
                        "path" : "scale"
                    }
                },
                {
                    "sampler" : 15,
                    "target" : {
                        "node" : 4,
                        "path" : "translation"
                    }
                },
                {
                    "sampler" : 16,
                    "target" : {
                        "node" : 4,
                        "path" : "rotation"
                    }
                },
                {
                    "sampler" : 17,
                    "target" : {
                        "node" : 4,
                        "path" : "scale"
                    }
                },
                {
                    "sampler" : 18,
                    "target" : {
                        "node" : 5,
                        "path" : "translation"
                    }
                },
                {
                    "sampler" : 19,
                    "target" : {
                        "node" : 5,
                        "path" : "rotation"
                    }
                },
                {
                    "sampler" : 20,
                    "target" : {
                        "node" : 5,
                        "path" : "scale"
                    }
                },
                {
                    "sampler" : 21,
                    "target" : {
                        "node" : 6,
                        "path" : "translation"
                    }
                },
                {
                    "sampler" : 22,
                    "target" : {
                        "node" : 6,
                        "path" : "rotation"
                    }
                },
                {
                    "sampler" : 23,
                    "target" : {
                        "node" : 6,
                        "path" : "scale"
                    }
                }
            ],
            "name" : "ArmatureAction",
            "samplers" : [
                {
                    "input" : 7,
                    "interpolation" : "LINEAR",
                    "output" : 8
                },
                {
                    "input" : 7,
                    "interpolation" : "LINEAR",
                    "output" : 9
                },
                {
                    "input" : 7,
                    "interpolation" : "LINEAR",
                    "output" : 10
                },
                {
                    "input" : 7,
                    "interpolation" : "LINEAR",
                    "output" : 11
                },
                {
                    "input" : 7,
                    "interpolation" : "LINEAR",
                    "output" : 12
                },
                {
                    "input" : 7,
                    "interpolation" : "LINEAR",
                    "output" : 13
                },
                {
                    "input" : 7,
                    "interpolation" : "LINEAR",
                    "output" : 14
                },
                {
                    "input" : 7,
                    "interpolation" : "LINEAR",
                    "output" : 15
                },
                {
                    "input" : 7,
                    "interpolation" : "LINEAR",
                    "output" : 16
                },
                {
                    "input" : 7,
                    "interpolation" : "LINEAR",
                    "output" : 17
                },
                {
                    "input" : 7,
                    "interpolation" : "LINEAR",
                    "output" : 18
                },
                {
                    "input" : 7,
                    "interpolation" : "LINEAR",
                    "output" : 19
                },
                {
                    "input" : 7,
                    "interpolation" : "LINEAR",
                    "output" : 20
                },
                {
                    "input" : 7,
                    "interpolation" : "LINEAR",
                    "output" : 21
                },
                {
                    "input" : 7,
                    "interpolation" : "LINEAR",
                    "output" : 22
                },
                {
                    "input" : 7,
                    "interpolation" : "LINEAR",
                    "output" : 23
                },
                {
                    "input" : 7,
                    "interpolation" : "LINEAR",
                    "output" : 24
                },
                {
                    "input" : 7,
                    "interpolation" : "LINEAR",
                    "output" : 25
                },
                {
                    "input" : 7,
                    "interpolation" : "LINEAR",
                    "output" : 26
                },
                {
                    "input" : 7,
                    "interpolation" : "LINEAR",
                    "output" : 27
                },
                {
                    "input" : 7,
                    "interpolation" : "LINEAR",
                    "output" : 28
                },
                {
                    "input" : 7,
                    "interpolation" : "LINEAR",
                    "output" : 29
                },
                {
                    "input" : 7,
                    "interpolation" : "LINEAR",
                    "output" : 30
                },
                {
                    "input" : 7,
                    "interpolation" : "LINEAR",
                    "output" : 31
                }
            ]
        }
    ],
    "materials" : [
        {
            "doubleSided" : true,
            "name" : "Material.001",
            "pbrMetallicRoughness" : {
                "baseColorFactor" : [
                    0.5,
                    0.5,
                    0.5,
                    1
                ],
                "metallicFactor" : 0,
                "roughnessFactor" : 0.5
            }
        }
    ],
    "meshes" : [
        {
            "name" : "Layer_1_mesh",
            "primitives" : [
                {
                    "attributes" : {
                        "POSITION" : 0,
                        "NORMAL" : 1,
                        "COLOR_0" : 2,
                        "JOINTS_0" : 3,
                        "WEIGHTS_0" : 4
                    },
                    "indices" : 5,
                    "material" : 0
                }
            ]
        }
    ],
    "skins" : [
        {
            "inverseBindMatrices" : 6,
            "joints" : [
                7,
                0,
                1,
                2,
                3,
                4,
                5,
                6
            ],
            "name" : "Armature"
        }
    ],
    "accessors" : [
        {
            "bufferView" : 0,
            "componentType" : 5126,
            "count" : 7634,
            "max" : [
                0.8353045582771301,
                1.8529508113861084,
                0.8160917162895203
            ],
            "min" : [
                -0.5987862348556519,
                0.0022725968156009912,
                -0.6975982785224915
            ],
            "type" : "VEC3"
        },
        {
            "bufferView" : 1,
            "componentType" : 5126,
            "count" : 7634,
            "type" : "VEC3"
        },
        {
            "bufferView" : 2,
            "componentType" : 5123,
            "count" : 7634,
            "normalized" : true,
            "type" : "VEC4"
        },
        {
            "bufferView" : 3,
            "componentType" : 5121,
            "count" : 7634,
            "type" : "VEC4"
        },
        {
            "bufferView" : 4,
            "componentType" : 5126,
            "count" : 7634,
            "type" : "VEC4"
        },
        {
            "bufferView" : 5,
            "componentType" : 5123,
            "count" : 45777,
            "type" : "SCALAR"
        },
        {
            "bufferView" : 6,
            "componentType" : 5126,
            "count" : 8,
            "type" : "MAT4"
        },
        {
            "bufferView" : 7,
            "componentType" : 5126,
            "count" : 101,
            "max" : [
                4
            ],
            "min" : [
                0
            ],
            "type" : "SCALAR"
        },
        {
            "bufferView" : 8,
            "componentType" : 5126,
            "count" : 101,
            "type" : "VEC3"
        },
        {
            "bufferView" : 9,
            "componentType" : 5126,
            "count" : 101,
            "type" : "VEC4"
        },
        {
            "bufferView" : 10,
            "componentType" : 5126,
            "count" : 101,
            "type" : "VEC3"
        },
        {
            "bufferView" : 11,
            "componentType" : 5126,
            "count" : 101,
            "type" : "VEC3"
        },
        {
            "bufferView" : 12,
            "componentType" : 5126,
            "count" : 101,
            "type" : "VEC4"
        },
        {
            "bufferView" : 13,
            "componentType" : 5126,
            "count" : 101,
            "type" : "VEC3"
        },
        {
            "bufferView" : 14,
            "componentType" : 5126,
            "count" : 101,
            "type" : "VEC3"
        },
        {
            "bufferView" : 15,
            "componentType" : 5126,
            "count" : 101,
            "type" : "VEC4"
        },
        {
            "bufferView" : 16,
            "componentType" : 5126,
            "count" : 101,
            "type" : "VEC3"
        },
        {
            "bufferView" : 17,
            "componentType" : 5126,
            "count" : 101,
            "type" : "VEC3"
        },
        {
            "bufferView" : 18,
            "componentType" : 5126,
            "count" : 101,
            "type" : "VEC4"
        },
        {
            "bufferView" : 19,
            "componentType" : 5126,
            "count" : 101,
            "type" : "VEC3"
        },
        {
            "bufferView" : 20,
            "componentType" : 5126,
            "count" : 101,
            "type" : "VEC3"
        },
        {
            "bufferView" : 21,
            "componentType" : 5126,
            "count" : 101,
            "type" : "VEC4"
        },
        {
            "bufferView" : 22,
            "componentType" : 5126,
            "count" : 101,
            "type" : "VEC3"
        },
        {
            "bufferView" : 23,
            "componentType" : 5126,
            "count" : 101,
            "type" : "VEC3"
        },
        {
            "bufferView" : 24,
            "componentType" : 5126,
            "count" : 101,
            "type" : "VEC4"
        },
        {
            "bufferView" : 25,
            "componentType" : 5126,
            "count" : 101,
            "type" : "VEC3"
        },
        {
            "bufferView" : 26,
            "componentType" : 5126,
            "count" : 101,
            "type" : "VEC3"
        },
        {
            "bufferView" : 27,
            "componentType" : 5126,
            "count" : 101,
            "type" : "VEC4"
        },
        {
            "bufferView" : 28,
            "componentType" : 5126,
            "count" : 101,
            "type" : "VEC3"
        },
        {
            "bufferView" : 29,
            "componentType" : 5126,
            "count" : 101,
            "type" : "VEC3"
        },
        {
            "bufferView" : 30,
            "componentType" : 5126,
            "count" : 101,
            "type" : "VEC4"
        },
        {
            "bufferView" : 31,
            "componentType" : 5126,
            "count" : 101,
            "type" : "VEC3"
        }
    ],
    "bufferViews" : [
        {
            "buffer" : 0,
            "byteLength" : 91608,
            "byteOffset" : 0
        },
        {
            "buffer" : 0,
            "byteLength" : 91608,
            "byteOffset" : 91608
        },
        {
            "buffer" : 0,
            "byteLength" : 61072,
            "byteOffset" : 183216
        },
        {
            "buffer" : 0,
            "byteLength" : 30536,
            "byteOffset" : 244288
        },
        {
            "buffer" : 0,
            "byteLength" : 122144,
            "byteOffset" : 274824
        },
        {
            "buffer" : 0,
            "byteLength" : 91554,
            "byteOffset" : 396968
        },
        {
            "buffer" : 0,
            "byteLength" : 512,
            "byteOffset" : 488524
        },
        {
            "buffer" : 0,
            "byteLength" : 404,
            "byteOffset" : 489036
        },
        {
            "buffer" : 0,
            "byteLength" : 1212,
            "byteOffset" : 489440
        },
        {
            "buffer" : 0,
            "byteLength" : 1616,
            "byteOffset" : 490652
        },
        {
            "buffer" : 0,
            "byteLength" : 1212,
            "byteOffset" : 492268
        },
        {
            "buffer" : 0,
            "byteLength" : 1212,
            "byteOffset" : 493480
        },
        {
            "buffer" : 0,
            "byteLength" : 1616,
            "byteOffset" : 494692
        },
        {
            "buffer" : 0,
            "byteLength" : 1212,
            "byteOffset" : 496308
        },
        {
            "buffer" : 0,
            "byteLength" : 1212,
            "byteOffset" : 497520
        },
        {
            "buffer" : 0,
            "byteLength" : 1616,
            "byteOffset" : 498732
        },
        {
            "buffer" : 0,
            "byteLength" : 1212,
            "byteOffset" : 500348
        },
        {
            "buffer" : 0,
            "byteLength" : 1212,
            "byteOffset" : 501560
        },
        {
            "buffer" : 0,
            "byteLength" : 1616,
            "byteOffset" : 502772
        },
        {
            "buffer" : 0,
            "byteLength" : 1212,
            "byteOffset" : 504388
        },
        {
            "buffer" : 0,
            "byteLength" : 1212,
            "byteOffset" : 505600
        },
        {
            "buffer" : 0,
            "byteLength" : 1616,
            "byteOffset" : 506812
        },
        {
            "buffer" : 0,
            "byteLength" : 1212,
            "byteOffset" : 508428
        },
        {
            "buffer" : 0,
            "byteLength" : 1212,
            "byteOffset" : 509640
        },
        {
            "buffer" : 0,
            "byteLength" : 1616,
            "byteOffset" : 510852
        },
        {
            "buffer" : 0,
            "byteLength" : 1212,
            "byteOffset" : 512468
        },
        {
            "buffer" : 0,
            "byteLength" : 1212,
            "byteOffset" : 513680
        },
        {
            "buffer" : 0,
            "byteLength" : 1616,
            "byteOffset" : 514892
        },
        {
            "buffer" : 0,
            "byteLength" : 1212,
            "byteOffset" : 516508
        },
        {
            "buffer" : 0,
            "byteLength" : 1212,
            "byteOffset" : 517720
        },
        {
            "buffer" : 0,
            "byteLength" : 1616,
            "byteOffset" : 518932
        },
        {
            "buffer" : 0,
            "byteLength" : 1212,
            "byteOffset" : 520548
        }
    ],
    "buffers" : [
        {
            "byteLength" : 521760,
            "uri" : "data:application/octet-stream;base64,"
        }
    ]
}
