{
    "asset" : {
        "generator" : "Khronos glTF Blender I/O v1.6.16",
        "version" : "2.0"
    },
    "scene" : 0,
    "scenes" : [
        {
            "name" : "Scene",
            "nodes" : [
                0
            ]
        }
    ],
    "nodes" : [
        {
            "mesh" : 0,
            "name" : "Seabed",
            "rotation" : [
                -0.0955260843038559,
                -0.39509591460227966,
                0.024065561592578888,
                -0.9133426547050476
            ],
            "scale" : [
                185.91624450683594,
                185.91624450683594,
                185.91622924804688
            ],
            "translation" : [
                0.04899239540100098,
                -8.362565994262695,
                3.5329909324645996
            ]
        }
    ],
    "materials" : [
        {
            "doubleSided" : true,
            "name" : "Seabed",
            "pbrMetallicRoughness" : {
                "baseColorFactor" : [
                    0.5,
                    0.5,
                    0.5,
                    1
                ],
                "metallicFactor" : 0,
                "roughnessFactor" : 0.5
            }
        }
    ],
    "meshes" : [
        {
            "name" : "Seabed",
            "primitives" : [
                {
                    "attributes" : {
                        "POSITION" : 0,
                        "NORMAL" : 1,
                        "COLOR_0" : 2
                    },
                    "indices" : 3,
                    "material" : 0
                }
            ]
        }
    ],
    "accessors" : [
        {
            "bufferView" : 0,
            "componentType" : 5126,
            "count" : 9292,
            "max" : [
                0.12715668976306915,
                0.09479391574859619,
                0.10002617537975311
            ],
            "min" : [
                -0.10884466767311096,
                -0.007719429675489664,
                -0.15347465872764587
            ],
            "type" : "VEC3"
        },
        {
            "bufferView" : 1,
            "componentType" : 5126,
            "count" : 9292,
            "type" : "VEC3"
        },
        {
            "bufferView" : 2,
            "componentType" : 5123,
            "count" : 9292,
            "normalized" : true,
            "type" : "VEC4"
        },
        {
            "bufferView" : 3,
            "componentType" : 5123,
            "count" : 55698,
            "type" : "SCALAR"
        }
    ],
    "bufferViews" : [
        {
            "buffer" : 0,
            "byteLength" : 111504,
            "byteOffset" : 0
        },
        {
            "buffer" : 0,
            "byteLength" : 111504,
            "byteOffset" : 111504
        },
        {
            "buffer" : 0,
            "byteLength" : 74336,
            "byteOffset" : 223008
        },
        {
            "buffer" : 0,
            "byteLength" : 111396,
            "byteOffset" : 297344
        }
    ],
    "buffers" : [
        {
            "byteLength" : 408740,
            "uri" : "data:application/octet-stream;base64,"
        }
    ]
}
