{
    "asset" : {
        "generator" : "Khronos glTF Blender I/O v1.6.16",
        "version" : "2.0"
    },
    "scene" : 0,
    "scenes" : [
        {
            "name" : "Scene",
            "nodes" : [
                0,
                1,
                2,
                3
            ]
        }
    ],
    "nodes" : [
        {
            "mesh" : 0,
            "name" : "Pit",
            "scale" : [
                3.3550615310668945,
                0.31818580627441406,
                3.3550615310668945
            ],
            "translation" : [
                -2.9511749744415283e-05,
                0.2785027027130127,
                -4.381133556365967
            ]
        },
        {
            "mesh" : 1,
            "name" : "Floor",
            "scale" : [
                10.065184593200684,
                0.08000842481851578,
                10.065184593200684
            ],
            "translation" : [
                -2.9511749744415283e-05,
                -0.08048975467681885,
                -4.381133556365967
            ]
        },
        {
            "mesh" : 2,
            "name" : "Rope",
            "scale" : [
                2.4854061603546143,
                1.1853936910629272,
                2.4854061603546143
            ],
            "translation" : [
                -2.9511749744415283e-05,
                0.5906875133514404,
                -4.381133556365967
            ]
        },
        {
            "mesh" : 3,
            "name" : "Markers",
            "scale" : [
                0.05082506686449051,
                0.024240590631961823,
                0.523105800151825
            ],
            "translation" : [
                -0.4539804756641388,
                0.5760787725448608,
                -4.381133556365967
            ]
        }
    ],
    "materials" : [
        {
            "doubleSided" : true,
            "name" : "Material",
            "pbrMetallicRoughness" : {
                "baseColorFactor" : [
                    0.5,
                    0.5,
                    0.5,
                    1
                ],
                "metallicFactor" : 0,
                "roughnessFactor" : 0.800000011920929
            }
        }
    ],
    "meshes" : [
        {
            "name" : "Cube",
            "primitives" : [
                {
                    "attributes" : {
                        "POSITION" : 0,
                        "NORMAL" : 1,
                        "TEXCOORD_0" : 2,
                        "COLOR_0" : 3
                    },
                    "indices" : 4,
                    "material" : 0
                }
            ]
        },
        {
            "name" : "Cube.001",
            "primitives" : [
                {
                    "attributes" : {
                        "POSITION" : 5,
                        "NORMAL" : 6,
                        "TEXCOORD_0" : 7,
                        "COLOR_0" : 8
                    },
                    "indices" : 9,
                    "material" : 0
                }
            ]
        },
        {
            "name" : "Torus.001",
            "primitives" : [
                {
                    "attributes" : {
                        "POSITION" : 10,
                        "NORMAL" : 11,
                        "TEXCOORD_0" : 12,
                        "COLOR_0" : 13
                    },
                    "indices" : 14,
                    "material" : 0
                }
            ]
        },
        {
            "name" : "Cube.002",
            "primitives" : [
                {
                    "attributes" : {
                        "POSITION" : 15,
                        "NORMAL" : 16,
                        "TEXCOORD_0" : 17,
                        "COLOR_0" : 18
                    },
                    "indices" : 19,
                    "material" : 0
                }
            ]
        }
    ],
    "accessors" : [
        {
            "bufferView" : 0,
            "componentType" : 5126,
            "count" : 1326,
            "max" : [
                1,
                1,
                1
            ],
            "min" : [
                -1,
                -1,
                -1
            ],
            "type" : "VEC3"
        },
        {
            "bufferView" : 1,
            "componentType" : 5126,
            "count" : 1326,
            "type" : "VEC3"
        },
        {
            "bufferView" : 2,
            "componentType" : 5126,
            "count" : 1326,
            "type" : "VEC2"
        },
        {
            "bufferView" : 3,
            "componentType" : 5123,
            "count" : 1326,
            "normalized" : true,
            "type" : "VEC4"
        },
        {
            "bufferView" : 4,
            "componentType" : 5123,
            "count" : 3024,
            "type" : "SCALAR"
        },
        {
            "bufferView" : 5,
            "componentType" : 5126,
            "count" : 24,
            "max" : [
                1,
                1,
                1
            ],
            "min" : [
                -1,
                -1,
                -1
            ],
            "type" : "VEC3"
        },
        {
            "bufferView" : 6,
            "componentType" : 5126,
            "count" : 24,
            "type" : "VEC3"
        },
        {
            "bufferView" : 7,
            "componentType" : 5126,
            "count" : 24,
            "type" : "VEC2"
        },
        {
            "bufferView" : 8,
            "componentType" : 5123,
            "count" : 24,
            "normalized" : true,
            "type" : "VEC4"
        },
        {
            "bufferView" : 9,
            "componentType" : 5123,
            "count" : 36,
            "type" : "SCALAR"
        },
        {
            "bufferView" : 10,
            "componentType" : 5126,
            "count" : 6144,
            "max" : [
                1.3091843128204346,
                0.02499997615814209,
                1.3074028491973877
            ],
            "min" : [
                -1.308666467666626,
                -0.36775290966033936,
                -1.3097323179244995
            ],
            "type" : "VEC3"
        },
        {
            "bufferView" : 11,
            "componentType" : 5126,
            "count" : 6144,
            "type" : "VEC3"
        },
        {
            "bufferView" : 12,
            "componentType" : 5126,
            "count" : 6144,
            "type" : "VEC2"
        },
        {
            "bufferView" : 13,
            "componentType" : 5123,
            "count" : 6144,
            "normalized" : true,
            "type" : "VEC4"
        },
        {
            "bufferView" : 14,
            "componentType" : 5123,
            "count" : 11568,
            "type" : "SCALAR"
        },
        {
            "bufferView" : 15,
            "componentType" : 5126,
            "count" : 48,
            "max" : [
                18.863269805908203,
                1,
                1
            ],
            "min" : [
                -1,
                -1.000003695487976,
                -1
            ],
            "type" : "VEC3"
        },
        {
            "bufferView" : 16,
            "componentType" : 5126,
            "count" : 48,
            "type" : "VEC3"
        },
        {
            "bufferView" : 17,
            "componentType" : 5126,
            "count" : 48,
            "type" : "VEC2"
        },
        {
            "bufferView" : 18,
            "componentType" : 5123,
            "count" : 48,
            "normalized" : true,
            "type" : "VEC4"
        },
        {
            "bufferView" : 19,
            "componentType" : 5123,
            "count" : 72,
            "type" : "SCALAR"
        }
    ],
    "bufferViews" : [
        {
            "buffer" : 0,
            "byteLength" : 15912,
            "byteOffset" : 0
        },
        {
            "buffer" : 0,
            "byteLength" : 15912,
            "byteOffset" : 15912
        },
        {
            "buffer" : 0,
            "byteLength" : 10608,
            "byteOffset" : 31824
        },
        {
            "buffer" : 0,
            "byteLength" : 10608,
            "byteOffset" : 42432
        },
        {
            "buffer" : 0,
            "byteLength" : 6048,
            "byteOffset" : 53040
        },
        {
            "buffer" : 0,
            "byteLength" : 288,
            "byteOffset" : 59088
        },
        {
            "buffer" : 0,
            "byteLength" : 288,
            "byteOffset" : 59376
        },
        {
            "buffer" : 0,
            "byteLength" : 192,
            "byteOffset" : 59664
        },
        {
            "buffer" : 0,
            "byteLength" : 192,
            "byteOffset" : 59856
        },
        {
            "buffer" : 0,
            "byteLength" : 72,
            "byteOffset" : 60048
        },
        {
            "buffer" : 0,
            "byteLength" : 73728,
            "byteOffset" : 60120
        },
        {
            "buffer" : 0,
            "byteLength" : 73728,
            "byteOffset" : 133848
        },
        {
            "buffer" : 0,
            "byteLength" : 49152,
            "byteOffset" : 207576
        },
        {
            "buffer" : 0,
            "byteLength" : 49152,
            "byteOffset" : 256728
        },
        {
            "buffer" : 0,
            "byteLength" : 23136,
            "byteOffset" : 305880
        },
        {
            "buffer" : 0,
            "byteLength" : 576,
            "byteOffset" : 329016
        },
        {
            "buffer" : 0,
            "byteLength" : 576,
            "byteOffset" : 329592
        },
        {
            "buffer" : 0,
            "byteLength" : 384,
            "byteOffset" : 330168
        },
        {
            "buffer" : 0,
            "byteLength" : 384,
            "byteOffset" : 330552
        },
        {
            "buffer" : 0,
            "byteLength" : 144,
            "byteOffset" : 330936
        }
    ],
    "buffers" : [
        {
            "byteLength" : 331080,
            "uri" : "data:application/octet-stream;base64,"
        }
    ]
}
