{
    "asset" : {
        "generator" : "Khronos glTF Blender I/O v1.6.16",
        "version" : "2.0"
    },
    "scene" : 0,
    "scenes" : [
        {
            "name" : "Scene",
            "nodes" : [
                0,
                1,
                2,
                3,
                4,
                5,
                6
            ]
        }
    ],
    "nodes" : [
        {
            "mesh" : 0,
            "name" : "Ground",
            "scale" : [
                8,
                0.10000000149011612,
                6
            ],
            "translation" : [
                0,
                -0.10000000149011612,
                0
            ]
        },
        {
            "mesh" : 1,
            "name" : "Wash",
            "rotation" : [
                0,
                -1,
                0,
                1.9470718370939721e-07
            ],
            "scale" : [
                0.06943907588720322,
                0.03459120914340019,
                0.06943907588720322
            ],
            "translation" : [
                -1.5706895589828491,
                0.12930874526500702,
                -1.2114907503128052
            ]
        },
        {
            "mesh" : 2,
            "name" : "Cube",
            "scale" : [
                0.08265098929405212,
                0.08265098929405212,
                0.9116409420967102
            ],
            "translation" : [
                -1.5003286600112915,
                -0.07253167778253555,
                0
            ]
        },
        {
            "mesh" : 3,
            "name" : "Cube.001",
            "scale" : [
                0.08265098929405212,
                0.08265098929405212,
                0.9116409420967102
            ],
            "translation" : [
                1.5005537271499634,
                -0.07253167778253555,
                0
            ]
        },
        {
            "mesh" : 4,
            "name" : "Cone",
            "scale" : [
                0.11857762187719345,
                0.11857762187719345,
                0.11857762187719345
            ],
            "translation" : [
                -0.3513728678226471,
                1.919203281402588,
                -0.4377559721469879
            ]
        },
        {
            "mesh" : 5,
            "name" : "Cone.001",
            "scale" : [
                0.11857762187719345,
                0.11857762187719345,
                0.11857762187719345
            ],
            "translation" : [
                -0.3518579602241516,
                1.919203281402588,
                0.4322611391544342
            ]
        },
        {
            "mesh" : 6,
            "name" : "Cylinder",
            "rotation" : [
                0.7071068286895752,
                0,
                0,
                0.7071068286895752
            ],
            "scale" : [
                -0.022156158462166786,
                -0.11649800837039948,
                -0.022156158462166786
            ],
            "translation" : [
                0.19995129108428955,
                1.4334430694580078,
                -0.777454674243927
            ]
        }
    ],
    "materials" : [
        {
            "doubleSided" : true,
            "name" : "Material",
            "pbrMetallicRoughness" : {
                "baseColorFactor" : [
                    0.5,
                    0.5,
                    0.5,
                    1
                ],
                "metallicFactor" : 0,
                "roughnessFactor" : 0.800000011920929
            }
        },
        {
            "doubleSided" : true,
            "name" : "Material.001",
            "pbrMetallicRoughness" : {
                "baseColorFactor" : [
                    0.5,
                    0.5,
                    0.5,
                    1
                ],
                "metallicFactor" : 0,
                "roughnessFactor" : 0.4000000059604645
            }
        }
    ],
    "meshes" : [
        {
            "name" : "Ground",
            "primitives" : [
                {
                    "attributes" : {
                        "POSITION" : 0,
                        "NORMAL" : 1,
                        "TEXCOORD_0" : 2,
                        "COLOR_0" : 3
                    },
                    "indices" : 4,
                    "material" : 0
                }
            ]
        },
        {
            "name" : "Wash",
            "primitives" : [
                {
                    "attributes" : {
                        "POSITION" : 5,
                        "NORMAL" : 6,
                        "TEXCOORD_0" : 7,
                        "COLOR_0" : 8
                    },
                    "indices" : 9,
                    "material" : 1
                }
            ]
        },
        {
            "name" : "Cube",
            "primitives" : [
                {
                    "attributes" : {
                        "POSITION" : 10,
                        "NORMAL" : 11,
                        "TEXCOORD_0" : 12
                    },
                    "indices" : 13
                }
            ]
        },
        {
            "name" : "Cube.001",
            "primitives" : [
                {
                    "attributes" : {
                        "POSITION" : 14,
                        "NORMAL" : 15,
                        "TEXCOORD_0" : 16
                    },
                    "indices" : 13
                }
            ]
        },
        {
            "name" : "Cone",
            "primitives" : [
                {
                    "attributes" : {
                        "POSITION" : 17,
                        "NORMAL" : 18,
                        "TEXCOORD_0" : 19,
                        "COLOR_0" : 20
                    },
                    "indices" : 21
                }
            ]
        },
        {
            "name" : "Cone.001",
            "primitives" : [
                {
                    "attributes" : {
                        "POSITION" : 22,
                        "NORMAL" : 23,
                        "TEXCOORD_0" : 24,
                        "COLOR_0" : 25
                    },
                    "indices" : 21
                }
            ]
        },
        {
            "name" : "Cylinder.001",
            "primitives" : [
                {
                    "attributes" : {
                        "POSITION" : 26,
                        "NORMAL" : 27,
                        "TEXCOORD_0" : 28,
                        "COLOR_0" : 29
                    },
                    "indices" : 30
                }
            ]
        }
    ],
    "accessors" : [
        {
            "bufferView" : 0,
            "componentType" : 5126,
            "count" : 305,
            "max" : [
                1,
                1,
                1
            ],
            "min" : [
                -1,
                -1,
                -1
            ],
            "type" : "VEC3"
        },
        {
            "bufferView" : 1,
            "componentType" : 5126,
            "count" : 305,
            "type" : "VEC3"
        },
        {
            "bufferView" : 2,
            "componentType" : 5126,
            "count" : 305,
            "type" : "VEC2"
        },
        {
            "bufferView" : 3,
            "componentType" : 5123,
            "count" : 305,
            "normalized" : true,
            "type" : "VEC4"
        },
        {
            "bufferView" : 4,
            "componentType" : 5123,
            "count" : 780,
            "type" : "SCALAR"
        },
        {
            "bufferView" : 5,
            "componentType" : 5126,
            "count" : 35951,
            "max" : [
                6.946208953857422,
                68.6341552734375,
                1
            ],
            "min" : [
                -52.25043487548828,
                -4.541906356811523,
                -39.20499038696289
            ],
            "type" : "VEC3"
        },
        {
            "bufferView" : 6,
            "componentType" : 5126,
            "count" : 35951,
            "type" : "VEC3"
        },
        {
            "bufferView" : 7,
            "componentType" : 5126,
            "count" : 35951,
            "type" : "VEC2"
        },
        {
            "bufferView" : 8,
            "componentType" : 5123,
            "count" : 35951,
            "normalized" : true,
            "type" : "VEC4"
        },
        {
            "bufferView" : 9,
            "componentType" : 5123,
            "count" : 105258,
            "type" : "SCALAR"
        },
        {
            "bufferView" : 10,
            "componentType" : 5126,
            "count" : 96,
            "max" : [
                1,
                1,
                1
            ],
            "min" : [
                -1,
                -1,
                -1
            ],
            "type" : "VEC3"
        },
        {
            "bufferView" : 11,
            "componentType" : 5126,
            "count" : 96,
            "type" : "VEC3"
        },
        {
            "bufferView" : 12,
            "componentType" : 5126,
            "count" : 96,
            "type" : "VEC2"
        },
        {
            "bufferView" : 13,
            "componentType" : 5123,
            "count" : 216,
            "type" : "SCALAR"
        },
        {
            "bufferView" : 14,
            "componentType" : 5126,
            "count" : 96,
            "max" : [
                1,
                1,
                1
            ],
            "min" : [
                -1,
                -1,
                -1
            ],
            "type" : "VEC3"
        },
        {
            "bufferView" : 15,
            "componentType" : 5126,
            "count" : 96,
            "type" : "VEC3"
        },
        {
            "bufferView" : 16,
            "componentType" : 5126,
            "count" : 96,
            "type" : "VEC2"
        },
        {
            "bufferView" : 17,
            "componentType" : 5126,
            "count" : 320,
            "max" : [
                1.423424482345581,
                1.048753023147583,
                1.4234236478805542
            ],
            "min" : [
                -1.4234228134155273,
                -1.0000008344650269,
                -1.4234236478805542
            ],
            "type" : "VEC3"
        },
        {
            "bufferView" : 18,
            "componentType" : 5126,
            "count" : 320,
            "type" : "VEC3"
        },
        {
            "bufferView" : 19,
            "componentType" : 5126,
            "count" : 320,
            "type" : "VEC2"
        },
        {
            "bufferView" : 20,
            "componentType" : 5123,
            "count" : 320,
            "normalized" : true,
            "type" : "VEC4"
        },
        {
            "bufferView" : 21,
            "componentType" : 5123,
            "count" : 558,
            "type" : "SCALAR"
        },
        {
            "bufferView" : 22,
            "componentType" : 5126,
            "count" : 320,
            "max" : [
                1.423424482345581,
                1.048753023147583,
                1.4234236478805542
            ],
            "min" : [
                -1.4234228134155273,
                -1.0000008344650269,
                -1.4234236478805542
            ],
            "type" : "VEC3"
        },
        {
            "bufferView" : 23,
            "componentType" : 5126,
            "count" : 320,
            "type" : "VEC3"
        },
        {
            "bufferView" : 24,
            "componentType" : 5126,
            "count" : 320,
            "type" : "VEC2"
        },
        {
            "bufferView" : 25,
            "componentType" : 5123,
            "count" : 320,
            "normalized" : true,
            "type" : "VEC4"
        },
        {
            "bufferView" : 26,
            "componentType" : 5126,
            "count" : 192,
            "max" : [
                1,
                1,
                1
            ],
            "min" : [
                -1,
                -1,
                -1
            ],
            "type" : "VEC3"
        },
        {
            "bufferView" : 27,
            "componentType" : 5126,
            "count" : 192,
            "type" : "VEC3"
        },
        {
            "bufferView" : 28,
            "componentType" : 5126,
            "count" : 192,
            "type" : "VEC2"
        },
        {
            "bufferView" : 29,
            "componentType" : 5123,
            "count" : 192,
            "normalized" : true,
            "type" : "VEC4"
        },
        {
            "bufferView" : 30,
            "componentType" : 5123,
            "count" : 372,
            "type" : "SCALAR"
        }
    ],
    "bufferViews" : [
        {
            "buffer" : 0,
            "byteLength" : 3660,
            "byteOffset" : 0
        },
        {
            "buffer" : 0,
            "byteLength" : 3660,
            "byteOffset" : 3660
        },
        {
            "buffer" : 0,
            "byteLength" : 2440,
            "byteOffset" : 7320
        },
        {
            "buffer" : 0,
            "byteLength" : 2440,
            "byteOffset" : 9760
        },
        {
            "buffer" : 0,
            "byteLength" : 1560,
            "byteOffset" : 12200
        },
        {
            "buffer" : 0,
            "byteLength" : 431412,
            "byteOffset" : 13760
        },
        {
            "buffer" : 0,
            "byteLength" : 431412,
            "byteOffset" : 445172
        },
        {
            "buffer" : 0,
            "byteLength" : 287608,
            "byteOffset" : 876584
        },
        {
            "buffer" : 0,
            "byteLength" : 287608,
            "byteOffset" : 1164192
        },
        {
            "buffer" : 0,
            "byteLength" : 210516,
            "byteOffset" : 1451800
        },
        {
            "buffer" : 0,
            "byteLength" : 1152,
            "byteOffset" : 1662316
        },
        {
            "buffer" : 0,
            "byteLength" : 1152,
            "byteOffset" : 1663468
        },
        {
            "buffer" : 0,
            "byteLength" : 768,
            "byteOffset" : 1664620
        },
        {
            "buffer" : 0,
            "byteLength" : 432,
            "byteOffset" : 1665388
        },
        {
            "buffer" : 0,
            "byteLength" : 1152,
            "byteOffset" : 1665820
        },
        {
            "buffer" : 0,
            "byteLength" : 1152,
            "byteOffset" : 1666972
        },
        {
            "buffer" : 0,
            "byteLength" : 768,
            "byteOffset" : 1668124
        },
        {
            "buffer" : 0,
            "byteLength" : 3840,
            "byteOffset" : 1668892
        },
        {
            "buffer" : 0,
            "byteLength" : 3840,
            "byteOffset" : 1672732
        },
        {
            "buffer" : 0,
            "byteLength" : 2560,
            "byteOffset" : 1676572
        },
        {
            "buffer" : 0,
            "byteLength" : 2560,
            "byteOffset" : 1679132
        },
        {
            "buffer" : 0,
            "byteLength" : 1116,
            "byteOffset" : 1681692
        },
        {
            "buffer" : 0,
            "byteLength" : 3840,
            "byteOffset" : 1682808
        },
        {
            "buffer" : 0,
            "byteLength" : 3840,
            "byteOffset" : 1686648
        },
        {
            "buffer" : 0,
            "byteLength" : 2560,
            "byteOffset" : 1690488
        },
        {
            "buffer" : 0,
            "byteLength" : 2560,
            "byteOffset" : 1693048
        },
        {
            "buffer" : 0,
            "byteLength" : 2304,
            "byteOffset" : 1695608
        },
        {
            "buffer" : 0,
            "byteLength" : 2304,
            "byteOffset" : 1697912
        },
        {
            "buffer" : 0,
            "byteLength" : 1536,
            "byteOffset" : 1700216
        },
        {
            "buffer" : 0,
            "byteLength" : 1536,
            "byteOffset" : 1701752
        },
        {
            "buffer" : 0,
            "byteLength" : 744,
            "byteOffset" : 1703288
        }
    ],
    "buffers" : [
        {
            "byteLength" : 1704032,
            "uri" : "data:application/octet-stream;base64,"
        }
    ]
}
