{
    "asset" : {
        "generator" : "Khronos glTF Blender I/O v1.6.16",
        "version" : "2.0"
    },
    "scene" : 0,
    "scenes" : [
        {
            "name" : "Scene",
            "nodes" : [
                0
            ]
        }
    ],
    "nodes" : [
        {
            "mesh" : 0,
            "name" : "Layer_1",
            "rotation" : [
                0.06286934018135071,
                0.7970041632652283,
                0.00737549876794219,
                0.600647509098053
            ],
            "scale" : [
                12.925140380859375,
                12.925137519836426,
                12.92513656616211
            ],
            "translation" : [
                -0.028950169682502747,
                0.25831902027130127,
                -0.019097723066806793
            ]
        }
    ],
    "meshes" : [
        {
            "extras" : {
                "targetNames" : [
                    "Squash"
                ]
            },
            "name" : "Layer_1_mesh",
            "primitives" : [
                {
                    "attributes" : {
                        "POSITION" : 0,
                        "NORMAL" : 1,
                        "COLOR_0" : 2
                    },
                    "indices" : 3,
                    "targets" : [
                        {
                            "POSITION" : 4,
                            "NORMAL" : 5
                        }
                    ]
                }
            ],
            "weights" : [
                0
            ]
        }
    ],
    "accessors" : [
        {
            "bufferView" : 0,
            "componentType" : 5126,
            "count" : 2634,
            "max" : [
                0.0417366623878479,
                0.04800352454185486,
                0.04715854302048683
            ],
            "min" : [
                -0.04987673461437225,
                -0.04828044772148132,
                -0.04895683377981186
            ],
            "type" : "VEC3"
        },
        {
            "bufferView" : 1,
            "componentType" : 5126,
            "count" : 2634,
            "type" : "VEC3"
        },
        {
            "bufferView" : 2,
            "componentType" : 5123,
            "count" : 2634,
            "normalized" : true,
            "type" : "VEC4"
        },
        {
            "bufferView" : 3,
            "componentType" : 5123,
            "count" : 15561,
            "type" : "SCALAR"
        },
        {
            "bufferView" : 4,
            "componentType" : 5126,
            "count" : 2634,
            "max" : [
                0.00043356046080589294,
                0.0016868822276592255,
                0.0009203255176544189
            ],
            "min" : [
                -0.006232298910617828,
                -0.012050870805978775,
                -0.0018135476857423782
            ],
            "type" : "VEC3"
        },
        {
            "bufferView" : 5,
            "componentType" : 5126,
            "count" : 2634,
            "type" : "VEC3"
        }
    ],
    "bufferViews" : [
        {
            "buffer" : 0,
            "byteLength" : 31608,
            "byteOffset" : 0
        },
        {
            "buffer" : 0,
            "byteLength" : 31608,
            "byteOffset" : 31608
        },
        {
            "buffer" : 0,
            "byteLength" : 21072,
            "byteOffset" : 63216
        },
        {
            "buffer" : 0,
            "byteLength" : 31122,
            "byteOffset" : 84288
        },
        {
            "buffer" : 0,
            "byteLength" : 31608,
            "byteOffset" : 115412
        },
        {
            "buffer" : 0,
            "byteLength" : 31608,
            "byteOffset" : 147020
        }
    ],
    "buffers" : [
        {
            "byteLength" : 178628,
            "uri" : "data:application/octet-stream;base64,"
        }
    ]
}
