{
    "asset" : {
        "generator" : "Khronos glTF Blender I/O v1.6.16",
        "version" : "2.0"
    },
    "scene" : 0,
    "scenes" : [
        {
            "name" : "Scene",
            "nodes" : [
                0,
                1
            ]
        }
    ],
    "nodes" : [
        {
            "mesh" : 0,
            "name" : "Door1",
            "scale" : [
                0.05000000074505806,
                1.2000000476837158,
                1
            ],
            "translation" : [
                1.5,
                1,
                0
            ]
        },
        {
            "mesh" : 1,
            "name" : "Door2",
            "rotation" : [
                0,
                1,
                0,
                -1.6292068494294654e-07
            ],
            "scale" : [
                0.05000000074505806,
                1.2000000476837158,
                1
            ],
            "translation" : [
                -1.5,
                1,
                0
            ]
        }
    ],
    "materials" : [
        {
            "doubleSided" : true,
            "name" : "Material.002",
            "pbrMetallicRoughness" : {
                "baseColorFactor" : [
                    0.5,
                    0.5,
                    0.5,
                    1
                ],
                "metallicFactor" : 0.4000000059604645,
                "roughnessFactor" : 0.20000000298023224
            }
        }
    ],
    "meshes" : [
        {
            "name" : "Door1",
            "primitives" : [
                {
                    "attributes" : {
                        "POSITION" : 0,
                        "NORMAL" : 1,
                        "TEXCOORD_0" : 2,
                        "COLOR_0" : 3
                    },
                    "indices" : 4,
                    "material" : 0
                }
            ]
        },
        {
            "name" : "Door2",
            "primitives" : [
                {
                    "attributes" : {
                        "POSITION" : 5,
                        "NORMAL" : 6,
                        "TEXCOORD_0" : 7,
                        "COLOR_0" : 8
                    },
                    "indices" : 4,
                    "material" : 0
                }
            ]
        }
    ],
    "accessors" : [
        {
            "bufferView" : 0,
            "componentType" : 5126,
            "count" : 1561,
            "max" : [
                1,
                1,
                1
            ],
            "min" : [
                -1,
                -1,
                -1
            ],
            "type" : "VEC3"
        },
        {
            "bufferView" : 1,
            "componentType" : 5126,
            "count" : 1561,
            "type" : "VEC3"
        },
        {
            "bufferView" : 2,
            "componentType" : 5126,
            "count" : 1561,
            "type" : "VEC2"
        },
        {
            "bufferView" : 3,
            "componentType" : 5123,
            "count" : 1561,
            "normalized" : true,
            "type" : "VEC4"
        },
        {
            "bufferView" : 4,
            "componentType" : 5123,
            "count" : 3948,
            "type" : "SCALAR"
        },
        {
            "bufferView" : 5,
            "componentType" : 5126,
            "count" : 1561,
            "max" : [
                1,
                1,
                1
            ],
            "min" : [
                -1,
                -1,
                -1
            ],
            "type" : "VEC3"
        },
        {
            "bufferView" : 6,
            "componentType" : 5126,
            "count" : 1561,
            "type" : "VEC3"
        },
        {
            "bufferView" : 7,
            "componentType" : 5126,
            "count" : 1561,
            "type" : "VEC2"
        },
        {
            "bufferView" : 8,
            "componentType" : 5123,
            "count" : 1561,
            "normalized" : true,
            "type" : "VEC4"
        }
    ],
    "bufferViews" : [
        {
            "buffer" : 0,
            "byteLength" : 18732,
            "byteOffset" : 0
        },
        {
            "buffer" : 0,
            "byteLength" : 18732,
            "byteOffset" : 18732
        },
        {
            "buffer" : 0,
            "byteLength" : 12488,
            "byteOffset" : 37464
        },
        {
            "buffer" : 0,
            "byteLength" : 12488,
            "byteOffset" : 49952
        },
        {
            "buffer" : 0,
            "byteLength" : 7896,
            "byteOffset" : 62440
        },
        {
            "buffer" : 0,
            "byteLength" : 18732,
            "byteOffset" : 70336
        },
        {
            "buffer" : 0,
            "byteLength" : 18732,
            "byteOffset" : 89068
        },
        {
            "buffer" : 0,
            "byteLength" : 12488,
            "byteOffset" : 107800
        },
        {
            "buffer" : 0,
            "byteLength" : 12488,
            "byteOffset" : 120288
        }
    ],
    "buffers" : [
        {
            "byteLength" : 132776,
            "uri" : "data:application/octet-stream;base64,"
        }
    ]
}
