{
    "asset" : {
        "generator" : "Khronos glTF Blender I/O v1.6.16",
        "version" : "2.0"
    },
    "scene" : 0,
    "scenes" : [
        {
            "name" : "Scene",
            "nodes" : [
                0,
                1
            ]
        }
    ],
    "nodes" : [
        {
            "mesh" : 0,
            "name" : "Body",
            "rotation" : [
                0,
                0.7071068286895752,
                0,
                0.7071068286895752
            ],
            "scale" : [
                0.0258188359439373,
                0.5815341472625732,
                0.022277791053056717
            ],
            "translation" : [
                -5.73709774017334,
                7.241710186004639,
                -0.6518545150756836
            ]
        },
        {
            "mesh" : 1,
            "name" : "Wheels",
            "rotation" : [
                0.7071068286895752,
                0,
                0,
                0.7071068286895752
            ],
            "scale" : [
                0.45679792761802673,
                0.0847402811050415,
                0.45679792761802673
            ],
            "translation" : [
                1.3368382453918457,
                0.4967927932739258,
                -1.581661581993103
            ]
        }
    ],
    "materials" : [
        {
            "doubleSided" : true,
            "name" : "Material",
            "pbrMetallicRoughness" : {
                "baseColorFactor" : [
                    0.5,
                    0.5,
                    0.5,
                    1
                ],
                "metallicFactor" : 0.30000001192092896,
                "roughnessFactor" : 0.20000000298023224
            }
        },
        {
            "doubleSided" : true,
            "name" : "Material.001",
            "pbrMetallicRoughness" : {
                "baseColorFactor" : [
                    0.5,
                    0.5,
                    0.5,
                    1
                ],
                "metallicFactor" : 0,
                "roughnessFactor" : 0.5
            }
        }
    ],
    "meshes" : [
        {
            "name" : "Body",
            "primitives" : [
                {
                    "attributes" : {
                        "POSITION" : 0,
                        "NORMAL" : 1,
                        "TEXCOORD_0" : 2,
                        "COLOR_0" : 3
                    },
                    "indices" : 4,
                    "material" : 0
                }
            ]
        },
        {
            "name" : "Wheels",
            "primitives" : [
                {
                    "attributes" : {
                        "POSITION" : 5,
                        "NORMAL" : 6,
                        "TEXCOORD_0" : 7,
                        "COLOR_0" : 8
                    },
                    "indices" : 9,
                    "material" : 1
                }
            ]
        }
    ],
    "accessors" : [
        {
            "bufferView" : 0,
            "componentType" : 5126,
            "count" : 46866,
            "max" : [
                7.911510467529297,
                0.6336535811424255,
                365.39898681640625
            ],
            "min" : [
                -58.25010681152344,
                -11.72491455078125,
                -2.786611557006836
            ],
            "type" : "VEC3"
        },
        {
            "bufferView" : 1,
            "componentType" : 5126,
            "count" : 46866,
            "type" : "VEC3"
        },
        {
            "bufferView" : 2,
            "componentType" : 5126,
            "count" : 46866,
            "type" : "VEC2"
        },
        {
            "bufferView" : 3,
            "componentType" : 5123,
            "count" : 46866,
            "normalized" : true,
            "type" : "VEC4"
        },
        {
            "bufferView" : 4,
            "componentType" : 5123,
            "count" : 72336,
            "type" : "SCALAR"
        },
        {
            "bufferView" : 5,
            "componentType" : 5126,
            "count" : 11970,
            "max" : [
                1.1924662590026855,
                28.592914581298828,
                1.192465901374817
            ],
            "min" : [
                -6.9933247566223145,
                8.606465339660645,
                -1.1924668550491333
            ],
            "type" : "VEC3"
        },
        {
            "bufferView" : 6,
            "componentType" : 5126,
            "count" : 11970,
            "type" : "VEC3"
        },
        {
            "bufferView" : 7,
            "componentType" : 5126,
            "count" : 11970,
            "type" : "VEC2"
        },
        {
            "bufferView" : 8,
            "componentType" : 5123,
            "count" : 11970,
            "normalized" : true,
            "type" : "VEC4"
        },
        {
            "bufferView" : 9,
            "componentType" : 5123,
            "count" : 21072,
            "type" : "SCALAR"
        }
    ],
    "bufferViews" : [
        {
            "buffer" : 0,
            "byteLength" : 562392,
            "byteOffset" : 0
        },
        {
            "buffer" : 0,
            "byteLength" : 562392,
            "byteOffset" : 562392
        },
        {
            "buffer" : 0,
            "byteLength" : 374928,
            "byteOffset" : 1124784
        },
        {
            "buffer" : 0,
            "byteLength" : 374928,
            "byteOffset" : 1499712
        },
        {
            "buffer" : 0,
            "byteLength" : 144672,
            "byteOffset" : 1874640
        },
        {
            "buffer" : 0,
            "byteLength" : 143640,
            "byteOffset" : 2019312
        },
        {
            "buffer" : 0,
            "byteLength" : 143640,
            "byteOffset" : 2162952
        },
        {
            "buffer" : 0,
            "byteLength" : 95760,
            "byteOffset" : 2306592
        },
        {
            "buffer" : 0,
            "byteLength" : 95760,
            "byteOffset" : 2402352
        },
        {
            "buffer" : 0,
            "byteLength" : 42144,
            "byteOffset" : 2498112
        }
    ],
    "buffers" : [
        {
            "byteLength" : 2540256,
            "uri" : "data:application/octet-stream;base64,"
        }
    ]
}
