{
    "asset" : {
        "generator" : "Khronos glTF Blender I/O v1.6.16",
        "version" : "2.0"
    },
    "scene" : 0,
    "scenes" : [
        {
            "name" : "Scene",
            "nodes" : [
                0
            ]
        }
    ],
    "nodes" : [
        {
            "mesh" : 0,
            "name" : "SmashedWindow",
            "scale" : [
                0.5968157052993774,
                0.5968157052993774,
                0.5968157052993774
            ]
        }
    ],
    "materials" : [
        {
            "doubleSided" : true,
            "name" : "Material.001",
            "pbrMetallicRoughness" : {
                "baseColorFactor" : [
                    0.5,
                    0.5,
                    0.5,
                    1
                ],
                "metallicFactor" : 0.30000001192092896,
                "roughnessFactor" : 0.30000001192092896
            }
        }
    ],
    "meshes" : [
        {
            "name" : "SmashedWindow",
            "primitives" : [
                {
                    "attributes" : {
                        "POSITION" : 0,
                        "NORMAL" : 1,
                        "TEXCOORD_0" : 2,
                        "COLOR_0" : 3
                    },
                    "indices" : 4,
                    "material" : 0
                }
            ]
        }
    ],
    "accessors" : [
        {
            "bufferView" : 0,
            "componentType" : 5126,
            "count" : 2755,
            "max" : [
                1.4288206100463867,
                1.2086853981018066,
                0.3893733322620392
            ],
            "min" : [
                -1.4672404527664185,
                -1.101199746131897,
                -0.3893726170063019
            ],
            "type" : "VEC3"
        },
        {
            "bufferView" : 1,
            "componentType" : 5126,
            "count" : 2755,
            "type" : "VEC3"
        },
        {
            "bufferView" : 2,
            "componentType" : 5126,
            "count" : 2755,
            "type" : "VEC2"
        },
        {
            "bufferView" : 3,
            "componentType" : 5123,
            "count" : 2755,
            "normalized" : true,
            "type" : "VEC4"
        },
        {
            "bufferView" : 4,
            "componentType" : 5123,
            "count" : 4818,
            "type" : "SCALAR"
        }
    ],
    "bufferViews" : [
        {
            "buffer" : 0,
            "byteLength" : 33060,
            "byteOffset" : 0
        },
        {
            "buffer" : 0,
            "byteLength" : 33060,
            "byteOffset" : 33060
        },
        {
            "buffer" : 0,
            "byteLength" : 22040,
            "byteOffset" : 66120
        },
        {
            "buffer" : 0,
            "byteLength" : 22040,
            "byteOffset" : 88160
        },
        {
            "buffer" : 0,
            "byteLength" : 9636,
            "byteOffset" : 110200
        }
    ],
    "buffers" : [
        {
            "byteLength" : 119836,
            "uri" : "data:application/octet-stream;base64,"
        }
    ]
}
