{
    "asset" : {
        "generator" : "Khronos glTF Blender I/O v1.6.16",
        "version" : "2.0"
    },
    "scene" : 0,
    "scenes" : [
        {
            "name" : "Scene",
            "nodes" : [
                0
            ]
        }
    ],
    "nodes" : [
        {
            "mesh" : 0,
            "name" : "Window",
            "scale" : [
                0.5968157052993774,
                0.5968157052993774,
                0.5968157052993774
            ]
        }
    ],
    "materials" : [
        {
            "doubleSided" : true,
            "name" : "Material.001",
            "pbrMetallicRoughness" : {
                "baseColorFactor" : [
                    0.5,
                    0.5,
                    0.5,
                    1
                ],
                "metallicFactor" : 0.30000001192092896,
                "roughnessFactor" : 0.30000001192092896
            }
        }
    ],
    "meshes" : [
        {
            "name" : "Window",
            "primitives" : [
                {
                    "attributes" : {
                        "POSITION" : 0,
                        "NORMAL" : 1,
                        "TEXCOORD_0" : 2,
                        "COLOR_0" : 3
                    },
                    "indices" : 4,
                    "material" : 0
                }
            ]
        }
    ],
    "accessors" : [
        {
            "bufferView" : 0,
            "componentType" : 5126,
            "count" : 2415,
            "max" : [
                1.3400938510894775,
                0.9999990463256836,
                0.3893733024597168
            ],
            "min" : [
                -1.3400938510894775,
                -1.0000009536743164,
                -0.3893725872039795
            ],
            "type" : "VEC3"
        },
        {
            "bufferView" : 1,
            "componentType" : 5126,
            "count" : 2415,
            "type" : "VEC3"
        },
        {
            "bufferView" : 2,
            "componentType" : 5126,
            "count" : 2415,
            "type" : "VEC2"
        },
        {
            "bufferView" : 3,
            "componentType" : 5123,
            "count" : 2415,
            "normalized" : true,
            "type" : "VEC4"
        },
        {
            "bufferView" : 4,
            "componentType" : 5123,
            "count" : 6576,
            "type" : "SCALAR"
        }
    ],
    "bufferViews" : [
        {
            "buffer" : 0,
            "byteLength" : 28980,
            "byteOffset" : 0
        },
        {
            "buffer" : 0,
            "byteLength" : 28980,
            "byteOffset" : 28980
        },
        {
            "buffer" : 0,
            "byteLength" : 19320,
            "byteOffset" : 57960
        },
        {
            "buffer" : 0,
            "byteLength" : 19320,
            "byteOffset" : 77280
        },
        {
            "buffer" : 0,
            "byteLength" : 13152,
            "byteOffset" : 96600
        }
    ],
    "buffers" : [
        {
            "byteLength" : 109752,
            "uri" : "data:application/octet-stream;base64,"
        }
    ]
}
