{
    "asset" : {
        "generator" : "Khronos glTF Blender I/O v1.6.16",
        "version" : "2.0"
    },
    "extensionsUsed" : [
        "KHR_materials_transmission"
    ],
    "scene" : 0,
    "scenes" : [
        {
            "name" : "Scene",
            "nodes" : [
                0,
                1
            ]
        }
    ],
    "nodes" : [
        {
            "mesh" : 0,
            "name" : "Box",
            "rotation" : [
                0.7071068286895752,
                0,
                0,
                0.7071068286895752
            ],
            "scale" : [
                0.020402325317263603,
                0.020402325317263603,
                0.020402325317263603
            ],
            "translation" : [
                0.1775585263967514,
                2.8821732997894287,
                0.7544707655906677
            ]
        },
        {
            "mesh" : 1,
            "name" : "Glass",
            "rotation" : [
                0.7071068286895752,
                0,
                0,
                0.7071068286895752
            ],
            "scale" : [
                1.33292818069458,
                1.4203749895095825,
                1.4203749895095825
            ],
            "translation" : [
                0,
                3.407809257507324,
                0.691163957118988
            ]
        }
    ],
    "materials" : [
        {
            "doubleSided" : true,
            "name" : "Paper",
            "pbrMetallicRoughness" : {
                "baseColorFactor" : [
                    0.800000011920929,
                    0.800000011920929,
                    0.800000011920929,
                    1
                ],
                "metallicFactor" : 0,
                "roughnessFactor" : 0.6000000238418579
            }
        },
        {
            "doubleSided" : true,
            "name" : "Wood",
            "pbrMetallicRoughness" : {
                "baseColorFactor" : [
                    0.800000011920929,
                    0.800000011920929,
                    0.800000011920929,
                    1
                ],
                "metallicFactor" : 0,
                "roughnessFactor" : 0.800000011920929
            }
        },
        {
            "doubleSided" : true,
            "name" : "Tubes",
            "pbrMetallicRoughness" : {
                "baseColorFactor" : [
                    0.800000011920929,
                    0.800000011920929,
                    0.800000011920929,
                    1
                ],
                "metallicFactor" : 0.20000000298023224,
                "roughnessFactor" : 0.10000000149011612
            }
        },
        {
            "doubleSided" : true,
            "name" : "Metal",
            "pbrMetallicRoughness" : {
                "baseColorFactor" : [
                    0.800000011920929,
                    0.800000011920929,
                    0.800000011920929,
                    1
                ],
                "metallicFactor" : 0.5,
                "roughnessFactor" : 0.20000000298023224
            }
        },
        {
            "doubleSided" : true,
            "name" : "Plastic",
            "pbrMetallicRoughness" : {
                "baseColorFactor" : [
                    0.800000011920929,
                    0.800000011920929,
                    0.800000011920929,
                    1
                ],
                "metallicFactor" : 0,
                "roughnessFactor" : 0.5
            }
        },
        {
            "doubleSided" : true,
            "name" : "Records",
            "pbrMetallicRoughness" : {
                "baseColorFactor" : [
                    0.800000011920929,
                    0.800000011920929,
                    0.800000011920929,
                    1
                ],
                "metallicFactor" : 0,
                "roughnessFactor" : 0.30000001192092896
            }
        },
        {
            "doubleSided" : true,
            "name" : "Cloth",
            "pbrMetallicRoughness" : {
                "baseColorFactor" : [
                    0.800000011920929,
                    0.800000011920929,
                    0.800000011920929,
                    1
                ],
                "metallicFactor" : 0,
                "roughnessFactor" : 0.800000011920929
            }
        },
        {
            "doubleSided" : true,
            "extensions" : {
                "KHR_materials_transmission" : {
                    "transmissionFactor" : 0.9990000128746033
                }
            },
            "name" : "Glass",
            "pbrMetallicRoughness" : {
                "baseColorFactor" : [
                    0.800000011920929,
                    0.800000011920929,
                    0.800000011920929,
                    1
                ],
                "metallicFactor" : 0.10000000149011612,
                "roughnessFactor" : 0
            }
        }
    ],
    "meshes" : [
        {
            "name" : "Box",
            "primitives" : [
                {
                    "attributes" : {
                        "POSITION" : 0,
                        "NORMAL" : 1,
                        "TEXCOORD_0" : 2,
                        "COLOR_0" : 3
                    },
                    "indices" : 4,
                    "material" : 0
                },
                {
                    "attributes" : {
                        "POSITION" : 5,
                        "NORMAL" : 6,
                        "TEXCOORD_0" : 7,
                        "COLOR_0" : 8
                    },
                    "indices" : 9,
                    "material" : 1
                },
                {
                    "attributes" : {
                        "POSITION" : 10,
                        "NORMAL" : 11,
                        "TEXCOORD_0" : 12,
                        "COLOR_0" : 13
                    },
                    "indices" : 14,
                    "material" : 2
                },
                {
                    "attributes" : {
                        "POSITION" : 15,
                        "NORMAL" : 16,
                        "TEXCOORD_0" : 17,
                        "COLOR_0" : 18
                    },
                    "indices" : 19,
                    "material" : 3
                },
                {
                    "attributes" : {
                        "POSITION" : 20,
                        "NORMAL" : 21,
                        "TEXCOORD_0" : 22,
                        "COLOR_0" : 23
                    },
                    "indices" : 24,
                    "material" : 4
                },
                {
                    "attributes" : {
                        "POSITION" : 25,
                        "NORMAL" : 26,
                        "TEXCOORD_0" : 27,
                        "COLOR_0" : 28
                    },
                    "indices" : 29,
                    "material" : 5
                },
                {
                    "attributes" : {
                        "POSITION" : 30,
                        "NORMAL" : 31,
                        "TEXCOORD_0" : 32,
                        "COLOR_0" : 33
                    },
                    "indices" : 34,
                    "material" : 6
                }
            ]
        },
        {
            "name" : "Glass",
            "primitives" : [
                {
                    "attributes" : {
                        "POSITION" : 35,
                        "NORMAL" : 36,
                        "TEXCOORD_0" : 37,
                        "COLOR_0" : 38
                    },
                    "indices" : 39,
                    "material" : 7
                }
            ]
        }
    ],
    "accessors" : [
        {
            "bufferView" : 0,
            "componentType" : 5126,
            "count" : 26987,
            "max" : [
                22.065170288085938,
                0.05000000447034836,
                17.911645889282227
            ],
            "min" : [
                -39.48591232299805,
                -0.05000000447034836,
                -0.7761767506599426
            ],
            "type" : "VEC3"
        },
        {
            "bufferView" : 1,
            "componentType" : 5126,
            "count" : 26987,
            "type" : "VEC3"
        },
        {
            "bufferView" : 2,
            "componentType" : 5126,
            "count" : 26987,
            "type" : "VEC2"
        },
        {
            "bufferView" : 3,
            "componentType" : 5123,
            "count" : 26987,
            "normalized" : true,
            "type" : "VEC4"
        },
        {
            "bufferView" : 4,
            "componentType" : 5123,
            "count" : 39750,
            "type" : "SCALAR"
        },
        {
            "bufferView" : 5,
            "componentType" : 5126,
            "count" : 179,
            "max" : [
                58.79642868041992,
                -2.225811004638672,
                129.4947509765625
            ],
            "min" : [
                -76.6030502319336,
                -71.10362243652344,
                -80.21893310546875
            ],
            "type" : "VEC3"
        },
        {
            "bufferView" : 6,
            "componentType" : 5126,
            "count" : 179,
            "type" : "VEC3"
        },
        {
            "bufferView" : 7,
            "componentType" : 5126,
            "count" : 179,
            "type" : "VEC2"
        },
        {
            "bufferView" : 8,
            "componentType" : 5123,
            "count" : 179,
            "normalized" : true,
            "type" : "VEC4"
        },
        {
            "bufferView" : 9,
            "componentType" : 5123,
            "count" : 294,
            "type" : "SCALAR"
        },
        {
            "bufferView" : 10,
            "componentType" : 5126,
            "count" : 5504,
            "max" : [
                59.683650970458984,
                2.4652581214904785,
                122.68273162841797
            ],
            "min" : [
                -77.7242202758789,
                -28.73145294189453,
                -83.8641357421875
            ],
            "type" : "VEC3"
        },
        {
            "bufferView" : 11,
            "componentType" : 5126,
            "count" : 5504,
            "type" : "VEC3"
        },
        {
            "bufferView" : 12,
            "componentType" : 5126,
            "count" : 5504,
            "type" : "VEC2"
        },
        {
            "bufferView" : 13,
            "componentType" : 5123,
            "count" : 5504,
            "normalized" : true,
            "type" : "VEC4"
        },
        {
            "bufferView" : 14,
            "componentType" : 5123,
            "count" : 6324,
            "type" : "SCALAR"
        },
        {
            "bufferView" : 15,
            "componentType" : 5126,
            "count" : 12826,
            "max" : [
                64.72276306152344,
                6.410210609436035,
                128.52703857421875
            ],
            "min" : [
                -82.68280029296875,
                -45.918190002441406,
                -38.4012451171875
            ],
            "type" : "VEC3"
        },
        {
            "bufferView" : 16,
            "componentType" : 5126,
            "count" : 12826,
            "type" : "VEC3"
        },
        {
            "bufferView" : 17,
            "componentType" : 5126,
            "count" : 12826,
            "type" : "VEC2"
        },
        {
            "bufferView" : 18,
            "componentType" : 5123,
            "count" : 12826,
            "normalized" : true,
            "type" : "VEC4"
        },
        {
            "bufferView" : 19,
            "componentType" : 5123,
            "count" : 16254,
            "type" : "SCALAR"
        },
        {
            "bufferView" : 20,
            "componentType" : 5126,
            "count" : 1682,
            "max" : [
                58.079437255859375,
                1.6692376136779785,
                141.4888916015625
            ],
            "min" : [
                -75.60619354248047,
                -69.99158477783203,
                -1.3675755262374878
            ],
            "type" : "VEC3"
        },
        {
            "bufferView" : 21,
            "componentType" : 5126,
            "count" : 1682,
            "type" : "VEC3"
        },
        {
            "bufferView" : 22,
            "componentType" : 5126,
            "count" : 1682,
            "type" : "VEC2"
        },
        {
            "bufferView" : 23,
            "componentType" : 5123,
            "count" : 1682,
            "normalized" : true,
            "type" : "VEC4"
        },
        {
            "bufferView" : 24,
            "componentType" : 5123,
            "count" : 2232,
            "type" : "SCALAR"
        },
        {
            "bufferView" : 25,
            "componentType" : 5126,
            "count" : 3566,
            "max" : [
                -5.466620922088623,
                -4.690185546875,
                -10.566732406616211
            ],
            "min" : [
                -57.1465950012207,
                -43.15021896362305,
                -29.304061889648438
            ],
            "type" : "VEC3"
        },
        {
            "bufferView" : 26,
            "componentType" : 5126,
            "count" : 3566,
            "type" : "VEC3"
        },
        {
            "bufferView" : 27,
            "componentType" : 5126,
            "count" : 3566,
            "type" : "VEC2"
        },
        {
            "bufferView" : 28,
            "componentType" : 5123,
            "count" : 3566,
            "normalized" : true,
            "type" : "VEC4"
        },
        {
            "bufferView" : 29,
            "componentType" : 5123,
            "count" : 5946,
            "type" : "SCALAR"
        },
        {
            "bufferView" : 30,
            "componentType" : 5126,
            "count" : 120,
            "max" : [
                53.37841796875,
                -60.82512283325195,
                -6.926059722900391
            ],
            "min" : [
                -70.21817779541016,
                -64.48297882080078,
                -68.5941162109375
            ],
            "type" : "VEC3"
        },
        {
            "bufferView" : 31,
            "componentType" : 5126,
            "count" : 120,
            "type" : "VEC3"
        },
        {
            "bufferView" : 32,
            "componentType" : 5126,
            "count" : 120,
            "type" : "VEC2"
        },
        {
            "bufferView" : 33,
            "componentType" : 5123,
            "count" : 120,
            "normalized" : true,
            "type" : "VEC4"
        },
        {
            "bufferView" : 34,
            "componentType" : 5123,
            "count" : 210,
            "type" : "SCALAR"
        },
        {
            "bufferView" : 35,
            "componentType" : 5126,
            "count" : 32,
            "max" : [
                1,
                1.7881393432617188e-07,
                0.6639507412910461
            ],
            "min" : [
                -1,
                -1.7881393432617188e-07,
                -0.6298083066940308
            ],
            "type" : "VEC3"
        },
        {
            "bufferView" : 36,
            "componentType" : 5126,
            "count" : 32,
            "type" : "VEC3"
        },
        {
            "bufferView" : 37,
            "componentType" : 5126,
            "count" : 32,
            "type" : "VEC2"
        },
        {
            "bufferView" : 38,
            "componentType" : 5123,
            "count" : 32,
            "normalized" : true,
            "type" : "VEC4"
        },
        {
            "bufferView" : 39,
            "componentType" : 5123,
            "count" : 90,
            "type" : "SCALAR"
        }
    ],
    "bufferViews" : [
        {
            "buffer" : 0,
            "byteLength" : 323844,
            "byteOffset" : 0
        },
        {
            "buffer" : 0,
            "byteLength" : 323844,
            "byteOffset" : 323844
        },
        {
            "buffer" : 0,
            "byteLength" : 215896,
            "byteOffset" : 647688
        },
        {
            "buffer" : 0,
            "byteLength" : 215896,
            "byteOffset" : 863584
        },
        {
            "buffer" : 0,
            "byteLength" : 79500,
            "byteOffset" : 1079480
        },
        {
            "buffer" : 0,
            "byteLength" : 2148,
            "byteOffset" : 1158980
        },
        {
            "buffer" : 0,
            "byteLength" : 2148,
            "byteOffset" : 1161128
        },
        {
            "buffer" : 0,
            "byteLength" : 1432,
            "byteOffset" : 1163276
        },
        {
            "buffer" : 0,
            "byteLength" : 1432,
            "byteOffset" : 1164708
        },
        {
            "buffer" : 0,
            "byteLength" : 588,
            "byteOffset" : 1166140
        },
        {
            "buffer" : 0,
            "byteLength" : 66048,
            "byteOffset" : 1166728
        },
        {
            "buffer" : 0,
            "byteLength" : 66048,
            "byteOffset" : 1232776
        },
        {
            "buffer" : 0,
            "byteLength" : 44032,
            "byteOffset" : 1298824
        },
        {
            "buffer" : 0,
            "byteLength" : 44032,
            "byteOffset" : 1342856
        },
        {
            "buffer" : 0,
            "byteLength" : 12648,
            "byteOffset" : 1386888
        },
        {
            "buffer" : 0,
            "byteLength" : 153912,
            "byteOffset" : 1399536
        },
        {
            "buffer" : 0,
            "byteLength" : 153912,
            "byteOffset" : 1553448
        },
        {
            "buffer" : 0,
            "byteLength" : 102608,
            "byteOffset" : 1707360
        },
        {
            "buffer" : 0,
            "byteLength" : 102608,
            "byteOffset" : 1809968
        },
        {
            "buffer" : 0,
            "byteLength" : 32508,
            "byteOffset" : 1912576
        },
        {
            "buffer" : 0,
            "byteLength" : 20184,
            "byteOffset" : 1945084
        },
        {
            "buffer" : 0,
            "byteLength" : 20184,
            "byteOffset" : 1965268
        },
        {
            "buffer" : 0,
            "byteLength" : 13456,
            "byteOffset" : 1985452
        },
        {
            "buffer" : 0,
            "byteLength" : 13456,
            "byteOffset" : 1998908
        },
        {
            "buffer" : 0,
            "byteLength" : 4464,
            "byteOffset" : 2012364
        },
        {
            "buffer" : 0,
            "byteLength" : 42792,
            "byteOffset" : 2016828
        },
        {
            "buffer" : 0,
            "byteLength" : 42792,
            "byteOffset" : 2059620
        },
        {
            "buffer" : 0,
            "byteLength" : 28528,
            "byteOffset" : 2102412
        },
        {
            "buffer" : 0,
            "byteLength" : 28528,
            "byteOffset" : 2130940
        },
        {
            "buffer" : 0,
            "byteLength" : 11892,
            "byteOffset" : 2159468
        },
        {
            "buffer" : 0,
            "byteLength" : 1440,
            "byteOffset" : 2171360
        },
        {
            "buffer" : 0,
            "byteLength" : 1440,
            "byteOffset" : 2172800
        },
        {
            "buffer" : 0,
            "byteLength" : 960,
            "byteOffset" : 2174240
        },
        {
            "buffer" : 0,
            "byteLength" : 960,
            "byteOffset" : 2175200
        },
        {
            "buffer" : 0,
            "byteLength" : 420,
            "byteOffset" : 2176160
        },
        {
            "buffer" : 0,
            "byteLength" : 384,
            "byteOffset" : 2176580
        },
        {
            "buffer" : 0,
            "byteLength" : 384,
            "byteOffset" : 2176964
        },
        {
            "buffer" : 0,
            "byteLength" : 256,
            "byteOffset" : 2177348
        },
        {
            "buffer" : 0,
            "byteLength" : 256,
            "byteOffset" : 2177604
        },
        {
            "buffer" : 0,
            "byteLength" : 180,
            "byteOffset" : 2177860
        }
    ],
    "buffers" : [
        {
            "byteLength" : 2178040,
            "uri" : "data:application/octet-stream;base64,"
        }
    ]
}
