{
    "asset" : {
        "generator" : "Khronos glTF Blender I/O v1.6.16",
        "version" : "2.0"
    },
    "scene" : 0,
    "scenes" : [
        {
            "name" : "Scene",
            "nodes" : [
                0
            ]
        }
    ],
    "nodes" : [
        {
            "mesh" : 0,
            "name" : "Bloodsplat",
            "rotation" : [
                -0.021033449098467827,
                -0.00075677310815081,
                0.035948045551776886,
                0.999131977558136
            ],
            "scale" : [
                12.5,
                12.5,
                12.5
            ],
            "translation" : [
                -0.45576274394989014,
                -0.3987923860549927,
                -0.12913279235363007
            ]
        }
    ],
    "materials" : [
        {
            "doubleSided" : true,
            "name" : "Bloodsplat",
            "pbrMetallicRoughness" : {
                "baseColorFactor" : [
                    0.800000011920929,
                    0.800000011920929,
                    0.800000011920929,
                    1
                ],
                "metallicFactor" : 0.30000001192092896,
                "roughnessFactor" : 0.10000000149011612
            }
        }
    ],
    "meshes" : [
        {
            "name" : "Bloodsplat",
            "primitives" : [
                {
                    "attributes" : {
                        "POSITION" : 0,
                        "NORMAL" : 1,
                        "COLOR_0" : 2
                    },
                    "indices" : 3,
                    "material" : 0
                }
            ]
        }
    ],
    "accessors" : [
        {
            "bufferView" : 0,
            "componentType" : 5126,
            "count" : 9145,
            "max" : [
                0.08478505164384842,
                0.06350865215063095,
                0.052164383232593536
            ],
            "min" : [
                -7.846093649277464e-05,
                -0.006410478614270687,
                -0.0258284080773592
            ],
            "type" : "VEC3"
        },
        {
            "bufferView" : 1,
            "componentType" : 5126,
            "count" : 9145,
            "type" : "VEC3"
        },
        {
            "bufferView" : 2,
            "componentType" : 5123,
            "count" : 9145,
            "normalized" : true,
            "type" : "VEC4"
        },
        {
            "bufferView" : 3,
            "componentType" : 5123,
            "count" : 54858,
            "type" : "SCALAR"
        }
    ],
    "bufferViews" : [
        {
            "buffer" : 0,
            "byteLength" : 109740,
            "byteOffset" : 0
        },
        {
            "buffer" : 0,
            "byteLength" : 109740,
            "byteOffset" : 109740
        },
        {
            "buffer" : 0,
            "byteLength" : 73160,
            "byteOffset" : 219480
        },
        {
            "buffer" : 0,
            "byteLength" : 109716,
            "byteOffset" : 292640
        }
    ],
    "buffers" : [
        {
            "byteLength" : 402356,
            "uri" : "data:application/octet-stream;base64,"
        }
    ]
}
