{
    "asset" : {
        "generator" : "Khronos glTF Blender I/O v1.6.16",
        "version" : "2.0"
    },
    "scene" : 0,
    "scenes" : [
        {
            "name" : "Scene",
            "nodes" : [
                0,
                1,
                2,
                3
            ]
        }
    ],
    "nodes" : [
        {
            "mesh" : 0,
            "name" : "Cylinder.001",
            "rotation" : [
                -1,
                0,
                0,
                1.9470718370939721e-07
            ],
            "scale" : [
                0.0482897125184536,
                0.10093680024147034,
                0.0482897125184536
            ],
            "translation" : [
                -0.1237516924738884,
                0.09983135759830475,
                0.05935867130756378
            ]
        },
        {
            "mesh" : 1,
            "name" : "Cylinder.002",
            "scale" : [
                0.01587574928998947,
                0.01587574928998947,
                0.01587574928998947
            ],
            "translation" : [
                0.1276245415210724,
                0.19763119518756866,
                -0.0032132696360349655
            ]
        },
        {
            "mesh" : 2,
            "name" : "Cylinder.003",
            "scale" : [
                0.008788872510194778,
                0.0018549520755186677,
                0.008788872510194778
            ],
            "translation" : [
                -0.1438148021697998,
                0.201018288731575,
                0.041518013924360275
            ]
        },
        {
            "mesh" : 3,
            "name" : "Cylinder.004",
            "scale" : [
                0.008788872510194778,
                0.0018549520755186677,
                0.008788872510194778
            ],
            "translation" : [
                -0.10411856323480606,
                0.201018288731575,
                0.041518013924360275
            ]
        }
    ],
    "materials" : [
        {
            "doubleSided" : true,
            "name" : "Material.001",
            "pbrMetallicRoughness" : {
                "baseColorFactor" : [
                    0.800000011920929,
                    0.800000011920929,
                    0.800000011920929,
                    1
                ],
                "metallicFactor" : 0,
                "roughnessFactor" : 0.4000000059604645
            }
        }
    ],
    "meshes" : [
        {
            "name" : "Cylinder.001",
            "primitives" : [
                {
                    "attributes" : {
                        "POSITION" : 0,
                        "NORMAL" : 1,
                        "TEXCOORD_0" : 2,
                        "COLOR_0" : 3
                    },
                    "indices" : 4,
                    "material" : 0
                }
            ]
        },
        {
            "name" : "Cylinder.002",
            "primitives" : [
                {
                    "attributes" : {
                        "POSITION" : 5,
                        "NORMAL" : 6,
                        "TEXCOORD_0" : 7,
                        "COLOR_0" : 8
                    },
                    "indices" : 9
                }
            ]
        },
        {
            "name" : "Cylinder.003",
            "primitives" : [
                {
                    "attributes" : {
                        "POSITION" : 10,
                        "NORMAL" : 11,
                        "TEXCOORD_0" : 12,
                        "COLOR_0" : 13
                    },
                    "indices" : 14
                }
            ]
        },
        {
            "name" : "Cylinder.005",
            "primitives" : [
                {
                    "attributes" : {
                        "POSITION" : 15,
                        "NORMAL" : 16,
                        "TEXCOORD_0" : 17,
                        "COLOR_0" : 18
                    },
                    "indices" : 14
                }
            ]
        }
    ],
    "accessors" : [
        {
            "bufferView" : 0,
            "componentType" : 5126,
            "count" : 11025,
            "max" : [
                6.306146144866943,
                1.003441572189331,
                2.5933003425598145
            ],
            "min" : [
                -0.9967975616455078,
                -1.0890535116195679,
                -3.87758207321167
            ],
            "type" : "VEC3"
        },
        {
            "bufferView" : 1,
            "componentType" : 5126,
            "count" : 11025,
            "type" : "VEC3"
        },
        {
            "bufferView" : 2,
            "componentType" : 5126,
            "count" : 11025,
            "type" : "VEC2"
        },
        {
            "bufferView" : 3,
            "componentType" : 5123,
            "count" : 11025,
            "normalized" : true,
            "type" : "VEC4"
        },
        {
            "bufferView" : 4,
            "componentType" : 5123,
            "count" : 35820,
            "type" : "SCALAR"
        },
        {
            "bufferView" : 5,
            "componentType" : 5126,
            "count" : 192,
            "max" : [
                1,
                1,
                1
            ],
            "min" : [
                -1,
                -1,
                -1
            ],
            "type" : "VEC3"
        },
        {
            "bufferView" : 6,
            "componentType" : 5126,
            "count" : 192,
            "type" : "VEC3"
        },
        {
            "bufferView" : 7,
            "componentType" : 5126,
            "count" : 192,
            "type" : "VEC2"
        },
        {
            "bufferView" : 8,
            "componentType" : 5123,
            "count" : 192,
            "normalized" : true,
            "type" : "VEC4"
        },
        {
            "bufferView" : 9,
            "componentType" : 5123,
            "count" : 372,
            "type" : "SCALAR"
        },
        {
            "bufferView" : 10,
            "componentType" : 5126,
            "count" : 384,
            "max" : [
                0.9999980926513672,
                0.9999999403953552,
                1
            ],
            "min" : [
                -1.0000019073486328,
                -0.9999999403953552,
                -1
            ],
            "type" : "VEC3"
        },
        {
            "bufferView" : 11,
            "componentType" : 5126,
            "count" : 384,
            "type" : "VEC3"
        },
        {
            "bufferView" : 12,
            "componentType" : 5126,
            "count" : 384,
            "type" : "VEC2"
        },
        {
            "bufferView" : 13,
            "componentType" : 5123,
            "count" : 384,
            "normalized" : true,
            "type" : "VEC4"
        },
        {
            "bufferView" : 14,
            "componentType" : 5123,
            "count" : 768,
            "type" : "SCALAR"
        },
        {
            "bufferView" : 15,
            "componentType" : 5126,
            "count" : 384,
            "max" : [
                0.9999980926513672,
                0.9999999403953552,
                1
            ],
            "min" : [
                -1.0000019073486328,
                -0.9999999403953552,
                -1
            ],
            "type" : "VEC3"
        },
        {
            "bufferView" : 16,
            "componentType" : 5126,
            "count" : 384,
            "type" : "VEC3"
        },
        {
            "bufferView" : 17,
            "componentType" : 5126,
            "count" : 384,
            "type" : "VEC2"
        },
        {
            "bufferView" : 18,
            "componentType" : 5123,
            "count" : 384,
            "normalized" : true,
            "type" : "VEC4"
        }
    ],
    "bufferViews" : [
        {
            "buffer" : 0,
            "byteLength" : 132300,
            "byteOffset" : 0
        },
        {
            "buffer" : 0,
            "byteLength" : 132300,
            "byteOffset" : 132300
        },
        {
            "buffer" : 0,
            "byteLength" : 88200,
            "byteOffset" : 264600
        },
        {
            "buffer" : 0,
            "byteLength" : 88200,
            "byteOffset" : 352800
        },
        {
            "buffer" : 0,
            "byteLength" : 71640,
            "byteOffset" : 441000
        },
        {
            "buffer" : 0,
            "byteLength" : 2304,
            "byteOffset" : 512640
        },
        {
            "buffer" : 0,
            "byteLength" : 2304,
            "byteOffset" : 514944
        },
        {
            "buffer" : 0,
            "byteLength" : 1536,
            "byteOffset" : 517248
        },
        {
            "buffer" : 0,
            "byteLength" : 1536,
            "byteOffset" : 518784
        },
        {
            "buffer" : 0,
            "byteLength" : 744,
            "byteOffset" : 520320
        },
        {
            "buffer" : 0,
            "byteLength" : 4608,
            "byteOffset" : 521064
        },
        {
            "buffer" : 0,
            "byteLength" : 4608,
            "byteOffset" : 525672
        },
        {
            "buffer" : 0,
            "byteLength" : 3072,
            "byteOffset" : 530280
        },
        {
            "buffer" : 0,
            "byteLength" : 3072,
            "byteOffset" : 533352
        },
        {
            "buffer" : 0,
            "byteLength" : 1536,
            "byteOffset" : 536424
        },
        {
            "buffer" : 0,
            "byteLength" : 4608,
            "byteOffset" : 537960
        },
        {
            "buffer" : 0,
            "byteLength" : 4608,
            "byteOffset" : 542568
        },
        {
            "buffer" : 0,
            "byteLength" : 3072,
            "byteOffset" : 547176
        },
        {
            "buffer" : 0,
            "byteLength" : 3072,
            "byteOffset" : 550248
        }
    ],
    "buffers" : [
        {
            "byteLength" : 553320,
            "uri" : "data:application/octet-stream;base64,"
        }
    ]
}
