{
    "asset" : {
        "generator" : "Khronos glTF Blender I/O v1.6.16",
        "version" : "2.0"
    },
    "scene" : 0,
    "scenes" : [
        {
            "name" : "Scene",
            "nodes" : [
                0
            ]
        }
    ],
    "nodes" : [
        {
            "mesh" : 0,
            "name" : "Cylinder.004",
            "rotation" : [
                0.7071068286895752,
                0,
                0,
                0.7071067094802856
            ],
            "scale" : [
                0.0810353010892868,
                0.013833289965987206,
                0.0810353010892868
            ],
            "translation" : [
                0.005696296691894531,
                0.12343591451644897,
                -0.23050391674041748
            ]
        }
    ],
    "meshes" : [
        {
            "name" : "Cylinder.004",
            "primitives" : [
                {
                    "attributes" : {
                        "POSITION" : 0,
                        "NORMAL" : 1,
                        "TEXCOORD_0" : 2,
                        "COLOR_0" : 3
                    },
                    "indices" : 4
                }
            ]
        }
    ],
    "accessors" : [
        {
            "bufferView" : 0,
            "componentType" : 5126,
            "count" : 3376,
            "max" : [
                5.151405334472656,
                45.84862518310547,
                1.583992838859558
            ],
            "min" : [
                -5.173212051391602,
                -11.314178466796875,
                -1.5839933156967163
            ],
            "type" : "VEC3"
        },
        {
            "bufferView" : 1,
            "componentType" : 5126,
            "count" : 3376,
            "type" : "VEC3"
        },
        {
            "bufferView" : 2,
            "componentType" : 5126,
            "count" : 3376,
            "type" : "VEC2"
        },
        {
            "bufferView" : 3,
            "componentType" : 5123,
            "count" : 3376,
            "normalized" : true,
            "type" : "VEC4"
        },
        {
            "bufferView" : 4,
            "componentType" : 5123,
            "count" : 6156,
            "type" : "SCALAR"
        }
    ],
    "bufferViews" : [
        {
            "buffer" : 0,
            "byteLength" : 40512,
            "byteOffset" : 0
        },
        {
            "buffer" : 0,
            "byteLength" : 40512,
            "byteOffset" : 40512
        },
        {
            "buffer" : 0,
            "byteLength" : 27008,
            "byteOffset" : 81024
        },
        {
            "buffer" : 0,
            "byteLength" : 27008,
            "byteOffset" : 108032
        },
        {
            "buffer" : 0,
            "byteLength" : 12312,
            "byteOffset" : 135040
        }
    ],
    "buffers" : [
        {
            "byteLength" : 147352,
            "uri" : "data:application/octet-stream;base64,"
        }
    ]
}
