{
    "asset" : {
        "generator" : "Khronos glTF Blender I/O v1.6.16",
        "version" : "2.0"
    },
    "scene" : 0,
    "scenes" : [
        {
            "name" : "Scene",
            "nodes" : [
                0
            ]
        }
    ],
    "nodes" : [
        {
            "mesh" : 0,
            "name" : "Telephone",
            "rotation" : [
                0,
                -1,
                0,
                1.9470718370939721e-07
            ],
            "scale" : [
                0.43418946862220764,
                0.1375732570886612,
                0.43418946862220764
            ],
            "translation" : [
                -0.0002762880176305771,
                1.4140833616256714,
                0.489776611328125
            ]
        }
    ],
    "meshes" : [
        {
            "name" : "Telephone",
            "primitives" : [
                {
                    "attributes" : {
                        "POSITION" : 0,
                        "NORMAL" : 1,
                        "TEXCOORD_0" : 2,
                        "COLOR_0" : 3
                    },
                    "indices" : 4
                }
            ]
        }
    ],
    "accessors" : [
        {
            "bufferView" : 0,
            "componentType" : 5126,
            "count" : 25349,
            "max" : [
                2.4811596870422363,
                2.2840452194213867,
                1.759842038154602
            ],
            "min" : [
                -2.4848599433898926,
                -10.278861045837402,
                -0.8071938753128052
            ],
            "type" : "VEC3"
        },
        {
            "bufferView" : 1,
            "componentType" : 5126,
            "count" : 25349,
            "type" : "VEC3"
        },
        {
            "bufferView" : 2,
            "componentType" : 5126,
            "count" : 25349,
            "type" : "VEC2"
        },
        {
            "bufferView" : 3,
            "componentType" : 5123,
            "count" : 25349,
            "normalized" : true,
            "type" : "VEC4"
        },
        {
            "bufferView" : 4,
            "componentType" : 5123,
            "count" : 112125,
            "type" : "SCALAR"
        }
    ],
    "bufferViews" : [
        {
            "buffer" : 0,
            "byteLength" : 304188,
            "byteOffset" : 0
        },
        {
            "buffer" : 0,
            "byteLength" : 304188,
            "byteOffset" : 304188
        },
        {
            "buffer" : 0,
            "byteLength" : 202792,
            "byteOffset" : 608376
        },
        {
            "buffer" : 0,
            "byteLength" : 202792,
            "byteOffset" : 811168
        },
        {
            "buffer" : 0,
            "byteLength" : 224250,
            "byteOffset" : 1013960
        }
    ],
    "buffers" : [
        {
            "byteLength" : 1238212,
            "uri" : "data:application/octet-stream;base64,"
        }
    ]
}
